<svg xmlns="http://www.w3.org/2000/svg" xmlns:xlink="http://www.w3.org/1999/xlink"  width="320"
     height="100">
    <g transform="translate(-100 -110)">
        <path d="M248 140c17.67 0 32 8.95 32 20s-14.33 20-32 20h-96c-17.67 0-32-8.95-32-20s14.33-20 32-20z"
              stroke="#000000" fill-opacity="0"/>
        <use xlink:href="#a" transform="matrix(1,0,0,1,125,145) translate(50.31364197530864 19.65277777777778)"/>
        <path d="M384 140c8.84 0 16 8.95 16 20s-7.16 20-16 20h-48c-8.84 0-16-8.95-16-20s7.16-20 16-20z" stroke="#000000"
              fill-opacity="0"/>
        <use xlink:href="#b" transform="matrix(1,0,0,1,325,145) translate(22.654320987654323 19.65277777777778)"/>
        <path d="M249 136a6 6 0 0 1 6-6h88a6 6 0 0 1 6 6v48a6 6 0 0 1-6 6h-88a6 6 0 0 1-6-6z" stroke="#000"
              stroke-opacity="0" fill="#fff" fill-opacity="0"/>
        <use xlink:href="#c" transform="matrix(1,0,0,1,254,135) translate(38.51851851851852 30.27777777777778)"/>
        <defs>
            <path fill="#000000"
                  d="M54-142c48-35 137-8 131 61C196 18 31 33 14-55l32-4c7 23 22 37 52 37 35-1 51-22 54-58 4-55-73-65-99-34H22l8-134h141v27H59"
                  id="d"/>
            <path fill="#000000" d="M64 0c3-98 48-159 88-221H18v-27h164v26C143-157 98-101 97 0H64" id="e"/>
            <path fill="#000000"
                  d="M110-160c48 1 74 30 74 79 0 53-28 85-80 85-65 0-83-55-86-122-5-90 50-162 133-122 14 7 22 21 27 39l-31 6c-5-40-67-38-82-6-9 19-15 44-15 74 11-20 30-34 60-33zm-7 138c34 0 49-23 49-58s-16-56-50-56c-29 0-50 16-49 49 1 36 15 65 50 65"
                  id="f"/>
            <g id="a">
                <use transform="matrix(0.06172839506172839,0,0,0.06172839506172839,0,0)" xlink:href="#d"/>
                <use transform="matrix(0.06172839506172839,0,0,0.06172839506172839,12.345679012345679,0)"
                     xlink:href="#e"/>
                <use transform="matrix(0.06172839506172839,0,0,0.06172839506172839,24.691358024691358,0)"
                     xlink:href="#e"/>
                <use transform="matrix(0.06172839506172839,0,0,0.06172839506172839,37.03703703703704,0)"
                     xlink:href="#f"/>
            </g>
            <path fill="#000000"
                  d="M101-251c82-7 93 87 43 132L82-64C71-53 59-42 53-27h129V0H18c2-99 128-94 128-182 0-28-16-43-45-43s-46 15-49 41l-32-3c6-41 34-60 81-64"
                  id="g"/>
            <path fill="#000000"
                  d="M155-56V0h-30v-56H8v-25l114-167h33v167h35v25h-35zm-30-156c-27 46-58 90-88 131h88v-131" id="h"/>
            <g id="b">
                <use transform="matrix(0.06172839506172839,0,0,0.06172839506172839,0,0)" xlink:href="#g"/>
                <use transform="matrix(0.06172839506172839,0,0,0.06172839506172839,12.345679012345679,0)"
                     xlink:href="#h"/>
            </g>
            <path fill="#000000" d="M125-100v72H85v-72H15v-39h70v-72h40v72h71v39h-71" id="i"/>
            <use transform="matrix(0.06172839506172839,0,0,0.06172839506172839,0,0)" xlink:href="#i" id="c"/>
        </defs>
    </g>
</svg>