<svg xmlns="http://www.w3.org/2000/svg" xmlns:xlink="http://www.w3.org/1999/xlink" width="446"
     height="304">
    <g transform="translate(-54 4)">
        <path d="M448 120c17.67 0 32 8.95 32 20s-14.33 20-32 20h-96c-17.67 0-32-8.95-32-20s14.33-20 32-20z"
              stroke="#000" fill-opacity="0"/>
        <use xlink:href="#a" transform="matrix(1,0,0,1,325,125) translate(50.31364197530864 19.65277777777778)"/>
        <path d="M258 120c6.63 0 12 8.95 12 20s-5.37 20-12 20h-36c-6.63 0-12-8.95-12-20s5.37-20 12-20z" stroke="#000"
              fill-opacity="0"/>
        <use xlink:href="#b" transform="matrix(1,0,0,1,215,125) translate(12.654320987654327 19.65277777777777)"/>
        <path d="M174 116a6 6 0 0 1 6-6h27a6 6 0 0 1 6 6v48a6 6 0 0 1-6 6h-27a6 6 0 0 1-6-6z" stroke="#000"
              stroke-opacity="0" fill="#fff" fill-opacity="0"/>
        <use xlink:href="#c" transform="matrix(1,0,0,1,179,115) translate(8.01851851851852 30.27777777777777)"/>
        <path d="M163.2 120c8.73 0 15.8 8.95 15.8 20s-7.07 20-15.8 20h-47.4c-8.73 0-15.8-8.95-15.8-20s7.07-20 15.8-20z"
              stroke="#000" fill-opacity="0"/>
        <use xlink:href="#d"
             transform="matrix(1,0,0,1,105.00000000000001,125) translate(9.808641975308653 19.65277777777777)"/>
        <path d="M277 116a6 6 0 0 1 6-6h27a6 6 0 0 1 6 6v48a6 6 0 0 1-6 6h-27a6 6 0 0 1-6-6z" stroke="#000"
              stroke-opacity="0" fill="#fff" fill-opacity="0"/>
        <use xlink:href="#e" transform="matrix(1,0,0,1,282,115) translate(8.01851851851852 30.27777777777777)"/>
        <path d="M260.65 104.05l7.18-20.38" stroke="#000" fill="none"/>
        <path d="M255.74 117.97l.37-15 8.75 3.1z" stroke="#000"/>
        <path d="M267.83 83.68l.17-.48M137.18 83.86l-4.1-23.37" stroke="#000" fill="none"/>
        <path d="M139.72 98.4l-7.02-13.25 9.13-1.6z" stroke="#000"/>
        <path d="M133.1 60.5l-.1-.5M195.7 167.3l2.77 41.13" stroke="#000" fill="none"/>
        <path d="M194.7 152.56l5.6 13.93-9.26.6z" stroke="#000"/>
        <path d="M198.47 208.4l.03.53M299.37 179.18l.63 60.32" stroke="#000" fill="none"/>
        <path d="M299.22 164.42l4.78 14.22-9.27.1z" stroke="#000"/>
        <path d="M300 239.5v.5M400.65 196.37l1.28 32.12" stroke="#000" fill="none"/>
        <path d="M400.06 181.62l5.2 14.07-9.26.36z" stroke="#000"/>
        <path d="M401.93 228.47l.02.52" stroke="#000" fill="none"/>
        <path d="M74 22a6 6 0 0 1 6-6h88a6 6 0 0 1 6 6v48a6 6 0 0 1-6 6H80a6 6 0 0 1-6-6z" stroke="#000"
              stroke-opacity="0" fill="#fff" fill-opacity="0"/>
        <use xlink:href="#f" transform="matrix(1,0,0,1,79,21) translate(22.97530864197531 29.84722222222222)"/>
        <path d="M350 226a6 6 0 0 1 6-6h88a6 6 0 0 1 6 6v48a6 6 0 0 1-6 6h-88a6 6 0 0 1-6-6z" stroke="#000"
              stroke-opacity="0" fill="#fff" fill-opacity="0"/>
        <use xlink:href="#f" transform="matrix(1,0,0,1,355,225) translate(22.97530864197531 29.84722222222222)"/>
        <path d="M235.5 40a6 6 0 0 1 6-6h88a6 6 0 0 1 6 6v48a6 6 0 0 1-6 6h-88a6 6 0 0 1-6-6z" stroke="#000"
              stroke-opacity="0" fill="#fff" fill-opacity="0"/>
        <use xlink:href="#f" transform="matrix(1,0,0,1,240.5,39) translate(22.97530864197531 29.84722222222222)"/>
        <path d="M143.5 206a6 6 0 0 1 6-6h88a6 6 0 0 1 6 6v48a6 6 0 0 1-6 6h-88a6 6 0 0 1-6-6z" stroke="#000"
              stroke-opacity="0" fill="#fff" fill-opacity="0"/>
        <use xlink:href="#g" transform="matrix(1,0,0,1,148.5,205) translate(6.037037037037038 29.84722222222222)"/>
        <path d="M250 226a6 6 0 0 1 6-6h88a6 6 0 0 1 6 6v48a6 6 0 0 1-6 6h-88a6 6 0 0 1-6-6z" stroke="#000"
              stroke-opacity="0" fill="#fff" fill-opacity="0"/>
        <use xlink:href="#h"
             transform="matrix(1,0,0,1,255,225.00000000000003) translate(22.333333333333336 29.84722222222222)"/>
        <defs>
            <path fill="#000000"
                  d="M139-81c0-46-55-55-73-27H18l9-140h149v37H72l-4 63c44-38 133-4 122 66C201 21 21 35 11-62l49-4c5 18 15 30 39 30 26 0 40-18 40-45"
                  id="i"/>
            <path fill="#000000"
                  d="M138-131c27 9 52 24 51 61 0 53-36 74-89 74S11-19 11-69c0-35 22-54 51-61-78-25-46-121 38-121 51 0 83 19 83 66 0 30-18 49-45 54zm-38-16c24 0 32-13 32-36 1-23-11-34-32-34-22 0-33 12-32 34 0 22 9 36 32 36zm1 116c27 0 37-17 37-43 0-25-13-39-39-39-24 0-37 15-37 40 0 27 11 42 39 42"
                  id="j"/>
            <path fill="#000000"
                  d="M101-251c68 0 84 54 84 127C185-50 166 4 99 4S15-52 14-124c-1-75 17-127 87-127zm-1 216c37-5 36-46 36-89s4-89-36-89c-39 0-36 45-36 89 0 43-3 85 36 89"
                  id="k"/>
            <g id="a">
                <use transform="matrix(0.06172839506172839,0,0,0.06172839506172839,0,0)" xlink:href="#i"/>
                <use transform="matrix(0.06172839506172839,0,0,0.06172839506172839,12.345679012345679,0)"
                     xlink:href="#j"/>
                <use transform="matrix(0.06172839506172839,0,0,0.06172839506172839,24.691358024691358,0)"
                     xlink:href="#k"/>
                <use transform="matrix(0.06172839506172839,0,0,0.06172839506172839,37.03703703703704,0)"
                     xlink:href="#k"/>
            </g>
            <path fill="#000000"
                  d="M101-251c82-7 93 87 43 132L82-64C71-53 59-42 53-27h129V0H18c2-99 128-94 128-182 0-28-16-43-45-43s-46 15-49 41l-32-3c6-41 34-60 81-64"
                  id="l"/>
            <path fill="#000000"
                  d="M155-56V0h-30v-56H8v-25l114-167h33v167h35v25h-35zm-30-156c-27 46-58 90-88 131h88v-131" id="m"/>
            <g id="b">
                <use transform="matrix(0.06172839506172837,0,0,0.06172839506172837,0,0)" xlink:href="#l"/>
                <use transform="matrix(0.06172839506172837,0,0,0.06172839506172837,12.345679012345673,0)"
                     xlink:href="#m"/>
            </g>
            <path fill="#000000" d="M118-107v75H92v-75H18v-26h74v-75h26v75h74v26h-74" id="n"/>
            <use transform="matrix(0.06172839506172837,0,0,0.06172839506172837,0,0)" xlink:href="#n" id="c"/>
            <path fill="#000000"
                  d="M54-142c48-35 137-8 131 61C196 18 31 33 14-55l32-4c7 23 22 37 52 37 35-1 51-22 54-58 4-55-73-65-99-34H22l8-134h141v27H59"
                  id="o"/>
            <path fill="#000000" d="M64 0c3-98 48-159 88-221H18v-27h164v26C143-157 98-101 97 0H64" id="p"/>
            <path fill="#000000"
                  d="M110-160c48 1 74 30 74 79 0 53-28 85-80 85-65 0-83-55-86-122-5-90 50-162 133-122 14 7 22 21 27 39l-31 6c-5-40-67-38-82-6-9 19-15 44-15 74 11-20 30-34 60-33zm-7 138c34 0 49-23 49-58s-16-56-50-56c-29 0-50 16-49 49 1 36 15 65 50 65"
                  id="q"/>
            <g id="d">
                <use transform="matrix(0.06172839506172837,0,0,0.06172839506172837,0,0)" xlink:href="#o"/>
                <use transform="matrix(0.06172839506172837,0,0,0.06172839506172837,12.345679012345673,0)"
                     xlink:href="#p"/>
                <use transform="matrix(0.06172839506172837,0,0,0.06172839506172837,24.691358024691347,0)"
                     xlink:href="#p"/>
                <use transform="matrix(0.06172839506172837,0,0,0.06172839506172837,37.037037037037024,0)"
                     xlink:href="#q"/>
            </g>
            <path fill="#000000" d="M18-150v-26h174v26H18zm0 90v-26h174v26H18" id="r"/>
            <use transform="matrix(0.06172839506172837,0,0,0.06172839506172837,0,0)" xlink:href="#r" id="e"/>
            <path fill="#000000" d="M137 0h-34L2-248h35l83 218 83-218h36" id="s"/>
            <path fill="#000000"
                  d="M141-36C126-15 110 5 73 4 37 3 15-17 15-53c-1-64 63-63 125-63 3-35-9-54-41-54-24 1-41 7-42 31l-33-3c5-37 33-52 76-52 45 0 72 20 72 64v82c-1 20 7 32 28 27v20c-31 9-61-2-59-35zM48-53c0 20 12 33 32 33 41-3 63-29 60-74-43 2-92-5-92 41"
                  id="t"/>
            <path fill="#000000" d="M24 0v-261h32V0H24" id="u"/>
            <path fill="#000000"
                  d="M84 4C-5 8 30-112 23-190h32v120c0 31 7 50 39 49 72-2 45-101 50-169h31l1 190h-30c-1-10 1-25-2-33-11 22-28 36-60 37"
                  id="v"/>
            <path fill="#000000"
                  d="M100-194c63 0 86 42 84 106H49c0 40 14 67 53 68 26 1 43-12 49-29l28 8c-11 28-37 45-77 45C44 4 14-33 15-96c1-61 26-98 85-98zm52 81c6-60-76-77-97-28-3 7-6 17-6 28h103"
                  id="w"/>
            <g id="f">
                <use transform="matrix(0.049382716049382706,0,0,0.049382716049382706,0,0)" xlink:href="#s"/>
                <use transform="matrix(0.049382716049382706,0,0,0.049382716049382706,10.518518518518515,0)"
                     xlink:href="#t"/>
                <use transform="matrix(0.049382716049382706,0,0,0.049382716049382706,20.395061728395056,0)"
                     xlink:href="#u"/>
                <use transform="matrix(0.049382716049382706,0,0,0.049382716049382706,24.29629629629629,0)"
                     xlink:href="#v"/>
                <use transform="matrix(0.049382716049382706,0,0,0.049382716049382706,34.172839506172835,0)"
                     xlink:href="#w"/>
            </g>
            <path fill="#000000"
                  d="M140-251c81 0 123 46 123 126C263-46 219 4 140 4 59 4 17-45 17-125s42-126 123-126zm0 227c63 0 89-41 89-101s-29-99-89-99c-61 0-89 39-89 99S79-25 140-24"
                  id="x"/>
            <path fill="#000000"
                  d="M115-194c55 1 70 41 70 98S169 2 115 4C84 4 66-9 55-30l1 105H24l-1-265h31l2 30c10-21 28-34 59-34zm-8 174c40 0 45-34 45-75s-6-73-45-74c-42 0-51 32-51 76 0 43 10 73 51 73"
                  id="y"/>
            <path fill="#000000" d="M114-163C36-179 61-72 57 0H25l-1-190h30c1 12-1 29 2 39 6-27 23-49 58-41v29" id="z"/>
            <path fill="#000000" d="M59-47c-2 24 18 29 38 22v24C64 9 27 4 27-40v-127H5v-23h24l9-43h21v43h35v23H59v120"
                  id="A"/>
            <path fill="#000000" d="M24-231v-30h32v30H24zM24 0v-190h32V0H24" id="B"/>
            <path fill="#000000"
                  d="M100-194c62-1 85 37 85 99 1 63-27 99-86 99S16-35 15-95c0-66 28-99 85-99zM99-20c44 1 53-31 53-75 0-43-8-75-51-75s-53 32-53 75 10 74 51 75"
                  id="C"/>
            <path fill="#000000"
                  d="M117-194c89-4 53 116 60 194h-32v-121c0-31-8-49-39-48C34-167 62-67 57 0H25l-1-190h30c1 10-1 24 2 32 11-22 29-35 61-36"
                  id="D"/>
            <g id="g">
                <use transform="matrix(0.049382716049382706,0,0,0.049382716049382706,0,0)" xlink:href="#x"/>
                <use transform="matrix(0.049382716049382706,0,0,0.049382716049382706,13.827160493827158,0)"
                     xlink:href="#y"/>
                <use transform="matrix(0.049382716049382706,0,0,0.049382716049382706,23.7037037037037,0)"
                     xlink:href="#w"/>
                <use transform="matrix(0.049382716049382706,0,0,0.049382716049382706,33.58024691358024,0)"
                     xlink:href="#z"/>
                <use transform="matrix(0.049382716049382706,0,0,0.049382716049382706,39.456790123456784,0)"
                     xlink:href="#t"/>
                <use transform="matrix(0.049382716049382706,0,0,0.049382716049382706,49.33333333333333,0)"
                     xlink:href="#A"/>
                <use transform="matrix(0.049382716049382706,0,0,0.049382716049382706,54.27160493827161,0)"
                     xlink:href="#B"/>
                <use transform="matrix(0.049382716049382706,0,0,0.049382716049382706,58.17283950617284,0)"
                     xlink:href="#C"/>
                <use transform="matrix(0.049382716049382706,0,0,0.049382716049382706,68.04938271604938,0)"
                     xlink:href="#D"/>
            </g>
            <path fill="#000000" d="M179-190L93 31C79 59 56 82 12 73V49c39 6 53-20 64-50L1-190h34L92-34l54-156h33"
                  id="E"/>
            <path fill="#000000"
                  d="M85-194c31 0 48 13 60 33l-1-100h32l1 261h-30c-2-10 0-23-3-31C134-8 116 4 85 4 32 4 16-35 15-94c0-66 23-100 70-100zm9 24c-40 0-46 34-46 75 0 40 6 74 45 74 42 0 51-32 51-76 0-42-9-74-50-73"
                  id="F"/>
            <path fill="#000000"
                  d="M135-143c-3-34-86-38-87 0 15 53 115 12 119 90S17 21 10-45l28-5c4 36 97 45 98 0-10-56-113-15-118-90-4-57 82-63 122-42 12 7 21 19 24 35"
                  id="G"/>
            <g id="h">
                <use transform="matrix(0.049382716049382706,0,0,0.049382716049382706,0,0)" xlink:href="#E"/>
                <use transform="matrix(0.049382716049382706,0,0,0.049382716049382706,8.888888888888888,0)"
                     xlink:href="#B"/>
                <use transform="matrix(0.049382716049382706,0,0,0.049382716049382706,12.790123456790122,0)"
                     xlink:href="#w"/>
                <use transform="matrix(0.049382716049382706,0,0,0.049382716049382706,22.666666666666664,0)"
                     xlink:href="#u"/>
                <use transform="matrix(0.049382716049382706,0,0,0.049382716049382706,26.567901234567895,0)"
                     xlink:href="#F"/>
                <use transform="matrix(0.049382716049382706,0,0,0.049382716049382706,36.44444444444444,0)"
                     xlink:href="#G"/>
            </g>
        </defs>
    </g>
</svg>