<svg xmlns="http://www.w3.org/2000/svg" xmlns:xlink="http://www.w3.org/1999/xlink" width="700"
     height="593">
    <g transform="translate(20 160)">
        <path d="M660 220c0 106.6-147.75 193-330 193S0 326.6 0 220 147.75 27 330 27s330 86.4 330 193z"
              fill-opacity="0"/>
        <path d="M658.27 239.8l-.8 4.26-1.15 4.84-1.36 4.9-1.6 4.93-.12.3m-3.66 9.25l-.2.5-2.43 5.13-2.73 5.24-3.07 5.32-.88 1.38m-5.5 8.28l-.92 1.3-4.3 5.66-4.78 5.78-2.48 2.75m-6.84 7.24l-1.94 1.98-6.58 6.18-6.14 5.3m-7.76 6.22l-1.48 1.18-8.95 6.5-5.77 3.84m-8.4 5.32l-6.6 4-10.7 5.86m-8.87 4.48l-5.55 2.75-12.5 5.57m-9.23 3.74l-8.15 3.22-10.5 3.66m-9.45 3.14l-14.9 4.5-4.2 1.07m-9.64 2.48l-5.37 1.38-14.04 3m-9.76 1.9l-17.93 3.04-1.7.2m-9.87 1.26l-10.72 1.35-9.06.76m-9.92.84l-4.07.34-15.8.67m-9.95.35l-9.95.1-9.95-.2m-9.94-.22l-4.04-.08-15.82-1m-9.92-.72l-19.8-2.07m-9.84-1.43l-12.54-1.84-7.1-1.36m-9.77-1.86l-4-.75-15.4-3.62m-9.63-2.5l-13.4-3.73-5.7-1.84m-9.46-3.08l-2.27-.73-16.17-6.02-.23-.1m-9.18-3.85l-5.53-2.32-12.58-5.92m-8.85-4.56l-4.85-2.53-11.43-6.6-1.04-.65m-8.4-5.33l-.95-.6-9.4-6.54-5.83-4.43m-7.76-6.23l-2.6-2.15-6.92-6.23-5.15-5.05m-6.85-7.2l-4.9-5.7-4.55-5.72-2.98-4.1m-5.52-8.3l-2.46-4.05-2.9-5.27-2.57-5.17-1.37-3.06m-3.65-9.25l-.97-2.77-1.47-4.9-1.25-4.88-1.03-4.83-.3-1.84m-1.3-9.87l-.22-2.7-.2-4.82L0 220l.1-4.82.3-4.8.04-.32m1.3-9.86l.8-4.26 1.14-4.84 1.36-4.9 1.6-4.92.12-.3m3.66-9.26l.2-.5 2.43-5.13 2.73-5.24 3.07-5.32.88-1.38m5.5-8.28l.92-1.3 4.3-5.66 4.78-5.78 2.48-2.75m6.84-7.24l1.94-1.98 6.58-6.18 6.14-5.3m7.76-6.22l1.48-1.18 8.95-6.5 5.77-3.83m8.4-5.33l6.6-4 10.7-5.86m8.87-4.48l5.55-2.75 12.5-5.57m9.23-3.74l8.15-3.22 10.5-3.66m9.45-3.14l14.9-4.5 4.2-1.07m9.64-2.48l5.37-1.38 14.04-3m9.76-1.9l17.93-3.04 1.7-.2m9.87-1.26l10.72-1.35 9.06-.76m9.92-.84l4.07-.35 15.8-.65m9.95-.35L330 27l9.95.2m9.94.2l4.04.1 15.82 1m9.92.72l19.8 2.08m9.84 1.43l12.54 1.85 7.1 1.35m9.77 1.86l4 .76 15.4 3.6m9.63 2.5l13.4 3.74 5.7 1.84m9.46 3.08l2.27.73 16.17 6.02.23.1m9.18 3.85l5.53 2.32 12.58 5.92m8.85 4.56l4.85 2.53 11.43 6.6 1.05.65m8.4 5.33l.94.6 9.4 6.54 5.83 4.43m7.76 6.22l2.6 2.16 6.92 6.23 5.15 5.05m6.85 7.2l4.9 5.7 4.55 5.72 2.98 4.1m5.52 8.3l2.46 4.05 2.9 5.27 2.57 5.17 1.37 3.06m3.65 9.25l.97 2.77 1.47 4.9 1.25 4.88 1.03 4.83.3 1.84m1.3 9.87l.22 2.7.2 4.82.03 2.4-.1 4.82-.3 4.8-.04.32"
              stroke="#000" fill="none"/>
        <path d="M81 26a6 6 0 0 1 6-6h148a6 6 0 0 1 6 6v108a6 6 0 0 1-6 6H87a6 6 0 0 1-6-6z" stroke="#000" fill="#fff"/>
        <use xlink:href="#a"
             transform="matrix(1,0,0,1,92.99990067560876,32) translate(40.31481481481482 53.77777777777778)"/>
        <path d="M420 106a6 6 0 0 1 6-6h148a6 6 0 0 1 6 6v69.75a6 6 0 0 1-6 6H426a6 6 0 0 1-6-6z" stroke="#000"
              fill-opacity="0"/>
        <use xlink:href="#b" transform="matrix(1,0,0,1,432,112) translate(31.641975308641975 32.27777777777778)"/>
        <path d="M360 266a6 6 0 0 1 6-6h148a6 6 0 0 1 6 6v56a6 6 0 0 1-6 6H366a6 6 0 0 1-6-6z" stroke="#000"
              fill-opacity="0"/>
        <use xlink:href="#c" transform="matrix(1,0,0,1,372,272) translate(11.858024691358025 26.02777777777778)"/>
        <path d="M81 266a6 6 0 0 1 6-6h148a6 6 0 0 1 6 6v56a6 6 0 0 1-6 6H87a6 6 0 0 1-6-6z" stroke="#000"
              fill-opacity="0"/>
        <use xlink:href="#d"
             transform="matrix(1,0,0,1,92.99990067560876,272) translate(42.69135802469136 26.02777777777778)"/>
        <path d="M161 258.6v-87.73M150.82 241.3L161 258.52l10.18-17.22" stroke="#000" fill="none"/>
        <path d="M161 141.2l14.85 14.86L161 171.2l-14.85-15.14z" stroke="#000"/>
        <path d="M358.6 294H300V157H160.5" stroke="#000" fill="none"/>
        <path d="M341.3 304.18L358.52 294l-17.22-10.18M160.5 157h-.5" stroke="#000" fill="none"/>
        <path d="M140 220a6 6 0 0 1 6-6h48a6 6 0 0 1 6 6v28a6 6 0 0 1-6 6h-48a6 6 0 0 1-6-6z" stroke="#000"
              stroke-opacity="0" fill="#fff" fill-opacity="0"/>
        <use xlink:href="#e" transform="matrix(1,0,0,1,145,219) translate(20.061728395061728 17.97222222222222)"/>
        <path d="M283.5 40a6 6 0 0 1 6 6v76.5a6 6 0 0 1-6 6H247a6 6 0 0 1-6-6V46a6 6 0 0 1 6-6z" stroke="#000"
              fill-opacity="0"/>
        <use xlink:href="#f"
             transform="matrix(6.123233995736766e-17,1,-1,6.123233995736766e-17,277.4999006756087,52) translate(-5.962962962962941 15.166666666666666)"/>
        <path d="M418.6 141.2L380 140V80.5h-59.63" stroke="#000" fill="none"/>
        <path d="M401 150.83l17.52-9.65-16.9-10.7" stroke="#000" fill="none"/>
        <path d="M290.7 80.5l14.86-14.85L320.7 80.5l-15.14 14.85z" stroke="#000"/>
        <path d="M300 306a6 6 0 0 1 6-6h48a6 6 0 0 1 6 6v28a6 6 0 0 1-6 6h-48a6 6 0 0 1-6-6z" stroke="#000"
              stroke-opacity="0" fill="#fff" fill-opacity="0"/>
        <use xlink:href="#g" transform="matrix(1,0,0,1,305,305) translate(11.66666666666667 17.97222222222222)"/>
        <path d="M360 147.75a6 6 0 0 1 6-6h48a6 6 0 0 1 6 6v28a6 6 0 0 1-6 6h-48a6 6 0 0 1-6-6z" stroke="#000"
              stroke-opacity="0" fill="#fff" fill-opacity="0"/>
        <use xlink:href="#h" transform="matrix(1,0,0,1,365,146.75) translate(11.66666666666667 17.97222222222222)"/>
        <path d="M40 32a6 6 0 0 1 6-6h228a6 6 0 0 1 6 6v48a6 6 0 0 1-6 6H46a6 6 0 0 1-6-6z" stroke="#000"
              stroke-opacity="0" fill="#fff" fill-opacity="0"/>
        <use xlink:href="#i" transform="matrix(1,0,0,1,45,31) translate(87.55407021604938 28.709374999999998)"/>
        <path d="M400-134a6 6 0 0 1 6-6h148a6 6 0 0 1 6 6v108a6 6 0 0 1-6 6H406a6 6 0 0 1-6-6z" stroke="#000"
              fill-opacity="0"/>
        <use xlink:href="#j" transform="matrix(1,0,0,1,412,-128) translate(29.820987654320987 53.77777777777778)"/>
        <path d="M360-134a6 6 0 0 1 6-6h228a6 6 0 0 1 6 6v48a6 6 0 0 1-6 6H366a6 6 0 0 1-6-6z" stroke="#000"
              stroke-opacity="0" fill="#fff" fill-opacity="0"/>
        <use xlink:href="#i" transform="matrix(1,0,0,1,365,-135) translate(87.55407021604938 28.709374999999998)"/>
        <path d="M161 18.6L160-80h207.63" stroke="#000" fill="none"/>
        <path d="M150.64 1.4L161 18.53 171 1.2" stroke="#000" fill="none"/>
        <path d="M397.3-80l-14.86 14.85L367.3-80l15.14-14.85z" stroke="#000"/>
        <path d="M100-34a6 6 0 0 1 6-6h48a6 6 0 0 1 6 6v28a6 6 0 0 1-6 6h-48a6 6 0 0 1-6-6z" stroke="#000"
              stroke-opacity="0" fill="#fff" fill-opacity="0"/>
        <use xlink:href="#g" transform="matrix(1,0,0,1,105,-35) translate(11.66666666666667 17.97222222222222)"/>
        <path d="M339.5-80h29.6M339.5-80h-.5M351.8-69.82L369.02-80 351.8-90.18" stroke="#000" fill="none"/>
        <defs>
            <path fill="#000000" d="M30 0v-248h187v28H63v79h144v27H63v87h162V0H30" id="k"/>
            <path fill="#000000"
                  d="M210-169c-67 3-38 105-44 169h-31v-121c0-29-5-50-35-48C34-165 62-65 56 0H25l-1-190h30c1 10-1 24 2 32 10-44 99-50 107 0 11-21 27-35 58-36 85-2 47 119 55 194h-31v-121c0-29-5-49-35-48"
                  id="l"/>
            <path fill="#000000"
                  d="M141-36C126-15 110 5 73 4 37 3 15-17 15-53c-1-64 63-63 125-63 3-35-9-54-41-54-24 1-41 7-42 31l-33-3c5-37 33-52 76-52 45 0 72 20 72 64v82c-1 20 7 32 28 27v20c-31 9-61-2-59-35zM48-53c0 20 12 33 32 33 41-3 63-29 60-74-43 2-92-5-92 41"
                  id="m"/>
            <path fill="#000000" d="M24-231v-30h32v30H24zM24 0v-190h32V0H24" id="n"/>
            <path fill="#000000" d="M24 0v-261h32V0H24" id="o"/>
            <g id="a">
                <use transform="matrix(0.06172839506172839,0,0,0.06172839506172839,0,0)" xlink:href="#k"/>
                <use transform="matrix(0.06172839506172839,0,0,0.06172839506172839,14.814814814814813,0)"
                     xlink:href="#l"/>
                <use transform="matrix(0.06172839506172839,0,0,0.06172839506172839,33.2716049382716,0)"
                     xlink:href="#m"/>
                <use transform="matrix(0.06172839506172839,0,0,0.06172839506172839,45.61728395061728,0)"
                     xlink:href="#n"/>
                <use transform="matrix(0.06172839506172839,0,0,0.06172839506172839,50.49382716049382,0)"
                     xlink:href="#o"/>
            </g>
            <path fill="#000000" d="M197 0v-115H63V0H30v-248h33v105h134v-105h34V0h-34" id="p"/>
            <path fill="#000000"
                  d="M100-194c63 0 86 42 84 106H49c0 40 14 67 53 68 26 1 43-12 49-29l28 8c-11 28-37 45-77 45C44 4 14-33 15-96c1-61 26-98 85-98zm52 81c6-60-76-77-97-28-3 7-6 17-6 28h103"
                  id="q"/>
            <path fill="#000000"
                  d="M85-194c31 0 48 13 60 33l-1-100h32l1 261h-30c-2-10 0-23-3-31C134-8 116 4 85 4 32 4 16-35 15-94c0-66 23-100 70-100zm9 24c-40 0-46 34-46 75 0 40 6 74 45 74 42 0 51-32 51-76 0-42-9-74-50-73"
                  id="r"/>
            <path fill="#000000" d="M114-163C36-179 61-72 57 0H25l-1-190h30c1 12-1 29 2 39 6-27 23-49 58-41v29" id="s"/>
            <g id="b">
                <use transform="matrix(0.06172839506172839,0,0,0.06172839506172839,0,0)" xlink:href="#p"/>
                <use transform="matrix(0.06172839506172839,0,0,0.06172839506172839,15.987654320987653,0)"
                     xlink:href="#q"/>
                <use transform="matrix(0.06172839506172839,0,0,0.06172839506172839,28.333333333333332,0)"
                     xlink:href="#m"/>
                <use transform="matrix(0.06172839506172839,0,0,0.06172839506172839,40.67901234567901,0)"
                     xlink:href="#r"/>
                <use transform="matrix(0.06172839506172839,0,0,0.06172839506172839,53.02469135802469,0)"
                     xlink:href="#q"/>
                <use transform="matrix(0.06172839506172839,0,0,0.06172839506172839,65.37037037037037,0)"
                     xlink:href="#s"/>
            </g>
            <path fill="#000000" d="M205 0l-28-72H64L36 0H1l101-248h38L239 0h-34zm-38-99l-47-123c-12 45-31 82-46 123h93"
                  id="t"/>
            <path fill="#000000" d="M59-47c-2 24 18 29 38 22v24C64 9 27 4 27-40v-127H5v-23h24l9-43h21v43h35v23H59v120"
                  id="u"/>
            <path fill="#000000"
                  d="M96-169c-40 0-48 33-48 73s9 75 48 75c24 0 41-14 43-38l32 2c-6 37-31 61-74 61-59 0-76-41-82-99-10-93 101-131 147-64 4 7 5 14 7 22l-32 3c-4-21-16-35-41-35"
                  id="v"/>
            <path fill="#000000"
                  d="M106-169C34-169 62-67 57 0H25v-261h32l-1 103c12-21 28-36 61-36 89 0 53 116 60 194h-32v-121c2-32-8-49-39-48"
                  id="w"/>
            <path fill="#000000"
                  d="M117-194c89-4 53 116 60 194h-32v-121c0-31-8-49-39-48C34-167 62-67 57 0H25l-1-190h30c1 10-1 24 2 32 11-22 29-35 61-36"
                  id="x"/>
            <g id="c">
                <use transform="matrix(0.06172839506172839,0,0,0.06172839506172839,0,0)" xlink:href="#t"/>
                <use transform="matrix(0.06172839506172839,0,0,0.06172839506172839,14.814814814814813,0)"
                     xlink:href="#u"/>
                <use transform="matrix(0.06172839506172839,0,0,0.06172839506172839,20.98765432098765,0)"
                     xlink:href="#u"/>
                <use transform="matrix(0.06172839506172839,0,0,0.06172839506172839,27.16049382716049,0)"
                     xlink:href="#m"/>
                <use transform="matrix(0.06172839506172839,0,0,0.06172839506172839,39.50617283950617,0)"
                     xlink:href="#v"/>
                <use transform="matrix(0.06172839506172839,0,0,0.06172839506172839,50.61728395061728,0)"
                     xlink:href="#w"/>
                <use transform="matrix(0.06172839506172839,0,0,0.06172839506172839,62.962962962962955,0)"
                     xlink:href="#l"/>
                <use transform="matrix(0.06172839506172839,0,0,0.06172839506172839,81.41975308641975,0)"
                     xlink:href="#q"/>
                <use transform="matrix(0.06172839506172839,0,0,0.06172839506172839,93.76543209876543,0)"
                     xlink:href="#x"/>
                <use transform="matrix(0.06172839506172839,0,0,0.06172839506172839,106.11111111111111,0)"
                     xlink:href="#u"/>
            </g>
            <path fill="#000000"
                  d="M160-131c35 5 61 23 61 61C221 17 115-2 30 0v-248c76 3 177-17 177 60 0 33-19 50-47 57zm-97-11c50-1 110 9 110-42 0-47-63-36-110-37v79zm0 115c55-2 124 14 124-45 0-56-70-42-124-44v89"
                  id="y"/>
            <path fill="#000000"
                  d="M100-194c62-1 85 37 85 99 1 63-27 99-86 99S16-35 15-95c0-66 28-99 85-99zM99-20c44 1 53-31 53-75 0-43-8-75-51-75s-53 32-53 75 10 74 51 75"
                  id="z"/>
            <path fill="#000000" d="M179-190L93 31C79 59 56 82 12 73V49c39 6 53-20 64-50L1-190h34L92-34l54-156h33"
                  id="A"/>
            <g id="d">
                <use transform="matrix(0.06172839506172839,0,0,0.06172839506172839,0,0)" xlink:href="#y"/>
                <use transform="matrix(0.06172839506172839,0,0,0.06172839506172839,14.814814814814813,0)"
                     xlink:href="#z"/>
                <use transform="matrix(0.06172839506172839,0,0,0.06172839506172839,27.160493827160494,0)"
                     xlink:href="#r"/>
                <use transform="matrix(0.06172839506172839,0,0,0.06172839506172839,39.50617283950617,0)"
                     xlink:href="#A"/>
            </g>
            <path fill="#000000" d="M27 0v-27h64v-190l-56 39v-29l58-41h29v221h61V0H27" id="B"/>
            <use transform="matrix(0.049382716049382706,0,0,0.049382716049382706,0,0)" xlink:href="#B" id="e"/>
            <path fill="#000000" d="M190 0L58-211 59 0H30v-248h39L202-35l-2-213h31V0h-41" id="C"/>
            <g id="f">
                <use transform="matrix(0.03703703703703702,0,0,0.03703703703703702,0,0)" xlink:href="#w"/>
                <use transform="matrix(0.03703703703703702,0,0,0.03703703703703702,7.407407407407404,0)"
                     xlink:href="#q"/>
                <use transform="matrix(0.03703703703703702,0,0,0.03703703703703702,14.814814814814808,0)"
                     xlink:href="#m"/>
                <use transform="matrix(0.03703703703703702,0,0,0.03703703703703702,22.222222222222214,0)"
                     xlink:href="#r"/>
                <use transform="matrix(0.03703703703703702,0,0,0.03703703703703702,29.629629629629616,0)"
                     xlink:href="#q"/>
                <use transform="matrix(0.03703703703703702,0,0,0.03703703703703702,37.03703703703702,0)"
                     xlink:href="#s"/>
                <use transform="matrix(0.03703703703703702,0,0,0.03703703703703702,41.44444444444442,0)"
                     xlink:href="#C"/>
                <use transform="matrix(0.03703703703703702,0,0,0.03703703703703702,51.03703703703701,0)"
                     xlink:href="#m"/>
                <use transform="matrix(0.03703703703703702,0,0,0.03703703703703702,58.44444444444441,0)"
                     xlink:href="#l"/>
                <use transform="matrix(0.03703703703703702,0,0,0.03703703703703702,69.51851851851848,0)"
                     xlink:href="#q"/>
            </g>
            <path fill="#000000"
                  d="M101-251c68 0 85 55 85 127S166 4 100 4C33 4 14-52 14-124c0-73 17-127 87-127zm-1 229c47 0 54-49 54-102s-4-102-53-102c-51 0-55 48-55 102 0 53 5 102 54 102"
                  id="D"/>
            <path fill="#000000" d="M33 0v-38h34V0H33" id="E"/>
            <path fill="#000000"
                  d="M80-196l47-18 7 23-49 13 32 44-20 13-27-46-27 45-21-12 33-44-49-13 8-23 47 19-2-53h23" id="F"/>
            <g id="g">
                <use transform="matrix(0.049382716049382706,0,0,0.049382716049382706,0,0)" xlink:href="#D"/>
                <use transform="matrix(0.049382716049382706,0,0,0.049382716049382706,9.87654320987654,0)"
                     xlink:href="#E"/>
                <use transform="matrix(0.049382716049382706,0,0,0.049382716049382706,14.814814814814811,0)"
                     xlink:href="#E"/>
                <use transform="matrix(0.049382716049382706,0,0,0.049382716049382706,19.75308641975308,0)"
                     xlink:href="#F"/>
            </g>
            <g id="h">
                <use transform="matrix(0.049382716049382706,0,0,0.049382716049382706,0,0)" xlink:href="#B"/>
                <use transform="matrix(0.049382716049382706,0,0,0.049382716049382706,9.87654320987654,0)"
                     xlink:href="#E"/>
                <use transform="matrix(0.049382716049382706,0,0,0.049382716049382706,14.814814814814811,0)"
                     xlink:href="#E"/>
                <use transform="matrix(0.049382716049382706,0,0,0.049382716049382706,19.75308641975308,0)"
                     xlink:href="#F"/>
            </g>
            <path d="M940-141L602-506v-63l338-371h178v31L780-537l340 367v29H940zm-477 0L127-506v-63l336-371h177v31L305-537l337 367v29H463"
                  id="G"/>
            <path d="M59-47c-2 24 18 29 38 22v24C64 9 27 4 27-40v-127H5v-23h24l9-43h21v43h35v23H59v120" id="H"/>
            <path d="M762-141H584v-29l338-367-336-372v-31h176l338 371v63zm-475 0H107v-29l338-367-336-372v-31h178l335 371v63"
                  id="I"/>
            <g id="i">
                <use transform="matrix(0.009895833333333333,0,0,0.009895833333333333,0,0)" xlink:href="#G"/>
                <use transform="matrix(0.049382716049382706,0,0,0.049382716049382706,12.161979166666667,0)"
                     xlink:href="#s"/>
                <use transform="matrix(0.049382716049382706,0,0,0.049382716049382706,18.03852237654321,0)"
                     xlink:href="#z"/>
                <use transform="matrix(0.049382716049382706,0,0,0.049382716049382706,27.91506558641975,0)"
                     xlink:href="#z"/>
                <use transform="matrix(0.049382716049382706,0,0,0.049382716049382706,37.79160879629629,0)"
                     xlink:href="#H"/>
                <use transform="matrix(0.009895833333333333,0,0,0.009895833333333333,42.72988040123456,0)"
                     xlink:href="#I"/>
            </g>
            <path fill="#000000"
                  d="M240 0l2-218c-23 76-54 145-80 218h-23L58-218 59 0H30v-248h44l77 211c21-75 51-140 76-211h43V0h-30"
                  id="J"/>
            <path fill="#000000"
                  d="M115-194c53 0 69 39 70 98 0 66-23 100-70 100C84 3 66-7 56-30L54 0H23l1-261h32v101c10-23 28-34 59-34zm-8 174c40 0 45-34 45-75 0-40-5-75-45-74-42 0-51 32-51 76 0 43 10 73 51 73"
                  id="K"/>
            <path fill="#000000" d="M141 0L90-78 38 0H4l68-98-65-92h35l48 74 47-74h35l-64 92 68 98h-35" id="L"/>
            <g id="j">
                <use transform="matrix(0.06172839506172839,0,0,0.06172839506172839,0,0)" xlink:href="#J"/>
                <use transform="matrix(0.06172839506172839,0,0,0.06172839506172839,18.456790123456788,0)"
                     xlink:href="#m"/>
                <use transform="matrix(0.06172839506172839,0,0,0.06172839506172839,30.80246913580247,0)"
                     xlink:href="#n"/>
                <use transform="matrix(0.06172839506172839,0,0,0.06172839506172839,35.67901234567901,0)"
                     xlink:href="#o"/>
                <use transform="matrix(0.06172839506172839,0,0,0.06172839506172839,40.55555555555556,0)"
                     xlink:href="#K"/>
                <use transform="matrix(0.06172839506172839,0,0,0.06172839506172839,52.901234567901234,0)"
                     xlink:href="#z"/>
                <use transform="matrix(0.06172839506172839,0,0,0.06172839506172839,65.24691358024691,0)"
                     xlink:href="#L"/>
            </g>
        </defs>
    </g>
</svg>