<svg xmlns="http://www.w3.org/2000/svg" xmlns:xlink="http://www.w3.org/1999/xlink"  width="417.56"
     height="240">
    <g transform="translate(-622.4444444444445 -420)">
        <path d="M719.75 479.75c0 10.9-8.84 19.75-19.75 19.75-10.9 0-19.75-8.84-19.75-19.75 0-10.9 8.84-19.75 19.75-19.75 10.9 0 19.75 8.84 19.75 19.75z"
              stroke="#000000" fill-opacity="0"/>
        <path d="M700 499.5v49.3a20.7 20.7 0 0 0 3.2 11.07L740 618m-40-63.2L660 618m0-98.75h80" stroke="#000000"
              fill="none"/>
        <path d="M660 466a6 6 0 0 1 6-6h68a6 6 0 0 1 6 6v168a6 6 0 0 1-6 6h-68a6 6 0 0 1-6-6z" fill="none"/>
        <use xlink:href="#a" transform="matrix(1,0,0,1,580,618) translate(64.44444444444444 17.77777777777778)"/>
        <path d="M1020 500c0 33.14-35.82 60-80 60s-80-26.86-80-60 35.82-60 80-60 80 26.86 80 60z" stroke="#000000"
              fill-opacity="0"/>
        <use xlink:href="#b" transform="matrix(1,0,0,1,860,440) translate(21.555 63.15)"/>
        <use xlink:href="#c" transform="matrix(1,0,0,1,860,440) translate(58.555 63.15)"/>
        <path d="M701.04 550H804a6 6 0 0 0 6-6v-38a6 6 0 0 1 6-6h42.6M701.05 550h-3.5" stroke="#000000" fill="none"/>
        <path d="M841.3 510.18L858.52 500l-17.22-10.18" stroke="#000000" fill="none"/>
        <defs>
            <path d="M205 0l-28-72H64L36 0H1l101-248h38L239 0h-34zm-38-99l-47-123c-12 45-31 82-46 123h93" id="d"/>
            <path d="M96-169c-40 0-48 33-48 73s9 75 48 75c24 0 41-14 43-38l32 2c-6 37-31 61-74 61-59 0-76-41-82-99-10-93 101-131 147-64 4 7 5 14 7 22l-32 3c-4-21-16-35-41-35"
                  id="e"/>
            <path d="M100-194c62-1 85 37 85 99 1 63-27 99-86 99S16-35 15-95c0-66 28-99 85-99zM99-20c44 1 53-31 53-75 0-43-8-75-51-75s-53 32-53 75 10 74 51 75"
                  id="f"/>
            <path d="M84 4C-5 8 30-112 23-190h32v120c0 31 7 50 39 49 72-2 45-101 50-169h31l1 190h-30c-1-10 1-25-2-33-11 22-28 36-60 37"
                  id="g"/>
            <path d="M117-194c89-4 53 116 60 194h-32v-121c0-31-8-49-39-48C34-167 62-67 57 0H25l-1-190h30c1 10-1 24 2 32 11-22 29-35 61-36"
                  id="h"/>
            <path d="M59-47c-2 24 18 29 38 22v24C64 9 27 4 27-40v-127H5v-23h24l9-43h21v43h35v23H59v120" id="i"/>
            <path d="M141-36C126-15 110 5 73 4 37 3 15-17 15-53c-1-64 63-63 125-63 3-35-9-54-41-54-24 1-41 7-42 31l-33-3c5-37 33-52 76-52 45 0 72 20 72 64v82c-1 20 7 32 28 27v20c-31 9-61-2-59-35zM48-53c0 20 12 33 32 33 41-3 63-29 60-74-43 2-92-5-92 41"
                  id="j"/>
            <g id="a">
                <use transform="matrix(0.06172839506172839,0,0,0.06172839506172839,0,0)" xlink:href="#d"/>
                <use transform="matrix(0.06172839506172839,0,0,0.06172839506172839,14.814814814814813,0)"
                     xlink:href="#e"/>
                <use transform="matrix(0.06172839506172839,0,0,0.06172839506172839,25.925925925925924,0)"
                     xlink:href="#e"/>
                <use transform="matrix(0.06172839506172839,0,0,0.06172839506172839,37.03703703703704,0)"
                     xlink:href="#f"/>
                <use transform="matrix(0.06172839506172839,0,0,0.06172839506172839,49.382716049382715,0)"
                     xlink:href="#g"/>
                <use transform="matrix(0.06172839506172839,0,0,0.06172839506172839,61.72839506172839,0)"
                     xlink:href="#h"/>
                <use transform="matrix(0.06172839506172839,0,0,0.06172839506172839,74.07407407407408,0)"
                     xlink:href="#i"/>
                <use transform="matrix(0.06172839506172839,0,0,0.06172839506172839,80.24691358024691,0)"
                     xlink:href="#j"/>
                <use transform="matrix(0.06172839506172839,0,0,0.06172839506172839,92.5925925925926,0)"
                     xlink:href="#h"/>
                <use transform="matrix(0.06172839506172839,0,0,0.06172839506172839,104.93827160493828,0)"
                     xlink:href="#i"/>
            </g>
            <path d="M85-194c31 0 48 13 60 33l-1-100h32l1 261h-30c-2-10 0-23-3-31C134-8 116 4 85 4 32 4 16-35 15-94c0-66 23-100 70-100zm9 24c-40 0-46 34-46 75 0 40 6 74 45 74 42 0 51-32 51-76 0-42-9-74-50-73"
                  id="k"/>
            <g id="b">
                <use transform="matrix(0.05,0,0,0.05,0,0)" xlink:href="#d"/>
                <use transform="matrix(0.05,0,0,0.05,12,0)" xlink:href="#k"/>
                <use transform="matrix(0.05,0,0,0.05,22,0)" xlink:href="#k"/>
            </g>
            <path d="M30 0v-248h187v28H63v79h144v27H63v87h162V0H30" id="l"/>
            <path d="M210-169c-67 3-38 105-44 169h-31v-121c0-29-5-50-35-48C34-165 62-65 56 0H25l-1-190h30c1 10-1 24 2 32 10-44 99-50 107 0 11-21 27-35 58-36 85-2 47 119 55 194h-31v-121c0-29-5-49-35-48"
                  id="m"/>
            <path d="M115-194c55 1 70 41 70 98S169 2 115 4C84 4 66-9 55-30l1 105H24l-1-265h31l2 30c10-21 28-34 59-34zm-8 174c40 0 45-34 45-75s-6-73-45-74c-42 0-51 32-51 76 0 43 10 73 51 73"
                  id="n"/>
            <path d="M24 0v-261h32V0H24" id="o"/>
            <path d="M179-190L93 31C79 59 56 82 12 73V49c39 6 53-20 64-50L1-190h34L92-34l54-156h33" id="p"/>
            <path d="M100-194c63 0 86 42 84 106H49c0 40 14 67 53 68 26 1 43-12 49-29l28 8c-11 28-37 45-77 45C44 4 14-33 15-96c1-61 26-98 85-98zm52 81c6-60-76-77-97-28-3 7-6 17-6 28h103"
                  id="q"/>
            <g id="c">
                <use transform="matrix(0.05,0,0,0.05,0,0)" xlink:href="#l"/>
                <use transform="matrix(0.05,0,0,0.05,12,0)" xlink:href="#m"/>
                <use transform="matrix(0.05,0,0,0.05,26.950000000000003,0)" xlink:href="#n"/>
                <use transform="matrix(0.05,0,0,0.05,36.95,0)" xlink:href="#o"/>
                <use transform="matrix(0.05,0,0,0.05,40.900000000000006,0)" xlink:href="#f"/>
                <use transform="matrix(0.05,0,0,0.05,50.900000000000006,0)" xlink:href="#p"/>
                <use transform="matrix(0.05,0,0,0.05,59.900000000000006,0)" xlink:href="#q"/>
                <use transform="matrix(0.05,0,0,0.05,69.9,0)" xlink:href="#q"/>
            </g>
        </defs>
    </g>
</svg>