<svg xmlns="http://www.w3.org/2000/svg" xmlns:xlink="http://www.w3.org/1999/xlink" xmlns:lucid="lucid" width="661" height="467"><g transform="translate(540.5 -419.5)" lucid:page-tab-id="0_0"><path d="M-1000 0H500v1000h-1500z" fill="#fff"/><path d="M-380 446a6 6 0 0 1 6-6H94a6 6 0 0 1 6 6v408a6 6 0 0 1-6 6h-468a6 6 0 0 1-6-6z" stroke="#3a414a" fill="#fff"/><path d="M-379.02 779.73l13.3-2.4 9.74-2.38 7.13-2.2 5.57-2.12 4.54-2.05 3.84-2.02 3.32-2.02 2.95-2.05 2.67-2.1 2.44-2.2 2.3-2.3 2.16-2.48 2.08-2.7 2.03-2.98 2.02-3.4 2.03-3.96 2.1-4.8 2.27-6.14 2.55-8.54 3.33-14.3 1.65-8.6 28.92-140.5 11.3-46.83 2.83-9.8.95-2.87 6.7-16.52 3.45-6.22 2.18-3.03 1.54-1.68 1.2-1.03.95-.65.82-.42.72-.28.66-.17.63-.08h.6l.62.06.62.14.65.23.72.36.82.53.94.8 1.18 1.2 1.53 2.03 2.17 3.7 3.5 8.03 7.47 24.97L-212 524l44.45 209.6 3.87 13.4 3.06 9.1 2.64 6.92 2.4 5.55 2.24 4.65 2.15 4 2.1 3.56 2.07 3.2 2.08 2.9 2.1 2.72 2.15 2.55 2.23 2.42 2.34 2.34 2.47 2.28 2.65 2.24 2 1.58 1.32.96 1.4.93 1.47.9 1.56.86 1.68.83 1.8.8 1.93.77 2.1.73 2.28.7 2.5.64 2.76.6 3.07.5 3.43.45 3.9.32 4.44.2h5.17l6.12-.25 7.38-.6 9.2-1.17 12.12-2.04 17.7-3.76 95.03-24 9.17-1.54 6.67-.84 5.13-.42 4.14-.17h3.4l2.87.13 2.46.2 2.13.28 1.87.32 1.34.28" stroke="#3a414a" stroke-width="3" stroke-linejoin="round" fill="none"/><path d="M-378.72 781.2l-1.78.32v-3.04l1.25-.23z" stroke="#3a414a" stroke-width=".05" fill="#3a414a"/><path d="M98.5 779.62l1.5.38" stroke="#3a414a" stroke-width="3" fill="none"/><path d="M-379.75 780.5a.25.25 0 0 1 .25-.25h479a.25.25 0 0 1 .25.25.25.25 0 0 1-.25.25h-479a.25.25 0 0 1-.25-.25z" fill="none"/><path d="M-376 780.25h3m1.98 0h3m2 0h3m1.98 0h3m2 0h3m1.98 0h3m2 0h2.98m2 0h3m2 0h2.98m2 0h3m2 0h2.98m2 0h3m2 0h2.98m2 0h3m2 0h2.98m2 0h3m2 0h2.98m2 0h3m2 0h2.98m2 0h3m1.98 0h3m2 0h3m1.98 0h3m2 0h3m1.98 0h3m2 0h3m1.98 0h3m2 0h3m1.98 0h3m2 0h2.98m2 0h3m2 0h2.98m2 0h3m2 0h2.98m2 0h3m2 0h2.98m2 0h3m2 0h2.98m2 0h3m2 0h2.98m2 0h3m2 0h2.98m2 0h3m1.98 0h3m2 0h3m1.98 0h3m2 0h3m1.98 0h3m2 0h3m1.98 0h3m2 0h3m1.98 0h3m2 0h2.98m2 0h3m2 0h2.98m2 0h3m2 0h2.98m2 0h3m2 0h2.98m2 0h3m2 0h2.98m2 0h3m2 0h2.98m2 0h3m2 0h2.98m2 0h3m1.98 0h3m2 0h3m1.98 0h3m2 0h3m1.98 0h3m2 0h3m1.98 0h3m2 0h3m1.98 0h3m2 0H1.2m2 0h3m2 0h2.98m2 0h3m2 0h2.98m2 0h3m2 0h2.98m2 0h3m2 0h2.98m2 0h3m2 0h2.98m2 0h3m2 0h2.98m2 0h3m2 0h2.98m2 0h3m1.98 0h3m2 0h3m1.98 0h3m2 0h3m1.98 0h1.58l.03.03.05.02.03.02.02.03.02.04.02.02v.16l-.02.03-.02.05-.02.03-.03.02-.04.02-.02.02H98m-2 0h-3m-1.98 0h-3m-2 0h-3m-1.98 0h-3m-2 0h-2.98m-2 0h-3m-2 0H63.1m-2 0h-3m-2 0H53.1m-2 0h-3m-2 0h-2.98m-2 0h-3m-2 0h-2.98m-2 0h-3m-2 0h-2.98m-2 0h-3m-2 0H13.2m-2 0h-3m-1.98 0h-3m-2 0h-3m-1.98 0h-3m-2 0h-3m-1.98 0h-3m-2 0h-3m-1.98 0h-3m-2 0h-3m-1.98 0h-3m-2 0h-2.98m-2 0h-3m-2 0h-2.98m-2 0h-3m-2 0h-2.98m-2 0h-3m-2 0h-2.98m-2 0h-3m-2 0h-2.98m-2 0h-3m-2 0h-2.98m-2 0h-3m-2 0h-2.98m-2 0h-3m-2 0h-2.98m-2 0h-3m-1.98 0h-3m-2 0h-3m-1.98 0h-3m-2 0h-3m-1.98 0h-3m-2 0h-3m-1.98 0h-3m-2 0h-3m-1.98 0h-3m-2 0h-2.98m-2 0h-3m-2 0h-2.98m-2 0h-3m-2 0h-2.98m-2 0h-3m-2 0h-2.98m-2 0h-3m-2 0h-2.98m-2 0h-3m-2 0h-2.98m-2 0h-3m-2 0h-2.98m-2 0h-3m-2 0h-2.98m-2 0h-3m-1.98 0h-3m-2 0h-3m-1.98 0h-3m-2 0h-3m-1.98 0h-3m-2 0h-3m-1.98 0h-3m-2 0h-2.98m-2 0h-3m-2 0h-2.98m-2 0h-3m-2 0h-2.98m-2 0h-3m-2 0h-2.98m-2 0h-3m-2 0h-2.98m-2 0h-3m-2 0h-2.98m-2 0h-3m-2 0h-2.98m-2 0h-3m-2 0h-2.98m-2 0h-3m-2 0h-2.98m-2 0h-3m-1.98 0h-3m-2 0h-3m-1.98 0h-1.58l-.03-.02-.05-.02-.03-.02-.02-.03-.02-.04-.02-.02v-.16l.02-.03.02-.05.02-.03.03-.02.04-.02.02-.02h1.58" stroke="#3a414a" stroke-width=".5" fill="none"/><path d="M-379.75 560.5a.25.25 0 0 1 .25-.25h479a.25.25 0 0 1 .25.25.25.25 0 0 1-.25.25h-479a.25.25 0 0 1-.25-.25z" fill="none"/><path d="M-376 560.25h3m1.98 0h3m2 0h3m1.98 0h3m2 0h3m1.98 0h3m2 0h2.98m2 0h3m2 0h2.98m2 0h3m2 0h2.98m2 0h3m2 0h2.98m2 0h3m2 0h2.98m2 0h3m2 0h2.98m2 0h3m2 0h2.98m2 0h3m1.98 0h3m2 0h3m1.98 0h3m2 0h3m1.98 0h3m2 0h3m1.98 0h3m2 0h3m1.98 0h3m2 0h2.98m2 0h3m2 0h2.98m2 0h3m2 0h2.98m2 0h3m2 0h2.98m2 0h3m2 0h2.98m2 0h3m2 0h2.98m2 0h3m2 0h2.98m2 0h3m1.98 0h3m2 0h3m1.98 0h3m2 0h3m1.98 0h3m2 0h3m1.98 0h3m2 0h3m1.98 0h3m2 0h2.98m2 0h3m2 0h2.98m2 0h3m2 0h2.98m2 0h3m2 0h2.98m2 0h3m2 0h2.98m2 0h3m2 0h2.98m2 0h3m2 0h2.98m2 0h3m1.98 0h3m2 0h3m1.98 0h3m2 0h3m1.98 0h3m2 0h3m1.98 0h3m2 0h3m1.98 0h3m2 0H1.2m2 0h3m2 0h2.98m2 0h3m2 0h2.98m2 0h3m2 0h2.98m2 0h3m2 0h2.98m2 0h3m2 0h2.98m2 0h3m2 0h2.98m2 0h3m2 0h2.98m2 0h3m1.98 0h3m2 0h3m1.98 0h3m2 0h3m1.98 0h1.58l.03.03.05.02.03.02.02.03.02.04.02.02v.16l-.02.03-.02.05-.02.03-.03.02-.04.02-.02.02H98m-2 0h-3m-1.98 0h-3m-2 0h-3m-1.98 0h-3m-2 0h-2.98m-2 0h-3m-2 0H63.1m-2 0h-3m-2 0H53.1m-2 0h-3m-2 0h-2.98m-2 0h-3m-2 0h-2.98m-2 0h-3m-2 0h-2.98m-2 0h-3m-2 0H13.2m-2 0h-3m-1.98 0h-3m-2 0h-3m-1.98 0h-3m-2 0h-3m-1.98 0h-3m-2 0h-3m-1.98 0h-3m-2 0h-3m-1.98 0h-3m-2 0h-2.98m-2 0h-3m-2 0h-2.98m-2 0h-3m-2 0h-2.98m-2 0h-3m-2 0h-2.98m-2 0h-3m-2 0h-2.98m-2 0h-3m-2 0h-2.98m-2 0h-3m-2 0h-2.98m-2 0h-3m-2 0h-2.98m-2 0h-3m-1.98 0h-3m-2 0h-3m-1.98 0h-3m-2 0h-3m-1.98 0h-3m-2 0h-3m-1.98 0h-3m-2 0h-3m-1.98 0h-3m-2 0h-2.98m-2 0h-3m-2 0h-2.98m-2 0h-3m-2 0h-2.98m-2 0h-3m-2 0h-2.98m-2 0h-3m-2 0h-2.98m-2 0h-3m-2 0h-2.98m-2 0h-3m-2 0h-2.98m-2 0h-3m-2 0h-2.98m-2 0h-3m-1.98 0h-3m-2 0h-3m-1.98 0h-3m-2 0h-3m-1.98 0h-3m-2 0h-3m-1.98 0h-3m-2 0h-2.98m-2 0h-3m-2 0h-2.98m-2 0h-3m-2 0h-2.98m-2 0h-3m-2 0h-2.98m-2 0h-3m-2 0h-2.98m-2 0h-3m-2 0h-2.98m-2 0h-3m-2 0h-2.98m-2 0h-3m-2 0h-2.98m-2 0h-3m-2 0h-2.98m-2 0h-3m-1.98 0h-3m-2 0h-3m-1.98 0h-1.58l-.03-.02-.05-.02-.03-.02-.02-.03-.02-.04-.02-.02v-.16l.02-.03.02-.05.02-.03.03-.02.04-.02.02-.02h1.58" stroke="#3a414a" stroke-width=".5" fill="none"/><path d="M-280 466a6 6 0 0 1 6-6h228a6 6 0 0 1 6 6v48a6 6 0 0 1-6 6h-228a6 6 0 0 1-6-6z" stroke="#000" stroke-opacity="0" fill="#fff" fill-opacity="0"/><use xlink:href="#a" transform="matrix(1,0,0,1,-275,465) translate(66.26543209876543 30.27777777777778)"/><path d="M-220 606a6 6 0 0 1 6-6H14a6 6 0 0 1 6 6v48a6 6 0 0 1-6 6h-228a6 6 0 0 1-6-6z" stroke="#000" stroke-opacity="0" fill="#fff" fill-opacity="0"/><use xlink:href="#b" transform="matrix(1,0,0,1,-215,605) translate(41.60493827160494 30.27777777777778)"/><use xlink:href="#c" transform="matrix(1,0,0,1,-215,605) translate(125.4320987654321 30.27777777777778)"/><path d="M-200 812a6 6 0 0 1 6-6H34a6 6 0 0 1 6 6v48a6 6 0 0 1-6 6h-228a6 6 0 0 1-6-6z" stroke="#000" stroke-opacity="0" fill="#fff" fill-opacity="0"/><use xlink:href="#d" transform="matrix(1,0,0,1,-195,811) translate(59.4753086419753 30.27777777777778)"/><path d="M-520 792a6 6 0 0 1 6-6h228a6 6 0 0 1 6 6v47a6 6 0 0 1-6 6h-228a6 6 0 0 1-6-6z" stroke="#fff" fill="#fff"/><use xlink:href="#e" transform="matrix(1,0,0,1,-515,791) translate(44.10493827160494 30.02777777777778)"/><defs><path fill="#3a414a" d="M30-147c31-64 166-65 159 27C183-49 158 1 86 4 9 8 1-88 30-147zM88-20c53 0 68-48 68-100 0-31-11-51-44-50-52 1-68 46-68 97 0 32 13 53 44 53" id="f"/><path fill="#3a414a" d="M89 0H52L20-190h33L74-25l89-165h34" id="g"/><path fill="#3a414a" d="M111-194c62-3 86 47 72 106H45c-7 38 6 69 45 68 27-1 43-14 53-32l24 11C152-15 129 4 87 4 38 3 12-23 12-71c0-70 32-119 99-123zm44 81c14-66-71-72-95-28-4 8-8 17-11 28h106" id="h"/><path fill="#3a414a" d="M66-151c12-25 30-51 66-40l-6 26C45-176 58-65 38 0H6l36-190h30" id="i"/><path fill="#3a414a" d="M55-144c13 50 104 24 104 88C159 21 15 23 1-39l26-10c6 40 102 42 102-4-13-50-104-23-104-87 0-71 143-71 148-8l-29 4c-5-35-85-37-89 0" id="j"/><path fill="#3a414a" d="M67-158c15-20 31-36 64-36 94 0 33 127 27 194h-32l25-140c3-38-53-32-70-12C52-117 51-51 37 0H6l51-261h31" id="k"/><path fill="#3a414a" d="M51-54c-9 22 5 41 31 30L79-1C43 14 10-4 19-52l22-115H19l5-23h22l19-43h21l-9 43h35l-4 23H73" id="l"/><g id="a"><use transform="matrix(0.06172839506172839,0,0,0.06172839506172839,0,0)" xlink:href="#f"/><use transform="matrix(0.06172839506172839,0,0,0.06172839506172839,12.345679012345679,0)" xlink:href="#g"/><use transform="matrix(0.06172839506172839,0,0,0.06172839506172839,23.45679012345679,0)" xlink:href="#h"/><use transform="matrix(0.06172839506172839,0,0,0.06172839506172839,35.80246913580247,0)" xlink:href="#i"/><use transform="matrix(0.06172839506172839,0,0,0.06172839506172839,43.148148148148145,0)" xlink:href="#j"/><use transform="matrix(0.06172839506172839,0,0,0.06172839506172839,54.25925925925925,0)" xlink:href="#k"/><use transform="matrix(0.06172839506172839,0,0,0.06172839506172839,66.60493827160494,0)" xlink:href="#f"/><use transform="matrix(0.06172839506172839,0,0,0.06172839506172839,78.95061728395062,0)" xlink:href="#f"/><use transform="matrix(0.06172839506172839,0,0,0.06172839506172839,91.2962962962963,0)" xlink:href="#l"/></g><path fill="#3a414a" d="M76-167L44 0H12l33-167H18l4-23h27c3-47 25-81 82-69l-4 24c-35-8-44 15-46 45h37l-5 23H76" id="m"/><path fill="#3a414a" d="M165-48c-4 18 1 34 23 27l-3 20c-29 8-62 0-52-35h-2C116-14 99 4 63 4 30 4 8-16 8-49c0-68 71-67 138-67 10-26 0-56-31-54-26 1-42 9-47 31l-32-5c8-67 160-71 144 15-5 28-9 54-15 81zM42-50c3 52 80 24 89-6 7-12 7-24 11-38-47 1-103-4-100 44" id="n"/><path fill="#3a414a" d="M6 0l50-261h32L37 0H6" id="o"/><path fill="#3a414a" d="M67-158c22-48 132-52 116 29L158 0h-32l25-140c3-38-53-32-70-12C52-117 51-52 38 0H6l36-190h30" id="p"/><path fill="#3a414a" d="M133-28C103 26-5 8 13-77c13-62 24-115 90-117 29-1 46 15 56 35l19-102h32L160 0h-30zM45-64c-2 27 10 43 35 43 54-1 69-50 69-103 0-29-15-46-42-46-53-1-58 58-62 106" id="q"/><g id="b"><use transform="matrix(0.06172839506172839,0,0,0.06172839506172839,0,0)" xlink:href="#m"/><use transform="matrix(0.06172839506172839,0,0,0.06172839506172839,6.172839506172839,0)" xlink:href="#n"/><use transform="matrix(0.06172839506172839,0,0,0.06172839506172839,18.51851851851852,0)" xlink:href="#o"/><use transform="matrix(0.06172839506172839,0,0,0.06172839506172839,23.395061728395063,0)" xlink:href="#o"/><use transform="matrix(0.06172839506172839,0,0,0.06172839506172839,28.271604938271608,0)" xlink:href="#h"/><use transform="matrix(0.06172839506172839,0,0,0.06172839506172839,40.617283950617285,0)" xlink:href="#p"/><use transform="matrix(0.06172839506172839,0,0,0.06172839506172839,52.96296296296296,0)" xlink:href="#q"/><use transform="matrix(0.06172839506172839,0,0,0.06172839506172839,65.30864197530865,0)" xlink:href="#h"/></g><path fill="#3a414a" d="M238-179c0 84-86 86-175 82L45 0H11l48-248c82 0 179-12 179 69zm-34 1c0-53-64-42-116-43l-19 98c63 0 135 9 135-55" id="r"/><g id="c"><use transform="matrix(0.06172839506172839,0,0,0.06172839506172839,0,0)" xlink:href="#r"/><use transform="matrix(0.06172839506172839,0,0,0.06172839506172839,14.814814814814813,0)" xlink:href="#k"/><use transform="matrix(0.06172839506172839,0,0,0.06172839506172839,27.160493827160494,0)" xlink:href="#n"/><use transform="matrix(0.06172839506172839,0,0,0.06172839506172839,39.50617283950617,0)" xlink:href="#j"/><use transform="matrix(0.06172839506172839,0,0,0.06172839506172839,50.61728395061728,0)" xlink:href="#h"/></g><path fill="#3a414a" d="M67 3c-93-2-31-127-26-193h32L48-50c-3 39 53 32 70 12 30-34 30-101 43-152h32L157 0h-30c1-10 6-24 4-33-14 20-29 37-64 36" id="s"/><g id="d"><use transform="matrix(0.06172839506172839,0,0,0.06172839506172839,0,0)" xlink:href="#s"/><use transform="matrix(0.06172839506172839,0,0,0.06172839506172839,12.345679012345679,0)" xlink:href="#p"/><use transform="matrix(0.06172839506172839,0,0,0.06172839506172839,24.691358024691358,0)" xlink:href="#q"/><use transform="matrix(0.06172839506172839,0,0,0.06172839506172839,37.03703703703704,0)" xlink:href="#h"/><use transform="matrix(0.06172839506172839,0,0,0.06172839506172839,49.382716049382715,0)" xlink:href="#i"/><use transform="matrix(0.06172839506172839,0,0,0.06172839506172839,56.72839506172839,0)" xlink:href="#j"/><use transform="matrix(0.06172839506172839,0,0,0.06172839506172839,67.8395061728395,0)" xlink:href="#k"/><use transform="matrix(0.06172839506172839,0,0,0.06172839506172839,80.18518518518519,0)" xlink:href="#f"/><use transform="matrix(0.06172839506172839,0,0,0.06172839506172839,92.53086419753087,0)" xlink:href="#f"/><use transform="matrix(0.06172839506172839,0,0,0.06172839506172839,104.87654320987656,0)" xlink:href="#l"/></g><path fill="#3a414a" d="M249-183c0 48-29 72-75 77L221 0h-36l-43-103H65L45 0H11l48-248c83 2 190-17 190 65zm-34 3c0-55-74-39-127-41l-18 92c63-1 145 13 145-51" id="t"/><path fill="#3a414a" d="M67-162c32-53 139-36 121 50C175-51 163 2 97 4 68 4 52-11 42-31 38 6 28 39 22 75H-9l50-265h29c-1 10 0 20-3 28zm89 36c0-26-10-43-35-43-54 0-67 50-69 103-1 29 14 45 42 46 53 0 62-58 62-106" id="u"/><path fill="#3a414a" d="M-8 0l5-24 140-142H31l5-24h145l-5 24L36-24h119l-5 24H-8" id="v"/><path fill="#3a414a" d="M50-231l6-30h32l-6 30H50zM6 0l37-190h31L37 0H6" id="w"/><g id="e"><use transform="matrix(0.06172839506172839,0,0,0.06172839506172839,0,0)" xlink:href="#t"/><use transform="matrix(0.06172839506172839,0,0,0.06172839506172839,15.987654320987653,0)" xlink:href="#s"/><use transform="matrix(0.06172839506172839,0,0,0.06172839506172839,28.333333333333332,0)" xlink:href="#k"/><use transform="matrix(0.06172839506172839,0,0,0.06172839506172839,40.67901234567901,0)" xlink:href="#h"/><use transform="matrix(0.06172839506172839,0,0,0.06172839506172839,53.02469135802469,0)" xlink:href="#u"/><use transform="matrix(0.06172839506172839,0,0,0.06172839506172839,65.37037037037037,0)" xlink:href="#f"/><use transform="matrix(0.06172839506172839,0,0,0.06172839506172839,77.71604938271605,0)" xlink:href="#l"/><use transform="matrix(0.06172839506172839,0,0,0.06172839506172839,83.88888888888889,0)" xlink:href="#h"/><use transform="matrix(0.06172839506172839,0,0,0.06172839506172839,96.23456790123457,0)" xlink:href="#p"/><use transform="matrix(0.06172839506172839,0,0,0.06172839506172839,108.58024691358025,0)" xlink:href="#v"/><use transform="matrix(0.06172839506172839,0,0,0.06172839506172839,119.69135802469137,0)" xlink:href="#w"/><use transform="matrix(0.06172839506172839,0,0,0.06172839506172839,124.56790123456791,0)" xlink:href="#n"/><use transform="matrix(0.06172839506172839,0,0,0.06172839506172839,136.9135802469136,0)" xlink:href="#o"/></g></defs></g></svg>