<svg xmlns="http://www.w3.org/2000/svg" xmlns:xlink="http://www.w3.org/1999/xlink" xmlns:lucid="lucid" width="941" height="604.33"><g transform="translate(760.5 -419.5)" lucid:page-tab-id="0_0"><path d="M-1000 0H500v1500h-1500z" fill="#fff"/><path d="M-380 446a6 6 0 0 1 6-6H94a6 6 0 0 1 6 6v408a6 6 0 0 1-6 6h-468a6 6 0 0 1-6-6z" stroke="#000" stroke-opacity="0" fill="#fff"/><path d="M-378.52 779.46l13.42-2.42 9.74-2.38 7.1-2.2 5.5-2.1 4.5-2.03 3.8-2 3.27-2 2.92-2.03 2.62-2.08 2.4-2.16 2.26-2.3 2.14-2.44 2.05-2.67 2-2.96 2-3.4 2-3.94 2.1-4.8 2.25-6.2 2.57-8.73 3.46-15.15L-299 698l28.92-140.5 11.3-46.83 2.83-9.8.95-2.87 6.7-16.52 3.45-6.22 2.18-3.03 1.54-1.68 1.2-1.03.95-.65.82-.42.72-.28.66-.17.63-.08h.6l.62.06.62.14.65.23.72.36.82.53.94.8 1.18 1.2 1.53 2.03 2.17 3.7 3.5 8.03 7.47 24.97L-212 524l44.45 209.6 3.87 13.4 3.06 9.1 2.64 6.92 2.4 5.55 2.24 4.65 2.15 4 2.1 3.56 2.07 3.2 2.08 2.9 2.1 2.72 2.15 2.55 2.23 2.42 2.34 2.34 2.47 2.28 2.65 2.24 2 1.58 1.32.96 1.4.93 1.47.9 1.56.86 1.68.83 1.8.8 1.93.77 2.1.73 2.28.7 2.5.64 2.76.6 3.07.5 3.43.45 3.9.32 4.44.2h5.17l6.12-.25 7.38-.6 9.2-1.17 12.12-2.04 17.7-3.76 95.03-24 9.17-1.54 6.67-.84 5.13-.42 4.14-.17h3.4l2.87.13 2.46.2 2.13.28 1.87.32 1.34.28" stroke="#3a414a" stroke-width="3" stroke-linejoin="round" fill="none"/><path d="M-378.22 780.93l-1.78.32v-3.04l1.25-.22z" stroke="#3a414a" stroke-width=".05" fill="#3a414a"/><path d="M98.5 779.62l1.5.38" stroke="#3a414a" stroke-width="3" fill="none"/><path d="M-379.75 780.5a.25.25 0 0 1 .25-.25h479a.25.25 0 0 1 .25.25.25.25 0 0 1-.25.25h-479a.25.25 0 0 1-.25-.25z" fill="none"/><path d="M-376 780.25h3m1.98 0h3m2 0h3m1.98 0h3m2 0h3m1.98 0h3m2 0h2.98m2 0h3m2 0h2.98m2 0h3m2 0h2.98m2 0h3m2 0h2.98m2 0h3m2 0h2.98m2 0h3m2 0h2.98m2 0h3m2 0h2.98m2 0h3m1.98 0h3m2 0h3m1.98 0h3m2 0h3m1.98 0h3m2 0h3m1.98 0h3m2 0h3m1.98 0h3m2 0h2.98m2 0h3m2 0h2.98m2 0h3m2 0h2.98m2 0h3m2 0h2.98m2 0h3m2 0h2.98m2 0h3m2 0h2.98m2 0h3m2 0h2.98m2 0h3m1.98 0h3m2 0h3m1.98 0h3m2 0h3m1.98 0h3m2 0h3m1.98 0h3m2 0h3m1.98 0h3m2 0h2.98m2 0h3m2 0h2.98m2 0h3m2 0h2.98m2 0h3m2 0h2.98m2 0h3m2 0h2.98m2 0h3m2 0h2.98m2 0h3m2 0h2.98m2 0h3m1.98 0h3m2 0h3m1.98 0h3m2 0h3m1.98 0h3m2 0h3m1.98 0h3m2 0h3m1.98 0h3m2 0H1.2m2 0h3m2 0h2.98m2 0h3m2 0h2.98m2 0h3m2 0h2.98m2 0h3m2 0h2.98m2 0h3m2 0h2.98m2 0h3m2 0h2.98m2 0h3m2 0h2.98m2 0h3m1.98 0h3m2 0h3m1.98 0h3m2 0h3m1.98 0h1.58l.03.03.05.02.03.02.02.03.02.04.02.02v.16l-.02.03-.02.05-.02.03-.03.02-.04.02-.02.02H98m-2 0h-3m-1.98 0h-3m-2 0h-3m-1.98 0h-3m-2 0h-2.98m-2 0h-3m-2 0H63.1m-2 0h-3m-2 0H53.1m-2 0h-3m-2 0h-2.98m-2 0h-3m-2 0h-2.98m-2 0h-3m-2 0h-2.98m-2 0h-3m-2 0H13.2m-2 0h-3m-1.98 0h-3m-2 0h-3m-1.98 0h-3m-2 0h-3m-1.98 0h-3m-2 0h-3m-1.98 0h-3m-2 0h-3m-1.98 0h-3m-2 0h-2.98m-2 0h-3m-2 0h-2.98m-2 0h-3m-2 0h-2.98m-2 0h-3m-2 0h-2.98m-2 0h-3m-2 0h-2.98m-2 0h-3m-2 0h-2.98m-2 0h-3m-2 0h-2.98m-2 0h-3m-2 0h-2.98m-2 0h-3m-1.98 0h-3m-2 0h-3m-1.98 0h-3m-2 0h-3m-1.98 0h-3m-2 0h-3m-1.98 0h-3m-2 0h-3m-1.98 0h-3m-2 0h-2.98m-2 0h-3m-2 0h-2.98m-2 0h-3m-2 0h-2.98m-2 0h-3m-2 0h-2.98m-2 0h-3m-2 0h-2.98m-2 0h-3m-2 0h-2.98m-2 0h-3m-2 0h-2.98m-2 0h-3m-2 0h-2.98m-2 0h-3m-1.98 0h-3m-2 0h-3m-1.98 0h-3m-2 0h-3m-1.98 0h-3m-2 0h-3m-1.98 0h-3m-2 0h-2.98m-2 0h-3m-2 0h-2.98m-2 0h-3m-2 0h-2.98m-2 0h-3m-2 0h-2.98m-2 0h-3m-2 0h-2.98m-2 0h-3m-2 0h-2.98m-2 0h-3m-2 0h-2.98m-2 0h-3m-2 0h-2.98m-2 0h-3m-2 0h-2.98m-2 0h-3m-1.98 0h-3m-2 0h-3m-1.98 0h-1.58l-.03-.02-.05-.02-.03-.02-.02-.03-.02-.04-.02-.02v-.16l.02-.03.02-.05.02-.03.03-.02.04-.02.02-.02h1.58" stroke="#3a414a" stroke-width=".5" fill="none"/><path d="M-379.75 560.5a.25.25 0 0 1 .25-.25h479a.25.25 0 0 1 .25.25.25.25 0 0 1-.25.25h-479a.25.25 0 0 1-.25-.25z" fill="none"/><path d="M-376 560.25h3m1.98 0h3m2 0h3m1.98 0h3m2 0h3m1.98 0h3m2 0h2.98m2 0h3m2 0h2.98m2 0h3m2 0h2.98m2 0h3m2 0h2.98m2 0h3m2 0h2.98m2 0h3m2 0h2.98m2 0h3m2 0h2.98m2 0h3m1.98 0h3m2 0h3m1.98 0h3m2 0h3m1.98 0h3m2 0h3m1.98 0h3m2 0h3m1.98 0h3m2 0h2.98m2 0h3m2 0h2.98m2 0h3m2 0h2.98m2 0h3m2 0h2.98m2 0h3m2 0h2.98m2 0h3m2 0h2.98m2 0h3m2 0h2.98m2 0h3m1.98 0h3m2 0h3m1.98 0h3m2 0h3m1.98 0h3m2 0h3m1.98 0h3m2 0h3m1.98 0h3m2 0h2.98m2 0h3m2 0h2.98m2 0h3m2 0h2.98m2 0h3m2 0h2.98m2 0h3m2 0h2.98m2 0h3m2 0h2.98m2 0h3m2 0h2.98m2 0h3m1.98 0h3m2 0h3m1.98 0h3m2 0h3m1.98 0h3m2 0h3m1.98 0h3m2 0h3m1.98 0h3m2 0H1.2m2 0h3m2 0h2.98m2 0h3m2 0h2.98m2 0h3m2 0h2.98m2 0h3m2 0h2.98m2 0h3m2 0h2.98m2 0h3m2 0h2.98m2 0h3m2 0h2.98m2 0h3m1.98 0h3m2 0h3m1.98 0h3m2 0h3m1.98 0h1.58l.03.03.05.02.03.02.02.03.02.04.02.02v.16l-.02.03-.02.05-.02.03-.03.02-.04.02-.02.02H98m-2 0h-3m-1.98 0h-3m-2 0h-3m-1.98 0h-3m-2 0h-2.98m-2 0h-3m-2 0H63.1m-2 0h-3m-2 0H53.1m-2 0h-3m-2 0h-2.98m-2 0h-3m-2 0h-2.98m-2 0h-3m-2 0h-2.98m-2 0h-3m-2 0H13.2m-2 0h-3m-1.98 0h-3m-2 0h-3m-1.98 0h-3m-2 0h-3m-1.98 0h-3m-2 0h-3m-1.98 0h-3m-2 0h-3m-1.98 0h-3m-2 0h-2.98m-2 0h-3m-2 0h-2.98m-2 0h-3m-2 0h-2.98m-2 0h-3m-2 0h-2.98m-2 0h-3m-2 0h-2.98m-2 0h-3m-2 0h-2.98m-2 0h-3m-2 0h-2.98m-2 0h-3m-2 0h-2.98m-2 0h-3m-1.98 0h-3m-2 0h-3m-1.98 0h-3m-2 0h-3m-1.98 0h-3m-2 0h-3m-1.98 0h-3m-2 0h-3m-1.98 0h-3m-2 0h-2.98m-2 0h-3m-2 0h-2.98m-2 0h-3m-2 0h-2.98m-2 0h-3m-2 0h-2.98m-2 0h-3m-2 0h-2.98m-2 0h-3m-2 0h-2.98m-2 0h-3m-2 0h-2.98m-2 0h-3m-2 0h-2.98m-2 0h-3m-1.98 0h-3m-2 0h-3m-1.98 0h-3m-2 0h-3m-1.98 0h-3m-2 0h-3m-1.98 0h-3m-2 0h-2.98m-2 0h-3m-2 0h-2.98m-2 0h-3m-2 0h-2.98m-2 0h-3m-2 0h-2.98m-2 0h-3m-2 0h-2.98m-2 0h-3m-2 0h-2.98m-2 0h-3m-2 0h-2.98m-2 0h-3m-2 0h-2.98m-2 0h-3m-2 0h-2.98m-2 0h-3m-1.98 0h-3m-2 0h-3m-1.98 0h-1.58l-.03-.02-.05-.02-.03-.02-.02-.03-.02-.04-.02-.02v-.16l.02-.03.02-.05.02-.03.03-.02.04-.02.02-.02h1.58" stroke="#3a414a" stroke-width=".5" fill="none"/><path d="M-200 462a6 6 0 0 1 6-6H34a6 6 0 0 1 6 6v48a6 6 0 0 1-6 6h-228a6 6 0 0 1-6-6z" stroke="#000" stroke-opacity="0" fill="#fff" fill-opacity="0"/><use xlink:href="#a" transform="matrix(1,0,0,1,-195,461) translate(1.5740740740740762 30.27777777777778)"/><use xlink:href="#b" transform="matrix(1,0,0,1,-195,461) translate(105.21604938271605 30.27777777777778)"/><use xlink:href="#c" transform="matrix(1,0,0,1,-195,461) translate(143.42592592592592 30.27777777777778)"/><use xlink:href="#d" transform="matrix(1,0,0,1,-195,461) translate(156.94444444444446 30.27777777777778)"/><use xlink:href="#e" transform="matrix(1,0,0,1,-195,461) translate(187.80864197530866 30.27777777777778)"/><path d="M-200 812a6 6 0 0 1 6-6H34a6 6 0 0 1 6 6v48a6 6 0 0 1-6 6h-228a6 6 0 0 1-6-6z" stroke="#000" stroke-opacity="0" fill="#fff" fill-opacity="0"/><use xlink:href="#f" transform="matrix(1,0,0,1,-195,811) translate(4.691358024691397 30.27777777777778)"/><path d="M-740 755a6 6 0 0 1 6-6h228a6 6 0 0 1 6 6v51.33a6 6 0 0 1-6 6h-228a6 6 0 0 1-6-6z" stroke="#fff" fill-opacity="0"/><use xlink:href="#g" transform="matrix(1,0,0,1,-735,754) translate(44.10493827160494 21.15277777777778)"/><use xlink:href="#h" transform="matrix(1,0,0,1,-735,754) translate(17.65432098765433 47.81944444444444)"/><use xlink:href="#i" transform="matrix(1,0,0,1,-735,754) translate(60.80246913580248 47.81944444444444)"/><use xlink:href="#j" transform="matrix(1,0,0,1,-735,754) translate(99.01234567901236 47.81944444444444)"/><use xlink:href="#k" transform="matrix(1,0,0,1,-735,754) translate(133.51851851851853 47.81944444444444)"/><use xlink:href="#l" transform="matrix(1,0,0,1,-735,754) translate(171.7283950617284 47.81944444444444)"/><path d="M-580 716a6 6 0 0 1 6-6h228a6 6 0 0 1 6 6v27a6 6 0 0 1-6 6h-228a6 6 0 0 1-6-6z" stroke="#fff" fill-opacity="0"/><use xlink:href="#m" transform="matrix(1,0,0,1,-575,715) translate(70.64814814814815 19.59027777777778)"/><path d="M-487.78 744.98l131.6-.03M-487.77 744.98h-.5" stroke="#3a414a" fill="none"/><path d="M-341.42 744.94l-14.26 4.64v-9.27z" stroke="#3a414a" fill="#3a414a"/><path d="M-509.5 781h83.12M-509.5 781h-.5" stroke="#3a414a" fill="none"/><path d="M-411.62 781l-14.26 4.63v-9.26z" stroke="#3a414a" fill="#3a414a"/><path d="M106 860a6 6 0 0 1-6-6V626a6 6 0 0 1 6-6h48a6 6 0 0 1 6 6v228a6 6 0 0 1-6 6z" stroke="#000" stroke-opacity="0" fill="#fff" fill-opacity="0"/><use xlink:href="#n" transform="matrix(6.123233995736766e-17,-1,1,6.123233995736766e-17,105,855) translate(7.560493827160485 29.84722222222222)"/><use xlink:href="#o" transform="matrix(6.123233995736766e-17,-1,1,6.123233995736766e-17,105,855) translate(158.4246913580247 29.84722222222222)"/><use xlink:href="#p" transform="matrix(6.123233995736766e-17,-1,1,6.123233995736766e-17,105,855) translate(184.06913580246913 29.84722222222222)"/><path d="M-379.5 891H83.62M-379.5 891h-.5" stroke="#3a414a" fill="none"/><path d="M98.38 891l-14.26 4.63v-9.26z" stroke="#3a414a" fill="#3a414a"/><path d="M110 546.5a6 6 0 0 1 6-6h28a6 6 0 0 1 6 6v28a6 6 0 0 1-6 6h-28a6 6 0 0 1-6-6z" stroke="#000" stroke-opacity="0" fill="#fff" fill-opacity="0"/><use xlink:href="#q" transform="matrix(1,0,0,1,115,545.5) translate(8.827160493827162 19.65277777777778)"/><path d="M110 522a6 6 0 0 1 6-6h28a6 6 0 0 1 6 6v28a6 6 0 0 1-6 6h-28a6 6 0 0 1-6-6z" stroke="#000" stroke-opacity="0" fill="#fff" fill-opacity="0"/><use xlink:href="#r" transform="matrix(1,0,0,1,115,521) translate(8.518518518518519 19.65277777777778)"/><path d="M110 567a6 6 0 0 1 6-6h28a6 6 0 0 1 6 6v28a6 6 0 0 1-6 6h-28a6 6 0 0 1-6-6z" stroke="#000" stroke-opacity="0" fill="#fff" fill-opacity="0"/><use xlink:href="#s" transform="matrix(1,0,0,1,115,566) translate(11.327160493827162 19.65277777777778)"/><path d="M-354.1 770.02a6 6 0 0 1-4.8-7l42.13-224.08a6 6 0 0 1 7-4.8l47.18 8.88a6 6 0 0 1 4.8 7l-42.12 224.08a6 6 0 0 1-7 4.8z" stroke="#000" stroke-opacity="0" fill="#fff" fill-opacity="0"/><use xlink:href="#t" transform="matrix(0.18473437406878634,-0.9827884874363424,0.9827884874363424,0.18473437406878634,-354.16238569247434,764.925666989035) translate(58.33333333333335 29.84722222222222)"/><path d="M-166.25 528.86a6 6 0 0 1 7.1 4.64l46.35 221.75a6 6 0 0 1-4.64 7.1l-47.87 10a6 6 0 0 1-7.1-4.64l-46.36-221.74a6 6 0 0 1 4.64-7.1z" stroke="#000" stroke-opacity="0" fill="#fff" fill-opacity="0"/><g><use xlink:href="#u" transform="matrix(0.20460653656078617,0.9788443007938493,-0.9788443007938493,0.20460653656078617,-164.24860864595786,533.546769910823) translate(57.83333333333335 30.15972222222222)"/></g><path d="M20 906a6 6 0 0 1 6-6h76.43a6 6 0 0 1 6 6v28a6 6 0 0 1-6 6H26a6 6 0 0 1-6-6z" stroke="#fff" fill-opacity="0"/><g><use xlink:href="#v" transform="matrix(1,0,0,1,25,905) translate(21.04320987654321 19.65277777777778)"/></g><path d="M-308.35 906a6 6 0 0 1 6-6H-186a6 6 0 0 1 6 6v28a6 6 0 0 1-6 6h-116.35a6 6 0 0 1-6-6z" stroke="#3a414a" fill="#fff"/><path d="M-408.35 902.8a6 6 0 0 1 6-6H-166a6 6 0 0 1 6 6V914a6 6 0 0 1-6 6h-236.35a6 6 0 0 1-6-6z" stroke="#000" stroke-opacity="0" fill="#fff"/><path d="M-328.43 946a6 6 0 0 1 6-6H-166a6 6 0 0 1 6 6v51.33a6 6 0 0 1-6 6h-156.43a6 6 0 0 1-6-6z" stroke="#000" stroke-opacity="0" fill-opacity="0"/><g><use xlink:href="#w" transform="matrix(1,0,0,1,-323.42943909073483,944.9999999999999) translate(37.55555555555556 31.27777777777778)"/><use xlink:href="#x" transform="matrix(1,0,0,1,-323.42943909073483,944.9999999999999) translate(73.35802469135803 31.27777777777778)"/><use xlink:href="#y" transform="matrix(1,0,0,1,-323.42943909073483,944.9999999999999) translate(91.87654320987654 31.27777777777778)"/></g><path d="M100 853.5V463.4" stroke="#3a414a" fill="none"/><path d="M100 854l-.07.94-.22.9-.2.5v-2.85h.5z" stroke="#3a414a" stroke-width=".05" fill="#3a414a"/><path d="M100 448.64l4.64 14.26h-9.28z" stroke="#3a414a" fill="#3a414a"/><defs><path fill="#3a414a" d="M30-147c31-64 166-65 159 27C183-49 158 1 86 4 9 8 1-88 30-147zM88-20c53 0 68-48 68-100 0-31-11-51-44-50-52 1-68 46-68 97 0 32 13 53 44 53" id="z"/><path fill="#3a414a" d="M89 0H52L20-190h33L74-25l89-165h34" id="A"/><path fill="#3a414a" d="M111-194c62-3 86 47 72 106H45c-7 38 6 69 45 68 27-1 43-14 53-32l24 11C152-15 129 4 87 4 38 3 12-23 12-71c0-70 32-119 99-123zm44 81c14-66-71-72-95-28-4 8-8 17-11 28h106" id="B"/><path fill="#3a414a" d="M66-151c12-25 30-51 66-40l-6 26C45-176 58-65 38 0H6l36-190h30" id="C"/><path fill="#3a414a" d="M55-144c13 50 104 24 104 88C159 21 15 23 1-39l26-10c6 40 102 42 102-4-13-50-104-23-104-87 0-71 143-71 148-8l-29 4c-5-35-85-37-89 0" id="D"/><path fill="#3a414a" d="M67-158c15-20 31-36 64-36 94 0 33 127 27 194h-32l25-140c3-38-53-32-70-12C52-117 51-51 37 0H6l51-261h31" id="E"/><path fill="#3a414a" d="M51-54c-9 22 5 41 31 30L79-1C43 14 10-4 19-52l22-115H19l5-23h22l19-43h21l-9 43h35l-4 23H73" id="F"/><g id="a"><use transform="matrix(0.06172839506172839,0,0,0.06172839506172839,0,0)" xlink:href="#z"/><use transform="matrix(0.06172839506172839,0,0,0.06172839506172839,12.345679012345679,0)" xlink:href="#A"/><use transform="matrix(0.06172839506172839,0,0,0.06172839506172839,23.45679012345679,0)" xlink:href="#B"/><use transform="matrix(0.06172839506172839,0,0,0.06172839506172839,35.80246913580247,0)" xlink:href="#C"/><use transform="matrix(0.06172839506172839,0,0,0.06172839506172839,43.148148148148145,0)" xlink:href="#D"/><use transform="matrix(0.06172839506172839,0,0,0.06172839506172839,54.25925925925925,0)" xlink:href="#E"/><use transform="matrix(0.06172839506172839,0,0,0.06172839506172839,66.60493827160494,0)" xlink:href="#z"/><use transform="matrix(0.06172839506172839,0,0,0.06172839506172839,78.95061728395062,0)" xlink:href="#z"/><use transform="matrix(0.06172839506172839,0,0,0.06172839506172839,91.2962962962963,0)" xlink:href="#F"/></g><path fill="#3a414a" d="M87 75C49 33 22-17 22-94c0-76 28-126 65-167h31c-38 41-64 92-64 168S80 34 118 75H87" id="G"/><path fill="#3a414a" d="M101-251c82-7 93 87 43 132L82-64C71-53 59-42 53-27h129V0H18c2-99 128-94 128-182 0-28-16-43-45-43s-46 15-49 41l-32-3c6-41 34-60 81-64" id="H"/><path fill="#3a414a" d="M101-251c68 0 85 55 85 127S166 4 100 4C33 4 14-52 14-124c0-73 17-127 87-127zm-1 229c47 0 54-49 54-102s-4-102-53-102c-51 0-55 48-55 102 0 53 5 102 54 102" id="I"/><g id="b"><use transform="matrix(0.06172839506172839,0,0,0.06172839506172839,0,0)" xlink:href="#G"/><use transform="matrix(0.06172839506172839,0,0,0.06172839506172839,7.345679012345679,0)" xlink:href="#H"/><use transform="matrix(0.06172839506172839,0,0,0.06172839506172839,19.691358024691358,0)" xlink:href="#I"/></g><path fill="#3a414a" d="M16-82v-28h88v28H16" id="J"/><use transform="matrix(0.06172839506172839,0,0,0.06172839506172839,0,0)" xlink:href="#J" id="c"/><path fill="#3a414a" d="M126-127c33 6 58 20 58 59 0 88-139 92-164 29-3-8-5-16-6-25l32-3c6 27 21 44 54 44 32 0 52-15 52-46 0-38-36-46-79-43v-28c39 1 72-4 72-42 0-27-17-43-46-43-28 0-47 15-49 41l-32-3c6-42 35-63 81-64 48-1 79 21 79 65 0 36-21 52-52 59" id="K"/><g id="d"><use transform="matrix(0.06172839506172839,0,0,0.06172839506172839,0,0)" xlink:href="#K"/><use transform="matrix(0.06172839506172839,0,0,0.06172839506172839,12.345679012345679,0)" xlink:href="#I"/></g><path fill="#3a414a" d="M210-169c-67 3-38 105-44 169h-31v-121c0-29-5-50-35-48C34-165 62-65 56 0H25l-1-190h30c1 10-1 24 2 32 10-44 99-50 107 0 11-21 27-35 58-36 85-2 47 119 55 194h-31v-121c0-29-5-49-35-48" id="L"/><path fill="#3a414a" d="M137 0h-34L2-248h35l83 218 83-218h36" id="M"/><path fill="#3a414a" d="M33-261c38 41 65 92 65 168S71 34 33 75H2C39 34 66-17 66-93S39-220 2-261h31" id="N"/><g id="e"><use transform="matrix(0.06172839506172839,0,0,0.06172839506172839,0,0)" xlink:href="#L"/><use transform="matrix(0.06172839506172839,0,0,0.06172839506172839,18.456790123456788,0)" xlink:href="#M"/><use transform="matrix(0.06172839506172839,0,0,0.06172839506172839,33.2716049382716,0)" xlink:href="#N"/></g><path fill="#3a414a" d="M173 0L80-213 41 0H11l48-248h37l94 214 40-214h30L212 0h-39" id="O"/><path fill="#3a414a" d="M165-48c-4 18 1 34 23 27l-3 20c-29 8-62 0-52-35h-2C116-14 99 4 63 4 30 4 8-16 8-49c0-68 71-67 138-67 10-26 0-56-31-54-26 1-42 9-47 31l-32-5c8-67 160-71 144 15-5 28-9 54-15 81zM42-50c3 52 80 24 89-6 7-12 7-24 11-38-47 1-103-4-100 44" id="P"/><path fill="#3a414a" d="M44-68c0 29 11 47 38 47 30 0 42-19 51-41l28 9C148-21 126 4 82 4 31 4 10-29 12-85c3-77 74-140 146-93 12 8 15 23 18 40l-31 5c-1-22-13-36-36-36-52 0-65 49-65 101" id="Q"/><path fill="#3a414a" d="M198-190L69 30C53 58 25 83-20 72c4-11-1-27 19-22 33-1 43-29 59-52L20-190h32L79-34l84-156h35" id="R"/><path fill="#3a414a" d="M67-162c32-53 139-36 121 50C175-51 163 2 97 4 68 4 52-11 42-31 38 6 28 39 22 75H-9l50-265h29c-1 10 0 20-3 28zm89 36c0-26-10-43-35-43-54 0-67 50-69 103-1 29 14 45 42 46 53 0 62-58 62-106" id="S"/><path fill="#3a414a" d="M6 0l50-261h32L37 0H6" id="T"/><path fill="#3a414a" d="M50-231l6-30h32l-6 30H50zM6 0l37-190h31L37 0H6" id="U"/><path fill="#3a414a" d="M67-158c22-48 132-52 116 29L158 0h-32l25-140c3-38-53-32-70-12C52-117 51-52 38 0H6l36-190h30" id="V"/><g id="f"><use transform="matrix(0.06172839506172839,0,0,0.06172839506172839,0,0)" xlink:href="#O"/><use transform="matrix(0.06172839506172839,0,0,0.06172839506172839,15.987654320987653,0)" xlink:href="#P"/><use transform="matrix(0.06172839506172839,0,0,0.06172839506172839,28.333333333333332,0)" xlink:href="#Q"/><use transform="matrix(0.06172839506172839,0,0,0.06172839506172839,39.44444444444444,0)" xlink:href="#E"/><use transform="matrix(0.06172839506172839,0,0,0.06172839506172839,51.79012345679012,0)" xlink:href="#E"/><use transform="matrix(0.06172839506172839,0,0,0.06172839506172839,64.1358024691358,0)" xlink:href="#R"/><use transform="matrix(0.06172839506172839,0,0,0.06172839506172839,75.24691358024691,0)" xlink:href="#S"/><use transform="matrix(0.06172839506172839,0,0,0.06172839506172839,87.5925925925926,0)" xlink:href="#B"/><use transform="matrix(0.06172839506172839,0,0,0.06172839506172839,99.93827160493828,0)" xlink:href="#C"/><use transform="matrix(0.06172839506172839,0,0,0.06172839506172839,107.28395061728396,0)" xlink:href="#S"/><use transform="matrix(0.06172839506172839,0,0,0.06172839506172839,119.62962962962965,0)" xlink:href="#z"/><use transform="matrix(0.06172839506172839,0,0,0.06172839506172839,131.97530864197532,0)" xlink:href="#T"/><use transform="matrix(0.06172839506172839,0,0,0.06172839506172839,136.85185185185185,0)" xlink:href="#P"/><use transform="matrix(0.06172839506172839,0,0,0.06172839506172839,149.19753086419752,0)" xlink:href="#C"/><use transform="matrix(0.06172839506172839,0,0,0.06172839506172839,156.5432098765432,0)" xlink:href="#U"/><use transform="matrix(0.06172839506172839,0,0,0.06172839506172839,161.41975308641972,0)" xlink:href="#D"/><use transform="matrix(0.06172839506172839,0,0,0.06172839506172839,172.53086419753083,0)" xlink:href="#P"/><use transform="matrix(0.06172839506172839,0,0,0.06172839506172839,184.8765432098765,0)" xlink:href="#F"/><use transform="matrix(0.06172839506172839,0,0,0.06172839506172839,191.04938271604934,0)" xlink:href="#U"/><use transform="matrix(0.06172839506172839,0,0,0.06172839506172839,195.92592592592587,0)" xlink:href="#z"/><use transform="matrix(0.06172839506172839,0,0,0.06172839506172839,208.27160493827154,0)" xlink:href="#V"/></g><path fill="#3a414a" d="M249-183c0 48-29 72-75 77L221 0h-36l-43-103H65L45 0H11l48-248c83 2 190-17 190 65zm-34 3c0-55-74-39-127-41l-18 92c63-1 145 13 145-51" id="W"/><path fill="#3a414a" d="M67 3c-93-2-31-127-26-193h32L48-50c-3 39 53 32 70 12 30-34 30-101 43-152h32L157 0h-30c1-10 6-24 4-33-14 20-29 37-64 36" id="X"/><path fill="#3a414a" d="M-8 0l5-24 140-142H31l5-24h145l-5 24L36-24h119l-5 24H-8" id="Y"/><g id="g"><use transform="matrix(0.06172839506172839,0,0,0.06172839506172839,0,0)" xlink:href="#W"/><use transform="matrix(0.06172839506172839,0,0,0.06172839506172839,15.987654320987653,0)" xlink:href="#X"/><use transform="matrix(0.06172839506172839,0,0,0.06172839506172839,28.333333333333332,0)" xlink:href="#E"/><use transform="matrix(0.06172839506172839,0,0,0.06172839506172839,40.67901234567901,0)" xlink:href="#B"/><use transform="matrix(0.06172839506172839,0,0,0.06172839506172839,53.02469135802469,0)" xlink:href="#S"/><use transform="matrix(0.06172839506172839,0,0,0.06172839506172839,65.37037037037037,0)" xlink:href="#z"/><use transform="matrix(0.06172839506172839,0,0,0.06172839506172839,77.71604938271605,0)" xlink:href="#F"/><use transform="matrix(0.06172839506172839,0,0,0.06172839506172839,83.88888888888889,0)" xlink:href="#B"/><use transform="matrix(0.06172839506172839,0,0,0.06172839506172839,96.23456790123457,0)" xlink:href="#V"/><use transform="matrix(0.06172839506172839,0,0,0.06172839506172839,108.58024691358025,0)" xlink:href="#Y"/><use transform="matrix(0.06172839506172839,0,0,0.06172839506172839,119.69135802469137,0)" xlink:href="#U"/><use transform="matrix(0.06172839506172839,0,0,0.06172839506172839,124.56790123456791,0)" xlink:href="#P"/><use transform="matrix(0.06172839506172839,0,0,0.06172839506172839,136.9135802469136,0)" xlink:href="#T"/></g><path fill="#3a414a" d="M17-49c1-102 45-165 103-212h30C92-210 49-145 49-46 49 4 63 43 85 75H54C30 43 18 2 17-49" id="Z"/><path fill="#3a414a" d="M14 0l8-38h34L48 0H14" id="aa"/><g id="h"><use transform="matrix(0.06172839506172839,0,0,0.06172839506172839,0,0)" xlink:href="#Z"/><use transform="matrix(0.06172839506172839,0,0,0.06172839506172839,7.345679012345679,0)" xlink:href="#Q"/><use transform="matrix(0.06172839506172839,0,0,0.06172839506172839,18.45679012345679,0)" xlink:href="#P"/><use transform="matrix(0.06172839506172839,0,0,0.06172839506172839,30.80246913580247,0)" xlink:href="#aa"/></g><path fill="#3a414a" d="M18-82l6-28h88l-6 28H18" id="ab"/><path fill="#3a414a" d="M206-222l-58 71C115-108 89-62 76 0H43c20-96 77-159 130-221H37l5-27h169" id="ac"/><path fill="#3a414a" d="M16-82c0-90 25-169 113-169 48 0 68 33 68 82C197-79 170 4 84 4 37 4 16-31 16-82zm30 5c0 32 11 55 40 55 69 0 76-79 80-149 2-32-10-55-39-55-69 0-81 81-81 149" id="ad"/><g id="i"><use transform="matrix(0.06172839506172839,0,0,0.06172839506172839,0,0)" xlink:href="#ab"/><use transform="matrix(0.06172839506172839,0,0,0.06172839506172839,7.345679012345679,0)" xlink:href="#ac"/><use transform="matrix(0.06172839506172839,0,0,0.06172839506172839,19.691358024691358,0)" xlink:href="#ad"/></g><path fill="#3a414a" d="M68-162c25-46 127-43 121 31C183-60 169 1 98 4 69 5 53-11 43-31L36 0H5l52-261h31zm88 36c2-27-9-43-34-43-55 0-70 51-70 103 0 29 15 45 43 46 52 0 58-58 61-106" id="ae"/><g id="j"><use transform="matrix(0.06172839506172839,0,0,0.06172839506172839,0,0)" xlink:href="#ae"/><use transform="matrix(0.06172839506172839,0,0,0.06172839506172839,12.345679012345679,0)" xlink:href="#U"/><use transform="matrix(0.06172839506172839,0,0,0.06172839506172839,17.22222222222222,0)" xlink:href="#D"/></g><path fill="#3a414a" d="M40-53c7 41 73 38 88 5 14-18 25-43 30-72-13 20-31 35-60 35-44 0-69-27-69-70 0-57 32-96 91-96 58 0 76 44 72 106C186-56 125 37 35-9c-12-6-19-20-23-36zm62-57c67 0 87-116 17-116-39 0-58 29-58 71 1 27 12 45 41 45" id="af"/><g id="k"><use transform="matrix(0.06172839506172839,0,0,0.06172839506172839,0,0)" xlink:href="#ab"/><use transform="matrix(0.06172839506172839,0,0,0.06172839506172839,7.345679012345679,0)" xlink:href="#af"/><use transform="matrix(0.06172839506172839,0,0,0.06172839506172839,19.691358024691358,0)" xlink:href="#ad"/></g><path fill="#3a414a" d="M248-111c6-24 9-61-24-58-72 9-57 108-77 169h-31l26-142c3-37-50-30-64-10C52-115 50-51 37 0H6l36-190h30c-1 10-6 24-4 32 13-43 101-52 105 5 13-22 29-41 61-41 90 0 28 129 23 194h-31" id="ag"/><path fill="#3a414a" d="M119 0H84L31-248h34l41 218 126-218h36" id="ah"/><path fill="#3a414a" d="M98-137C97-35 54 29-4 75h-31C23 23 67-41 67-140c0-50-15-89-37-121h31c24 32 36 73 37 124" id="ai"/><g id="l"><use transform="matrix(0.06172839506172839,0,0,0.06172839506172839,0,0)" xlink:href="#ag"/><use transform="matrix(0.06172839506172839,0,0,0.06172839506172839,18.456790123456788,0)" xlink:href="#ah"/><use transform="matrix(0.06172839506172839,0,0,0.06172839506172839,33.2716049382716,0)" xlink:href="#ai"/></g><path fill="#3a414a" d="M194-120c59 52 2 134-86 124-53-6-90-18-98-63l31-7c8 30 29 43 70 43 46 0 84-17 71-62-32-43-135-20-137-98-3-89 178-90 191-16l-30 9c-8-48-127-53-127 5 0 53 81 35 115 65" id="aj"/><path fill="#3a414a" d="M188 0h-37l-8-164L71 0H34L18-190h31l8 164 75-164h34l8 164 74-164h31" id="ak"/><g id="m"><use transform="matrix(0.06172839506172839,0,0,0.06172839506172839,0,0)" xlink:href="#aj"/><use transform="matrix(0.06172839506172839,0,0,0.06172839506172839,14.814814814814813,0)" xlink:href="#Q"/><use transform="matrix(0.06172839506172839,0,0,0.06172839506172839,25.925925925925924,0)" xlink:href="#E"/><use transform="matrix(0.06172839506172839,0,0,0.06172839506172839,38.2716049382716,0)" xlink:href="#ak"/><use transform="matrix(0.06172839506172839,0,0,0.06172839506172839,54.25925925925925,0)" xlink:href="#B"/><use transform="matrix(0.06172839506172839,0,0,0.06172839506172839,66.60493827160494,0)" xlink:href="#T"/><use transform="matrix(0.06172839506172839,0,0,0.06172839506172839,71.48148148148148,0)" xlink:href="#T"/><use transform="matrix(0.06172839506172839,0,0,0.06172839506172839,76.35802469135803,0)" xlink:href="#B"/></g><path fill="#3a414a" d="M240 0l2-218c-23 76-54 145-80 218h-23L58-218 59 0H30v-248h44l77 211c21-75 51-140 76-211h43V0h-30" id="al"/><path fill="#3a414a" d="M100-194c63 0 86 42 84 106H49c0 40 14 67 53 68 26 1 43-12 49-29l28 8c-11 28-37 45-77 45C44 4 14-33 15-96c1-61 26-98 85-98zm52 81c6-60-76-77-97-28-3 7-6 17-6 28h103" id="am"/><path fill="#3a414a" d="M115-194c53 0 69 39 70 98 0 66-23 100-70 100C84 3 66-7 56-30L54 0H23l1-261h32v101c10-23 28-34 59-34zm-8 174c40 0 45-34 45-75 0-40-5-75-45-74-42 0-51 32-51 76 0 43 10 73 51 73" id="an"/><path fill="#3a414a" d="M114-163C36-179 61-72 57 0H25l-1-190h30c1 12-1 29 2 39 6-27 23-49 58-41v29" id="ao"/><path fill="#3a414a" d="M141-36C126-15 110 5 73 4 37 3 15-17 15-53c-1-64 63-63 125-63 3-35-9-54-41-54-24 1-41 7-42 31l-33-3c5-37 33-52 76-52 45 0 72 20 72 64v82c-1 20 7 32 28 27v20c-31 9-61-2-59-35zM48-53c0 20 12 33 32 33 41-3 63-29 60-74-43 2-92-5-92 41" id="ap"/><path fill="#3a414a" d="M117-194c89-4 53 116 60 194h-32v-121c0-31-8-49-39-48C34-167 62-67 57 0H25l-1-190h30c1 10-1 24 2 32 11-22 29-35 61-36" id="aq"/><path fill="#3a414a" d="M115-194c55 1 70 41 70 98S169 2 115 4C84 4 66-9 55-30l1 105H24l-1-265h31l2 30c10-21 28-34 59-34zm-8 174c40 0 45-34 45-75s-6-73-45-74c-42 0-51 32-51 76 0 43 10 73 51 73" id="ar"/><path fill="#3a414a" d="M100-194c62-1 85 37 85 99 1 63-27 99-86 99S16-35 15-95c0-66 28-99 85-99zM99-20c44 1 53-31 53-75 0-43-8-75-51-75s-53 32-53 75 10 74 51 75" id="as"/><path fill="#3a414a" d="M59-47c-2 24 18 29 38 22v24C64 9 27 4 27-40v-127H5v-23h24l9-43h21v43h35v23H59v120" id="at"/><path fill="#3a414a" d="M9 0v-24l116-142H16v-24h144v24L44-24h123V0H9" id="au"/><path fill="#3a414a" d="M24-231v-30h32v30H24zM24 0v-190h32V0H24" id="av"/><path fill="#3a414a" d="M24 0v-261h32V0H24" id="aw"/><g id="n"><use transform="matrix(0.049382716049382706,0,0,0.049382716049382706,0,0)" xlink:href="#al"/><use transform="matrix(0.049382716049382706,0,0,0.049382716049382706,14.765432098765428,0)" xlink:href="#am"/><use transform="matrix(0.049382716049382706,0,0,0.049382716049382706,24.641975308641968,0)" xlink:href="#L"/><use transform="matrix(0.049382716049382706,0,0,0.049382716049382706,39.4074074074074,0)" xlink:href="#an"/><use transform="matrix(0.049382716049382706,0,0,0.049382716049382706,49.283950617283935,0)" xlink:href="#ao"/><use transform="matrix(0.049382716049382706,0,0,0.049382716049382706,55.16049382716049,0)" xlink:href="#ap"/><use transform="matrix(0.049382716049382706,0,0,0.049382716049382706,65.03703703703702,0)" xlink:href="#aq"/><use transform="matrix(0.049382716049382706,0,0,0.049382716049382706,74.91358024691357,0)" xlink:href="#ar"/><use transform="matrix(0.049382716049382706,0,0,0.049382716049382706,84.79012345679011,0)" xlink:href="#as"/><use transform="matrix(0.049382716049382706,0,0,0.049382716049382706,94.66666666666666,0)" xlink:href="#at"/><use transform="matrix(0.049382716049382706,0,0,0.049382716049382706,99.60493827160492,0)" xlink:href="#am"/><use transform="matrix(0.049382716049382706,0,0,0.049382716049382706,109.48148148148147,0)" xlink:href="#aq"/><use transform="matrix(0.049382716049382706,0,0,0.049382716049382706,119.358024691358,0)" xlink:href="#au"/><use transform="matrix(0.049382716049382706,0,0,0.049382716049382706,128.2469135802469,0)" xlink:href="#av"/><use transform="matrix(0.049382716049382706,0,0,0.049382716049382706,132.14814814814815,0)" xlink:href="#ap"/><use transform="matrix(0.049382716049382706,0,0,0.049382716049382706,142.02469135802468,0)" xlink:href="#aw"/></g><path fill="#3a414a" d="M30 0v-248h187v28H63v79h144v27H63v87h162V0H30" id="ax"/><g id="o"><use transform="matrix(0.049382716049382706,0,0,0.049382716049382706,0,0)" xlink:href="#ax"/><use transform="matrix(0.03456790123456789,0,0,0.03456790123456789,11.85185185185185,2.488888888888888)" xlink:href="#L"/></g><g id="p"><use transform="matrix(0.049382716049382706,0,0,0.049382716049382706,0,0)" xlink:href="#G"/><use transform="matrix(0.049382716049382706,0,0,0.049382716049382706,5.876543209876542,0)" xlink:href="#L"/><use transform="matrix(0.049382716049382706,0,0,0.049382716049382706,20.64197530864197,0)" xlink:href="#M"/><use transform="matrix(0.049382716049382706,0,0,0.049382716049382706,32.49382716049382,0)" xlink:href="#N"/></g><use transform="matrix(0.06172839506172839,0,0,0.06172839506172839,0,0)" xlink:href="#I" id="q"/><path fill="#3a414a" d="M118-107v75H92v-75H18v-26h74v-75h26v75h74v26h-74" id="ay"/><use transform="matrix(0.06172839506172839,0,0,0.06172839506172839,0,0)" xlink:href="#ay" id="r"/><use transform="matrix(0.06172839506172839,0,0,0.06172839506172839,0,0)" xlink:href="#J" id="s"/><path fill="#3a414a" d="M248-139C247-14 144 9 11 0l48-248c105-6 190 8 189 109zm-34 0c1-70-52-87-126-82L50-27c98 7 163-21 164-112" id="az"/><g id="t"><use transform="matrix(0.049382716049382706,0,0,0.049382716049382706,0,0)" xlink:href="#az"/><use transform="matrix(0.049382716049382706,0,0,0.049382716049382706,12.790123456790122,0)" xlink:href="#B"/><use transform="matrix(0.049382716049382706,0,0,0.049382716049382706,22.666666666666664,0)" xlink:href="#S"/><use transform="matrix(0.049382716049382706,0,0,0.049382716049382706,32.5432098765432,0)" xlink:href="#z"/><use transform="matrix(0.049382716049382706,0,0,0.049382716049382706,42.419753086419746,0)" xlink:href="#T"/><use transform="matrix(0.049382716049382706,0,0,0.049382716049382706,46.32098765432098,0)" xlink:href="#P"/><use transform="matrix(0.049382716049382706,0,0,0.049382716049382706,56.19753086419752,0)" xlink:href="#C"/><use transform="matrix(0.049382716049382706,0,0,0.049382716049382706,62.07407407407406,0)" xlink:href="#U"/><use transform="matrix(0.049382716049382706,0,0,0.049382716049382706,65.97530864197529,0)" xlink:href="#D"/><use transform="matrix(0.049382716049382706,0,0,0.049382716049382706,74.86419753086417,0)" xlink:href="#P"/><use transform="matrix(0.049382716049382706,0,0,0.049382716049382706,84.74074074074072,0)" xlink:href="#F"/><use transform="matrix(0.049382716049382706,0,0,0.049382716049382706,89.67901234567898,0)" xlink:href="#U"/><use transform="matrix(0.049382716049382706,0,0,0.049382716049382706,93.58024691358021,0)" xlink:href="#z"/><use transform="matrix(0.049382716049382706,0,0,0.049382716049382706,103.45679012345674,0)" xlink:href="#V"/></g><g id="u"><use transform="matrix(0.049382716049382706,0,0,0.049382716049382706,0,0)" xlink:href="#W"/><use transform="matrix(0.049382716049382706,0,0,0.049382716049382706,12.790123456790122,0)" xlink:href="#B"/><use transform="matrix(0.049382716049382706,0,0,0.049382716049382706,22.666666666666664,0)" xlink:href="#S"/><use transform="matrix(0.049382716049382706,0,0,0.049382716049382706,32.5432098765432,0)" xlink:href="#z"/><use transform="matrix(0.049382716049382706,0,0,0.049382716049382706,42.419753086419746,0)" xlink:href="#T"/><use transform="matrix(0.049382716049382706,0,0,0.049382716049382706,46.32098765432098,0)" xlink:href="#P"/><use transform="matrix(0.049382716049382706,0,0,0.049382716049382706,56.19753086419752,0)" xlink:href="#C"/><use transform="matrix(0.049382716049382706,0,0,0.049382716049382706,62.07407407407406,0)" xlink:href="#U"/><use transform="matrix(0.049382716049382706,0,0,0.049382716049382706,65.97530864197529,0)" xlink:href="#D"/><use transform="matrix(0.049382716049382706,0,0,0.049382716049382706,74.86419753086417,0)" xlink:href="#P"/><use transform="matrix(0.049382716049382706,0,0,0.049382716049382706,84.74074074074072,0)" xlink:href="#F"/><use transform="matrix(0.049382716049382706,0,0,0.049382716049382706,89.67901234567898,0)" xlink:href="#U"/><use transform="matrix(0.049382716049382706,0,0,0.049382716049382706,93.58024691358021,0)" xlink:href="#z"/><use transform="matrix(0.049382716049382706,0,0,0.049382716049382706,103.45679012345674,0)" xlink:href="#V"/></g><path fill="#3a414a" d="M209 0H11v-25l151-195H24v-28h176v25L50-27h159V0" id="aA"/><g id="v"><use transform="matrix(0.06172839506172839,0,0,0.06172839506172839,0,0)" xlink:href="#aA"/><use transform="matrix(0.06172839506172839,0,0,0.06172839506172839,13.518518518518517,0)" xlink:href="#am"/><use transform="matrix(0.06172839506172839,0,0,0.06172839506172839,25.864197530864196,0)" xlink:href="#av"/><use transform="matrix(0.06172839506172839,0,0,0.06172839506172839,30.74074074074074,0)" xlink:href="#at"/></g><path fill="#3a414a" d="M96-169c-40 0-48 33-48 73s9 75 48 75c24 0 41-14 43-38l32 2c-6 37-31 61-74 61-59 0-76-41-82-99-10-93 101-131 147-64 4 7 5 14 7 22l-32 3c-4-21-16-35-41-35" id="aB"/><path fill="#3a414a" d="M33 0v-38h34V0H33" id="aC"/><g id="w"><use transform="matrix(0.06172839506172839,0,0,0.06172839506172839,0,0)" xlink:href="#aB"/><use transform="matrix(0.06172839506172839,0,0,0.06172839506172839,11.11111111111111,0)" xlink:href="#ap"/><use transform="matrix(0.06172839506172839,0,0,0.06172839506172839,23.45679012345679,0)" xlink:href="#aC"/></g><path fill="#3a414a" d="M27 0v-27h64v-190l-56 39v-29l58-41h29v221h61V0H27" id="aD"/><use transform="matrix(0.06172839506172839,0,0,0.06172839506172839,0,0)" xlink:href="#aD" id="x"/><path fill="#3a414a" d="M135-143c-3-34-86-38-87 0 15 53 115 12 119 90S17 21 10-45l28-5c4 36 97 45 98 0-10-56-113-15-118-90-4-57 82-63 122-42 12 7 21 19 24 35" id="aE"/><g id="y"><use transform="matrix(0.06172839506172839,0,0,0.06172839506172839,0,0)" xlink:href="#L"/><use transform="matrix(0.06172839506172839,0,0,0.06172839506172839,18.456790123456788,0)" xlink:href="#aE"/></g></defs></g></svg>