<svg xmlns="http://www.w3.org/2000/svg" xmlns:xlink="http://www.w3.org/1999/xlink" xmlns:lucid="lucid" width="763.01" height="750"><g transform="translate(396.5 -359.5)" lucid:page-tab-id="0_0"><path d="M-500 0H500v1500H-500z" fill="#fff"/><path d="M.67 386a6 6 0 0 1 6-6h28.8a6 6 0 0 1 6 6v583a6 6 0 0 1-6 6H6.67a6 6 0 0 1-6-6z" stroke="#000" stroke-opacity="0" fill="url(#a)" transform="matrix(-1,1.2246467991473532e-16,-1.2246467991473532e-16,-1,42.1433536894377,1354.9999999999998)"/><path d="M-60 386a6 6 0 0 1 6-6h28.8a6 6 0 0 1 6 6v583a6 6 0 0 1-6 6H-54a6 6 0 0 1-6-6z" stroke="#000" stroke-opacity="0" fill="url(#b)"/><path d="M-20 386a6 6 0 0 1 6-6h8.67a6 6 0 0 1 6 6v585.9a6 6 0 0 1-6 6H-14a6 6 0 0 1-6-6z" stroke="#000" stroke-opacity="0" fill="url(#c)"/><path d="M-39.46 420.1c0 11.08-9.08 20.08-20.27 20.08-11.2 0-20.27-9-20.27-20.1C-80 409-70.93 400-59.73 400s20.27 9 20.27 20.1z" stroke="#fff" fill="#cfe4ff"/><use xlink:href="#d" transform="matrix(1,0,0,1,-75,405) translate(9.990740740740742 26.666666666666657)"/><path d="M-39.46 500.1c0 11.08-9.08 20.08-20.27 20.08-11.2 0-20.27-9-20.27-20.1C-80 489-70.93 480-59.73 480s20.27 9 20.27 20.1z" stroke="#fff" fill="#cfe4ff"/><use xlink:href="#d" transform="matrix(1,0,0,1,-75,485) translate(9.990740740740742 26.666666666666657)"/><path d="M-39.46 580.1c0 11.08-9.08 20.08-20.27 20.08-11.2 0-20.27-9-20.27-20.1C-80 569-70.93 560-59.73 560s20.27 9 20.27 20.1z" stroke="#fff" fill="#cfe4ff"/><use xlink:href="#d" transform="matrix(1,0,0,1,-75,565) translate(9.990740740740742 26.666666666666657)"/><path d="M-39.46 660.1c0 11.08-9.08 20.08-20.27 20.08-11.2 0-20.27-9-20.27-20.1C-80 649-70.93 640-59.73 640s20.27 9 20.27 20.1z" stroke="#fff" fill="#cfe4ff"/><use xlink:href="#d" transform="matrix(1,0,0,1,-75,645) translate(9.990740740740742 26.666666666666657)"/><path d="M-39.46 740.1c0 11.08-9.08 20.08-20.27 20.08-11.2 0-20.27-9-20.27-20.1C-80 729-70.93 720-59.73 720s20.27 9 20.27 20.1z" stroke="#fff" fill="#cfe4ff"/><use xlink:href="#d" transform="matrix(1,0,0,1,-75,725) translate(9.990740740740742 26.666666666666657)"/><path d="M-39.46 820.1c0 11.08-9.08 20.08-20.27 20.08-11.2 0-20.27-9-20.27-20.1C-80 809-70.93 800-59.73 800s20.27 9 20.27 20.1z" stroke="#fff" fill="#cfe4ff"/><use xlink:href="#d" transform="matrix(1,0,0,1,-75,805) translate(9.990740740740742 26.666666666666657)"/><path d="M-39.46 900.1c0 11.08-9.08 20.08-20.27 20.08-11.2 0-20.27-9-20.27-20.1C-80 889-70.93 880-59.73 880s20.27 9 20.27 20.1z" stroke="#fff" fill="#cfe4ff"/><use xlink:href="#d" transform="matrix(1,0,0,1,-75,885) translate(9.990740740740742 26.666666666666657)"/><path d="M60.67 420.1c0 11.08-9.07 20.08-20.27 20.08s-20.27-9-20.27-20.1C20.13 409 29.2 400 40.4 400c11.2 0 20.27 9 20.27 20.1z" stroke="#fff" fill="#ffd9d9"/><use xlink:href="#e" transform="matrix(1,0,0,1,25.13417553766749,405) translate(5.777777777777782 26.666666666666657)"/><path d="M60.67 500.1c0 11.08-9.07 20.08-20.27 20.08s-20.27-9-20.27-20.1C20.13 489 29.2 480 40.4 480c11.2 0 20.27 9 20.27 20.1z" stroke="#fff" fill="#ffd9d9"/><use xlink:href="#e" transform="matrix(1,0,0,1,25.13417553766749,485) translate(5.777777777777782 26.666666666666657)"/><path d="M60.67 580.1c0 11.08-9.07 20.08-20.27 20.08s-20.27-9-20.27-20.1C20.13 569 29.2 560 40.4 560c11.2 0 20.27 9 20.27 20.1z" stroke="#fff" fill="#ffd9d9"/><use xlink:href="#e" transform="matrix(1,0,0,1,25.13417553766749,565) translate(5.777777777777782 26.666666666666657)"/><path d="M60.67 660.1c0 11.08-9.07 20.08-20.27 20.08s-20.27-9-20.27-20.1C20.13 649 29.2 640 40.4 640c11.2 0 20.27 9 20.27 20.1z" stroke="#fff" fill="#ffd9d9"/><use xlink:href="#e" transform="matrix(1,0,0,1,25.13417553766749,645) translate(5.777777777777782 26.666666666666657)"/><path d="M60.67 740.1c0 11.08-9.07 20.08-20.27 20.08s-20.27-9-20.27-20.1C20.13 729 29.2 720 40.4 720c11.2 0 20.27 9 20.27 20.1z" stroke="#fff" fill="#ffd9d9"/><use xlink:href="#e" transform="matrix(1,0,0,1,25.13417553766749,725) translate(5.777777777777782 26.666666666666657)"/><path d="M60.67 820.1c0 11.08-9.07 20.08-20.27 20.08s-20.27-9-20.27-20.1C20.13 809 29.2 800 40.4 800c11.2 0 20.27 9 20.27 20.1z" stroke="#fff" fill="#ffd9d9"/><use xlink:href="#e" transform="matrix(1,0,0,1,25.13417553766749,805) translate(5.777777777777782 26.666666666666657)"/><path d="M60.67 900.1c0 11.08-9.07 20.08-20.27 20.08s-20.27-9-20.27-20.1C20.13 889 29.2 880 40.4 880c11.2 0 20.27 9 20.27 20.1z" stroke="#fff" fill="#ffd9d9"/><use xlink:href="#e" transform="matrix(1,0,0,1,25.13417553766749,885) translate(5.777777777777782 26.666666666666657)"/><path d="M-218 420.1c0 11.08-9.07 20.08-20.27 20.08s-20.27-9-20.27-20.1c0-11.1 9.08-20.08 20.27-20.08 11.2 0 20.27 9 20.27 20.1z" stroke="#000" stroke-opacity="0" fill="#cfe4ff"/><use xlink:href="#d" transform="matrix(1,0,0,1,-253.53555051292255,405) translate(9.990740740740742 26.666666666666657)"/><path d="M-152 494.82c0 11.1-9.07 20.1-20.27 20.1s-20.27-9-20.27-20.1c0-11.1 9.08-20.08 20.27-20.08 11.2 0 20.27 9 20.27 20.08z" stroke="#000" stroke-opacity="0" fill="#cfe4ff"/><use xlink:href="#d" transform="matrix(1,0,0,1,-187.53555051292255,479.7345937180461) translate(9.990740740740742 26.666666666666657)"/><path d="M-157.2 579.9c0 11.1-9.07 20.1-20.26 20.1-11.2 0-20.27-9-20.27-20.1 0-11.08 9.07-20.08 20.27-20.08s20.26 9 20.26 20.1z" stroke="#000" stroke-opacity="0" fill="#ffd9d9"/><use xlink:href="#e" transform="matrix(1,0,0,1,-192.73222474353872,564.8230624786975) translate(5.777777777777782 26.666666666666657)"/><path d="M-129.73 660.1c0 11.08-9.08 20.08-20.27 20.08-11.2 0-20.27-9-20.27-20.1 0-11.1 9.08-20.08 20.27-20.08 11.2 0 20.27 9 20.27 20.1z" stroke="#000" stroke-opacity="0" fill="#ffd9d9"/><use xlink:href="#e" transform="matrix(1,0,0,1,-165.26777525646128,645) translate(5.777777777777782 26.666666666666657)"/><path d="M-197.73 739.74c0 11.1-9.08 20.08-20.27 20.08-11.2 0-20.27-9-20.27-20.1 0-11.08 9.08-20.07 20.27-20.07 11.2 0 20.27 9 20.27 20.1z" stroke="#000" stroke-opacity="0" fill="#ffd9d9"/><use xlink:href="#e" transform="matrix(1,0,0,1,-233.26777525646128,724.6461249573946) translate(5.777777777777782 26.666666666666657)"/><path d="M-262.54 485.18c0 11.1-9.07 20.08-20.26 20.08-11.2 0-20.27-9-20.27-20.08 0-11.1 9.07-20.1 20.27-20.1s20.26 9 20.26 20.1z" stroke="#000" stroke-opacity="0" fill="#cfe4ff"/><use xlink:href="#d" transform="matrix(1,0,0,1,-298.0711010258451,470.0884687606515) translate(9.990740740740742 26.666666666666657)"/><path d="M-218 640.1c0 11.08-9.07 20.08-20.27 20.08s-20.27-9-20.27-20.1c0-11.1 9.08-20.08 20.27-20.08 11.2 0 20.27 9 20.27 20.1z" stroke="#000" stroke-opacity="0" fill="#cfe4ff"/><use xlink:href="#d" transform="matrix(1,0,0,1,-253.53555051292255,625) translate(9.990740740740742 26.666666666666657)"/><path d="M-263.07 700.26c0 11.1-9.07 20.1-20.27 20.1s-20.27-9-20.27-20.1c0-11.1 9.07-20.08 20.26-20.08 11.2 0 20.27 9 20.27 20.1z" stroke="#000" stroke-opacity="0" fill="#ffd9d9"/><use xlink:href="#e" transform="matrix(1,0,0,1,-298.60665153876766,685.1769375213028) translate(5.777777777777782 26.666666666666657)"/><path d="M-129.73 760.1c0 11.08-9.08 20.08-20.27 20.08-11.2 0-20.27-9-20.27-20.1 0-11.1 9.08-20.08 20.27-20.08 11.2 0 20.27 9 20.27 20.1z" stroke="#000" stroke-opacity="0" fill="#cfe4ff"/><use xlink:href="#d" transform="matrix(1,0,0,1,-165.26777525646128,745) translate(9.990740740740742 26.666666666666657)"/><path d="M-246.27 900.1c0 11.08-9.07 20.08-20.27 20.08s-20.26-9-20.26-20.1c0-11.1 9.07-20.08 20.26-20.08 11.2 0 20.27 9 20.27 20.1z" stroke="#000" stroke-opacity="0" fill="#cfe4ff"/><use xlink:href="#d" transform="matrix(1,0,0,1,-281.80332576938383,885.0000000000001) translate(9.990740740740742 26.666666666666657)"/><path d="M-129.73 420.1c0 11.08-9.08 20.08-20.27 20.08-11.2 0-20.27-9-20.27-20.1 0-11.1 9.08-20.08 20.27-20.08 11.2 0 20.27 9 20.27 20.1z" stroke="#000" stroke-opacity="0" fill="#ffd9d9"/><use xlink:href="#e" transform="matrix(1,0,0,1,-165.26777525646128,405) translate(5.777777777777782 26.666666666666657)"/><path d="M-170.27 900.1c0 11.08-9.07 20.08-20.27 20.08s-20.26-9-20.26-20.1c0-11.1 9.07-20.08 20.26-20.08 11.2 0 20.27 9 20.27 20.1z" stroke="#000" stroke-opacity="0" fill="#ffd9d9"/><use xlink:href="#e" transform="matrix(1,0,0,1,-205.80332576938383,885) translate(5.777777777777782 26.666666666666657)"/><path d="M-263.07 580.1c0 11.08-9.07 20.08-20.27 20.08s-20.27-9-20.27-20.1c0-11.1 9.07-20.08 20.26-20.08 11.2 0 20.27 9 20.27 20.1z" stroke="#000" stroke-opacity="0" fill="#ffd9d9"/><use xlink:href="#e" transform="matrix(1,0,0,1,-298.60665153876766,565) translate(5.777777777777782 26.666666666666657)"/><path d="M-246.27 779.9c0 11.1-9.07 20.1-20.27 20.1s-20.26-9-20.26-20.1c0-11.08 9.07-20.08 20.26-20.08 11.2 0 20.27 9 20.27 20.1z" stroke="#000" stroke-opacity="0" fill="#cfe4ff"/><use xlink:href="#d" transform="matrix(1,0,0,1,-281.80332576938383,764.8230624786974) translate(9.990740740740742 26.666666666666657)"/><path d="M-177.46 819.9c0 11.1-9.08 20.1-20.27 20.1-11.2 0-20.27-9-20.27-20.1 0-11.08 9.07-20.08 20.27-20.08s20.27 9 20.27 20.1z" stroke="#000" stroke-opacity="0" fill="#ffd9d9"/><use xlink:href="#e" transform="matrix(1,0,0,1,-213,804.8230624786972) translate(5.777777777777782 26.666666666666657)"/><path d="M184.27 900.1c0-11.1 9.07-20.1 20.27-20.1s20.26 9 20.26 20.1c0 11.08-9.07 20.08-20.26 20.08-11.2 0-20.27-9-20.27-20.1z" stroke="#000" stroke-opacity="0" fill="#cfe4ff"/><use xlink:href="#d" transform="matrix(-1,1.2246467991473532e-16,-1.2246467991473532e-16,-1,219.8033257693838,915.1769375213028) translate(9.990740740740742 26.666666666666657)"/><path d="M135.73 835c0-11.1 9.08-20.1 20.27-20.1 11.2 0 20.27 9 20.27 20.1 0 11.1-9.08 20.1-20.27 20.1-11.2 0-20.27-9-20.27-20.1z" stroke="#000" stroke-opacity="0" fill="#cfe4ff"/><use xlink:href="#d" transform="matrix(-1,1.2246467991473532e-16,-1.2246467991473532e-16,-1,171.26777525646128,850.0884687606513) translate(9.990740740740742 26.666666666666657)"/><path d="M135.73 755c0-11.1 9.08-20.1 20.27-20.1 11.2 0 20.27 9 20.27 20.1 0 11.1-9.08 20.1-20.27 20.1-11.2 0-20.27-9-20.27-20.1z" stroke="#000" stroke-opacity="0" fill="#ffd9d9"/><use xlink:href="#e" transform="matrix(-1,1.2246467991473532e-16,-1.2246467991473532e-16,-1,171.2677752564613,770.0884687606513) translate(5.777777777777782 26.666666666666657)"/><path d="M108.27 675c0-11.1 9.07-20.1 20.27-20.1s20.26 9 20.26 20.1c0 11.1-9.07 20.1-20.26 20.1-11.2 0-20.27-9-20.27-20.1z" stroke="#000" stroke-opacity="0" fill="#ffd9d9"/><use xlink:href="#e" transform="matrix(-1,1.2246467991473532e-16,-1.2246467991473532e-16,-1,143.8033257693838,690.0884687606513) translate(5.777777777777782 26.666666666666657)"/><path d="M184.27 594.65c0-11.1 9.07-20.1 20.27-20.1s20.26 9 20.26 20.1c0 11.1-9.07 20.08-20.26 20.08-11.2 0-20.27-9-20.27-20.08z" stroke="#000" stroke-opacity="0" fill="#ffd9d9"/><use xlink:href="#e" transform="matrix(-1,1.2246467991473532e-16,-1.2246467991473532e-16,-1,219.80332576938383,609.734593718046) translate(5.777777777777782 26.666666666666657)"/><path d="M229.73 819.9c0-11.08 9.08-20.08 20.27-20.08 11.2 0 20.27 9 20.27 20.1C270.27 831 261.2 840 250 840c-11.2 0-20.27-9-20.27-20.1z" stroke="#000" stroke-opacity="0" fill="#cfe4ff"/><use xlink:href="#d" transform="matrix(-1,1.2246467991473532e-16,-1.2246467991473532e-16,-1,265.2677752564613,835) translate(9.990740740740742 26.666666666666657)"/><path d="M176.27 675c0-11.1 9.07-20.1 20.27-20.1s20.26 9 20.26 20.1c0 11.1-9.07 20.1-20.26 20.1-11.2 0-20.27-9-20.27-20.1z" stroke="#000" stroke-opacity="0" fill="#cfe4ff"/><use xlink:href="#d" transform="matrix(-1,1.2246467991473532e-16,-1.2246467991473532e-16,-1,211.8033257693838,690.0884687606514) translate(9.990740740740742 26.666666666666657)"/><path d="M224.8 474.65c0-11.1 9.08-20.1 20.27-20.1 11.2 0 20.27 9 20.27 20.1 0 11.1-9.08 20.08-20.27 20.08-11.2 0-20.27-9-20.27-20.08z" stroke="#000" stroke-opacity="0" fill="#ffd9d9"/><use xlink:href="#e" transform="matrix(-1,1.2246467991473532e-16,-1.2246467991473532e-16,-1,260.3388762823064,489.73459371804586) translate(5.777777777777782 26.666666666666657)"/><path d="M120 595.35c0-11.1 9.07-20.08 20.27-20.08s20.27 9 20.27 20.08c0 11.1-9.08 20.1-20.27 20.1-11.2 0-20.27-9-20.27-20.1z" stroke="#000" stroke-opacity="0" fill="#cfe4ff"/><use xlink:href="#d" transform="matrix(-1,1.2246467991473532e-16,-1.2246467991473532e-16,-1,155.53555051292255,610.442343803257) translate(9.990740740740742 26.666666666666657)"/><path d="M135.73 474.65c0-11.1 9.08-20.1 20.27-20.1 11.2 0 20.27 9 20.27 20.1 0 11.1-9.08 20.08-20.27 20.08-11.2 0-20.27-9-20.27-20.08z" stroke="#000" stroke-opacity="0" fill="#cfe4ff"/><use xlink:href="#d" transform="matrix(-1,1.2246467991473532e-16,-1.2246467991473532e-16,-1,171.26777525646128,489.73459371804586) translate(9.990740740740742 26.666666666666657)"/><path d="M120 915c0-11.1 9.07-20.1 20.27-20.1s20.27 9 20.27 20.1c0 11.1-9.08 20.1-20.27 20.1-11.2 0-20.27-9-20.27-20.1z" stroke="#000" stroke-opacity="0" fill="#ffd9d9"/><use xlink:href="#e" transform="matrix(-1,1.2246467991473532e-16,-1.2246467991473532e-16,-1,155.53555051292255,930.0884687606513) translate(5.777777777777782 26.666666666666657)"/><path d="M135.73 400.1c0-11.1 9.08-20.1 20.27-20.1 11.2 0 20.27 9 20.27 20.1 0 11.08-9.08 20.08-20.27 20.08-11.2 0-20.27-9-20.27-20.1z" stroke="#000" stroke-opacity="0" fill="#ffd9d9"/><use xlink:href="#e" transform="matrix(-1,1.2246467991473532e-16,-1.2246467991473532e-16,-1,171.26777525646128,415.17693752130276) translate(5.777777777777782 26.666666666666657)"/><path d="M201.07 745c0-11.1 9.08-20.1 20.27-20.1 11.2 0 20.27 9 20.27 20.1 0 11.1-9.07 20.1-20.26 20.1-11.2 0-20.27-9-20.27-20.1z" stroke="#000" stroke-opacity="0" fill="#ffd9d9"/><use xlink:href="#e" transform="matrix(-1,1.2246467991473532e-16,-1.2246467991473532e-16,-1,236.6066515387677,760.0884687606513) translate(5.777777777777782 26.666666666666657)"/><path d="M224.8 555.18c0-11.1 9.08-20.1 20.27-20.1 11.2 0 20.27 9 20.27 20.1 0 11.1-9.08 20.1-20.27 20.1-11.2 0-20.27-9-20.27-20.1z" stroke="#000" stroke-opacity="0" fill="#cfe4ff"/><use xlink:href="#d" transform="matrix(-1,1.2246467991473532e-16,-1.2246467991473532e-16,-1,260.3388762823064,570.2654062819543) translate(9.990740740740742 26.666666666666657)"/><path d="M143.73 535c0-11.1 9.08-20.1 20.27-20.1 11.2 0 20.27 9 20.27 20.1 0 11.1-9.08 20.1-20.27 20.1-11.2 0-20.27-9-20.27-20.1z" stroke="#000" stroke-opacity="0" fill="#ffd9d9"/><use xlink:href="#e" transform="matrix(-1,1.2246467991473532e-16,-1.2246467991473532e-16,-1,179.26777525646125,550.0884687606514) translate(5.777777777777782 26.666666666666657)"/><path d="M-131.73 1006a6 6 0 0 1 6-6h228a6 6 0 0 1 6 6v48a6 6 0 0 1-6 6h-228a6 6 0 0 1-6-6z" stroke="#000" stroke-opacity="0" fill="#fff" fill-opacity="0"/><use xlink:href="#f" transform="matrix(1,0,0,1,-126.73222474353872,1005) translate(55.85185185185186 30.708333333333332)"/><path d="M96.67 965.82a6 6 0 0 1 6-6h228a6 6 0 0 1 6 6v48a6 6 0 0 1-6 6h-228a6 6 0 0 1-6-6z" stroke="#000" stroke-opacity="0" fill="#fff" fill-opacity="0"/><use xlink:href="#g" transform="matrix(1,0,0,1,101.6694381411532,964.823062478697) translate(89.88888888888889 30.708333333333332)"/><path d="M-376 965.82a6 6 0 0 1 6-6h228a6 6 0 0 1 6 6v48a6 6 0 0 1-6 6h-228a6 6 0 0 1-6-6z" stroke="#000" stroke-opacity="0" fill="#fff" fill-opacity="0"/><use xlink:href="#h" transform="matrix(1,0,0,1,-371,964.823062478697) translate(67.74074074074073 30.708333333333332)"/><path d="M-135 1035a6 6 0 0 1 6-6H99a6 6 0 0 1 6 6v48a6 6 0 0 1-6 6h-228a6 6 0 0 1-6-6z" stroke="#000" stroke-opacity="0" fill="#fff" fill-opacity="0"/><use xlink:href="#i" transform="matrix(1,0,0,1,-130,1034) translate(22.870370370370395 30.277777777777775)"/><use xlink:href="#j" transform="matrix(1,0,0,1,-130,1034) translate(159.78395061728395 30.277777777777775)"/><use xlink:href="#k" transform="matrix(1,0,0,1,-130,1034) translate(192.43827160493822 30.277777777777775)"/><path d="M106 997.82a6 6 0 0 1 6-6h228a6 6 0 0 1 6 6v48a6 6 0 0 1-6 6H112a6 6 0 0 1-6-6z" stroke="#000" stroke-opacity="0" fill="#fff" fill-opacity="0"/><use xlink:href="#i" transform="matrix(1,0,0,1,111.00831442345958,996.823062478697) translate(22.870370370370395 30.277777777777775)"/><use xlink:href="#j" transform="matrix(1,0,0,1,111.00831442345958,996.823062478697) translate(159.78395061728395 30.277777777777775)"/><use xlink:href="#k" transform="matrix(1,0,0,1,111.00831442345958,996.823062478697) translate(192.43827160493822 30.277777777777775)"/><path d="M-369.73 998a6 6 0 0 1 6-6h228a6 6 0 0 1 6 6v48a6 6 0 0 1-6 6h-228a6 6 0 0 1-6-6z" stroke="#000" stroke-opacity="0" fill="#fff" fill-opacity="0"/><g><use xlink:href="#l" transform="matrix(1,0,0,1,-364.7322247435387,996.9999999999999) translate(13.657407407407433 28.930555555555554)"/><use xlink:href="#m" transform="matrix(1,0,0,1,-364.7322247435387,996.9999999999999) translate(164.26234567901236 28.930555555555554)"/><use xlink:href="#n" transform="matrix(1,0,0,1,-364.7322247435387,996.9999999999999) translate(200.1820987654321 28.930555555555554)"/></g><defs><linearGradient gradientUnits="userSpaceOnUse" id="a" x1=".67" y1="975" x2="41.47" y2="975"><stop offset="0%" stop-color="#fff"/><stop offset="20%" stop-color="#fff"/><stop offset="100%" stop-color="#fe7070"/></linearGradient><linearGradient gradientUnits="userSpaceOnUse" id="b" x1="-60" y1="975" x2="-19.2" y2="975"><stop offset="0%" stop-color="#fff"/><stop offset="20%" stop-color="#fff"/><stop offset="100%" stop-color="#6db1ff"/></linearGradient><linearGradient gradientUnits="userSpaceOnUse" id="c" x1="-20" y1="977.89" x2=".67" y2="977.89"><stop offset="19.75%" stop-color="#3a414a"/><stop offset="45.68%" stop-color="#fff"/><stop offset="100%" stop-color="#3a414a"/></linearGradient><path fill="#3a414a" d="M14-72v-43h91v43H14" id="o"/><use transform="matrix(0.09259259259259256,0,0,0.09259259259259256,0,0)" xlink:href="#o" id="d"/><path fill="#3a414a" d="M125-100v72H85v-72H15v-39h70v-72h40v72h71v39h-71" id="p"/><use transform="matrix(0.09259259259259256,0,0,0.09259259259259256,0,0)" xlink:href="#p" id="e"/><path fill="#3a414a" d="M230 0l2-204L168 0h-37L68-204 70 0H24v-248h70l56 185 57-185h69V0h-46" id="q"/><path fill="#3a414a" d="M185-48c-13 30-37 53-82 52C43 2 14-33 14-96s30-98 90-98c62 0 83 45 84 108H66c0 31 8 55 39 56 18 0 30-7 34-22zm-45-69c5-46-57-63-70-21-2 6-4 13-4 21h74" id="r"/><path fill="#3a414a" d="M220-157c-53 9-28 100-34 157h-49v-107c1-27-5-49-29-50C55-147 81-57 75 0H25l-1-190h47c2 12-1 28 3 38 10-53 101-56 108 0 13-22 24-43 59-42 82 1 51 116 57 194h-49v-107c-1-25-5-48-29-50" id="s"/><path fill="#3a414a" d="M135-194c52 0 70 43 70 98 0 56-19 99-73 100-30 1-46-15-58-35L72 0H24l1-261h50v104c11-23 29-37 60-37zM114-30c31 0 40-27 40-66 0-37-7-63-39-63s-41 28-41 65c0 36 8 64 40 64" id="t"/><path fill="#3a414a" d="M135-150c-39-12-60 13-60 57V0H25l-1-190h47c2 13-1 29 3 40 6-28 27-53 61-41v41" id="u"/><path fill="#3a414a" d="M133-34C117-15 103 5 69 4 32 3 11-16 11-54c-1-60 55-63 116-61 1-26-3-47-28-47-18 1-26 9-28 27l-52-2c7-38 36-58 82-57s74 22 75 68l1 82c-1 14 12 18 25 15v27c-30 8-71 5-69-32zm-48 3c29 0 43-24 42-57-32 0-66-3-65 30 0 17 8 27 23 27" id="v"/><path fill="#3a414a" d="M135-194c87-1 58 113 63 194h-50c-7-57 23-157-34-157-59 0-34 97-39 157H25l-1-190h47c2 12-1 28 3 38 12-26 28-41 61-42" id="w"/><g id="f"><use transform="matrix(0.07407407407407407,0,0,0.07407407407407407,0,0)" xlink:href="#q"/><use transform="matrix(0.07407407407407407,0,0,0.07407407407407407,22.148148148148145,0)" xlink:href="#r"/><use transform="matrix(0.07407407407407407,0,0,0.07407407407407407,36.96296296296296,0)" xlink:href="#s"/><use transform="matrix(0.07407407407407407,0,0,0.07407407407407407,60.666666666666664,0)" xlink:href="#t"/><use transform="matrix(0.07407407407407407,0,0,0.07407407407407407,76.88888888888889,0)" xlink:href="#u"/><use transform="matrix(0.07407407407407407,0,0,0.07407407407407407,87.25925925925925,0)" xlink:href="#v"/><use transform="matrix(0.07407407407407407,0,0,0.07407407407407407,102.07407407407406,0)" xlink:href="#w"/></g><path fill="#3a414a" d="M24 0v-248h195v40H76v63h132v40H76v65h150V0H24" id="x"/><path fill="#3a414a" d="M210 0H11v-37l134-170H24v-41h178v36L68-41h142V0" id="y"/><path fill="#3a414a" d="M76-208v77h127v40H76V0H24v-248h183v40H76" id="z"/><g id="g"><use transform="matrix(0.07407407407407407,0,0,0.07407407407407407,0,0)" xlink:href="#x"/><use transform="matrix(0.07407407407407407,0,0,0.07407407407407407,17.77777777777778,0)" xlink:href="#y"/><use transform="matrix(0.07407407407407407,0,0,0.07407407407407407,34,0)" xlink:href="#z"/></g><path fill="#3a414a" d="M123 10C108 53 80 86 19 72V37c35 8 53-11 59-39L3-190h52l48 148c12-52 28-100 44-148h51" id="A"/><path fill="#3a414a" d="M115-3C79 11 28 4 28-45v-112H4v-33h27l15-45h31v45h36v33H77v99c-1 23 16 31 38 25v30" id="B"/><path fill="#3a414a" d="M110-194c64 0 96 36 96 99 0 64-35 99-97 99-61 0-95-36-95-99 0-62 34-99 96-99zm-1 164c35 0 45-28 45-65 0-40-10-65-43-65-34 0-45 26-45 65 0 36 10 65 43 65" id="C"/><path fill="#3a414a" d="M137-138c1-29-70-34-71-4 15 46 118 7 119 86 1 83-164 76-172 9l43-7c4 19 20 25 44 25 33 8 57-30 24-41C81-84 22-81 20-136c-2-80 154-74 161-7" id="D"/><path fill="#3a414a" d="M25 0v-261h50V0H25" id="E"/><g id="h"><use transform="matrix(0.07407407407407407,0,0,0.07407407407407407,0,0)" xlink:href="#y"/><use transform="matrix(0.07407407407407407,0,0,0.07407407407407407,16.22222222222222,0)" xlink:href="#A"/><use transform="matrix(0.07407407407407407,0,0,0.07407407407407407,31.037037037037035,0)" xlink:href="#B"/><use transform="matrix(0.07407407407407407,0,0,0.07407407407407407,39.85185185185185,0)" xlink:href="#C"/><use transform="matrix(0.07407407407407407,0,0,0.07407407407407407,56.07407407407407,0)" xlink:href="#D"/><use transform="matrix(0.07407407407407407,0,0,0.07407407407407407,70.88888888888889,0)" xlink:href="#C"/><use transform="matrix(0.07407407407407407,0,0,0.07407407407407407,87.1111111111111,0)" xlink:href="#E"/></g><path fill="#3a414a" d="M165-48c-4 18 1 34 23 27l-3 20c-29 8-62 0-52-35h-2C116-14 99 4 63 4 30 4 8-16 8-49c0-68 71-67 138-67 10-26 0-56-31-54-26 1-42 9-47 31l-32-5c8-67 160-71 144 15-5 28-9 54-15 81zM42-50c3 52 80 24 89-6 7-12 7-24 11-38-47 1-103-4-100 44" id="F"/><path fill="#3a414a" d="M67 3c-93-2-31-127-26-193h32L48-50c-3 39 53 32 70 12 30-34 30-101 43-152h32L157 0h-30c1-10 6-24 4-33-14 20-29 37-64 36" id="G"/><path fill="#3a414a" d="M55-144c13 50 104 24 104 88C159 21 15 23 1-39l26-10c6 40 102 42 102-4-13-50-104-23-104-87 0-71 143-71 148-8l-29 4c-5-35-85-37-89 0" id="H"/><path fill="#3a414a" d="M103-194c29 0 47 14 56 36 2-11 5-23 8-32h30L160-5C157 61 82 97 21 62 9 55 4 45 1 30l28-7c7 42 83 31 92-3 4-16 9-38 13-55-13 20-29 36-62 36-40 0-60-25-60-64 0-71 23-131 91-131zm4 24c-53 0-58 54-61 104-2 27 10 44 36 44 49 0 65-50 67-102 1-29-15-46-42-46" id="I"/><path fill="#3a414a" d="M111-194c62-3 86 47 72 106H45c-7 38 6 69 45 68 27-1 43-14 53-32l24 11C152-15 129 4 87 4 38 3 12-23 12-71c0-70 32-119 99-123zm44 81c14-66-71-72-95-28-4 8-8 17-11 28h106" id="J"/><path fill="#3a414a" d="M6 0l50-261h32L37 0H6" id="K"/><path fill="#3a414a" d="M50-231l6-30h32l-6 30H50zM6 0l37-190h31L37 0H6" id="L"/><path fill="#3a414a" d="M44-68c0 29 11 47 38 47 30 0 42-19 51-41l28 9C148-21 126 4 82 4 31 4 10-29 12-85c3-77 74-140 146-93 12 8 15 23 18 40l-31 5c-1-22-13-36-36-36-52 0-65 49-65 101" id="M"/><path fill="#3a414a" d="M67-158c15-20 31-36 64-36 94 0 33 127 27 194h-32l25-140c3-38-53-32-70-12C52-117 51-51 37 0H6l51-261h31" id="N"/><path fill="#3a414a" d="M67-158c22-48 132-52 116 29L158 0h-32l25-140c3-38-53-32-70-12C52-117 51-52 38 0H6l36-190h30" id="O"/><g id="i"><use transform="matrix(0.061728395061728385,0,0,0.061728395061728385,0,0)" xlink:href="#F"/><use transform="matrix(0.061728395061728385,0,0,0.061728395061728385,12.345679012345677,0)" xlink:href="#G"/><use transform="matrix(0.061728395061728385,0,0,0.061728395061728385,24.691358024691354,0)" xlink:href="#H"/><use transform="matrix(0.061728395061728385,0,0,0.061728395061728385,35.80246913580246,0)" xlink:href="#I"/><use transform="matrix(0.061728395061728385,0,0,0.061728395061728385,48.14814814814814,0)" xlink:href="#J"/><use transform="matrix(0.061728395061728385,0,0,0.061728395061728385,60.493827160493815,0)" xlink:href="#I"/><use transform="matrix(0.061728395061728385,0,0,0.061728395061728385,72.83950617283949,0)" xlink:href="#K"/><use transform="matrix(0.061728395061728385,0,0,0.061728395061728385,77.71604938271604,0)" xlink:href="#L"/><use transform="matrix(0.061728395061728385,0,0,0.061728395061728385,82.59259259259258,0)" xlink:href="#M"/><use transform="matrix(0.061728395061728385,0,0,0.061728395061728385,93.7037037037037,0)" xlink:href="#N"/><use transform="matrix(0.061728395061728385,0,0,0.061728395061728385,106.04938271604937,0)" xlink:href="#J"/><use transform="matrix(0.061728395061728385,0,0,0.061728395061728385,118.39506172839504,0)" xlink:href="#O"/></g><path fill="#3a414a" d="M17-49c1-102 45-165 103-212h30C92-210 49-145 49-46 49 4 63 43 85 75H54C30 43 18 2 17-49" id="P"/><path fill="#3a414a" d="M123-107v75H97v-75H23v-26h74v-75h26v75h75v26h-75" id="Q"/><path fill="#3a414a" d="M58-38C53-5 46 26 28 46H7C19 32 27 18 32 0H17l7-38h34" id="R"/><g id="j"><use transform="matrix(0.061728395061728385,0,0,0.061728395061728385,0,0)" xlink:href="#P"/><use transform="matrix(0.061728395061728385,0,0,0.061728395061728385,7.345679012345678,0)" xlink:href="#Q"/><use transform="matrix(0.061728395061728385,0,0,0.061728395061728385,20.30864197530864,0)" xlink:href="#R"/></g><path fill="#3a414a" d="M18-82l6-28h88l-6 28H18" id="S"/><path fill="#3a414a" d="M98-137C97-35 54 29-4 75h-31C23 23 67-41 67-140c0-50-15-89-37-121h31c24 32 36 73 37 124" id="T"/><g id="k"><use transform="matrix(0.061728395061728385,0,0,0.061728395061728385,0,0)" xlink:href="#S"/><use transform="matrix(0.061728395061728385,0,0,0.061728395061728385,7.345679012345678,0)" xlink:href="#T"/></g><g id="l"><use transform="matrix(0.06790123456790122,0,0,0.06790123456790122,0,0)" xlink:href="#F"/><use transform="matrix(0.06790123456790122,0,0,0.06790123456790122,13.580246913580243,0)" xlink:href="#G"/><use transform="matrix(0.06790123456790122,0,0,0.06790123456790122,27.160493827160487,0)" xlink:href="#H"/><use transform="matrix(0.06790123456790122,0,0,0.06790123456790122,39.38271604938271,0)" xlink:href="#I"/><use transform="matrix(0.06790123456790122,0,0,0.06790123456790122,52.96296296296295,0)" xlink:href="#J"/><use transform="matrix(0.06790123456790122,0,0,0.06790123456790122,66.54320987654319,0)" xlink:href="#I"/><use transform="matrix(0.06790123456790122,0,0,0.06790123456790122,80.12345679012343,0)" xlink:href="#K"/><use transform="matrix(0.06790123456790122,0,0,0.06790123456790122,85.48765432098762,0)" xlink:href="#L"/><use transform="matrix(0.06790123456790122,0,0,0.06790123456790122,90.85185185185182,0)" xlink:href="#M"/><use transform="matrix(0.06790123456790122,0,0,0.06790123456790122,103.07407407407403,0)" xlink:href="#N"/><use transform="matrix(0.06790123456790122,0,0,0.06790123456790122,116.65432098765427,0)" xlink:href="#J"/><use transform="matrix(0.06790123456790122,0,0,0.06790123456790122,130.23456790123453,0)" xlink:href="#O"/></g><g id="m"><use transform="matrix(0.06790123456790122,0,0,0.06790123456790122,0,0)" xlink:href="#P"/><use transform="matrix(0.06790123456790122,0,0,0.06790123456790122,8.080246913580245,0)" xlink:href="#Q"/><use transform="matrix(0.06790123456790122,0,0,0.06790123456790122,22.3395061728395,0)" xlink:href="#R"/></g><g id="n"><use transform="matrix(0.06790123456790122,0,0,0.06790123456790122,0,0)" xlink:href="#S"/><use transform="matrix(0.06790123456790122,0,0,0.06790123456790122,8.080246913580245,0)" xlink:href="#T"/></g></defs></g></svg>