<svg xmlns="http://www.w3.org/2000/svg" xmlns:xlink="http://www.w3.org/1999/xlink" xmlns:lucid="lucid" width="898.76" height="668.5"><g transform="translate(1276.896042027113 -497)" lucid:page-tab-id="0_0"><path d="M-1500 500H0v1000h-1500z" fill="#fff"/><path d="M-904.43 709.16c4.92 0 8.9 4 8.9 8.92s-3.98 8.9-8.9 8.9h-11.62c-4.92 0-8.9-3.98-8.9-8.9 0-4.93 3.98-8.92 8.9-8.92z" stroke="#3a414a" stroke-width="2" fill="#fff"/><path d="M-1198.95 762.4l5 .1 6.43.43 7.1.77 8.34 1.25 11.88 2.32 32.22 6.97 6.08.9 4.8.53 4.06.27 3.6.08 3.3-.06 3.08-.2 2.9-.28 2.8-.4 2.7-.52 2.63-.6 2.6-.73 2.6-.84 2.6-.97 2.63-1.1 2.67-1.25 2.75-1.43 2.83-1.63 2.96-1.87.9-.6" stroke="#3a414a" stroke-width="2" stroke-linejoin="round" fill="none"/><path d="M-1199.05 766.4l4.92.1 6.27.42 6.92.74 8.17 1.23 11.76 2.3 32.3 6.97 6.28.95 4.96.53 4.24.28 3.78.1 3.47-.07 3.24-.2 3.07-.3 2.95-.44 2.85-.54 2.8-.65 2.77-.77 2.75-.9 2.76-1 2.8-1.17 2.8-1.34 2.9-1.5 3-1.72 3.08-1.95.93-.64" stroke="#3a414a" stroke-width="2" stroke-linejoin="round" fill="none"/><path d="M-1198.93 762.4l-1.02-.03M-1199.02 766.4l-1.03-.03" stroke="#3a414a" stroke-width="2" fill="none"/><path d="M-1068.2 763.7l.07.12-.84.58-1.13-1.66.93-.63zM-1065.86 767.12l-.87.6-1.12-1.67.86-.58z" stroke="#3a414a" stroke-width=".05" fill="#3a414a"/><path d="M-1082.04 721.98l-4.74-.1-5.38-.34-5.06-.53-4.8-.7-4.6-.87-4.43-1.04-4.3-1.2-4.2-1.38-4.17-1.55-4.15-1.74-4.17-1.97-4.26-2.22-4.4-2.55-4.66-2.96-5.02-3.5-5.65-4.3-6.82-5.64-9.93-8.98-39-36.85-9.1-7.54-8.1-6.14-7.63-5.33-3.65-2.35" stroke="#3a414a" stroke-width="2" stroke-linejoin="round" fill="none"/><path d="M-1081.96 717.98l-4.65-.1-5.23-.32-4.9-.52-4.63-.68-4.43-.85-4.25-1-4.14-1.14-4.04-1.32-4-1.5-4-1.66-4.03-1.9-4.1-2.15-4.27-2.46-4.5-2.86-4.9-3.4-5.5-4.18-6.7-5.55-9.82-8.9-39.07-36.9-9.26-7.67-8.2-6.25-7.78-5.4-3.7-2.4" stroke="#3a414a" stroke-width="2" stroke-linejoin="round" fill="none"/><path d="M-1080.98 721l.07 2-1.2-.02.05-2zM-1080.9 717l-.07 2-1.04-.02.03-2z" stroke="#3a414a" stroke-width=".05" fill="#3a414a"/><path d="M-1240.22 622.24l-.87-.56M-1238.05 618.88l-.86-.56" stroke="#3a414a" stroke-width="2" fill="none"/><path d="M-1052.08 656.12l-.75-1.64-1.05-2.05-.97-1.72-.9-1.43-.84-1.23-.78-1.06-.74-.92-.72-.8-.68-.72-.65-.62-.64-.56-.63-.5-.6-.45-.6-.4-.6-.36-.58-.33-.6-.28-.6-.27-.6-.25-.6-.22-.62-.2-.65-.16-.67-.15-.7-.13-.75-.1-.78-.07-.85-.05h-.93l-1.03.03-1.14.1-1.32.15-1.57.25-1.97.4-2.72.68-6.6 1.97-9.48 2.86-3.77.94-3 .6-2.57.42-2.32.28-2.15.16-2.03.07-1.92-.02-1.85-.08-1.8-.17-1.75-.24-1.72-.3-1.7-.37-1.7-.45-1.7-.53-1.7-.6-1.73-.7-1.75-.8-1.78-.92-1.83-1.02-1.9-1.16-1.94-1.32-2.04-1.5-2.13-1.73-2.24-1.98-2.4-2.28-2.54-2.65-2.74-3.1-2.97-3.66-3.25-4.37-3.6-5.28-4.02-6.48-4.55-8.06-5.23-10.24-3.1-6.56" stroke="#3a414a" stroke-width="2" stroke-linejoin="round" fill="none"/><path d="M-1048.44 654.45l-.8-1.7-1.12-2.22-1.05-1.86-1-1.58-.93-1.38-.9-1.2-.84-1.05-.83-.93-.8-.83-.77-.73-.76-.67-.75-.6-.74-.55-.74-.5-.73-.45-.72-.42-.74-.37-.74-.33-.76-.3-.77-.28-.78-.26-.82-.2-.84-.2-.87-.15-.9-.13-.97-.1-1.02-.04h-1.1l-1.2.03-1.3.1-1.5.17-1.73.28-2.13.45-2.9.72-6.68 2-9.4 2.83-3.6.9-2.8.57-2.43.4-2.15.24-1.98.16-1.85.07-1.75-.02-1.7-.07-1.6-.16-1.6-.2-1.56-.3-1.53-.33-1.53-.4-1.54-.5-1.55-.54-1.57-.64-1.6-.73-1.63-.83-1.68-.94-1.74-1.08-1.82-1.23-1.9-1.4-2-1.62-2.1-1.86-2.27-2.16-2.43-2.52-2.63-2.97-2.86-3.52-3.14-4.23-3.5-5.14-3.94-6.32-4.47-7.92-5.16-10.1-3.07-6.5" stroke="#3a414a" stroke-width="2" stroke-linejoin="round" fill="none"/><path d="M-1050.65 656.83l-1.24.97-.36.33-.74-1.6 1.82-.85zM-1047.4 654.33l-.5.33-1.13.9-.33-.7 1.8-.85z" stroke="#3a414a" stroke-width=".05" fill="#3a414a"/><path d="M-1181.37 581.78l-.44-.93M-1177.75 580.08l-.44-.93" stroke="#3a414a" stroke-width="2" fill="none"/><path d="M-1002 637.98l.32-29.2.56-5.98.65-4.05.73-3.17.8-2.68.86-2.36.97-2.18 1.06-2.05 1.22-1.98 1.4-2 1.6-2 1.96-2.14 2.4-2.3 3.12-2.63 4.3-3.17 6.6-4.24 11.36-6.33 3.9-1.74 3.43-1.05 3.14-.54 2.97-.15 2.94.23 3.06.6 3.36 1.14 4.23 2.04 11.37 6.73 1.03.35.77.16.6.04h.4l.4-.07.4-.1.42-.13.42-.2.43-.26.44-.33.45-.4.44-.53.44-.62.43-.74.4-.9.34-1.04.27-1.23.18-1.44.02-1.7-.18-1.96-.45-2.32-.82-2.7-1.34-3.22-2.05-3.8-3.1-4.57-4.67-5.54-7.03-6.8-5.45-4.48" stroke="#3a414a" stroke-width="2" stroke-linejoin="round" fill="none"/><path d="M-998 638.02l.32-29.03.53-5.7.6-3.8.68-2.9.72-2.43.78-2.13.86-1.93.95-1.82 1.08-1.77 1.24-1.76 1.46-1.83L-987 581l2.22-2.14 2.92-2.45 4.08-3.03 6.4-4.1 11.1-6.18 3.5-1.6 2.97-.9 2.63-.46 2.5-.12 2.44.18 2.56.5 2.88.98 3.86 1.86 11.58 6.85 1.67.55 1.27.26 1.08.1.82-.04.8-.1.8-.2.8-.3.78-.36.8-.48.75-.58.75-.7.72-.8.68-.96.63-1.1.56-1.25.47-1.44.36-1.64.22-1.85.02-2.1-.22-2.37-.52-2.7-.94-3.12-1.5-3.57-2.25-4.16-3.34-4.9-4.92-5.85-7.3-7.05-5.56-4.58" stroke="#3a414a" stroke-width="2" stroke-linejoin="round" fill="none"/><path d="M-1001 637.96V639l-2 .1v-1.16zM-997 638v1.1l-2-.07v-1.05z" stroke="#3a414a" stroke-width=".05" fill="#3a414a"/><path d="M-940.48 522.2l-.8-.66M-937.94 519.1l-.8-.64" stroke="#3a414a" stroke-width="2" fill="none"/><path d="M-982 941l-2.2-1.68-2.68-2.37-2.42-2.48-2.22-2.6-2.05-2.84-1.94-3.13-1.9-3.63-1.97-4.54-2.52-7.28-5.27-16.7-1.5-3.52-1.4-2.64-1.33-2.17-1.36-1.87-1.4-1.67-1.5-1.53-1.6-1.42-1.78-1.35-2-1.3-2.26-1.25-2.68-1.23-1.43-.57-3.12-1.3-2.58-1.27-2.15-1.25-1.82-1.22-1.56-1.2-1.36-1.2-1.18-1.2-1.05-1.2-.93-1.22-.83-1.25-.72-1.3-.65-1.33-.58-1.4-.5-1.5-.4-1.6-.33-1.7-.24-1.9-.12-2.13.02-2.43.22-2.85.5-3.48.93-4.5 1.84-6.54 5.74-15.9 6.42-16.76" stroke="#3a414a" stroke-width="2" stroke-linejoin="round" fill="none"/><path d="M-979.6 937.8l-2.06-1.57-2.47-2.2-2.2-2.25-2.03-2.4-1.88-2.58-1.8-2.88-1.75-3.37-1.84-4.26-2.45-7.1-5.3-16.86-1.67-3.83-1.5-2.9-1.5-2.4-1.54-2.1-1.6-1.9-1.7-1.73-1.83-1.62-2-1.53-2.24-1.45-2.53-1.4-2.9-1.33-1.5-.6-2.97-1.23-2.34-1.15-1.93-1.1-1.6-1.1-1.36-1.03-1.14-1.02-1-1-.88-1.02-.77-1.02-.68-1.03-.6-1.06-.54-1.1-.47-1.16-.4-1.23-.35-1.34-.28-1.46-.2-1.64-.1-1.86v-2.16l.2-2.57.46-3.22.9-4.22 1.75-6.27 5.68-15.72 6.4-16.73" stroke="#3a414a" stroke-width="2" stroke-linejoin="round" fill="none"/><path d="M-982.03 940.97l.82.62M-979.6 937.8l.8.6" stroke="#3a414a" stroke-width="2" fill="none"/><path d="M-1030.58 795l-.38 1-1.87-.7.4-1.1zM-1026.83 796.4l-.4 1.03-1.86-.72.38-.96z" stroke="#3a414a" stroke-width=".05" fill="#3a414a"/><path d="M-940 717.94a6 6 0 0 1 6-6h228a6 6 0 0 1 6 6v1.32a6 6 0 0 1-6 6h-228a6 6 0 0 1-6-6z" stroke="#3a414a" stroke-width="2" fill="#fff"/><path d="M-920 720c0 44.18-35.82 80-80 80s-80-35.82-80-80 35.82-80 80-80 80 35.82 80 80z" stroke="#3a414a" stroke-width="2" fill="#fff"/><path d="M-1001.36 637.6c0-.7.57-1.26 1.26-1.26.7 0 1.25.56 1.25 1.25v7.94c0 .7-.56 1.26-1.25 1.26-.7 0-1.25-.56-1.25-1.26zM-1050.6 658.53c-.52-.7-.37-1.68.33-2.2.7-.5 1.67-.35 2.18.35l2.7 3.65c.5.7.35 1.68-.34 2.2-.7.5-1.68.35-2.2-.35zM-1079.4 721.66c-.97 0-1.76-.8-1.76-1.76 0-.98.8-1.76 1.76-1.76h4.9c.98 0 1.77.78 1.77 1.76 0 .97-.8 1.76-1.77 1.76zM-1065.88 764.9c-.57.4-1.34.23-1.72-.34-.38-.57-.22-1.34.35-1.72l5.12-3.4c.57-.37 1.34-.22 1.72.35.37.56.2 1.33-.36 1.7zM-1028.05 795.03c-.23.62-.92.93-1.54.7-.6-.22-.92-.9-.7-1.53l2.32-6.3c.23-.6.92-.93 1.54-.7.62.23.94.92.7 1.54zM-934.73 724.06c-2.9 0-5.27-2.36-5.27-5.27 0-2.92 2.36-5.27 5.27-5.27h30.28c2.9 0 5.27 2.35 5.27 5.26 0 2.9-2.36 5.26-5.27 5.26z" stroke="#fff" fill="#fff"/><path d="M-644.27 661.45l-.23-2.22-.38-2.6-.4-2.16-.44-1.83-.44-1.58-.44-1.37-.45-1.2-.45-1.08-.44-.95-.45-.86-.44-.77-.45-.72-.45-.64-.46-.6-.47-.57-.48-.54-.5-.5-.5-.47-.5-.46-.55-.43-.56-.4-.6-.4-.64-.4-.7-.37-.73-.37-.82-.36-.9-.36-1.05-.36-1.2-.37-1.47-.37-1.9-.4-2.93-.5-14.37-2.02-2.8-.6-2.33-.58-2.05-.63-1.88-.66-1.75-.7-1.64-.73-1.57-.77-1.5-.83-1.47-.9-1.43-.94-1.4-1.02-1.38-1.1-1.37-1.2-1.37-1.27-1.37-1.4-1.36-1.53-1.4-1.68-1.4-1.85-1.42-2.05-1.46-2.3-1.5-2.6-1.53-2.95-1.58-3.37-1.64-3.9-1.68-4.58-1.76-5.43-1.8-6.53-1.87-8-1.9-10-1.87-12.8-.95-8.4" stroke="#3a414a" stroke-width="2" stroke-linejoin="round" fill="none"/><path d="M-640.3 661.04l-.23-2.3-.4-2.76-.45-2.34-.47-2-.48-1.73-.5-1.52-.5-1.36-.5-1.22-.53-1.1-.52-1.02-.54-.92-.54-.86-.55-.8-.57-.73-.57-.7-.6-.65-.6-.62-.62-.58-.64-.56-.68-.54-.7-.5-.74-.5-.78-.47-.83-.46-.9-.45-.97-.44-1.06-.4-1.2-.43-1.37-.4-1.63-.43-2.07-.44-3.06-.5-14.27-2.03-2.58-.55-2.17-.56-1.9-.57-1.7-.6-1.6-.64-1.5-.67-1.42-.7-1.36-.76-1.32-.8-1.3-.86-1.26-.92-1.25-1-1.24-1.07-1.25-1.2-1.25-1.26-1.26-1.4-1.28-1.56-1.3-1.72-1.35-1.92-1.37-2.16-1.4-2.45-1.46-2.8-1.5-3.22-1.6-3.75-1.62-4.4-1.7-5.28-1.77-6.37-1.83-7.83-1.86-9.84-1.84-12.63-.94-8.35" stroke="#3a414a" stroke-width="2" stroke-linejoin="round" fill="none"/><path d="M-643.15 662.6l-1.1.37-.83.38-.2-1.82 2-.2zM-639.27 661.22l-.26.07-1.68.6-.1-.8 2-.2z" stroke="#3a414a" stroke-width=".05" fill="#3a414a"/><path d="M-731.5 541.92l-.13-1.02M-727.54 541.48l-.12-1.02" stroke="#3a414a" stroke-width="2" fill="none"/><path d="M-602.38 660.1l3.14-8.47 3.3-7.48 3.17-6.16 3.1-5.24 3.05-4.55 3.08-4.02 3.13-3.63 3.22-3.32 3.35-3.06 3.54-2.87 3.78-2.7 4.1-2.57 4.47-2.47 5.03-2.4 5.75-2.3 6.75-2.3 8.2-2.22 10.44-2.18 5.1-.85 4.74-.4 3.95.2 3.45.68 3.16 1.1 3.04 1.56 3.13 2.22 3.65 3.46 9.16 10.56.88.63.7.37.63.22.4.07.38.04h.4l.43-.03.46-.1.48-.13.5-.2.55-.27.55-.35.6-.46.6-.56.6-.7.62-.85.6-1.02.58-1.24.53-1.48.45-1.75.33-2.1.15-2.52-.1-3.02-.47-3.66-1.02-4.48-1.82-5.54-3.05-6.94-4.95-8.88-1.8-2.83" stroke="#3a414a" stroke-width="2" stroke-linejoin="round" fill="none"/><path d="M-598.63 661.5l3.1-8.37 3.2-7.26 3.06-5.95 2.97-5.03 2.93-4.36 2.94-3.84 2.98-3.45 3.05-3.14 3.18-2.9 3.35-2.7 3.58-2.58 3.9-2.44 4.28-2.36 4.8-2.3 5.54-2.22 6.52-2.2 7.98-2.17 10.24-2.14 4.87-.82 4.3-.38 3.38.18 2.9.57 2.63.9 2.53 1.32 2.67 1.9 3.3 3.12 9.35 10.76 1.5 1.07 1.2.62 1.05.37.27.07.7.13.77.08h.78l.8-.07.84-.15.83-.24.86-.34.87-.45.88-.55.88-.7.88-.8.88-1 .84-1.15.8-1.35.74-1.58.65-1.83.55-2.13.4-2.47.16-2.9-.1-3.4-.53-4.04-1.1-4.84-1.95-5.9-3.2-7.28-5.1-9.16-1.9-2.93" stroke="#3a414a" stroke-width="2" stroke-linejoin="round" fill="none"/><path d="M-601.43 660.42l-.38 1.02-1.94-.57.43-1.15zM-597.68 661.8l-.37 1-1.87-.7.36-1z" stroke="#3a414a" stroke-width=".05" fill="#3a414a"/><path d="M-484.22 562.93l-.55-.86M-480.85 560.77l-.56-.86" stroke="#3a414a" stroke-width="2" fill="none"/><path d="M-682.16 840.57l-1.1-1.25-1.5-1.17-1.55-.8-1.8-.5-2.46-.2-12.53 1.2-1.4-.4-1-.5-.86-.65-.73-.84-.65-1.1-.56-1.62-.4-2.72.2-5.72.5-3.14.83-3.15 1.2-3.24 1.64-3.44 2.3-3.77 3.24-4.34 5-5.46 11.8-10.45 14.14-12.17 2.63-2.87" stroke="#3a414a" stroke-width="2" stroke-linejoin="round" fill="none"/><path d="M-679.15 837.93l-1.35-1.53-2.1-1.65-2.24-1.13-2.53-.72-3.2-.28-12.15 1.2-.33-.1-.32-.17-.24-.18-.24-.27-.26-.45-.3-.87-.3-1.98.2-5.1.43-2.73.72-2.77 1.06-2.88 1.5-3.1 2.08-3.43 3-4.03 4.74-5.17 11.62-10.3 14.3-12.3 2.95-3.22" stroke="#3a414a" stroke-width="2" stroke-linejoin="round" fill="none"/><path d="M-682.18 840.55l.67.77M-679.17 837.9l.67.78" stroke="#3a414a" stroke-width="2" fill="none"/><path d="M-663.77 772.1l-.67.83-1.55-1.26.77-.94zM-660.7 774.65l-.64.8-1.55-1.26.66-.8z" stroke="#3a414a" stroke-width=".05" fill="#3a414a"/><path d="M-562.63 743.14c-11.32 33.37-46.94 51.45-79.56 40.38-32.6-11.06-49.86-47.1-38.54-80.46 11.33-33.37 46.95-51.45 79.57-40.4 32.6 11.08 49.87 47.1 38.54 80.48z" stroke="#3a414a" stroke-width="2" fill="#fff"/><path d="M-578.98 652.62c.22-.65.93-1 1.6-.78.64.22 1 .94.77 1.6l-2.56 7.52c-.23.66-.94 1-1.6.8-.65-.23-1-.95-.78-1.6zM-643.25 662.18c-.1-.6.3-1.15.9-1.25.58-.1 1.14.3 1.24.9l.98 6.1c.1.6-.3 1.16-.9 1.26-.58.1-1.14-.32-1.24-.9zM-662.27 773.86c-.4.52-1.17.6-1.68.18-.5-.42-.6-1.17-.18-1.68l4.22-5.2c.4-.53 1.16-.6 1.67-.2.52.43.6 1.18.18 1.7z" stroke="#fff" fill="#fff"/><path d="M-693.75 706.3a4.6 4.6 0 0 1 5.22 5.13l-1.94 15.96a4.6 4.6 0 0 1-6.3 3.7l-3.4-1.35a7.8 7.8 0 0 1-4.84-8.2l.95-7.93a7.8 7.8 0 0 1 6.67-6.8z" stroke="#3a414a" stroke-width="2" fill="#fff"/><path d="M-702.53 713.33c2.9 0 5.25 2.35 5.25 5.25s-2.35 5.25-5.25 5.25h-8.66c-2.9 0-5.24-2.35-5.24-5.25s2.35-5.25 5.25-5.25z" stroke="#fff" fill="#fff"/><path d="M-573.1 742.74a4.8 4.8 0 0 1 6.2-2.74l163 62.82a4.8 4.8 0 0 1 2.75 6.2 4.8 4.8 0 0 1-6.2 2.74l-163-62.83a4.8 4.8 0 0 1-2.75-6.2z" stroke="#3a414a" stroke-width="2" fill="#fff"/><path d="M-577.4 744.7c-1.7-.66-2.56-2.57-1.9-4.28.66-1.7 2.57-2.55 4.28-1.9l13.9 5.37c1.7.64 2.56 2.56 1.9 4.26-.66 1.7-2.57 2.56-4.28 1.9z" stroke="#fff" fill="#fff"/><path d="M-1214.2 653.26a4.6 4.6 0 0 1 7.25-.95l11.67 11.65a4.6 4.6 0 0 1-.94 7.25l-3.22 1.87a7.8 7.8 0 0 1-9.44-1.23l-5.93-5.9a7.8 7.8 0 0 1-1.26-9.45z" stroke="#3a414a" stroke-width="2" fill="#fff"/><path d="M-1211.63 671.63l-1.72 2.13-2.02 2.75-1.77 2.7-1.58 2.67-1.4 2.7-1.3 2.8-1.2 3-1.16 3.34-1.17 4.05-1.5 6.35-3.54 16.52-1.2 4.18-1.2 3.45-1.23 3.1-1.34 2.9-1.46 2.8-1.62 2.73-1.8 2.75-2.06 2.8-2.35 2.88-2.7 3.02-3.2 3.2-3.78 3.46-4.6 3.78-5.68 4.23-7.2 4.8-.6.36" stroke="#3a414a" stroke-width="2" stroke-linejoin="round" fill="none"/><path d="M-1214.73 669.1l-1.8 2.2-2.13 2.93-1.88 2.86-1.67 2.83-1.52 2.88-1.38 3-1.28 3.17-1.2 3.53-1.24 4.23-1.52 6.5-3.53 16.4-1.14 3.96-1.14 3.25-1.17 2.9-1.26 2.73-1.37 2.6-1.52 2.6-1.7 2.57-1.92 2.63-2.22 2.73-2.57 2.88-3.04 3.06-3.65 3.3-4.44 3.67-5.5 4.12-7.08 4.7-.53.35" stroke="#3a414a" stroke-width="2" stroke-linejoin="round" fill="none"/><path d="M-1210.4 671.72l-.47.56-1.55-1.26.58-.72zM-1213.26 668.88l-.7.88-1.56-1.26.84-1.04z" stroke="#3a414a" stroke-width=".05" fill="#3a414a"/><path d="M-1271.96 771.05l-.87.54M-1274.1 767.66l-.86.54" stroke="#3a414a" stroke-width="2" fill="none"/><path d="M-1208 663.94c.34-.33.86-.33 1.18 0 .32.32.32.84 0 1.16l-4.5 4.5c-.33.33-.85.33-1.18 0-.32-.3-.32-.83 0-1.15z" stroke="#fff" fill="#fff"/><path d="M-983.37 559.7a4.6 4.6 0 0 1 .96 7.25l-11.65 11.67a4.6 4.6 0 0 1-7.25-.94l-1.87-3.22a7.8 7.8 0 0 1 1.22-9.44l5.92-5.93a7.8 7.8 0 0 1 9.44-1.26z" stroke="#3a414a" stroke-width="2" fill="#fff"/><path d="M-1001.73 562.27l-2.13-1.73-2.75-2-2.7-1.8-2.68-1.56-2.7-1.42-2.8-1.3-3-1.2-3.33-1.14-4.05-1.17-6.35-1.5-16.52-3.54-4.18-1.2-3.45-1.2-3.1-1.24-2.9-1.34-2.8-1.46-2.73-1.62-2.75-1.8-2.8-2.05-2.88-2.35-3.03-2.7-3.2-3.2-3.45-3.78-3.78-4.6-4.23-5.68-4.8-7.2-.36-.6" stroke="#3a414a" stroke-width="2" stroke-linejoin="round" fill="none"/><path d="M-999.2 559.16l-2.2-1.78-2.93-2.14-2.86-1.88-2.83-1.68-2.9-1.5-2.97-1.38-3.18-1.28-3.52-1.22-4.24-1.23-6.48-1.52-16.43-3.52-3.94-1.15-3.26-1.12-2.9-1.17-2.72-1.27-2.62-1.37-2.57-1.5-2.58-1.7-2.63-1.94-2.73-2.2-2.88-2.6-3.06-3.03-3.3-3.65-3.67-4.44-4.12-5.5-4.72-7.08-.33-.54" stroke="#3a414a" stroke-width="2" stroke-linejoin="round" fill="none"/><path d="M-1000.4 562.06l-1.42 1.42-.56-.45 1.26-1.55zM-997.57 559.2l-1.4 1.44-.9-.72 1.27-1.55z" stroke="#3a414a" stroke-width=".05" fill="#3a414a"/><path d="M-1101.15 501.93l-.54-.87M-1097.76 499.8l-.55-.86" stroke="#3a414a" stroke-width="2" fill="none"/><path d="M-994.04 565.9c.32.33.32.85 0 1.18-.32.32-.84.32-1.16 0l-4.5-4.52c-.33-.32-.33-.84 0-1.16.3-.32.83-.32 1.15 0z" stroke="#fff" fill="#fff"/><path d="M-1121.84 789.93a4.6 4.6 0 0 1 4.45-5.8l16.5-.02a4.6 4.6 0 0 1 4.46 5.8l-.96 3.6a7.8 7.8 0 0 1-7.54 5.8l-8.38.02a7.8 7.8 0 0 1-7.55-5.8z" stroke="#3a414a" stroke-width="2" fill="#fff"/><path d="M-1107.04 801.1l.23 2.3.43 3 .53 2.82.64 2.7.73 2.58.84 2.55.97 2.54 1.13 2.6 1.34 2.77 1.7 3.12 2.4 4.04 11.25 17.5 1.75 3.26 1.4 2.86 1.16 2.7 1 2.64.87 2.63.75 2.66.65 2.75.55 2.87.44 3.04.33 3.26.2 3.53.05 3.88-.14 4.3-.36 4.88-.67 5.6-1.07 6.52-1.48 7.08" stroke="#3a414a" stroke-width="2" stroke-linejoin="round" fill="none"/><path d="M-1111.02 801.5l.24 2.4.46 3.16.57 3 .67 2.85.8 2.77.88 2.72 1.03 2.7 1.2 2.76 1.4 2.93 1.78 3.27 2.5 4.17 11.2 17.44 1.64 3.04 1.3 2.7 1.1 2.55.95 2.47.8 2.46.7 2.5.62 2.58.5 2.7.43 2.87.3 3.08.2 3.36.04 3.7-.13 4.13-.36 4.7-.63 5.4-1.04 6.36-1.45 6.9" stroke="#3a414a" stroke-width="2" stroke-linejoin="round" fill="none"/><path d="M-1106.04 801.04l-2 .2-.08-.92h2zM-1110.02 801.44l-2 .2-.12-1.32h2z" stroke="#3a414a" stroke-width=".05" fill="#3a414a"/><path d="M-1079.4 914.08l-.23 1M-1083.3 913.17l-.23 1" stroke="#3a414a" stroke-width="2" fill="none"/><path d="M-1109.9 793.1c0-.46.37-.83.82-.83.46 0 .83.37.83.82v6.37c0 .45-.37.82-.83.82-.45 0-.82-.38-.82-.83z" stroke="#fff" fill="#fff"/><path d="M-972.88 805.1a4.6 4.6 0 0 1 2.2-6.96l15.5-5.63a4.6 4.6 0 0 1 6.17 3.94l.32 3.7a7.8 7.8 0 0 1-5.12 8.04l-7.87 2.86a7.8 7.8 0 0 1-9.07-2.88z" stroke="#3a414a" stroke-width="2" fill="#fff"/><path d="M-955.16 810.74l1.25 3.16 1.15 4.06.75 4.1.37 4.43-.1 5.36-2.02 20.95.2 2.63.43 2.28.6 2.1.38 1.05.53 1.2.58 1.05.64.98.73.92.8.88.94.85 1.06.83 1.27.83 1.55.83 1.95.86 2.57.88 3.73.96 7.13 1.2 19.77 2.68 3.94 1 2.77.97 2.13.93 1.74.94 1.47.96 1.25.97 1.1 1 .96 1.05.86 1.1.77 1.15.7 1.25.6 1.35.53 1.5.44 1.66.33 1.9.2 2.2.05 2.62-.23 3.24-.63 4.12-.53 2.37" stroke="#3a414a" stroke-width="2" stroke-linejoin="round" fill="none"/><path d="M-958.88 812.2l1.18 3 1.05 3.67.68 3.72.34 4.02-.1 5-2.04 21.16.26 3.18.48 2.66.7 2.43.48 1.32.65 1.45.75 1.35.83 1.25.92 1.18 1.04 1.1 1.16 1.08 1.34 1.04 1.54 1 1.84 1 2.24 1 2.9 1 4.04 1.03 7.36 1.24 19.6 2.66 3.56.9 2.45.86 1.84.8 1.46.8 1.2.77.98.76.85.78.74.8.66.84.58.9.53.95.48 1.06.42 1.17.36 1.35.28 1.57.17 1.87.04 2.3-.2 2.9-.58 3.84-.5 2.25" stroke="#3a414a" stroke-width="2" stroke-linejoin="round" fill="none"/><path d="M-954.23 810.4l-1.86.73-.35-.92 1.88-.68zM-957.94 811.87l-1.86.74-.4-1.03 1.87-.68z" stroke="#3a414a" stroke-width=".05" fill="#3a414a"/><path d="M-890.42 908.1l-.22 1M-894.33 907.23l-.22 1" stroke="#3a414a" stroke-width="2" fill="none"/><path d="M-960.58 804.02c-.15-.43.07-.9.5-1.06.42-.15.9.07 1.05.5l2.17 6c.15.42-.07.9-.5 1.05-.42.16-.9-.06-1.05-.5z" stroke="#fff" fill="#fff"/><path d="M-562.12 593.8a4.6 4.6 0 0 1-.33 7.32l-13.52 9.43a4.6 4.6 0 0 1-6.97-2.2l-1.27-3.5a7.8 7.8 0 0 1 2.86-9.07l6.87-4.8a7.8 7.8 0 0 1 9.5.43z" stroke="#3a414a" stroke-width="2" fill="#fff"/><path d="M-580.65 593.1l-2.12-2.43-2.68-2.76-2.67-2.43-2.7-2.22-2.84-2.05-3.06-1.96-3.47-1.96-4.38-2.15-24.97-10.66-3.64-2.05-3.15-2.03-2.92-2.13-2.8-2.28-2.73-2.5-2.72-2.8-2.76-3.2-2.85-3.68-3-4.35-3.17-5.26-3.46-6.5-3.8-8.32-1.32-3.2" stroke="#3a414a" stroke-width="2" stroke-linejoin="round" fill="none"/><path d="M-577.63 590.5l-2.2-2.54-2.83-2.92-2.84-2.6-2.9-2.36-3-2.18-3.25-2.1-3.68-2.06-4.58-2.25-24.88-10.62-3.35-1.9-2.96-1.9-2.73-1.98-2.62-2.14-2.56-2.35-2.58-2.62-2.6-3-2.72-3.5-2.86-4.18-3.06-5.06-3.35-6.32-3.73-8.14-1.28-3.1" stroke="#3a414a" stroke-width="2" stroke-linejoin="round" fill="none"/><path d="M-579.3 593.13l-1.65 1.15-.47-.53 1.5-1.3zM-576 590.83l-1.65 1.15-.75-.85 1.5-1.3z" stroke="#3a414a" stroke-width=".05" fill="#3a414a"/><path d="M-667.87 516.2l-.4-.93M-664.17 514.7l-.4-.96" stroke="#3a414a" stroke-width="2" fill="none"/><path d="M-573.7 598.04c.25.38.15.9-.22 1.15-.37.25-.9.16-1.15-.2l-3.64-5.25c-.27-.37-.18-.88.2-1.14.37-.25.88-.16 1.14.2z" stroke="#fff" fill="#fff"/><path d="M-676.45 805.66a4.6 4.6 0 0 1-.62-7.28l12.07-11.03a4.6 4.6 0 0 1 7.2 1.28l1.67 3.2a7.8 7.8 0 0 1-1.66 9.38l-6.12 5.6a7.8 7.8 0 0 1-9.48.8z" stroke="#3a414a" stroke-width="2" fill="#fff"/><path d="M-658.1 803.96l2.13 1.95 2.7 2.25 2.65 1.97 2.63 1.74 2.68 1.58 2.8 1.46 3 1.37 3.45 1.36 4.42 1.46 23.1 6.53 3.6 1.42 3.13 1.43 2.9 1.5 2.75 1.63 2.7 1.8 2.7 2.02 2.75 2.27 2.83 2.6 2.97 3.04 3.16 3.6 3.42 4.34 3.76 5.34 4.26 6.75 3.4 6.03" stroke="#3a414a" stroke-width="2" stroke-linejoin="round" fill="none"/><path d="M-660.8 806.9l2.2 2.02 2.86 2.38 2.82 2.1 2.8 1.85 2.86 1.7 2.98 1.55 3.2 1.46 3.65 1.43 4.6 1.52 23 6.5 3.32 1.3 2.92 1.35 2.7 1.4 2.6 1.53 2.52 1.68 2.53 1.9 2.58 2.12 2.67 2.47 2.82 2.9 3 3.42 3.3 4.17 3.64 5.17 4.14 6.58 3.36 5.95" stroke="#3a414a" stroke-width="2" stroke-linejoin="round" fill="none"/><path d="M-657.4 803.24l-1.35 1.47-.7-.63 1.5-1.36zM-660.1 806.18l-1.36 1.47-.94-.87 1.48-1.36z" stroke="#3a414a" stroke-width=".05" fill="#3a414a"/><path d="M-564.25 869.38l.5.9M-567.74 871.35l.5.9" stroke="#3a414a" stroke-width="2" fill="none"/><path d="M-665.65 800c-.3-.33-.28-.84.05-1.15.34-.3.85-.28 1.16.05l4.26 4.68c.3.34.3.86-.05 1.16-.33.3-.85.28-1.16-.05zM-602.2 661.95c.24-.56.87-.83 1.42-.6.56.22.83.85.6 1.4l-2.3 5.76c-.22.57-.85.84-1.4.6-.56-.2-.83-.84-.6-1.4z" stroke="#fff" fill="#fff"/><path d="M-716.44 706a6 6 0 0 1 6-6h36.42a6 6 0 0 1 6 6v26.62a6 6 0 0 1-6 6h-36.42a6 6 0 0 1-6-6z" fill-opacity="0"/><path d="M-715.2 702.35l.52-.6.6-.5m2.86-1.2l.78-.05h1m4.06 0h2.02m4.05 0h2m4.06 0h2.02m4.05 0h2.02m4.05 0h2.02m4.05 0h1l.8.06m2.86 1.2l.6.5.5.6m1.2 2.86l.05.78v1.1m0 4.45v2.22m0 4.43v2.22m0 4.44v2.22m0 4.43v1.12l-.06.78m-1.18 2.87l-.5.6-.6.5m-2.87 1.2l-.8.05h-1m-4.05 0h-2.02m-4.05 0h-2.02m-4.05 0h-2.02m-4.05 0h-2m-4.06 0h-2.02m-4.05 0h-1l-.8-.06m-2.86-1.2l-.58-.5-.5-.6m-1.2-2.86l-.06-.78v-1.1m0-4.44v-2.22m0-4.44v-2.22m0-4.44v-2.2m0-4.45V706l.06-.78" stroke="#3a414a" fill="none"/><path d="M-901.66 952.3a6 6 0 0 1 6-6h203.33a6 6 0 0 1 6 6v148.5a6 6 0 0 1-6 6h-203.33a6 6 0 0 1-6-6z" fill="#fff"/><path d="M-900.42 948.65l.5-.6.6-.5m2.87-1.2l.8-.06h.98m4 0h1.98m4 0h2m3.98 0h2m3.98 0h2m3.98 0h2m3.98 0h2m3.98 0h2m3.98 0h2m3.98 0h2m3.98 0h2m3.98 0h2m3.98 0h2m3.98 0h2m3.98 0h2m3.98 0h2m4 0h1.98m4 0h1.98m4 0h1.98m4 0h1.98m4 0h1.98m4 0h1.98m4 0h1.98m4 0h1.98m4 0h1.98m4 0h1.98m4 0h1.98m4 0h1.98m4 0h1.98m4 0h1.98m4 0h1.98m4 0h1.98m4 0h2m3.97 0h1.98m4 0h1l.77.06m2.87 1.18l.6.5.5.6m1.2 2.87l.05.8v.98m0 3.96v1.98m0 3.96v1.98m0 3.96v1.98m0 3.96v1.98m0 3.96v1.98m0 3.96v1.98m0 3.96v1.98m0 3.96v1.98m0 3.96v1.98m0 3.96v1.98m0 3.96v1.98m0 3.96v1.98m0 3.96v1.98m0 3.96v1.98m0 3.96v1.98m0 3.96v1.98m0 3.96v1.98m0 3.96v1.98m0 3.96v1.98m0 3.96v1.98m0 3.96v1.98m0 3.96v1.98m0 3.96v1.98m0 3.96v1.98m0 3.96v1l-.06.77m-1.18 2.87l-.5.6-.6.5m-2.87 1.2l-.78.05h-1m-4 0h-1.98m-4 0h-2m-3.98 0h-2m-3.98 0h-2m-3.98 0h-2m-3.98 0h-2m-3.98 0h-2m-3.98 0h-2m-3.98 0h-2m-3.98 0h-2m-3.98 0h-2m-3.98 0h-2m-3.98 0h-2m-3.98 0h-2m-3.98 0h-2m-3.98 0h-2m-3.98 0h-2m-3.98 0h-2m-3.98 0h-2m-3.98 0h-2m-3.98 0h-2m-3.98 0h-2m-3.98 0h-2m-3.98 0h-2m-3.98 0h-2m-4 0h-1.98m-3.98 0h-2m-4 0h-1.98m-4 0h-1.98m-4 0h-1.98m-4 0h-1.98m-4 0h-1.98m-4 0h-1.98m-4 0h-1l-.77-.07m-2.86-1.2l-.6-.5-.52-.6m-1.18-2.86l-.06-.78v-1m0-3.96v-1.98m0-3.96v-1.98m0-3.96v-1.98m0-3.96v-1.98m0-3.96v-1.98m0-3.96v-1.98m0-3.96v-1.98m0-3.96v-1.98m0-3.96v-1.98m0-3.96v-1.98m0-3.96v-1.98m0-3.96v-1.98m0-3.96v-1.98m0-3.96v-1.98m0-3.96v-1.98m0-3.96v-1.98m0-3.96v-1.98m0-3.96v-1.98m0-3.96v-1.98m0-3.96V981m0-3.96v-1.98m0-3.96v-1.98m0-3.96v-1.98m0-3.96v-1.98m0-3.96v-1l.06-.77" stroke="#3a414a" fill="none"/><path d="M-691.72 1098.04l-6.18-4.7-7.07-5.92-24.06-22.15-2.93-2.23-2.64-1.8-2.5-1.55-2.5-1.38-2.55-1.24-2.68-1.15-2.87-1.07-3.15-1-3.55-.94-4.1-.87-4.85-.8-5.97-.67-7.65-.48-10.38-.16-6.3.13-50.2 1.04-5.38.55-3.95.6-3.18.63-2.68.67-2.34.7-2.1.76-1.9.8-1.77.8-1.66.9-1.6.92-1.52 1-1.48 1.08-1.45 1.16-1.44 1.27-1.43 1.4-1.45 1.56-1.5 1.74-1.52 2-1.6 2.3-1.7 2.68-1.8 3.23-1.98 3.96-2.23 5.04-2.58 6.65-3.1 9.4-.87 2.84" stroke="#3a414a" stroke-width="2" stroke-linejoin="round" fill="none"/><path d="M-691.74 1098.02l.82.62" stroke="#3a414a" stroke-width="2" fill="none"/><path d="M-897.08 1106l-.3 1.04-.3-.07-.94-.4-.6-.36.22-.77z" stroke="#3a414a" stroke-width=".05" fill="#3a414a"/><path d="M-822.74 946.32l-2.8 1.75-3.36 2.4-3.1 2.5-2.85 2.63-2.65 2.77-2.46 2.9-2.28 3.07-2.1 3.23-1.95 3.42-1.77 3.63-1.6 3.85-1.4 4.1-1.17 4.32-.96 4.57-.68 4.75-.4 4.87-.1 4.82.2 4.6.43 4.1.57 3.37.6 2.55.54 1.83.46 1.25.37.85.3.6.23.4.2.28.17.2.13.17.12.1.04.05.1.08.12.1.18.12.26.16.4.2.6.27 1 .4 1.8.58 3.35.9 6.23 1.26 9.82 1.48 11.77 1.12 11.1.45 9.2-.14 7.3-.5 5.74-.72 4.52-.83 3.6-.85 2.94-.87 2.4-.87 2-.83 1.67-.82 1.4-.8 1.23-.78 1.06-.75.08-.08" stroke="#3a414a" stroke-width="2" stroke-linejoin="round" fill="none"/><path d="M-822.23 947.18l-.87-1.4h3.1z" stroke="#3a414a" stroke-width=".05" fill="#3a414a"/><path d="M-760.14 1024.56l.8-.64" stroke="#3a414a" stroke-width="2" fill="none"/><path d="M-784.2 948.75l21.27 27.64 3.9 6.2 2.53 4.66 1.72 3.75 1.2 3.17.85 2.74.57 2.43.37 2.2.22 2 .07 1.85-.06 1.75-.16 1.66-.26 1.58-.35 1.55-.45 1.5-.56 1.5-.66 1.5-.8 1.48-.93 1.52-1.1 1.55-1.3 1.6-1.06 1.14" stroke="#3a414a" stroke-width="2" stroke-linejoin="round" fill="none"/><path d="M-784.2 948.77l-.62-.8M-759.15 1023.7l-.73.74" stroke="#3a414a" stroke-width="2" fill="none"/><path d="M-1120 694.5a6 6 0 0 1 6-6h228a6 6 0 0 1 6 6v48a6 6 0 0 1-6 6h-228a6 6 0 0 1-6-6z" stroke="#000" stroke-opacity="0" fill="#fff" fill-opacity="0"/><use xlink:href="#a" transform="matrix(1,0,0,1,-1115,693.5) translate(86.01851851851852 30.27777777777778)"/><path d="M-976.3 626a6 6 0 0 1 6-6h228a6 6 0 0 1 6 6v48a6 6 0 0 1-6 6h-228a6 6 0 0 1-6-6z" stroke="#000" stroke-opacity="0" fill="#fff" fill-opacity="0"/><use xlink:href="#b" transform="matrix(1,0,0,1,-971.307592410814,625) translate(62.56172839506173 30.27777777777778)"/><path d="M-904.6 769.26a6 6 0 0 1 6-6h228a6 6 0 0 1 6 6v48a6 6 0 0 1-6 6h-228a6 6 0 0 1-6-6z" stroke="#000" stroke-opacity="0" fill="#fff" fill-opacity="0"/><use xlink:href="#c" transform="matrix(1,0,0,1,-899.6046515511171,768.2582316325039) translate(89.69135802469137 30.27777777777778)"/><path d="M-784.94 777.54l.2-47.64M-784.94 777.53v.5M-784.74 729.9v-.5M-859.4 657l-32.22 47.88M-859.42 657.03l.3-.43M-891.6 704.87l-.3.42" stroke="#3a414a" fill="none"/><path d="M-891.85 713.94c2.57 0 4.65 2.08 4.65 4.64 0 2.57-2.08 4.65-4.65 4.65h-47.55c-2.57 0-4.64-2.08-4.64-4.64 0-2.58 2.07-4.66 4.64-4.66z" stroke="#fff" stroke-width="2" fill="#fff"/><path d="M-1216.75 560.73a6 6 0 0 1 6-6h228a6 6 0 0 1 6 6v48a6 6 0 0 1-6 6h-228a6 6 0 0 1-6-6z" stroke="#000" stroke-opacity="0" fill="#fff" fill-opacity="0"/><use xlink:href="#d" transform="matrix(1,0,0,1,-1211.749816486073,559.7260085634507) translate(66.94444444444444 30.27777777777778)"/><path d="M-1101.22 597.3l-18.55 36.17M-1101.22 597.3l.23-.45M-1119.77 633.46l-.23.46M-1046.22 598.4l36.34 16.12M-1046.2 598.4l-.48-.2" stroke="#3a414a" fill="none"/><path d="M-1008.2 614.73h-1.78l.3-.67z" stroke="#3a414a" stroke-width=".05" fill="#3a414a"/><path d="M-692.45 739.57L-791.4 936.3" stroke="#3a414a" fill="none"/><path d="M-692 739.8l-.9-.44.1-.24h1.13zM-790.95 936.5l-.68 1.36v-1.7z" stroke="#3a414a" stroke-width=".05" fill="#3a414a"/><path d="M-791.63 906a6 6 0 0 1 6-6h228a6 6 0 0 1 6 6v48a6 6 0 0 1-6 6h-228a6 6 0 0 1-6-6z" stroke="#000" stroke-opacity="0" fill="#fff" fill-opacity="0"/><use xlink:href="#e" transform="matrix(1,0,0,1,-786.6263511268411,905) translate(71.79012345679013 30.27777777777778)"/><path d="M-805.25 940.5l-.28 28.9M-805.25 940.5v-.5" stroke="#e81313" fill="none"/><path d="M-805.67 984.18l-4.5-14.3 9.27.08z" stroke="#e81313" fill="#e81313"/><path d="M-806.3 1073.92l.1 47.3M-806.3 1073.93v-.5" stroke="#e81313" fill="none"/><path d="M-806.15 1136l-4.67-14.26 9.27-.02z" stroke="#e81313" fill="#e81313"/><path d="M-1087.88 946a6 6 0 0 1 6-6h163.76a6 6 0 0 1 6 6v48a6 6 0 0 1-6 6h-163.76a6 6 0 0 1-6-6z" stroke="#000" stroke-opacity="0" fill="#fff" fill-opacity="0"/><use xlink:href="#f" transform="matrix(1,0,0,1,-1082.877323786551,945) translate(40.604938271604944 17.34722222222222)"/><use xlink:href="#g" transform="matrix(1,0,0,1,-1082.877323786551,945) translate(33.69135802469136 38.68055555555556)"/><path d="M-1094.9 1091a6 6 0 0 1 6-6h163.77a6 6 0 0 1 6 6v48a6 6 0 0 1-6 6h-163.76a6 6 0 0 1-6-6z" stroke="#000" stroke-opacity="0" fill="#fff" fill-opacity="0"/><use xlink:href="#f" transform="matrix(1,0,0,1,-1089.8864377318412,1090) translate(40.604938271604944 17.34722222222222)"/><use xlink:href="#g" transform="matrix(1,0,0,1,-1089.8864377318412,1090) translate(33.69135802469136 38.68055555555556)"/><path d="M-911.62 970.67h93.8" stroke="#3a414a" fill="none"/><path d="M-911.6 971.17h-.52v-1h.5z" stroke="#3a414a" stroke-width=".05" fill="#3a414a"/><path d="M-817.85 970.67h.52M-911.04 1114.4l92.54.6M-911.03 1114.4h-.5M-818.5 1115h.5" stroke="#3a414a" fill="none"/><path d="M-1141.88 1018.5a6 6 0 0 1 6-6h215.5a6 6 0 0 1 6 6v48a6 6 0 0 1-6 6h-215.5a6 6 0 0 1-6-6z" stroke="#000" stroke-opacity="0" fill="#fff" fill-opacity="0"/><use xlink:href="#h" transform="matrix(1,0,0,1,-1136.88501644554,1017.5) translate(14.802469135802482 29.84722222222222)"/><use xlink:href="#g" transform="matrix(1,0,0,1,-1136.88501644554,1017.5) translate(104.58024691358024 29.84722222222222)"/><path d="M-1140.5 1039a6 6 0 0 1 6-6H-919a6 6 0 0 1 6 6v48a6 6 0 0 1-6 6h-215.5a6 6 0 0 1-6-6z" stroke="#000" stroke-opacity="0" fill="#fff" fill-opacity="0"/><use xlink:href="#i" transform="matrix(1,0,0,1,-1135.5,1038) translate(55.07407407407411 26.291666666666664)"/><path d="M-912.5 1042h47" stroke="#3a414a" fill="none"/><path d="M-912.5 1042.5h-.5v-1h.5z" stroke="#3a414a" stroke-width=".05" fill="#3a414a"/><path d="M-865.5 1042h.5" stroke="#3a414a" fill="none"/><path d="M-643.43 942.67a6 6 0 0 1 6-6h228a6 6 0 0 1 6 6V994a6 6 0 0 1-6 6h-228a6 6 0 0 1-6-6z" stroke="#000" stroke-opacity="0" fill="#fff" fill-opacity="0"/><use xlink:href="#j" transform="matrix(1,0,0,1,-638.4296638610166,941.6666666666667) translate(0 31.09722222222222)"/><use xlink:href="#k" transform="matrix(1,0,0,1,-638.4296638610166,941.6666666666667) translate(124.34567901234564 31.09722222222222)"/><path d="M-641.3 1059.43a6 6 0 0 1 6-6h228a6 6 0 0 1 6 6v51.34a6 6 0 0 1-6 6h-228a6 6 0 0 1-6-6z" stroke="#000" stroke-opacity="0" fill="#fff" fill-opacity="0"/><use xlink:href="#l" transform="matrix(1,0,0,1,-636.308673827688,1058.4353795147708) translate(0 31.09722222222222)"/><use xlink:href="#k" transform="matrix(1,0,0,1,-636.308673827688,1058.4353795147708) translate(132.29629629629628 31.09722222222222)"/><path d="M-643.43 1004.2a6 6 0 0 1 6-6h198.72a6 6 0 0 1 6 6v51.33a6 6 0 0 1-6 6h-198.73a6 6 0 0 1-6-6z" stroke="#000" stroke-opacity="0" fill="#fff" fill-opacity="0"/><use xlink:href="#m" transform="matrix(1,0,0,1,-638.4296638610166,1003.2009562031021) translate(0 31.09722222222222)"/><use xlink:href="#n" transform="matrix(1,0,0,1,-638.4296638610166,1003.2009562031021) translate(104.59259259259258 31.09722222222222)"/><path d="M-840.8 1004.9c0 2.72-1.8 4.9-4 4.9s-4-2.18-4-4.9c0-2.7 1.8-4.9 4-4.9s4 2.2 4 4.9zM-794.13 1007.33c0 2.1-1.67 3.8-3.74 3.8-2.06 0-3.73-1.7-3.73-3.8 0-2.1 1.67-3.8 3.74-3.8 2.06 0 3.73 1.7 3.73 3.8zM-824.82 1008.65c0 1.37-.95 2.47-2.1 2.47-1.18 0-2.12-1.1-2.12-2.47 0-1.36.94-2.46 2.1-2.46 1.17 0 2.12 1.1 2.12 2.45zM-769.7 996.8c0 1.6-1.78 2.88-3.95 2.88-2.18 0-3.94-1.3-3.94-2.88 0-1.58 1.77-2.87 3.95-2.87 2.17 0 3.93 1.3 3.93 2.88zM-778.5 1016.53c0 1.87-1.36 3.38-3.03 3.38-1.67 0-3.03-1.5-3.03-3.37 0-1.86 1.36-3.38 3.03-3.38 1.67 0 3.02 1.52 3.02 3.38zM-833.55 1020.6c0 1.53-1.62 2.77-3.63 2.77-2 0-3.63-1.24-3.63-2.76 0-1.52 1.6-2.76 3.62-2.76 2 0 3.63 1.24 3.63 2.77zM-757 1008.15c0 1.64-1.45 2.97-3.23 2.97s-3.23-1.33-3.23-2.97c0-1.65 1.45-2.98 3.23-2.98s3.22 1.33 3.22 2.98zM-810.12 1002.2c0 1.64-1.44 2.97-3.23 2.97-1.78 0-3.22-1.33-3.22-2.97 0-1.64 1.44-2.97 3.23-2.97 1.78 0 3.22 1.33 3.22 2.97zM-803.43 1025.64c0 1.24-1.04 2.26-2.3 2.26-1.3 0-2.32-1.02-2.32-2.26 0-1.25 1.03-2.27 2.3-2.27 1.28 0 2.32 1.02 2.32 2.27zM-819.42 1046.67c0 .84-.7 1.52-1.53 1.52-.85 0-1.53-.7-1.53-1.53 0-.84.68-1.52 1.53-1.52s1.53.68 1.53 1.52zM-805 1041.52c0 .84-.68 1.52-1.52 1.52-.85 0-1.53-.68-1.53-1.52s.68-1.52 1.53-1.52c.84 0 1.53.68 1.53 1.52zM-760.4 1038.48c0 .84-.68 1.52-1.53 1.52-.84 0-1.53-.68-1.53-1.52s.7-1.52 1.53-1.52c.85 0 1.53.68 1.53 1.52zM-780 1044.56c0 .84-.7 1.53-1.53 1.53-.85 0-1.54-.7-1.54-1.54 0-.84.7-1.52 1.54-1.52.84 0 1.53.68 1.53 1.52zM-791.06 1038.48c0 .84-.7 1.52-1.54 1.52-.84 0-1.53-.68-1.53-1.52s.7-1.52 1.53-1.52c.85 0 1.54.68 1.54 1.52zM-772.12 1038.48c0 .84-.7 1.52-1.53 1.52-.85 0-1.54-.68-1.54-1.52s.7-1.52 1.55-1.52c.84 0 1.53.68 1.53 1.52zM-835.65 1038.98c0 .85-.68 1.53-1.53 1.53s-1.53-.67-1.53-1.52c0-.84.67-1.52 1.52-1.52s1.53.68 1.53 1.52zM-840.8 1046.67c0 .84-.7 1.52-1.55 1.52-.84 0-1.53-.7-1.53-1.53 0-.84.7-1.52 1.53-1.52.85 0 1.54.68 1.54 1.52zM-823.63 1038.48c0 .84-.7 1.52-1.54 1.52-.84 0-1.53-.68-1.53-1.52s.7-1.52 1.53-1.52c.85 0 1.54.68 1.54 1.52zM-798.02 1046.67c0 .84-.7 1.52-1.54 1.52-.84 0-1.53-.7-1.53-1.53 0-.84.7-1.52 1.54-1.52.85 0 1.54.68 1.54 1.52z" stroke="#fc9432" fill="#ffdda6"/><path d="M-766 1027.95c.43 1.7-.67 3.42-2.46 3.87-1.78.44-3.57-.57-4-2.27-.4-1.7.7-3.42 2.48-3.87 1.78-.44 3.57.57 4 2.27z" stroke="#3a414a" fill="#ffdda6"/><path d="M-766.07 1029.62c0 1.87-1.36 3.38-3.03 3.38-1.67 0-3.02-1.5-3.02-3.38 0-1.87 1.35-3.38 3.02-3.38s3.03 1.5 3.03 3.38z" stroke="#fc9432" fill="#ffdda6"/><path d="M-784.64 1030.7c0 2.07-1.57 3.73-3.5 3.73-1.92 0-3.5-1.66-3.5-3.72 0-2.05 1.58-3.7 3.5-3.7 1.93 0 3.5 1.65 3.5 3.7z" stroke="#3a414a" fill="#ffdda6"/><path d="M-785.02 1031.28c0 1.86-1.35 3.38-3.02 3.38s-3.02-1.52-3.02-3.38c0-1.87 1.35-3.38 3.02-3.38s3.02 1.5 3.02 3.38z" stroke="#fc9432" fill="#ffdda6"/><path d="M-825.82 1029.63c-.55 1.98-2.5 3.17-4.36 2.65-1.86-.5-2.92-2.54-2.37-4.52.55-1.98 2.5-3.17 4.36-2.66 1.87.52 2.93 2.55 2.38 4.53z" stroke="#3a414a" fill="#ffdda6"/><path d="M-826.33 1030.07c-.5 1.8-2.2 2.9-3.82 2.45-1.6-.45-2.5-2.27-2-4.06.5-1.8 2.2-2.9 3.8-2.45 1.62.45 2.52 2.27 2.02 4.07z" stroke="#fc9432" fill="#ffdda6"/><path d="M-811.8 1032.1c0 1.3-1.06 2.34-2.38 2.34-1.32 0-2.4-1.04-2.4-2.33 0-1.27 1.08-2.3 2.4-2.3 1.32 0 2.4 1.03 2.4 2.3z" stroke="#3a414a" fill="#ffdda6"/><path d="M-812.07 1033.22c0 1.5-1 2.7-2.25 2.7s-2.25-1.2-2.25-2.7c0-1.5 1-2.7 2.25-2.7 1.24 0 2.25 1.2 2.25 2.7zM-813.5 1044.56c0 .84-.7 1.53-1.54 1.53-.85 0-1.53-.7-1.53-1.54 0-.84.68-1.52 1.53-1.52s1.53.68 1.53 1.52zM-830.48 1043.63c0 .84-.7 1.52-1.53 1.52-.86 0-1.55-.68-1.55-1.52s.7-1.52 1.54-1.52c.83 0 1.52.7 1.52 1.53z" stroke="#fc9432" fill="#ffdda6"/><path d="M-643.88 968.55l-110.57 54.42" stroke="#3a414a" fill="none"/><path d="M-643.43 968.9l-.24.1-.44-.9.67-.32z" stroke="#3a414a" stroke-width=".05" fill="#3a414a"/><path d="M-754.44 1022.96l-.46.23M-641.8 1084.96l-86.8-25.1" stroke="#3a414a" fill="none"/><path d="M-641.3 1084.58v1.04l-.64-.18.28-.96z" stroke="#3a414a" stroke-width=".05" fill="#3a414a"/><path d="M-728.6 1059.86l-.5-.14M-643.93 1029.9l-108.83 9.18" stroke="#3a414a" fill="none"/><path d="M-643.43 1030.37l-.47.04-.08-1 .55-.03z" stroke="#3a414a" stroke-width=".05" fill="#3a414a"/><path d="M-752.74 1039.08l-.5.04" stroke="#3a414a" fill="none"/><path d="M-904.77 710.9c3.86 0 7 3.14 7 7 0 3.85-3.14 6.98-7 6.98h-52.03c-3.86 0-7-3.13-7-7 0-3.84 3.14-6.97 7-6.97z" stroke="#fff" stroke-width="2" fill="#fff"/><path d="M-780 637.84a6 6 0 0 1 6-6h128.52a6 6 0 0 1 6 6v51.33a6 6 0 0 1-6 6H-774a6 6 0 0 1-6-6z" stroke="#000" stroke-opacity="0" fill="#fff" fill-opacity="0"/><g><use xlink:href="#o" transform="matrix(1,0,0,1,-775,636.8394402088361) translate(0 20.97222222222222)"/><use xlink:href="#p" transform="matrix(1,0,0,1,-775,636.8394402088361) translate(0 42.30555555555556)"/></g><path d="M-713.94 685.38l8.27 13.7M-713.93 685.4l-.27-.45" stroke="#3a414a" fill="none"/><path d="M-704.83 699.5H-706l-.1-.18.85-.52z" stroke="#3a414a" stroke-width=".05" fill="#3a414a"/><defs><path fill="#3a414a" d="M194-120c59 52 2 134-86 124-53-6-90-18-98-63l31-7c8 30 29 43 70 43 46 0 84-17 71-62-32-43-135-20-137-98-3-89 178-90 191-16l-30 9c-8-48-127-53-127 5 0 53 81 35 115 65" id="q"/><path fill="#3a414a" d="M30-147c31-64 166-65 159 27C183-49 158 1 86 4 9 8 1-88 30-147zM88-20c53 0 68-48 68-100 0-31-11-51-44-50-52 1-68 46-68 97 0 32 13 53 44 53" id="r"/><path fill="#3a414a" d="M248-111c6-24 9-61-24-58-72 9-57 108-77 169h-31l26-142c3-37-50-30-64-10C52-115 50-51 37 0H6l36-190h30c-1 10-6 24-4 32 13-43 101-52 105 5 13-22 29-41 61-41 90 0 28 129 23 194h-31" id="s"/><path fill="#3a414a" d="M165-48c-4 18 1 34 23 27l-3 20c-29 8-62 0-52-35h-2C116-14 99 4 63 4 30 4 8-16 8-49c0-68 71-67 138-67 10-26 0-56-31-54-26 1-42 9-47 31l-32-5c8-67 160-71 144 15-5 28-9 54-15 81zM42-50c3 52 80 24 89-6 7-12 7-24 11-38-47 1-103-4-100 44" id="t"/><g id="a"><use transform="matrix(0.06172839506172839,0,0,0.06172839506172839,0,0)" xlink:href="#q"/><use transform="matrix(0.06172839506172839,0,0,0.06172839506172839,14.814814814814813,0)" xlink:href="#r"/><use transform="matrix(0.06172839506172839,0,0,0.06172839506172839,27.160493827160494,0)" xlink:href="#s"/><use transform="matrix(0.06172839506172839,0,0,0.06172839506172839,45.61728395061728,0)" xlink:href="#t"/></g><path fill="#3a414a" d="M187 0l-14-72H61L19 0h-37l149-248h38L221 0h-34zm-19-99l-22-123L76-99h92" id="u"/><path fill="#3a414a" d="M124 0L87-78 21 0h-35l86-98-46-92h33l34 74 61-74h37l-83 92 50 98h-34" id="v"/><path fill="#3a414a" d="M67-158c22-48 132-52 116 29L158 0h-32l25-140c3-38-53-32-70-12C52-117 51-52 38 0H6l36-190h30" id="w"/><path fill="#3a414a" d="M67-158c15-20 31-36 64-36 94 0 33 127 27 194h-32l25-140c3-38-53-32-70-12C52-117 51-51 37 0H6l51-261h31" id="x"/><path fill="#3a414a" d="M67 3c-93-2-31-127-26-193h32L48-50c-3 39 53 32 70 12 30-34 30-101 43-152h32L157 0h-30c1-10 6-24 4-33-14 20-29 37-64 36zm73-217l6-33h30l-6 33h-30zm-68 0l6-33h31l-6 33H72" id="y"/><path fill="#3a414a" d="M103-194c29 0 47 14 56 36 2-11 5-23 8-32h30L160-5C157 61 82 97 21 62 9 55 4 45 1 30l28-7c7 42 83 31 92-3 4-16 9-38 13-55-13 20-29 36-62 36-40 0-60-25-60-64 0-71 23-131 91-131zm4 24c-53 0-58 54-61 104-2 27 10 44 36 44 49 0 65-50 67-102 1-29-15-46-42-46" id="z"/><path fill="#3a414a" d="M111-194c62-3 86 47 72 106H45c-7 38 6 69 45 68 27-1 43-14 53-32l24 11C152-15 129 4 87 4 38 3 12-23 12-71c0-70 32-119 99-123zm44 81c14-66-71-72-95-28-4 8-8 17-11 28h106" id="A"/><path fill="#3a414a" d="M6 0l50-261h32L37 0H6" id="B"/><g id="b"><use transform="matrix(0.06172839506172839,0,0,0.06172839506172839,0,0)" xlink:href="#u"/><use transform="matrix(0.06172839506172839,0,0,0.06172839506172839,14.814814814814813,0)" xlink:href="#v"/><use transform="matrix(0.06172839506172839,0,0,0.06172839506172839,25.925925925925924,0)" xlink:href="#r"/><use transform="matrix(0.06172839506172839,0,0,0.06172839506172839,38.2716049382716,0)" xlink:href="#w"/><use transform="matrix(0.06172839506172839,0,0,0.06172839506172839,50.61728395061728,0)" xlink:href="#x"/><use transform="matrix(0.06172839506172839,0,0,0.06172839506172839,62.962962962962955,0)" xlink:href="#y"/><use transform="matrix(0.06172839506172839,0,0,0.06172839506172839,75.30864197530863,0)" xlink:href="#z"/><use transform="matrix(0.06172839506172839,0,0,0.06172839506172839,87.65432098765432,0)" xlink:href="#A"/><use transform="matrix(0.06172839506172839,0,0,0.06172839506172839,100,0)" xlink:href="#B"/></g><g id="c"><use transform="matrix(0.06172839506172839,0,0,0.06172839506172839,0,0)" xlink:href="#u"/><use transform="matrix(0.06172839506172839,0,0,0.06172839506172839,14.814814814814813,0)" xlink:href="#v"/><use transform="matrix(0.06172839506172839,0,0,0.06172839506172839,25.925925925925924,0)" xlink:href="#r"/><use transform="matrix(0.06172839506172839,0,0,0.06172839506172839,38.2716049382716,0)" xlink:href="#w"/></g><path fill="#3a414a" d="M248-139C247-14 144 9 11 0l48-248c105-6 190 8 189 109zm-34 0c1-70-52-87-126-82L50-27c98 7 163-21 164-112" id="C"/><path fill="#3a414a" d="M133-28C103 26-5 8 13-77c13-62 24-115 90-117 29-1 46 15 56 35l19-102h32L160 0h-30zM45-64c-2 27 10 43 35 43 54-1 69-50 69-103 0-29-15-46-42-46-53-1-58 58-62 106" id="D"/><path fill="#3a414a" d="M66-151c12-25 30-51 66-40l-6 26C45-176 58-65 38 0H6l36-190h30" id="E"/><path fill="#3a414a" d="M50-231l6-30h32l-6 30H50zM6 0l37-190h31L37 0H6" id="F"/><path fill="#3a414a" d="M51-54c-9 22 5 41 31 30L79-1C43 14 10-4 19-52l22-115H19l5-23h22l19-43h21l-9 43h35l-4 23H73" id="G"/><g id="d"><use transform="matrix(0.06172839506172839,0,0,0.06172839506172839,0,0)" xlink:href="#C"/><use transform="matrix(0.06172839506172839,0,0,0.06172839506172839,15.987654320987653,0)" xlink:href="#A"/><use transform="matrix(0.06172839506172839,0,0,0.06172839506172839,28.333333333333332,0)" xlink:href="#w"/><use transform="matrix(0.06172839506172839,0,0,0.06172839506172839,40.67901234567901,0)" xlink:href="#D"/><use transform="matrix(0.06172839506172839,0,0,0.06172839506172839,53.02469135802469,0)" xlink:href="#E"/><use transform="matrix(0.06172839506172839,0,0,0.06172839506172839,60.37037037037037,0)" xlink:href="#F"/><use transform="matrix(0.06172839506172839,0,0,0.06172839506172839,65.24691358024691,0)" xlink:href="#G"/><use transform="matrix(0.06172839506172839,0,0,0.06172839506172839,71.41975308641975,0)" xlink:href="#A"/><use transform="matrix(0.06172839506172839,0,0,0.06172839506172839,83.76543209876543,0)" xlink:href="#w"/></g><path fill="#3a414a" d="M198-190L69 30C53 58 25 83-20 72c4-11-1-27 19-22 33-1 43-29 59-52L20-190h32L79-34l84-156h35" id="H"/><path fill="#3a414a" d="M67-162c32-53 139-36 121 50C175-51 163 2 97 4 68 4 52-11 42-31 38 6 28 39 22 75H-9l50-265h29c-1 10 0 20-3 28zm89 36c0-26-10-43-35-43-54 0-67 50-69 103-1 29 14 45 42 46 53 0 62-58 62-106" id="I"/><path fill="#3a414a" d="M55-144c13 50 104 24 104 88C159 21 15 23 1-39l26-10c6 40 102 42 102-4-13-50-104-23-104-87 0-71 143-71 148-8l-29 4c-5-35-85-37-89 0" id="J"/><g id="e"><use transform="matrix(0.06172839506172839,0,0,0.06172839506172839,0,0)" xlink:href="#q"/><use transform="matrix(0.06172839506172839,0,0,0.06172839506172839,14.814814814814813,0)" xlink:href="#H"/><use transform="matrix(0.06172839506172839,0,0,0.06172839506172839,25.925925925925924,0)" xlink:href="#w"/><use transform="matrix(0.06172839506172839,0,0,0.06172839506172839,38.2716049382716,0)" xlink:href="#t"/><use transform="matrix(0.06172839506172839,0,0,0.06172839506172839,50.61728395061728,0)" xlink:href="#I"/><use transform="matrix(0.06172839506172839,0,0,0.06172839506172839,62.962962962962955,0)" xlink:href="#J"/><use transform="matrix(0.06172839506172839,0,0,0.06172839506172839,74.07407407407406,0)" xlink:href="#A"/></g><path fill="#3a414a" d="M127 0L80-88 50-66 37 0H6l51-261h31L57-100l99-90h39l-93 82L161 0h-34" id="K"/><path fill="#3a414a" d="M44-68c0 29 11 47 38 47 30 0 42-19 51-41l28 9C148-21 126 4 82 4 31 4 10-29 12-85c3-77 74-140 146-93 12 8 15 23 18 40l-31 5c-1-22-13-36-36-36-52 0-65 49-65 101" id="L"/><g id="f"><use transform="matrix(0.049382716049382706,0,0,0.049382716049382706,0,0)" xlink:href="#A"/><use transform="matrix(0.049382716049382706,0,0,0.049382716049382706,9.87654320987654,0)" xlink:href="#B"/><use transform="matrix(0.049382716049382706,0,0,0.049382716049382706,13.777777777777775,0)" xlink:href="#A"/><use transform="matrix(0.049382716049382706,0,0,0.049382716049382706,23.654320987654316,0)" xlink:href="#K"/><use transform="matrix(0.049382716049382706,0,0,0.049382716049382706,32.5432098765432,0)" xlink:href="#G"/><use transform="matrix(0.049382716049382706,0,0,0.049382716049382706,37.481481481481474,0)" xlink:href="#E"/><use transform="matrix(0.049382716049382706,0,0,0.049382716049382706,43.35802469135802,0)" xlink:href="#F"/><use transform="matrix(0.049382716049382706,0,0,0.049382716049382706,47.25925925925925,0)" xlink:href="#J"/><use transform="matrix(0.049382716049382706,0,0,0.049382716049382706,56.14814814814814,0)" xlink:href="#L"/><use transform="matrix(0.049382716049382706,0,0,0.049382716049382706,65.03703703703702,0)" xlink:href="#x"/><use transform="matrix(0.049382716049382706,0,0,0.049382716049382706,74.91358024691357,0)" xlink:href="#A"/></g><path fill="#3a414a" d="M179-269l6-32h31l-7 32h-30zm-68 0l7-32h30l-6 32h-31zM62-99C39-31 123 0 170-40s38-139 58-208h34C234-144 253 4 115 4 49 4 18-43 31-112l26-136h34" id="M"/><path fill="#3a414a" d="M68-162c25-46 127-43 121 31C183-60 169 1 98 4 69 5 53-11 43-31L36 0H5l52-261h31zm88 36c2-27-9-43-34-43-55 0-70 51-70 103 0 29 15 45 43 46 52 0 58-58 61-106" id="N"/><path fill="#3a414a" d="M67 3c-93-2-31-127-26-193h32L48-50c-3 39 53 32 70 12 30-34 30-101 43-152h32L157 0h-30c1-10 6-24 4-33-14 20-29 37-64 36" id="O"/><g id="g"><use transform="matrix(0.049382716049382706,0,0,0.049382716049382706,0,0)" xlink:href="#M"/><use transform="matrix(0.049382716049382706,0,0,0.049382716049382706,12.790123456790122,0)" xlink:href="#N"/><use transform="matrix(0.049382716049382706,0,0,0.049382716049382706,22.666666666666664,0)" xlink:href="#A"/><use transform="matrix(0.049382716049382706,0,0,0.049382716049382706,32.5432098765432,0)" xlink:href="#E"/><use transform="matrix(0.049382716049382706,0,0,0.049382716049382706,38.419753086419746,0)" xlink:href="#G"/><use transform="matrix(0.049382716049382706,0,0,0.049382716049382706,43.35802469135802,0)" xlink:href="#E"/><use transform="matrix(0.049382716049382706,0,0,0.049382716049382706,49.23456790123456,0)" xlink:href="#t"/><use transform="matrix(0.049382716049382706,0,0,0.049382716049382706,59.1111111111111,0)" xlink:href="#z"/><use transform="matrix(0.049382716049382706,0,0,0.049382716049382706,68.98765432098764,0)" xlink:href="#O"/><use transform="matrix(0.049382716049382706,0,0,0.049382716049382706,78.86419753086419,0)" xlink:href="#w"/><use transform="matrix(0.049382716049382706,0,0,0.049382716049382706,88.74074074074073,0)" xlink:href="#z"/></g><g id="h"><use transform="matrix(0.049382716049382706,0,0,0.049382716049382706,0,0)" xlink:href="#L"/><use transform="matrix(0.049382716049382706,0,0,0.049382716049382706,8.888888888888888,0)" xlink:href="#x"/><use transform="matrix(0.049382716049382706,0,0,0.049382716049382706,18.76543209876543,0)" xlink:href="#A"/><use transform="matrix(0.049382716049382706,0,0,0.049382716049382706,28.64197530864197,0)" xlink:href="#s"/><use transform="matrix(0.049382716049382706,0,0,0.049382716049382706,43.4074074074074,0)" xlink:href="#F"/><use transform="matrix(0.049382716049382706,0,0,0.049382716049382706,47.30864197530863,0)" xlink:href="#J"/><use transform="matrix(0.049382716049382706,0,0,0.049382716049382706,56.19753086419752,0)" xlink:href="#L"/><use transform="matrix(0.049382716049382706,0,0,0.049382716049382706,65.0864197530864,0)" xlink:href="#x"/><use transform="matrix(0.049382716049382706,0,0,0.049382716049382706,74.96296296296295,0)" xlink:href="#A"/></g><path fill="#3a414a" d="M17-49c1-102 45-165 103-212h30C92-210 49-145 49-46 49 4 63 43 85 75H54C30 43 18 2 17-49" id="P"/><path fill="#3a414a" d="M173 0L80-213 41 0H11l48-248h37l94 214 40-214h30L212 0h-39" id="Q"/><path fill="#3a414a" d="M98-137C97-35 54 29-4 75h-31C23 23 67-41 67-140c0-50-15-89-37-121h31c24 32 36 73 37 124" id="R"/><g id="i"><use transform="matrix(0.03703703703703702,0,0,0.03703703703703702,0,0)" xlink:href="#P"/><use transform="matrix(0.03703703703703702,0,0,0.03703703703703702,4.407407407407406,0)" xlink:href="#Q"/><use transform="matrix(0.03703703703703702,0,0,0.03703703703703702,13.999999999999991,0)" xlink:href="#A"/><use transform="matrix(0.03703703703703702,0,0,0.03703703703703702,21.407407407407398,0)" xlink:href="#O"/><use transform="matrix(0.03703703703703702,0,0,0.03703703703703702,28.814814814814802,0)" xlink:href="#E"/><use transform="matrix(0.03703703703703702,0,0,0.03703703703703702,33.22222222222221,0)" xlink:href="#r"/><use transform="matrix(0.03703703703703702,0,0,0.03703703703703702,40.62962962962961,0)" xlink:href="#G"/><use transform="matrix(0.03703703703703702,0,0,0.03703703703703702,44.333333333333314,0)" xlink:href="#E"/><use transform="matrix(0.03703703703703702,0,0,0.03703703703703702,48.74074074074072,0)" xlink:href="#t"/><use transform="matrix(0.03703703703703702,0,0,0.03703703703703702,56.148148148148124,0)" xlink:href="#w"/><use transform="matrix(0.03703703703703702,0,0,0.03703703703703702,63.55555555555553,0)" xlink:href="#J"/><use transform="matrix(0.03703703703703702,0,0,0.03703703703703702,70.22222222222219,0)" xlink:href="#s"/><use transform="matrix(0.03703703703703702,0,0,0.03703703703703702,81.29629629629625,0)" xlink:href="#F"/><use transform="matrix(0.03703703703703702,0,0,0.03703703703703702,84.22222222222217,0)" xlink:href="#G"/><use transform="matrix(0.03703703703703702,0,0,0.03703703703703702,87.92592592592587,0)" xlink:href="#G"/><use transform="matrix(0.03703703703703702,0,0,0.03703703703703702,91.62962962962956,0)" xlink:href="#A"/><use transform="matrix(0.03703703703703702,0,0,0.03703703703703702,99.03703703703697,0)" xlink:href="#E"/><use transform="matrix(0.03703703703703702,0,0,0.03703703703703702,103.44444444444437,0)" xlink:href="#R"/></g><path fill="#3a414a" d="M166-48c-4 18 1 34 23 27l-3 20c-29 8-62 0-52-35h-2C117-14 100 4 64 4 31 4 9-16 9-49c0-68 71-67 138-67 10-26 0-56-31-54-26 1-42 9-47 31l-32-5c8-67 160-71 144 15-5 28-9 54-15 81zM43-50c3 52 80 24 89-6 7-12 7-24 11-38-47 1-103-4-100 44zm96-164l6-33h30l-6 33h-30zm-68 0l6-33h31l-6 33H71" id="S"/><g id="j"><use transform="matrix(0.049382716049382706,0,0,0.049382716049382706,0,0)" xlink:href="#I"/><use transform="matrix(0.049382716049382706,0,0,0.049382716049382706,9.87654320987654,0)" xlink:href="#E"/><use transform="matrix(0.049382716049382706,0,0,0.049382716049382706,15.75308641975308,0)" xlink:href="#S"/><use transform="matrix(0.049382716049382706,0,0,0.049382716049382706,25.629629629629626,0)" xlink:href="#J"/><use transform="matrix(0.049382716049382706,0,0,0.049382716049382706,34.51851851851851,0)" xlink:href="#H"/><use transform="matrix(0.049382716049382706,0,0,0.049382716049382706,43.4074074074074,0)" xlink:href="#w"/><use transform="matrix(0.049382716049382706,0,0,0.049382716049382706,53.28395061728394,0)" xlink:href="#t"/><use transform="matrix(0.049382716049382706,0,0,0.049382716049382706,63.16049382716048,0)" xlink:href="#I"/><use transform="matrix(0.049382716049382706,0,0,0.049382716049382706,73.03703703703702,0)" xlink:href="#G"/><use transform="matrix(0.049382716049382706,0,0,0.049382716049382706,77.97530864197529,0)" xlink:href="#F"/><use transform="matrix(0.049382716049382706,0,0,0.049382716049382706,81.87654320987652,0)" xlink:href="#J"/><use transform="matrix(0.049382716049382706,0,0,0.049382716049382706,90.7654320987654,0)" xlink:href="#L"/><use transform="matrix(0.049382716049382706,0,0,0.049382716049382706,99.65432098765429,0)" xlink:href="#x"/><use transform="matrix(0.049382716049382706,0,0,0.049382716049382706,109.53086419753085,0)" xlink:href="#A"/></g><path fill="#3a414a" d="M222 0l43-216c-8 16-17 34-26 49L143 0h-22L81-216 41 0H11l48-248h42l38 208 116-208h45L252 0h-30" id="T"/><g id="k"><use transform="matrix(0.049382716049382706,0,0,0.049382716049382706,0,0)" xlink:href="#T"/><use transform="matrix(0.049382716049382706,0,0,0.049382716049382706,14.765432098765428,0)" xlink:href="#A"/><use transform="matrix(0.049382716049382706,0,0,0.049382716049382706,24.641975308641968,0)" xlink:href="#s"/><use transform="matrix(0.049382716049382706,0,0,0.049382716049382706,39.4074074074074,0)" xlink:href="#N"/><use transform="matrix(0.049382716049382706,0,0,0.049382716049382706,49.283950617283935,0)" xlink:href="#E"/><use transform="matrix(0.049382716049382706,0,0,0.049382716049382706,55.16049382716049,0)" xlink:href="#t"/><use transform="matrix(0.049382716049382706,0,0,0.049382716049382706,65.03703703703702,0)" xlink:href="#w"/></g><g id="l"><use transform="matrix(0.049382716049382706,0,0,0.049382716049382706,0,0)" xlink:href="#I"/><use transform="matrix(0.049382716049382706,0,0,0.049382716049382706,9.87654320987654,0)" xlink:href="#r"/><use transform="matrix(0.049382716049382706,0,0,0.049382716049382706,19.75308641975308,0)" xlink:href="#J"/><use transform="matrix(0.049382716049382706,0,0,0.049382716049382706,28.64197530864197,0)" xlink:href="#G"/><use transform="matrix(0.049382716049382706,0,0,0.049382716049382706,33.58024691358024,0)" xlink:href="#J"/><use transform="matrix(0.049382716049382706,0,0,0.049382716049382706,42.469135802469125,0)" xlink:href="#H"/><use transform="matrix(0.049382716049382706,0,0,0.049382716049382706,51.35802469135801,0)" xlink:href="#w"/><use transform="matrix(0.049382716049382706,0,0,0.049382716049382706,61.234567901234556,0)" xlink:href="#t"/><use transform="matrix(0.049382716049382706,0,0,0.049382716049382706,71.1111111111111,0)" xlink:href="#I"/><use transform="matrix(0.049382716049382706,0,0,0.049382716049382706,80.98765432098764,0)" xlink:href="#G"/><use transform="matrix(0.049382716049382706,0,0,0.049382716049382706,85.92592592592591,0)" xlink:href="#F"/><use transform="matrix(0.049382716049382706,0,0,0.049382716049382706,89.82716049382714,0)" xlink:href="#J"/><use transform="matrix(0.049382716049382706,0,0,0.049382716049382706,98.71604938271602,0)" xlink:href="#L"/><use transform="matrix(0.049382716049382706,0,0,0.049382716049382706,107.60493827160492,0)" xlink:href="#x"/><use transform="matrix(0.049382716049382706,0,0,0.049382716049382706,117.48148148148145,0)" xlink:href="#A"/></g><g id="m"><use transform="matrix(0.049382716049382706,0,0,0.049382716049382706,0,0)" xlink:href="#J"/><use transform="matrix(0.049382716049382706,0,0,0.049382716049382706,8.888888888888888,0)" xlink:href="#H"/><use transform="matrix(0.049382716049382706,0,0,0.049382716049382706,17.777777777777775,0)" xlink:href="#w"/><use transform="matrix(0.049382716049382706,0,0,0.049382716049382706,27.654320987654316,0)" xlink:href="#t"/><use transform="matrix(0.049382716049382706,0,0,0.049382716049382706,37.53086419753086,0)" xlink:href="#I"/><use transform="matrix(0.049382716049382706,0,0,0.049382716049382706,47.407407407407405,0)" xlink:href="#G"/><use transform="matrix(0.049382716049382706,0,0,0.049382716049382706,52.34567901234568,0)" xlink:href="#F"/><use transform="matrix(0.049382716049382706,0,0,0.049382716049382706,56.24691358024691,0)" xlink:href="#J"/><use transform="matrix(0.049382716049382706,0,0,0.049382716049382706,65.1358024691358,0)" xlink:href="#L"/><use transform="matrix(0.049382716049382706,0,0,0.049382716049382706,74.02469135802468,0)" xlink:href="#x"/><use transform="matrix(0.049382716049382706,0,0,0.049382716049382706,83.90123456790123,0)" xlink:href="#A"/><use transform="matrix(0.049382716049382706,0,0,0.049382716049382706,93.77777777777777,0)" xlink:href="#E"/></g><g id="n"><use transform="matrix(0.049382716049382706,0,0,0.049382716049382706,0,0)" xlink:href="#q"/><use transform="matrix(0.049382716049382706,0,0,0.049382716049382706,11.85185185185185,0)" xlink:href="#I"/><use transform="matrix(0.049382716049382706,0,0,0.049382716049382706,21.728395061728392,0)" xlink:href="#t"/><use transform="matrix(0.049382716049382706,0,0,0.049382716049382706,31.604938271604933,0)" xlink:href="#B"/><use transform="matrix(0.049382716049382706,0,0,0.049382716049382706,35.50617283950616,0)" xlink:href="#G"/></g><g id="o"><use transform="matrix(0.049382716049382706,0,0,0.049382716049382706,0,0)" xlink:href="#I"/><use transform="matrix(0.049382716049382706,0,0,0.049382716049382706,9.87654320987654,0)" xlink:href="#E"/><use transform="matrix(0.049382716049382706,0,0,0.049382716049382706,15.75308641975308,0)" xlink:href="#S"/><use transform="matrix(0.049382716049382706,0,0,0.049382716049382706,25.629629629629626,0)" xlink:href="#J"/><use transform="matrix(0.049382716049382706,0,0,0.049382716049382706,34.51851851851851,0)" xlink:href="#H"/><use transform="matrix(0.049382716049382706,0,0,0.049382716049382706,43.4074074074074,0)" xlink:href="#w"/><use transform="matrix(0.049382716049382706,0,0,0.049382716049382706,53.28395061728394,0)" xlink:href="#t"/><use transform="matrix(0.049382716049382706,0,0,0.049382716049382706,63.16049382716048,0)" xlink:href="#I"/><use transform="matrix(0.049382716049382706,0,0,0.049382716049382706,73.03703703703702,0)" xlink:href="#G"/><use transform="matrix(0.049382716049382706,0,0,0.049382716049382706,77.97530864197529,0)" xlink:href="#F"/><use transform="matrix(0.049382716049382706,0,0,0.049382716049382706,81.87654320987652,0)" xlink:href="#J"/><use transform="matrix(0.049382716049382706,0,0,0.049382716049382706,90.7654320987654,0)" xlink:href="#L"/><use transform="matrix(0.049382716049382706,0,0,0.049382716049382706,99.65432098765429,0)" xlink:href="#x"/><use transform="matrix(0.049382716049382706,0,0,0.049382716049382706,109.53086419753085,0)" xlink:href="#A"/></g><path fill="#3a414a" d="M11 0l48-248h184l-5 28H87l-15 79h140l-5 27H67L50-27h158l-5 27H11" id="U"/><g id="p"><use transform="matrix(0.049382716049382706,0,0,0.049382716049382706,0,0)" xlink:href="#U"/><use transform="matrix(0.049382716049382706,0,0,0.049382716049382706,11.85185185185185,0)" xlink:href="#w"/><use transform="matrix(0.049382716049382706,0,0,0.049382716049382706,21.728395061728392,0)" xlink:href="#D"/><use transform="matrix(0.049382716049382706,0,0,0.049382716049382706,31.604938271604933,0)" xlink:href="#F"/><use transform="matrix(0.049382716049382706,0,0,0.049382716049382706,35.50617283950616,0)" xlink:href="#z"/><use transform="matrix(0.049382716049382706,0,0,0.049382716049382706,45.38271604938271,0)" xlink:href="#O"/><use transform="matrix(0.049382716049382706,0,0,0.049382716049382706,55.259259259259245,0)" xlink:href="#w"/><use transform="matrix(0.049382716049382706,0,0,0.049382716049382706,65.1358024691358,0)" xlink:href="#z"/></g></defs></g></svg>