<svg xmlns="http://www.w3.org/2000/svg" xmlns:xlink="http://www.w3.org/1999/xlink" width="560"
     height="166">
    <g transform="translate(-20 -100)">
        <path d="M40 126a6 6 0 0 1 6-6h148a6 6 0 0 1 6 6v114a6 6 0 0 1-6 6H46a6 6 0 0 1-6-6z" stroke="#000000"
              fill="none"/>
        <use xlink:href="#a" transform="matrix(1,0,0,1,48,128) translate(24.53086419753086 59.44444444444444)"/>
        <path d="M400 126a6 6 0 0 1 6-6h148a6 6 0 0 1 6 6v114a6 6 0 0 1-6 6H406a6 6 0 0 1-6-6z" stroke="#000000"
              fill="none"/>
        <use xlink:href="#b" transform="matrix(1,0,0,1,408,128) translate(22.679012345679013 59.44444444444444)"/>
        <path d="M398.6 183H201.4M381.3 193.18L398.52 183l-17.22-10.18M218.7 172.82L201.48 183l17.22 10.18"
              stroke="#000000" fill="none"/>
        <defs>
            <path fill="#000000"
                  d="M212-179c-10-28-35-45-73-45-59 0-87 40-87 99 0 60 29 101 89 101 43 0 62-24 78-52l27 14C228-24 195 4 139 4 59 4 22-46 18-125c-6-104 99-153 187-111 19 9 31 26 39 46"
                  id="c"/>
            <path fill="#000000"
                  d="M100-194c62-1 85 37 85 99 1 63-27 99-86 99S16-35 15-95c0-66 28-99 85-99zM99-20c44 1 53-31 53-75 0-43-8-75-51-75s-53 32-53 75 10 74 51 75"
                  id="d"/>
            <path fill="#000000"
                  d="M210-169c-67 3-38 105-44 169h-31v-121c0-29-5-50-35-48C34-165 62-65 56 0H25l-1-190h30c1 10-1 24 2 32 10-44 99-50 107 0 11-21 27-35 58-36 85-2 47 119 55 194h-31v-121c0-29-5-49-35-48"
                  id="e"/>
            <path fill="#000000"
                  d="M115-194c55 1 70 41 70 98S169 2 115 4C84 4 66-9 55-30l1 105H24l-1-265h31l2 30c10-21 28-34 59-34zm-8 174c40 0 45-34 45-75s-6-73-45-74c-42 0-51 32-51 76 0 43 10 73 51 73"
                  id="f"/>
            <path fill="#000000"
                  d="M141-36C126-15 110 5 73 4 37 3 15-17 15-53c-1-64 63-63 125-63 3-35-9-54-41-54-24 1-41 7-42 31l-33-3c5-37 33-52 76-52 45 0 72 20 72 64v82c-1 20 7 32 28 27v20c-31 9-61-2-59-35zM48-53c0 20 12 33 32 33 41-3 63-29 60-74-43 2-92-5-92 41"
                  id="g"/>
            <path fill="#000000"
                  d="M117-194c89-4 53 116 60 194h-32v-121c0-31-8-49-39-48C34-167 62-67 57 0H25l-1-190h30c1 10-1 24 2 32 11-22 29-35 61-36"
                  id="h"/>
            <path fill="#000000" d="M179-190L93 31C79 59 56 82 12 73V49c39 6 53-20 64-50L1-190h34L92-34l54-156h33"
                  id="i"/>
            <g id="a">
                <use transform="matrix(0.06172839506172839,0,0,0.06172839506172839,0,0)" xlink:href="#c"/>
                <use transform="matrix(0.06172839506172839,0,0,0.06172839506172839,15.987654320987653,0)"
                     xlink:href="#d"/>
                <use transform="matrix(0.06172839506172839,0,0,0.06172839506172839,28.333333333333332,0)"
                     xlink:href="#e"/>
                <use transform="matrix(0.06172839506172839,0,0,0.06172839506172839,46.79012345679012,0)"
                     xlink:href="#f"/>
                <use transform="matrix(0.06172839506172839,0,0,0.06172839506172839,59.1358024691358,0)"
                     xlink:href="#g"/>
                <use transform="matrix(0.06172839506172839,0,0,0.06172839506172839,71.48148148148148,0)"
                     xlink:href="#h"/>
                <use transform="matrix(0.06172839506172839,0,0,0.06172839506172839,83.82716049382717,0)"
                     xlink:href="#i"/>
            </g>
            <path fill="#000000" d="M30 0v-248h187v28H63v79h144v27H63v87h162V0H30" id="j"/>
            <path fill="#000000" d="M24 0v-261h32V0H24" id="k"/>
            <path fill="#000000"
                  d="M100-194c63 0 86 42 84 106H49c0 40 14 67 53 68 26 1 43-12 49-29l28 8c-11 28-37 45-77 45C44 4 14-33 15-96c1-61 26-98 85-98zm52 81c6-60-76-77-97-28-3 7-6 17-6 28h103"
                  id="l"/>
            <g id="b">
                <use transform="matrix(0.06172839506172839,0,0,0.06172839506172839,0,0)" xlink:href="#j"/>
                <use transform="matrix(0.06172839506172839,0,0,0.06172839506172839,14.814814814814813,0)"
                     xlink:href="#e"/>
                <use transform="matrix(0.06172839506172839,0,0,0.06172839506172839,33.2716049382716,0)"
                     xlink:href="#f"/>
                <use transform="matrix(0.06172839506172839,0,0,0.06172839506172839,45.61728395061728,0)"
                     xlink:href="#k"/>
                <use transform="matrix(0.06172839506172839,0,0,0.06172839506172839,50.49382716049382,0)"
                     xlink:href="#d"/>
                <use transform="matrix(0.06172839506172839,0,0,0.06172839506172839,62.8395061728395,0)"
                     xlink:href="#i"/>
                <use transform="matrix(0.06172839506172839,0,0,0.06172839506172839,73.9506172839506,0)"
                     xlink:href="#l"/>
                <use transform="matrix(0.06172839506172839,0,0,0.06172839506172839,86.29629629629629,0)"
                     xlink:href="#l"/>
            </g>
        </defs>
    </g>
</svg>