<svg xmlns="http://www.w3.org/2000/svg" xmlns:xlink="http://www.w3.org/1999/xlink" width="600"
     height="166">
    <g transform="translate(0 -100)">
        <path d="M20 126a6 6 0 0 1 6-6h148a6 6 0 0 1 6 6v114a6 6 0 0 1-6 6H26a6 6 0 0 1-6-6z" stroke="#000000"
              fill="none"/>
        <use xlink:href="#a" transform="matrix(1,0,0,1,28,128) translate(39.901234567901234 59.44444444444444)"/>
        <path d="M420 126a6 6 0 0 1 6-6h148a6 6 0 0 1 6 6v114a6 6 0 0 1-6 6H426a6 6 0 0 1-6-6z" stroke="#000000"
              fill="none"/>
        <use xlink:href="#b" transform="matrix(1,0,0,1,428,128) translate(26.382716049382715 59.44444444444444)"/>
        <path d="M418.6 183h-9.9m-9.9 0H379m-9.9 0h-19.8m-9.9 0h-19.8m-9.9 0h-19.8m-9.9 0h-19.8m-9.9 0h-19.8m-9.9 0h-19.8m-9.9 0H181M401.3 193.18L418.52 183l-17.22-10.18"
              stroke="#000000" fill="none"/>
        <path d="M181 183.5h-.5v-1h.5z" stroke="#000000" stroke-width=".05" fill="#000000"/>
        <path d="M180 146a6 6 0 0 1 6-6h228a6 6 0 0 1 6 6v48a6 6 0 0 1-6 6H186a6 6 0 0 1-6-6z" stroke="#000"
              stroke-opacity="0" fill="none" fill-opacity="0"/>
        <use xlink:href="#c" transform="matrix(1,0,0,1,185,145) translate(86.6283950617284 29.922222222222224)"/>
        <defs>
            <path fill="#000000"
                  d="M160-131c35 5 61 23 61 61C221 17 115-2 30 0v-248c76 3 177-17 177 60 0 33-19 50-47 57zm-97-11c50-1 110 9 110-42 0-47-63-36-110-37v79zm0 115c55-2 124 14 124-45 0-56-70-42-124-44v89"
                  id="d"/>
            <path fill="#000000"
                  d="M84 4C-5 8 30-112 23-190h32v120c0 31 7 50 39 49 72-2 45-101 50-169h31l1 190h-30c-1-10 1-25-2-33-11 22-28 36-60 37"
                  id="e"/>
            <path fill="#000000" d="M59-47c-2 24 18 29 38 22v24C64 9 27 4 27-40v-127H5v-23h24l9-43h21v43h35v23H59v120"
                  id="f"/>
            <path fill="#000000"
                  d="M100-194c62-1 85 37 85 99 1 63-27 99-86 99S16-35 15-95c0-66 28-99 85-99zM99-20c44 1 53-31 53-75 0-43-8-75-51-75s-53 32-53 75 10 74 51 75"
                  id="g"/>
            <path fill="#000000"
                  d="M117-194c89-4 53 116 60 194h-32v-121c0-31-8-49-39-48C34-167 62-67 57 0H25l-1-190h30c1 10-1 24 2 32 11-22 29-35 61-36"
                  id="h"/>
            <g id="a">
                <use transform="matrix(0.06172839506172839,0,0,0.06172839506172839,0,0)" xlink:href="#d"/>
                <use transform="matrix(0.06172839506172839,0,0,0.06172839506172839,14.814814814814813,0)"
                     xlink:href="#e"/>
                <use transform="matrix(0.06172839506172839,0,0,0.06172839506172839,27.160493827160494,0)"
                     xlink:href="#f"/>
                <use transform="matrix(0.06172839506172839,0,0,0.06172839506172839,33.333333333333336,0)"
                     xlink:href="#f"/>
                <use transform="matrix(0.06172839506172839,0,0,0.06172839506172839,39.50617283950618,0)"
                     xlink:href="#g"/>
                <use transform="matrix(0.06172839506172839,0,0,0.06172839506172839,51.851851851851855,0)"
                     xlink:href="#h"/>
            </g>
            <path fill="#000000"
                  d="M140-251c81 0 123 46 123 126C263-46 219 4 140 4 59 4 17-45 17-125s42-126 123-126zm0 227c63 0 89-41 89-101s-29-99-89-99c-61 0-89 39-89 99S79-25 140-24"
                  id="i"/>
            <path fill="#000000"
                  d="M115-194c53 0 69 39 70 98 0 66-23 100-70 100C84 3 66-7 56-30L54 0H23l1-261h32v101c10-23 28-34 59-34zm-8 174c40 0 45-34 45-75 0-40-5-75-45-74-42 0-51 32-51 76 0 43 10 73 51 73"
                  id="j"/>
            <path fill="#000000"
                  d="M135-143c-3-34-86-38-87 0 15 53 115 12 119 90S17 21 10-45l28-5c4 36 97 45 98 0-10-56-113-15-118-90-4-57 82-63 122-42 12 7 21 19 24 35"
                  id="k"/>
            <path fill="#000000"
                  d="M100-194c63 0 86 42 84 106H49c0 40 14 67 53 68 26 1 43-12 49-29l28 8c-11 28-37 45-77 45C44 4 14-33 15-96c1-61 26-98 85-98zm52 81c6-60-76-77-97-28-3 7-6 17-6 28h103"
                  id="l"/>
            <path fill="#000000" d="M114-163C36-179 61-72 57 0H25l-1-190h30c1 12-1 29 2 39 6-27 23-49 58-41v29" id="m"/>
            <path fill="#000000" d="M108 0H70L1-190h34L89-25l56-165h34" id="n"/>
            <g id="b">
                <use transform="matrix(0.06172839506172839,0,0,0.06172839506172839,0,0)" xlink:href="#i"/>
                <use transform="matrix(0.06172839506172839,0,0,0.06172839506172839,17.28395061728395,0)"
                     xlink:href="#j"/>
                <use transform="matrix(0.06172839506172839,0,0,0.06172839506172839,29.629629629629626,0)"
                     xlink:href="#k"/>
                <use transform="matrix(0.06172839506172839,0,0,0.06172839506172839,40.74074074074073,0)"
                     xlink:href="#l"/>
                <use transform="matrix(0.06172839506172839,0,0,0.06172839506172839,53.08641975308641,0)"
                     xlink:href="#m"/>
                <use transform="matrix(0.06172839506172839,0,0,0.06172839506172839,60.43209876543209,0)"
                     xlink:href="#n"/>
                <use transform="matrix(0.06172839506172839,0,0,0.06172839506172839,71.5432098765432,0)"
                     xlink:href="#l"/>
                <use transform="matrix(0.06172839506172839,0,0,0.06172839506172839,83.88888888888889,0)"
                     xlink:href="#m"/>
            </g>
            <path d="M156-25L96-89v-11l60-65h29v5l-59 66 60 64v5h-30zm-82 0L15-89v-11l59-65h29v5L44-94l59 64v5H74"
                  id="o"/>
            <path d="M96-169c-40 0-48 33-48 73s9 75 48 75c24 0 41-14 43-38l32 2c-6 37-31 61-74 61-59 0-76-41-82-99-10-93 101-131 147-64 4 7 5 14 7 22l-32 3c-4-21-16-35-41-35"
                  id="p"/>
            <path d="M141-36C126-15 110 5 73 4 37 3 15-17 15-53c-1-64 63-63 125-63 3-35-9-54-41-54-24 1-41 7-42 31l-33-3c5-37 33-52 76-52 45 0 72 20 72 64v82c-1 20 7 32 28 27v20c-31 9-61-2-59-35zM48-53c0 20 12 33 32 33 41-3 63-29 60-74-43 2-92-5-92 41"
                  id="q"/>
            <path d="M24 0v-261h32V0H24" id="r"/>
            <path d="M126-25H97v-5l59-64-59-66v-5h29l60 65v11zm-82 0H15v-5l59-64-59-66v-5h29l59 65v11" id="s"/>
            <g id="c">
                <use transform="matrix(0.06049382716049383,0,0,0.06049382716049383,0,0)" xlink:href="#o"/>
                <use transform="matrix(0.06049382716049383,0,0,0.06049382716049383,12.098765432098766,0)"
                     xlink:href="#p"/>
                <use transform="matrix(0.06049382716049383,0,0,0.06049382716049383,22.987654320987655,0)"
                     xlink:href="#q"/>
                <use transform="matrix(0.06049382716049383,0,0,0.06049382716049383,35.08641975308642,0)"
                     xlink:href="#r"/>
                <use transform="matrix(0.06049382716049383,0,0,0.06049382716049383,39.86543209876543,0)"
                     xlink:href="#r"/>
                <use transform="matrix(0.06049382716049383,0,0,0.06049382716049383,44.644444444444446,0)"
                     xlink:href="#s"/>
            </g>
        </defs>
    </g>
</svg>