<svg xmlns="http://www.w3.org/2000/svg" xmlns:xlink="http://www.w3.org/1999/xlink"  width="400"
     height="240">
    <g transform="translate(-640 -420)" >
        <path d="M719.75 479.75c0 10.9-8.84 19.75-19.75 19.75-10.9 0-19.75-8.84-19.75-19.75 0-10.9 8.84-19.75 19.75-19.75 10.9 0 19.75 8.84 19.75 19.75z"
              stroke="#000000" fill-opacity="0"/>
        <path d="M700 499.5v49.3a20.7 20.7 0 0 0 3.2 11.07L740 618m-40-63.2L660 618m0-98.75h80" stroke="#000000"
              fill="none"/>
        <path d="M660 466a6 6 0 0 1 6-6h68a6 6 0 0 1 6 6v168a6 6 0 0 1-6 6h-68a6 6 0 0 1-6-6z" fill="none"/>
        <use xlink:href="#a" transform="matrix(1,0,0,1,580,618) translate(94.10493827160494 17.77777777777778)"/>
        <path d="M1020 500c0 33.14-35.82 60-80 60s-80-26.86-80-60 35.82-60 80-60 80 26.86 80 60z" stroke="#000000"
              fill-opacity="0"/>
        <use xlink:href="#b" transform="matrix(1,0,0,1,860,440) translate(40.555 63.15)"/>
        <use xlink:href="#c" transform="matrix(1,0,0,1,860,440) translate(77.505 63.15)"/>
        <path d="M701.04 550H804a6 6 0 0 0 6-6v-38a6 6 0 0 1 6-6h42.6M701.05 550h-3.5" stroke="#000000" fill="none"/>
        <path d="M841.3 510.18L858.52 500l-17.22-10.18" stroke="#000000" fill="none"/>
        <defs>
            <path d="M205 0l-28-72H64L36 0H1l101-248h38L239 0h-34zm-38-99l-47-123c-12 45-31 82-46 123h93" id="d"/>
            <path d="M96-169c-40 0-48 33-48 73s9 75 48 75c24 0 41-14 43-38l32 2c-6 37-31 61-74 61-59 0-76-41-82-99-10-93 101-131 147-64 4 7 5 14 7 22l-32 3c-4-21-16-35-41-35"
                  id="e"/>
            <path d="M59-47c-2 24 18 29 38 22v24C64 9 27 4 27-40v-127H5v-23h24l9-43h21v43h35v23H59v120" id="f"/>
            <path d="M100-194c62-1 85 37 85 99 1 63-27 99-86 99S16-35 15-95c0-66 28-99 85-99zM99-20c44 1 53-31 53-75 0-43-8-75-51-75s-53 32-53 75 10 74 51 75"
                  id="g"/>
            <path d="M114-163C36-179 61-72 57 0H25l-1-190h30c1 12-1 29 2 39 6-27 23-49 58-41v29" id="h"/>
            <g id="a">
                <use transform="matrix(0.06172839506172839,0,0,0.06172839506172839,0,0)" xlink:href="#d"/>
                <use transform="matrix(0.06172839506172839,0,0,0.06172839506172839,14.814814814814813,0)"
                     xlink:href="#e"/>
                <use transform="matrix(0.06172839506172839,0,0,0.06172839506172839,25.925925925925924,0)"
                     xlink:href="#f"/>
                <use transform="matrix(0.06172839506172839,0,0,0.06172839506172839,32.098765432098766,0)"
                     xlink:href="#g"/>
                <use transform="matrix(0.06172839506172839,0,0,0.06172839506172839,44.44444444444444,0)"
                     xlink:href="#h"/>
            </g>
            <path d="M232-93c-1 65-40 97-104 97C67 4 28-28 28-90v-158h33c8 89-33 224 67 224 102 0 64-133 71-224h33v155"
                  id="i"/>
            <path d="M135-143c-3-34-86-38-87 0 15 53 115 12 119 90S17 21 10-45l28-5c4 36 97 45 98 0-10-56-113-15-118-90-4-57 82-63 122-42 12 7 21 19 24 35"
                  id="j"/>
            <path d="M100-194c63 0 86 42 84 106H49c0 40 14 67 53 68 26 1 43-12 49-29l28 8c-11 28-37 45-77 45C44 4 14-33 15-96c1-61 26-98 85-98zm52 81c6-60-76-77-97-28-3 7-6 17-6 28h103"
                  id="k"/>
            <g id="b">
                <use transform="matrix(0.05,0,0,0.05,0,0)" xlink:href="#i"/>
                <use transform="matrix(0.05,0,0,0.05,12.950000000000001,0)" xlink:href="#j"/>
                <use transform="matrix(0.05,0,0,0.05,21.950000000000003,0)" xlink:href="#k"/>
            </g>
            <path d="M212-179c-10-28-35-45-73-45-59 0-87 40-87 99 0 60 29 101 89 101 43 0 62-24 78-52l27 14C228-24 195 4 139 4 59 4 22-46 18-125c-6-104 99-153 187-111 19 9 31 26 39 46"
                  id="l"/>
            <path d="M141-36C126-15 110 5 73 4 37 3 15-17 15-53c-1-64 63-63 125-63 3-35-9-54-41-54-24 1-41 7-42 31l-33-3c5-37 33-52 76-52 45 0 72 20 72 64v82c-1 20 7 32 28 27v20c-31 9-61-2-59-35zM48-53c0 20 12 33 32 33 41-3 63-29 60-74-43 2-92-5-92 41"
                  id="m"/>
            <g id="c">
                <use transform="matrix(0.05,0,0,0.05,0,0)" xlink:href="#l"/>
                <use transform="matrix(0.05,0,0,0.05,12.950000000000001,0)" xlink:href="#m"/>
                <use transform="matrix(0.05,0,0,0.05,22.950000000000003,0)" xlink:href="#j"/>
                <use transform="matrix(0.05,0,0,0.05,31.950000000000003,0)" xlink:href="#k"/>
            </g>
        </defs>
    </g>
</svg>