<svg xmlns="http://www.w3.org/2000/svg" xmlns:xlink="http://www.w3.org/1999/xlink"  width="600"
     height="232">
    <g transform="translate(0 0)" >
        <path d="M20 26a6 6 0 0 1 6-6h548a6 6 0 0 1 6 6v180a6 6 0 0 1-6 6H26a6 6 0 0 1-6-6z" stroke="#000000"
              fill-opacity="0"/>
        <path d="M20 57.6h560" stroke="#000000" fill="none"/>
        <use xlink:href="#a" transform="matrix(1,0,0,1,28,28) translate(222.67499999999998 14.6)"/>
        <use xlink:href="#b" transform="matrix(1,0,0,1,32,65.6) translate(0 49.00000000000001)"/>
        <use xlink:href="#c" transform="matrix(1,0,0,1,32,65.6) translate(17.222222222222218 49.00000000000001)"/>
        <use xlink:href="#d" transform="matrix(1,0,0,1,32,65.6) translate(103.66666666666666 49.00000000000001)"/>
        <use xlink:href="#e" transform="matrix(1,0,0,1,32,65.6) translate(188 49.00000000000001)"/>
        <use xlink:href="#b" transform="matrix(1,0,0,1,32,65.6) translate(0 73)"/>
        <use xlink:href="#f" transform="matrix(1,0,0,1,32,65.6) translate(17.222222222222218 73)"/>
        <use xlink:href="#g" transform="matrix(1,0,0,1,32,65.6) translate(171.44444444444443 73)"/>
        <use xlink:href="#h" transform="matrix(1,0,0,1,32,65.6) translate(249.16666666666663 73)"/>
        <use xlink:href="#i" transform="matrix(1,0,0,1,32,65.6) translate(314.66666666666663 73)"/>
        <use xlink:href="#e" transform="matrix(1,0,0,1,32,65.6) translate(396.7222222222222 73)"/>
        <use xlink:href="#b" transform="matrix(1,0,0,1,32,65.6) translate(0 97)"/>
        <use xlink:href="#j" transform="matrix(1,0,0,1,32,65.6) translate(17.222222222222218 97)"/>
        <use xlink:href="#k" transform="matrix(1,0,0,1,32,65.6) translate(232.44444444444446 97)"/>
        <use xlink:href="#l" transform="matrix(1,0,0,1,32,65.6) translate(292.44444444444446 97)"/>
        <use xlink:href="#m" transform="matrix(1,0,0,1,32,65.6) translate(343.44444444444446 97)"/>
        <use xlink:href="#n" transform="matrix(1,0,0,1,32,65.6) translate(468.77777777777777 97)"/>
        <defs>
            <path d="M199 0l-22-63H83L61 0H9l90-248h61L250 0h-51zm-33-102l-36-108c-10 38-24 72-36 108h72" id="o"/>
            <path d="M190-63c-7 42-38 67-86 67-59 0-84-38-90-98-12-110 154-137 174-36l-49 2c-2-19-15-32-35-32-30 0-35 28-38 64-6 74 65 87 74 30"
                  id="p"/>
            <path d="M110-194c64 0 96 36 96 99 0 64-35 99-97 99-61 0-95-36-95-99 0-62 34-99 96-99zm-1 164c35 0 45-28 45-65 0-40-10-65-43-65-34 0-45 26-45 65 0 36 10 65 43 65"
                  id="q"/>
            <path d="M85 4C-2 5 27-109 22-190h50c7 57-23 150 33 157 60-5 35-97 40-157h50l1 190h-47c-2-12 1-28-3-38-12 25-28 42-61 42"
                  id="r"/>
            <path d="M135-194c87-1 58 113 63 194h-50c-7-57 23-157-34-157-59 0-34 97-39 157H25l-1-190h47c2 12-1 28 3 38 12-26 28-41 61-42"
                  id="s"/>
            <path d="M115-3C79 11 28 4 28-45v-112H4v-33h27l15-45h31v45h36v33H77v99c-1 23 16 31 38 25v30" id="t"/>
            <path d="M25-224v-37h50v37H25zM25 0v-190h50V0H25" id="u"/>
            <path d="M195-6C206 82 75 100 31 46c-4-6-6-13-8-21l49-6c3 16 16 24 34 25 40 0 42-37 40-79-11 22-30 35-61 35-53 0-70-43-70-97 0-56 18-96 73-97 30 0 46 14 59 34l2-30h47zm-90-29c32 0 41-27 41-63 0-35-9-62-40-62-32 0-39 29-40 63 0 36 9 62 39 62"
                  id="v"/>
            <g id="a">
                <use transform="matrix(0.05,0,0,0.05,0,0)" xlink:href="#o"/>
                <use transform="matrix(0.05,0,0,0.05,12.950000000000001,0)" xlink:href="#p"/>
                <use transform="matrix(0.05,0,0,0.05,22.950000000000003,0)" xlink:href="#p"/>
                <use transform="matrix(0.05,0,0,0.05,32.95,0)" xlink:href="#q"/>
                <use transform="matrix(0.05,0,0,0.05,43.900000000000006,0)" xlink:href="#r"/>
                <use transform="matrix(0.05,0,0,0.05,54.85,0)" xlink:href="#s"/>
                <use transform="matrix(0.05,0,0,0.05,65.80000000000001,0)" xlink:href="#t"/>
                <use transform="matrix(0.05,0,0,0.05,71.75000000000001,0)" xlink:href="#u"/>
                <use transform="matrix(0.05,0,0,0.05,76.75000000000001,0)" xlink:href="#s"/>
                <use transform="matrix(0.05,0,0,0.05,87.70000000000002,0)" xlink:href="#v"/>
            </g>
            <path d="M118-107v75H92v-75H18v-26h74v-75h26v75h74v26h-74" id="w"/>
            <use transform="matrix(0.055555555555555546,0,0,0.055555555555555546,0,0)" xlink:href="#w" id="b"/>
            <path d="M135-143c-3-34-86-38-87 0 15 53 115 12 119 90S17 21 10-45l28-5c4 36 97 45 98 0-10-56-113-15-118-90-4-57 82-63 122-42 12 7 21 19 24 35"
                  id="x"/>
            <path d="M141-36C126-15 110 5 73 4 37 3 15-17 15-53c-1-64 63-63 125-63 3-35-9-54-41-54-24 1-41 7-42 31l-33-3c5-37 33-52 76-52 45 0 72 20 72 64v82c-1 20 7 32 28 27v20c-31 9-61-2-59-35zM48-53c0 20 12 33 32 33 41-3 63-29 60-74-43 2-92-5-92 41"
                  id="y"/>
            <path d="M24 0v-261h32V0H24" id="z"/>
            <path d="M114-163C36-179 61-72 57 0H25l-1-190h30c1 12-1 29 2 39 6-27 23-49 58-41v29" id="A"/>
            <path d="M179-190L93 31C79 59 56 82 12 73V49c39 6 53-20 64-50L1-190h34L92-34l54-156h33" id="B"/>
            <path d="M87 75C49 33 22-17 22-94c0-76 28-126 65-167h31c-38 41-64 92-64 168S80 34 118 75H87" id="C"/>
            <path d="M24-231v-30h32v30H24zM24 0v-190h32V0H24" id="D"/>
            <path d="M117-194c89-4 53 116 60 194h-32v-121c0-31-8-49-39-48C34-167 62-67 57 0H25l-1-190h30c1 10-1 24 2 32 11-22 29-35 61-36"
                  id="E"/>
            <path d="M59-47c-2 24 18 29 38 22v24C64 9 27 4 27-40v-127H5v-23h24l9-43h21v43h35v23H59v120" id="F"/>
            <g id="c">
                <use transform="matrix(0.055555555555555546,0,0,0.055555555555555546,0,0)" xlink:href="#x"/>
                <use transform="matrix(0.055555555555555546,0,0,0.055555555555555546,9.999999999999998,0)"
                     xlink:href="#y"/>
                <use transform="matrix(0.055555555555555546,0,0,0.055555555555555546,21.111111111111107,0)"
                     xlink:href="#z"/>
                <use transform="matrix(0.055555555555555546,0,0,0.055555555555555546,25.499999999999996,0)"
                     xlink:href="#y"/>
                <use transform="matrix(0.055555555555555546,0,0,0.055555555555555546,36.61111111111111,0)"
                     xlink:href="#A"/>
                <use transform="matrix(0.055555555555555546,0,0,0.055555555555555546,43.222222222222214,0)"
                     xlink:href="#B"/>
                <use transform="matrix(0.055555555555555546,0,0,0.055555555555555546,53.222222222222214,0)"
                     xlink:href="#C"/>
                <use transform="matrix(0.055555555555555546,0,0,0.055555555555555546,59.83333333333332,0)"
                     xlink:href="#D"/>
                <use transform="matrix(0.055555555555555546,0,0,0.055555555555555546,64.22222222222221,0)"
                     xlink:href="#E"/>
                <use transform="matrix(0.055555555555555546,0,0,0.055555555555555546,75.33333333333333,0)"
                     xlink:href="#F"/>
            </g>
            <path d="M194-70c0 46-34 64-81 66v29H91V-4C42-5 12-27 4-67l30-6c5 28 25 41 57 43v-87c-38-9-76-20-76-67 1-42 33-58 76-59v-23h22v23c45 0 67 20 76 56l-31 6c-5-23-18-35-45-37v78c41 10 81 20 81 70zm-81 41c51 7 71-66 19-77-6-2-12-4-19-6v83zM91-219c-47-6-63 57-18 69 6 2 12 3 18 5v-74"
                  id="G"/>
            <path d="M100-194c63 0 86 42 84 106H49c0 40 14 67 53 68 26 1 43-12 49-29l28 8c-11 28-37 45-77 45C44 4 14-33 15-96c1-61 26-98 85-98zm52 81c6-60-76-77-97-28-3 7-6 17-6 28h103"
                  id="H"/>
            <path d="M210-169c-67 3-38 105-44 169h-31v-121c0-29-5-50-35-48C34-165 62-65 56 0H25l-1-190h30c1 10-1 24 2 32 10-44 99-50 107 0 11-21 27-35 58-36 85-2 47 119 55 194h-31v-121c0-29-5-49-35-48"
                  id="I"/>
            <path d="M115-194c55 1 70 41 70 98S169 2 115 4C84 4 66-9 55-30l1 105H24l-1-265h31l2 30c10-21 28-34 59-34zm-8 174c40 0 45-34 45-75s-6-73-45-74c-42 0-51 32-51 76 0 43 10 73 51 73"
                  id="J"/>
            <path d="M33 0v-248h34V0H33" id="K"/>
            <path d="M85-194c31 0 48 13 60 33l-1-100h32l1 261h-30c-2-10 0-23-3-31C134-8 116 4 85 4 32 4 16-35 15-94c0-66 23-100 70-100zm9 24c-40 0-46 34-46 75 0 40 6 74 45 74 42 0 51-32 51-76 0-42-9-74-50-73"
                  id="L"/>
            <path d="M33-261c38 41 65 92 65 168S71 34 33 75H2C39 34 66-17 66-93S39-220 2-261h31" id="M"/>
            <path d="M33-154v-36h34v36H33zM33 0v-36h34V0H33" id="N"/>
            <g id="d">
                <use transform="matrix(0.055555555555555546,0,0,0.055555555555555546,0,0)" xlink:href="#G"/>
                <use transform="matrix(0.055555555555555546,0,0,0.055555555555555546,11.111111111111109,0)"
                     xlink:href="#H"/>
                <use transform="matrix(0.055555555555555546,0,0,0.055555555555555546,22.222222222222218,0)"
                     xlink:href="#I"/>
                <use transform="matrix(0.055555555555555546,0,0,0.055555555555555546,38.83333333333333,0)"
                     xlink:href="#J"/>
                <use transform="matrix(0.055555555555555546,0,0,0.055555555555555546,49.944444444444436,0)"
                     xlink:href="#K"/>
                <use transform="matrix(0.055555555555555546,0,0,0.055555555555555546,55.49999999999999,0)"
                     xlink:href="#L"/>
                <use transform="matrix(0.055555555555555546,0,0,0.055555555555555546,66.6111111111111,0)"
                     xlink:href="#M"/>
                <use transform="matrix(0.055555555555555546,0,0,0.055555555555555546,73.22222222222221,0)"
                     xlink:href="#N"/>
            </g>
            <path d="M240 0l2-218c-23 76-54 145-80 218h-23L58-218 59 0H30v-248h44l77 211c21-75 51-140 76-211h43V0h-30"
                  id="O"/>
            <path d="M100-194c62-1 85 37 85 99 1 63-27 99-86 99S16-35 15-95c0-66 28-99 85-99zM99-20c44 1 53-31 53-75 0-43-8-75-51-75s-53 32-53 75 10 74 51 75"
                  id="P"/>
            <g id="e">
                <use transform="matrix(0.055555555555555546,0,0,0.055555555555555546,0,0)" xlink:href="#O"/>
                <use transform="matrix(0.055555555555555546,0,0,0.055555555555555546,16.611111111111107,0)"
                     xlink:href="#P"/>
                <use transform="matrix(0.055555555555555546,0,0,0.055555555555555546,27.722222222222214,0)"
                     xlink:href="#E"/>
                <use transform="matrix(0.055555555555555546,0,0,0.055555555555555546,38.83333333333332,0)"
                     xlink:href="#H"/>
                <use transform="matrix(0.055555555555555546,0,0,0.055555555555555546,49.94444444444443,0)"
                     xlink:href="#B"/>
            </g>
            <path d="M30 0v-248h187v28H63v79h144v27H63v87h162V0H30" id="Q"/>
            <g id="f">
                <use transform="matrix(0.055555555555555546,0,0,0.055555555555555546,0,0)" xlink:href="#J"/>
                <use transform="matrix(0.055555555555555546,0,0,0.055555555555555546,11.111111111111109,0)"
                     xlink:href="#y"/>
                <use transform="matrix(0.055555555555555546,0,0,0.055555555555555546,22.222222222222218,0)"
                     xlink:href="#B"/>
                <use transform="matrix(0.055555555555555546,0,0,0.055555555555555546,32.222222222222214,0)"
                     xlink:href="#Q"/>
                <use transform="matrix(0.055555555555555546,0,0,0.055555555555555546,45.55555555555554,0)"
                     xlink:href="#I"/>
                <use transform="matrix(0.055555555555555546,0,0,0.055555555555555546,62.16666666666666,0)"
                     xlink:href="#J"/>
                <use transform="matrix(0.055555555555555546,0,0,0.055555555555555546,73.27777777777776,0)"
                     xlink:href="#z"/>
                <use transform="matrix(0.055555555555555546,0,0,0.055555555555555546,77.66666666666664,0)"
                     xlink:href="#P"/>
                <use transform="matrix(0.055555555555555546,0,0,0.055555555555555546,88.77777777777776,0)"
                     xlink:href="#B"/>
                <use transform="matrix(0.055555555555555546,0,0,0.055555555555555546,98.77777777777776,0)"
                     xlink:href="#H"/>
                <use transform="matrix(0.055555555555555546,0,0,0.055555555555555546,109.88888888888887,0)"
                     xlink:href="#H"/>
                <use transform="matrix(0.055555555555555546,0,0,0.055555555555555546,120.99999999999997,0)"
                     xlink:href="#C"/>
                <use transform="matrix(0.055555555555555546,0,0,0.055555555555555546,127.61111111111109,0)"
                     xlink:href="#D"/>
                <use transform="matrix(0.055555555555555546,0,0,0.055555555555555546,132,0)" xlink:href="#E"/>
                <use transform="matrix(0.055555555555555546,0,0,0.055555555555555546,143.11111111111111,0)"
                     xlink:href="#F"/>
            </g>
            <path d="M68-38c1 34 0 65-14 84H32c9-13 17-26 17-46H33v-38h35" id="R"/>
            <g id="g">
                <use transform="matrix(0.055555555555555546,0,0,0.055555555555555546,0,0)" xlink:href="#G"/>
                <use transform="matrix(0.055555555555555546,0,0,0.055555555555555546,11.111111111111109,0)"
                     xlink:href="#H"/>
                <use transform="matrix(0.055555555555555546,0,0,0.055555555555555546,22.222222222222218,0)"
                     xlink:href="#I"/>
                <use transform="matrix(0.055555555555555546,0,0,0.055555555555555546,38.83333333333333,0)"
                     xlink:href="#J"/>
                <use transform="matrix(0.055555555555555546,0,0,0.055555555555555546,49.944444444444436,0)"
                     xlink:href="#K"/>
                <use transform="matrix(0.055555555555555546,0,0,0.055555555555555546,55.49999999999999,0)"
                     xlink:href="#L"/>
                <use transform="matrix(0.055555555555555546,0,0,0.055555555555555546,66.6111111111111,0)"
                     xlink:href="#R"/>
            </g>
            <g id="h">
                <use transform="matrix(0.055555555555555546,0,0,0.055555555555555546,0,0)" xlink:href="#O"/>
                <use transform="matrix(0.055555555555555546,0,0,0.055555555555555546,16.611111111111107,0)"
                     xlink:href="#P"/>
                <use transform="matrix(0.055555555555555546,0,0,0.055555555555555546,27.722222222222214,0)"
                     xlink:href="#E"/>
                <use transform="matrix(0.055555555555555546,0,0,0.055555555555555546,38.83333333333332,0)"
                     xlink:href="#H"/>
                <use transform="matrix(0.055555555555555546,0,0,0.055555555555555546,49.94444444444443,0)"
                     xlink:href="#B"/>
            </g>
            <g id="i">
                <use transform="matrix(0.055555555555555546,0,0,0.055555555555555546,0,0)" xlink:href="#G"/>
                <use transform="matrix(0.055555555555555546,0,0,0.055555555555555546,11.111111111111109,0)"
                     xlink:href="#x"/>
                <use transform="matrix(0.055555555555555546,0,0,0.055555555555555546,21.111111111111107,0)"
                     xlink:href="#y"/>
                <use transform="matrix(0.055555555555555546,0,0,0.055555555555555546,32.222222222222214,0)"
                     xlink:href="#z"/>
                <use transform="matrix(0.055555555555555546,0,0,0.055555555555555546,36.6111111111111,0)"
                     xlink:href="#y"/>
                <use transform="matrix(0.055555555555555546,0,0,0.055555555555555546,47.72222222222221,0)"
                     xlink:href="#A"/>
                <use transform="matrix(0.055555555555555546,0,0,0.055555555555555546,54.333333333333314,0)"
                     xlink:href="#B"/>
                <use transform="matrix(0.055555555555555546,0,0,0.055555555555555546,64.33333333333331,0)"
                     xlink:href="#M"/>
                <use transform="matrix(0.055555555555555546,0,0,0.055555555555555546,70.94444444444443,0)"
                     xlink:href="#N"/>
            </g>
            <path d="M177-190C167-65 218 103 67 71c-23-6-38-20-44-43l32-5c15 47 100 32 89-28v-30C133-14 115 1 83 1 29 1 15-40 15-95c0-56 16-97 71-98 29-1 48 16 59 35 1-10 0-23 2-32h30zM94-22c36 0 50-32 50-73 0-42-14-75-50-75-39 0-46 34-46 75s6 73 46 73"
                  id="S"/>
            <path d="M30-248c118-7 216 8 213 122C240-48 200 0 122 0H30v-248zM63-27c89 8 146-16 146-99s-60-101-146-95v194"
                  id="T"/>
            <path d="M115-194c53 0 69 39 70 98 0 66-23 100-70 100C84 3 66-7 56-30L54 0H23l1-261h32v101c10-23 28-34 59-34zm-8 174c40 0 45-34 45-75 0-40-5-75-45-74-42 0-51 32-51 76 0 43 10 73 51 73"
                  id="U"/>
            <path d="M212-179c-10-28-35-45-73-45-59 0-87 40-87 99 0 60 29 101 89 101 43 0 62-24 78-52l27 14C228-24 195 4 139 4 59 4 22-46 18-125c-6-104 99-153 187-111 19 9 31 26 39 46"
                  id="V"/>
            <path d="M96-169c-40 0-48 33-48 73s9 75 48 75c24 0 41-14 43-38l32 2c-6 37-31 61-74 61-59 0-76-41-82-99-10-93 101-131 147-64 4 7 5 14 7 22l-32 3c-4-21-16-35-41-35"
                  id="W"/>
            <g id="j">
                <use transform="matrix(0.055555555555555546,0,0,0.055555555555555546,0,0)" xlink:href="#S"/>
                <use transform="matrix(0.055555555555555546,0,0,0.055555555555555546,11.111111111111109,0)"
                     xlink:href="#H"/>
                <use transform="matrix(0.055555555555555546,0,0,0.055555555555555546,22.222222222222218,0)"
                     xlink:href="#F"/>
                <use transform="matrix(0.055555555555555546,0,0,0.055555555555555546,27.77777777777777,0)"
                     xlink:href="#T"/>
                <use transform="matrix(0.055555555555555546,0,0,0.055555555555555546,42.16666666666666,0)"
                     xlink:href="#U"/>
                <use transform="matrix(0.055555555555555546,0,0,0.055555555555555546,53.277777777777764,0)"
                     xlink:href="#V"/>
                <use transform="matrix(0.055555555555555546,0,0,0.055555555555555546,67.66666666666666,0)"
                     xlink:href="#P"/>
                <use transform="matrix(0.055555555555555546,0,0,0.055555555555555546,78.77777777777777,0)"
                     xlink:href="#E"/>
                <use transform="matrix(0.055555555555555546,0,0,0.055555555555555546,89.88888888888889,0)"
                     xlink:href="#E"/>
                <use transform="matrix(0.055555555555555546,0,0,0.055555555555555546,101,0)" xlink:href="#H"/>
                <use transform="matrix(0.055555555555555546,0,0,0.055555555555555546,112.11111111111111,0)"
                     xlink:href="#W"/>
                <use transform="matrix(0.055555555555555546,0,0,0.055555555555555546,122.11111111111111,0)"
                     xlink:href="#F"/>
                <use transform="matrix(0.055555555555555546,0,0,0.055555555555555546,127.66666666666667,0)"
                     xlink:href="#D"/>
                <use transform="matrix(0.055555555555555546,0,0,0.055555555555555546,132.05555555555557,0)"
                     xlink:href="#P"/>
                <use transform="matrix(0.055555555555555546,0,0,0.055555555555555546,143.16666666666669,0)"
                     xlink:href="#E"/>
                <use transform="matrix(0.055555555555555546,0,0,0.055555555555555546,154.2777777777778,0)"
                     xlink:href="#C"/>
                <use transform="matrix(0.055555555555555546,0,0,0.055555555555555546,160.8888888888889,0)"
                     xlink:href="#x"/>
                <use transform="matrix(0.055555555555555546,0,0,0.055555555555555546,170.8888888888889,0)"
                     xlink:href="#F"/>
                <use transform="matrix(0.055555555555555546,0,0,0.055555555555555546,176.44444444444446,0)"
                     xlink:href="#A"/>
                <use transform="matrix(0.055555555555555546,0,0,0.055555555555555546,183.05555555555557,0)"
                     xlink:href="#D"/>
                <use transform="matrix(0.055555555555555546,0,0,0.055555555555555546,187.44444444444446,0)"
                     xlink:href="#E"/>
                <use transform="matrix(0.055555555555555546,0,0,0.055555555555555546,198.55555555555557,0)"
                     xlink:href="#S"/>
            </g>
            <path d="M106-169C34-169 62-67 57 0H25v-261h32l-1 103c12-21 28-36 61-36 89 0 53 116 60 194h-32v-121c2-32-8-49-39-48"
                  id="X"/>
            <g id="k">
                <use transform="matrix(0.055555555555555546,0,0,0.055555555555555546,0,0)" xlink:href="#G"/>
                <use transform="matrix(0.055555555555555546,0,0,0.055555555555555546,11.111111111111109,0)"
                     xlink:href="#X"/>
                <use transform="matrix(0.055555555555555546,0,0,0.055555555555555546,22.222222222222218,0)"
                     xlink:href="#P"/>
                <use transform="matrix(0.055555555555555546,0,0,0.055555555555555546,33.33333333333333,0)"
                     xlink:href="#x"/>
                <use transform="matrix(0.055555555555555546,0,0,0.055555555555555546,43.33333333333333,0)"
                     xlink:href="#F"/>
                <use transform="matrix(0.055555555555555546,0,0,0.055555555555555546,48.888888888888886,0)"
                     xlink:href="#R"/>
            </g>
            <g id="l">
                <use transform="matrix(0.055555555555555546,0,0,0.055555555555555546,0,0)" xlink:href="#y"/>
                <use transform="matrix(0.055555555555555546,0,0,0.055555555555555546,11.111111111111109,0)"
                     xlink:href="#A"/>
                <use transform="matrix(0.055555555555555546,0,0,0.055555555555555546,17.722222222222218,0)"
                     xlink:href="#A"/>
                <use transform="matrix(0.055555555555555546,0,0,0.055555555555555546,24.33333333333333,0)"
                     xlink:href="#y"/>
                <use transform="matrix(0.055555555555555546,0,0,0.055555555555555546,35.444444444444436,0)"
                     xlink:href="#B"/>
            </g>
            <g id="m">
                <use transform="matrix(0.055555555555555546,0,0,0.055555555555555546,0,0)" xlink:href="#G"/>
                <use transform="matrix(0.055555555555555546,0,0,0.055555555555555546,11.111111111111109,0)"
                     xlink:href="#W"/>
                <use transform="matrix(0.055555555555555546,0,0,0.055555555555555546,21.111111111111107,0)"
                     xlink:href="#A"/>
                <use transform="matrix(0.055555555555555546,0,0,0.055555555555555546,27.722222222222218,0)"
                     xlink:href="#H"/>
                <use transform="matrix(0.055555555555555546,0,0,0.055555555555555546,38.83333333333333,0)"
                     xlink:href="#L"/>
                <use transform="matrix(0.055555555555555546,0,0,0.055555555555555546,49.944444444444436,0)"
                     xlink:href="#H"/>
                <use transform="matrix(0.055555555555555546,0,0,0.055555555555555546,61.05555555555554,0)"
                     xlink:href="#E"/>
                <use transform="matrix(0.055555555555555546,0,0,0.055555555555555546,72.16666666666666,0)"
                     xlink:href="#F"/>
                <use transform="matrix(0.055555555555555546,0,0,0.055555555555555546,77.72222222222221,0)"
                     xlink:href="#D"/>
                <use transform="matrix(0.055555555555555546,0,0,0.055555555555555546,82.1111111111111,0)"
                     xlink:href="#y"/>
                <use transform="matrix(0.055555555555555546,0,0,0.055555555555555546,93.22222222222221,0)"
                     xlink:href="#z"/>
                <use transform="matrix(0.055555555555555546,0,0,0.055555555555555546,97.6111111111111,0)"
                     xlink:href="#x"/>
                <use transform="matrix(0.055555555555555546,0,0,0.055555555555555546,107.6111111111111,0)"
                     xlink:href="#M"/>
                <use transform="matrix(0.055555555555555546,0,0,0.055555555555555546,114.22222222222223,0)"
                     xlink:href="#N"/>
            </g>
            <path d="M30-248c87 1 191-15 191 75 0 78-77 80-158 76V0H30v-248zm33 125c57 0 124 11 124-50 0-59-68-47-124-48v98"
                  id="Y"/>
            <path d="M140-251c81 0 123 46 123 126C263-46 219 4 140 4 59 4 17-45 17-125s42-126 123-126zm0 227c63 0 89-41 89-101s-29-99-89-99c-61 0-89 39-89 99S79-25 140-24"
                  id="Z"/>
            <g id="n">
                <use transform="matrix(0.055555555555555546,0,0,0.055555555555555546,0,0)" xlink:href="#Y"/>
                <use transform="matrix(0.055555555555555546,0,0,0.055555555555555546,13.33333333333333,0)"
                     xlink:href="#T"/>
                <use transform="matrix(0.055555555555555546,0,0,0.055555555555555546,27.722222222222214,0)"
                     xlink:href="#Z"/>
            </g>
        </defs>
    </g>
</svg>