<svg xmlns="http://www.w3.org/2000/svg" xmlns:xlink="http://www.w3.org/1999/xlink" width="580"
     height="160">
    <g transform="translate(520 -760)">
        <path d="M-500 786a6 6 0 0 1 6-6h148a6 6 0 0 1 6 6v108a6 6 0 0 1-6 6h-148a6 6 0 0 1-6-6z" stroke="#000000"
              fill="none"/>
        <use xlink:href="#a" transform="matrix(1,0,0,1,-495,785) translate(46.69753086419753 59.02777777777778)"/>
        <path d="M-120 786a6 6 0 0 1 6-6H34a6 6 0 0 1 6 6v108a6 6 0 0 1-6 6h-148a6 6 0 0 1-6-6z" stroke="#000000"
              fill="none"/>
        <use xlink:href="#b" transform="matrix(1,0,0,1,-108,792) translate(27.351851851851848 53.77777777777778)"/>
        <path d="M-121.4 840h-10.37m-10.36 0h-20.72m-10.37 0h-20.72m-10.36 0h-20.72m-10.36 0h-20.73m-10.37 0h-20.72m-10.35 0h-20.73m-10.36 0H-339M-138.7 850.18l17.22-10.18-17.22-10.18"
              stroke="#000000" fill="none"/>
        <path d="M-339 840.5h-.5v-1h.5z" stroke="#000000" stroke-width=".05" fill="#000000"/>
        <path d="M-360 799a6 6 0 0 1 6-6h228a6 6 0 0 1 6 6v48a6 6 0 0 1-6 6h-228a6 6 0 0 1-6-6z" stroke="#000"
              stroke-opacity="0" fill="none" fill-opacity="0"/>
        <use xlink:href="#c" transform="matrix(1,0,0,1,-355,798) translate(71.17283950617285 30.27777777777778)"/>
        <defs>
            <path fill="#000000"
                  d="M212-179c-10-28-35-45-73-45-59 0-87 40-87 99 0 60 29 101 89 101 43 0 62-24 78-52l27 14C228-24 195 4 139 4 59 4 22-46 18-125c-6-104 99-153 187-111 19 9 31 26 39 46"
                  id="d"/>
            <path fill="#000000" d="M24 0v-261h32V0H24" id="e"/>
            <path fill="#000000" d="M24-231v-30h32v30H24zM24 0v-190h32V0H24" id="f"/>
            <path fill="#000000"
                  d="M100-194c63 0 86 42 84 106H49c0 40 14 67 53 68 26 1 43-12 49-29l28 8c-11 28-37 45-77 45C44 4 14-33 15-96c1-61 26-98 85-98zm52 81c6-60-76-77-97-28-3 7-6 17-6 28h103"
                  id="g"/>
            <path fill="#000000"
                  d="M117-194c89-4 53 116 60 194h-32v-121c0-31-8-49-39-48C34-167 62-67 57 0H25l-1-190h30c1 10-1 24 2 32 11-22 29-35 61-36"
                  id="h"/>
            <path fill="#000000" d="M59-47c-2 24 18 29 38 22v24C64 9 27 4 27-40v-127H5v-23h24l9-43h21v43h35v23H59v120"
                  id="i"/>
            <g id="a">
                <use transform="matrix(0.06172839506172839,0,0,0.06172839506172839,0,0)" xlink:href="#d"/>
                <use transform="matrix(0.06172839506172839,0,0,0.06172839506172839,15.987654320987653,0)"
                     xlink:href="#e"/>
                <use transform="matrix(0.06172839506172839,0,0,0.06172839506172839,20.864197530864196,0)"
                     xlink:href="#f"/>
                <use transform="matrix(0.06172839506172839,0,0,0.06172839506172839,25.74074074074074,0)"
                     xlink:href="#g"/>
                <use transform="matrix(0.06172839506172839,0,0,0.06172839506172839,38.08641975308642,0)"
                     xlink:href="#h"/>
                <use transform="matrix(0.06172839506172839,0,0,0.06172839506172839,50.432098765432094,0)"
                     xlink:href="#i"/>
            </g>
            <path fill="#000000"
                  d="M185-189c-5-48-123-54-124 2 14 75 158 14 163 119 3 78-121 87-175 55-17-10-28-26-33-46l33-7c5 56 141 63 141-1 0-78-155-14-162-118-5-82 145-84 179-34 5 7 8 16 11 25"
                  id="j"/>
            <path fill="#000000"
                  d="M84 4C-5 8 30-112 23-190h32v120c0 31 7 50 39 49 72-2 45-101 50-169h31l1 190h-30c-1-10 1-25-2-33-11 22-28 36-60 37"
                  id="k"/>
            <path fill="#000000"
                  d="M115-194c55 1 70 41 70 98S169 2 115 4C84 4 66-9 55-30l1 105H24l-1-265h31l2 30c10-21 28-34 59-34zm-8 174c40 0 45-34 45-75s-6-73-45-74c-42 0-51 32-51 76 0 43 10 73 51 73"
                  id="l"/>
            <path fill="#000000" d="M114-163C36-179 61-72 57 0H25l-1-190h30c1 12-1 29 2 39 6-27 23-49 58-41v29" id="m"/>
            <g id="b">
                <use transform="matrix(0.06172839506172839,0,0,0.06172839506172839,0,0)" xlink:href="#j"/>
                <use transform="matrix(0.06172839506172839,0,0,0.06172839506172839,14.814814814814813,0)"
                     xlink:href="#k"/>
                <use transform="matrix(0.06172839506172839,0,0,0.06172839506172839,27.160493827160494,0)"
                     xlink:href="#l"/>
                <use transform="matrix(0.06172839506172839,0,0,0.06172839506172839,39.50617283950617,0)"
                     xlink:href="#l"/>
                <use transform="matrix(0.06172839506172839,0,0,0.06172839506172839,51.85185185185185,0)"
                     xlink:href="#e"/>
                <use transform="matrix(0.06172839506172839,0,0,0.06172839506172839,56.72839506172839,0)"
                     xlink:href="#f"/>
                <use transform="matrix(0.06172839506172839,0,0,0.06172839506172839,61.60493827160494,0)"
                     xlink:href="#g"/>
                <use transform="matrix(0.06172839506172839,0,0,0.06172839506172839,73.95061728395062,0)"
                     xlink:href="#m"/>
            </g>
            <path fill="#000000" d="M18-100v-36l175-74v27L42-118l151 64v27" id="n"/>
            <path fill="#000000"
                  d="M135-143c-3-34-86-38-87 0 15 53 115 12 119 90S17 21 10-45l28-5c4 36 97 45 98 0-10-56-113-15-118-90-4-57 82-63 122-42 12 7 21 19 24 35"
                  id="o"/>
            <path fill="#000000" d="M18-27v-27l151-64-151-65v-27l175 74v36" id="p"/>
            <g id="c">
                <use transform="matrix(0.06172839506172839,0,0,0.06172839506172839,0,0)" xlink:href="#n"/>
                <use transform="matrix(0.06172839506172839,0,0,0.06172839506172839,12.962962962962962,0)"
                     xlink:href="#n"/>
                <use transform="matrix(0.06172839506172839,0,0,0.06172839506172839,25.925925925925924,0)"
                     xlink:href="#k"/>
                <use transform="matrix(0.06172839506172839,0,0,0.06172839506172839,38.2716049382716,0)"
                     xlink:href="#o"/>
                <use transform="matrix(0.06172839506172839,0,0,0.06172839506172839,49.38271604938271,0)"
                     xlink:href="#g"/>
                <use transform="matrix(0.06172839506172839,0,0,0.06172839506172839,61.728395061728385,0)"
                     xlink:href="#p"/>
                <use transform="matrix(0.06172839506172839,0,0,0.06172839506172839,74.69135802469134,0)"
                     xlink:href="#p"/>
            </g>
        </defs>
    </g>
</svg>