<svg xmlns="http://www.w3.org/2000/svg" xmlns:xlink="http://www.w3.org/1999/xlink" width="1013"
     height="634.5">
    <g transform="translate(20 -113.5)" >
        <path d="M340 139.5a6 6 0 0 1 6-6h348a6 6 0 0 1 6 6v159a6 6 0 0 1-6 6H346a6 6 0 0 1-6-6z" stroke="#000000"
              fill="none"/>
        <path d="M340 176.17h360m-360 64.16h360" stroke="#000000" fill="none"/>
        <use xlink:href="#a" transform="matrix(1,0,0,1,348,141.5) translate(124.53086419753086 17.944444444444443)"/>
        <use xlink:href="#b" transform="matrix(1,0,0,1,352,184.16666666666669) translate(0 28.944444444444443)"/>
        <use xlink:href="#c"
             transform="matrix(1,0,0,1,352,184.16666666666669) translate(13.518518518518519 28.944444444444443)"/>
        <use xlink:href="#d"
             transform="matrix(1,0,0,1,352,184.16666666666669) translate(133.14814814814815 28.944444444444443)"/>
        <use xlink:href="#e"
             transform="matrix(1,0,0,1,352,184.16666666666669) translate(237.96296296296296 28.944444444444443)"/>
        <path d="M340 510a6 6 0 0 1 6-6h348a6 6 0 0 1 6 6v212a6 6 0 0 1-6 6H346a6 6 0 0 1-6-6z" stroke="#000000"
              fill="none"/>
        <path d="M340 546.67h360m-360 117.5h360" stroke="#000000" fill="none"/>
        <use xlink:href="#f" transform="matrix(1,0,0,1,348,512) translate(122.67901234567901 17.944444444444443)"/>
        <use xlink:href="#b" transform="matrix(1,0,0,1,352,554.6666666666666) translate(0 28.77777777777778)"/>
        <use xlink:href="#g"
             transform="matrix(1,0,0,1,352,554.6666666666666) translate(13.518518518518519 28.77777777777778)"/>
        <use xlink:href="#h"
             transform="matrix(1,0,0,1,352,554.6666666666666) translate(115.92592592592592 28.77777777777778)"/>
        <use xlink:href="#i"
             transform="matrix(1,0,0,1,352,554.6666666666666) translate(217.03703703703704 28.77777777777778)"/>
        <use xlink:href="#b" transform="matrix(1,0,0,1,352,554.6666666666666) translate(0 55.44444444444445)"/>
        <use xlink:href="#j"
             transform="matrix(1,0,0,1,352,554.6666666666666) translate(13.518518518518519 55.44444444444445)"/>
        <use xlink:href="#k"
             transform="matrix(1,0,0,1,352,554.6666666666666) translate(103.64197530864196 55.44444444444445)"/>
        <use xlink:href="#i"
             transform="matrix(1,0,0,1,352,554.6666666666666) translate(190.06172839506172 55.44444444444445)"/>
        <use xlink:href="#b" transform="matrix(1,0,0,1,352,554.6666666666666) translate(0 82.11111111111111)"/>
        <use xlink:href="#l"
             transform="matrix(1,0,0,1,352,554.6666666666666) translate(13.518518518518519 82.11111111111111)"/>
        <use xlink:href="#m"
             transform="matrix(1,0,0,1,352,554.6666666666666) translate(104.81481481481481 82.11111111111111)"/>
        <path d="M720 312.5a6 6 0 0 1 6-6h208a6 6 0 0 1 6 6v159a6 6 0 0 1-6 6H726a6 6 0 0 1-6-6z" stroke="#000000"
              fill="none"/>
        <path d="M720 349.17h220m-220 64.16h220" stroke="#000000" fill="none"/>
        <use xlink:href="#n" transform="matrix(1,0,0,1,728,314.5) translate(61.876543209876544 17.944444444444443)"/>
        <use xlink:href="#b" transform="matrix(1,0,0,1,732,357.1666666666667) translate(0 28.944444444444443)"/>
        <use xlink:href="#o"
             transform="matrix(1,0,0,1,732,357.1666666666667) translate(13.518518518518519 28.944444444444443)"/>
        <use xlink:href="#p"
             transform="matrix(1,0,0,1,732,357.1666666666667) translate(103.58024691358024 28.944444444444443)"/>
        <path d="M800 162a6 6 0 0 1 6-6h148a6 6 0 0 1 6 6v114a6 6 0 0 1-6 6H806a6 6 0 0 1-6-6z" stroke="#000000"
              fill="none"/>
        <use xlink:href="#q" transform="matrix(1,0,0,1,808,164) translate(7.246913580246911 59.44444444444444)"/>
        <path d="M40 288a6 6 0 0 1 6-6h228a6 6 0 0 1 6 6v212a6 6 0 0 1-6 6H46a6 6 0 0 1-6-6z" stroke="#000000"
              fill="none"/>
        <path d="M40 324.67h240M40 442.17h240" stroke="#000000" fill="none"/>
        <use xlink:href="#r" transform="matrix(1,0,0,1,48,290) translate(71.29012345679013 17.944444444444443)"/>
        <use xlink:href="#b" transform="matrix(1,0,0,1,52,332.6666666666667) translate(0 28.77777777777778)"/>
        <use xlink:href="#s"
             transform="matrix(1,0,0,1,52,332.6666666666667) translate(13.518518518518519 28.77777777777778)"/>
        <use xlink:href="#t"
             transform="matrix(1,0,0,1,52,332.6666666666667) translate(81.35802469135803 28.77777777777778)"/>
        <use xlink:href="#b" transform="matrix(1,0,0,1,52,332.6666666666667) translate(0 55.44444444444445)"/>
        <use xlink:href="#u"
             transform="matrix(1,0,0,1,52,332.6666666666667) translate(13.518518518518519 55.44444444444445)"/>
        <use xlink:href="#t"
             transform="matrix(1,0,0,1,52,332.6666666666667) translate(59.13580246913581 55.44444444444445)"/>
        <use xlink:href="#b" transform="matrix(1,0,0,1,52,332.6666666666667) translate(0 82.11111111111111)"/>
        <use xlink:href="#v"
             transform="matrix(1,0,0,1,52,332.6666666666667) translate(13.518518518518519 82.11111111111111)"/>
        <use xlink:href="#w"
             transform="matrix(1,0,0,1,52,332.6666666666667) translate(98.64197530864196 82.11111111111111)"/>
        <path d="M520 305.9v196.7M530.18 323.2L520 305.98l-10.18 17.22M509.82 485.3L520 502.52l10.18-17.22M701.4 616H830V478.9"
              stroke="#000000" fill="none"/>
        <path d="M718.7 605.82L701.48 616l17.22 10.18M840.18 496.2L830 478.98l-10.18 17.22M160 507.4V616h179"
              stroke="#000000" fill="none"/>
        <path d="M170.18 524.7L160 507.48l-10.18 17.22" stroke="#000000" fill="none"/>
        <path d="M339.5 616.5h-.5v-1h.5z" stroke="#000000" stroke-width=".05" fill="#000000"/>
        <path d="M798.6 219h-10.85m-10.85 0h-21.68m-10.85 0H722.7m-10.86 0H701M781.3 229.18L798.52 219l-17.22-10.18"
              stroke="#000000" fill="none"/>
        <path d="M701 219.5h-.5v-1h.5z" stroke="#000000" stroke-width=".05" fill="#000000"/>
        <path d="M180 196a6 6 0 0 1 6-6h148a6 6 0 0 1 6 6v28a6 6 0 0 1-6 6H186a6 6 0 0 1-6-6z" stroke="#000000"
              fill="none"/>
        <g>
            <use xlink:href="#x" transform="matrix(1,0,0,1,185,195) translate(23.197530864197546 17.97222222222222)"/>
        </g>
        <path d="M679 176a6 6 0 0 1 6-6h108a6 6 0 0 1 6 6v48a6 6 0 0 1-6 6H685a6 6 0 0 1-6-6z" stroke="#000"
              stroke-opacity="0" fill="none" fill-opacity="0"/>
        <g>
            <use xlink:href="#y" transform="matrix(1,0,0,1,684,175) translate(24.75308641975309 30.27777777777778)"/>
        </g>
        <path d="M160 280.6V210h19" stroke="#000000" fill="none"/>
        <path d="M149.82 263.3L160 280.52l10.18-17.22" stroke="#000000" fill="none"/>
        <path d="M179.5 210.5h-.5v-1h.5z" stroke="#000000" stroke-width=".05" fill="#000000"/>
        <path d="M420 310.5a6 6 0 0 1 6-6h228a6 6 0 0 1 6 6v48a6 6 0 0 1-6 6H426a6 6 0 0 1-6-6z" stroke="#000"
              stroke-opacity="0" fill="none" fill-opacity="0"/>
        <g>
            <use xlink:href="#z" transform="matrix(1,0,0,1,425,309.5) translate(110.06172839506173 29.84722222222222)"/>
        </g>
        <path d="M431 466a6 6 0 0 1 6-6h228a6 6 0 0 1 6 6v48a6 6 0 0 1-6 6H437a6 6 0 0 1-6-6z" stroke="#000"
              stroke-opacity="0" fill="none" fill-opacity="0"/>
        <g>
            <use xlink:href="#A" transform="matrix(1,0,0,1,436,465) translate(101.66666666666667 29.84722222222222)"/>
        </g>
        <path d="M600 566a6 6 0 0 1 6-6h228a6 6 0 0 1 6 6v48a6 6 0 0 1-6 6H606a6 6 0 0 1-6-6z" stroke="#000"
              stroke-opacity="0" fill="none" fill-opacity="0"/>
        <g>
            <use xlink:href="#B" transform="matrix(1,0,0,1,605,565) translate(110.06172839506173 29.56666666666667)"/>
        </g>
        <path d="M733 469.5a6 6 0 0 1 6-6h228a6 6 0 0 1 6 6v48a6 6 0 0 1-6 6H739a6 6 0 0 1-6-6z" stroke="#000"
              stroke-opacity="0" fill="none" fill-opacity="0"/>
        <g>
            <use xlink:href="#B" transform="matrix(1,0,0,1,738,468.5) translate(110.06172839506173 29.56666666666667)"/>
        </g>
        <path d="M203 579a6 6 0 0 1 6-6h228a6 6 0 0 1 6 6v48a6 6 0 0 1-6 6H209a6 6 0 0 1-6-6z" stroke="#000"
              stroke-opacity="0" fill="none" fill-opacity="0"/>
        <g>
            <use xlink:href="#B" transform="matrix(1,0,0,1,208,578) translate(110.06172839506173 29.56666666666667)"/>
        </g>
        <path d="M20 501a6 6 0 0 1 6-6h228a6 6 0 0 1 6 6v48a6 6 0 0 1-6 6H26a6 6 0 0 1-6-6z" stroke="#000"
              stroke-opacity="0" fill="none" fill-opacity="0"/>
        <g>
            <use xlink:href="#B" transform="matrix(1,0,0,1,25,500) translate(110.06172839506173 29.56666666666667)"/>
        </g>
        <path d="M0 246a6 6 0 0 1 6-6h228a6 6 0 0 1 6 6v48a6 6 0 0 1-6 6H6a6 6 0 0 1-6-6z" stroke="#000"
              stroke-opacity="0" fill="none" fill-opacity="0"/>
        <g>
            <use xlink:href="#C" transform="matrix(1,0,0,1,5,245) translate(97.02469135802468 29.56666666666667)"/>
            <use xlink:href="#D" transform="matrix(1,0,0,1,5,245) translate(112.82716049382715 29.56666666666667)"/>
        </g>
        <path d="M613 626a6 6 0 0 1 6-6h228a6 6 0 0 1 6 6v48a6 6 0 0 1-6 6H619a6 6 0 0 1-6-6z" stroke="#000"
              stroke-opacity="0" fill="none" fill-opacity="0"/>
        <g>
            <use xlink:href="#E" transform="matrix(1,0,0,1,618,625) translate(90.85185185185185 29.84722222222222)"/>
        </g>
        <defs>
            <path fill="#000000"
                  d="M212-179c-10-28-35-45-73-45-59 0-87 40-87 99 0 60 29 101 89 101 43 0 62-24 78-52l27 14C228-24 195 4 139 4 59 4 22-46 18-125c-6-104 99-153 187-111 19 9 31 26 39 46"
                  id="F"/>
            <path fill="#000000"
                  d="M100-194c62-1 85 37 85 99 1 63-27 99-86 99S16-35 15-95c0-66 28-99 85-99zM99-20c44 1 53-31 53-75 0-43-8-75-51-75s-53 32-53 75 10 74 51 75"
                  id="G"/>
            <path fill="#000000"
                  d="M210-169c-67 3-38 105-44 169h-31v-121c0-29-5-50-35-48C34-165 62-65 56 0H25l-1-190h30c1 10-1 24 2 32 10-44 99-50 107 0 11-21 27-35 58-36 85-2 47 119 55 194h-31v-121c0-29-5-49-35-48"
                  id="H"/>
            <path fill="#000000"
                  d="M115-194c55 1 70 41 70 98S169 2 115 4C84 4 66-9 55-30l1 105H24l-1-265h31l2 30c10-21 28-34 59-34zm-8 174c40 0 45-34 45-75s-6-73-45-74c-42 0-51 32-51 76 0 43 10 73 51 73"
                  id="I"/>
            <path fill="#000000"
                  d="M141-36C126-15 110 5 73 4 37 3 15-17 15-53c-1-64 63-63 125-63 3-35-9-54-41-54-24 1-41 7-42 31l-33-3c5-37 33-52 76-52 45 0 72 20 72 64v82c-1 20 7 32 28 27v20c-31 9-61-2-59-35zM48-53c0 20 12 33 32 33 41-3 63-29 60-74-43 2-92-5-92 41"
                  id="J"/>
            <path fill="#000000"
                  d="M117-194c89-4 53 116 60 194h-32v-121c0-31-8-49-39-48C34-167 62-67 57 0H25l-1-190h30c1 10-1 24 2 32 11-22 29-35 61-36"
                  id="K"/>
            <path fill="#000000" d="M179-190L93 31C79 59 56 82 12 73V49c39 6 53-20 64-50L1-190h34L92-34l54-156h33"
                  id="L"/>
            <g id="a">
                <use transform="matrix(0.06172839506172839,0,0,0.06172839506172839,0,0)" xlink:href="#F"/>
                <use transform="matrix(0.06172839506172839,0,0,0.06172839506172839,15.987654320987653,0)"
                     xlink:href="#G"/>
                <use transform="matrix(0.06172839506172839,0,0,0.06172839506172839,28.333333333333332,0)"
                     xlink:href="#H"/>
                <use transform="matrix(0.06172839506172839,0,0,0.06172839506172839,46.79012345679012,0)"
                     xlink:href="#I"/>
                <use transform="matrix(0.06172839506172839,0,0,0.06172839506172839,59.1358024691358,0)"
                     xlink:href="#J"/>
                <use transform="matrix(0.06172839506172839,0,0,0.06172839506172839,71.48148148148148,0)"
                     xlink:href="#K"/>
                <use transform="matrix(0.06172839506172839,0,0,0.06172839506172839,83.82716049382717,0)"
                     xlink:href="#L"/>
            </g>
            <path fill="#000000" d="M16-82v-28h88v28H16" id="M"/>
            <use transform="matrix(0.06172839506172839,0,0,0.06172839506172839,0,0)" xlink:href="#M" id="b"/>
            <path fill="#000000"
                  d="M100-194c63 0 86 42 84 106H49c0 40 14 67 53 68 26 1 43-12 49-29l28 8c-11 28-37 45-77 45C44 4 14-33 15-96c1-61 26-98 85-98zm52 81c6-60-76-77-97-28-3 7-6 17-6 28h103"
                  id="N"/>
            <path fill="#000000" d="M24 0v-261h32V0H24" id="O"/>
            <path fill="#000000"
                  d="M135-143c-3-34-86-38-87 0 15 53 115 12 119 90S17 21 10-45l28-5c4 36 97 45 98 0-10-56-113-15-118-90-4-57 82-63 122-42 12 7 21 19 24 35"
                  id="P"/>
            <path fill="#000000" d="M33-154v-36h34v36H33zM33 0v-36h34V0H33" id="Q"/>
            <g id="c">
                <use transform="matrix(0.06172839506172839,0,0,0.06172839506172839,0,0)" xlink:href="#N"/>
                <use transform="matrix(0.06172839506172839,0,0,0.06172839506172839,12.345679012345679,0)"
                     xlink:href="#H"/>
                <use transform="matrix(0.06172839506172839,0,0,0.06172839506172839,30.80246913580247,0)"
                     xlink:href="#I"/>
                <use transform="matrix(0.06172839506172839,0,0,0.06172839506172839,43.148148148148145,0)"
                     xlink:href="#O"/>
                <use transform="matrix(0.06172839506172839,0,0,0.06172839506172839,48.02469135802469,0)"
                     xlink:href="#G"/>
                <use transform="matrix(0.06172839506172839,0,0,0.06172839506172839,60.37037037037037,0)"
                     xlink:href="#L"/>
                <use transform="matrix(0.06172839506172839,0,0,0.06172839506172839,71.48148148148148,0)"
                     xlink:href="#N"/>
                <use transform="matrix(0.06172839506172839,0,0,0.06172839506172839,83.82716049382717,0)"
                     xlink:href="#N"/>
                <use transform="matrix(0.06172839506172839,0,0,0.06172839506172839,96.17283950617285,0)"
                     xlink:href="#P"/>
                <use transform="matrix(0.06172839506172839,0,0,0.06172839506172839,107.28395061728396,0)"
                     xlink:href="#Q"/>
            </g>
            <path fill="#000000" d="M30 0v-248h187v28H63v79h144v27H63v87h162V0H30" id="R"/>
            <g id="d">
                <use transform="matrix(0.06172839506172839,0,0,0.06172839506172839,0,0)" xlink:href="#R"/>
                <use transform="matrix(0.06172839506172839,0,0,0.06172839506172839,14.814814814814813,0)"
                     xlink:href="#H"/>
                <use transform="matrix(0.06172839506172839,0,0,0.06172839506172839,33.2716049382716,0)"
                     xlink:href="#I"/>
                <use transform="matrix(0.06172839506172839,0,0,0.06172839506172839,45.61728395061728,0)"
                     xlink:href="#O"/>
                <use transform="matrix(0.06172839506172839,0,0,0.06172839506172839,50.49382716049382,0)"
                     xlink:href="#G"/>
                <use transform="matrix(0.06172839506172839,0,0,0.06172839506172839,62.8395061728395,0)"
                     xlink:href="#L"/>
                <use transform="matrix(0.06172839506172839,0,0,0.06172839506172839,73.9506172839506,0)"
                     xlink:href="#N"/>
                <use transform="matrix(0.06172839506172839,0,0,0.06172839506172839,86.29629629629629,0)"
                     xlink:href="#N"/>
            </g>
            <path fill="#000000" d="M26 75v-336h71v23H56V52h41v23H26" id="S"/>
            <path fill="#000000" d="M27 0v-27h64v-190l-56 39v-29l58-41h29v221h61V0H27" id="T"/>
            <path fill="#000000" d="M33 0v-38h34V0H33" id="U"/>
            <path fill="#000000"
                  d="M80-196l47-18 7 23-49 13 32 44-20 13-27-46-27 45-21-12 33-44-49-13 8-23 47 19-2-53h23" id="V"/>
            <path fill="#000000" d="M3 75V52h41v-290H3v-23h71V75H3" id="W"/>
            <g id="e">
                <use transform="matrix(0.06172839506172839,0,0,0.06172839506172839,0,0)" xlink:href="#S"/>
                <use transform="matrix(0.06172839506172839,0,0,0.06172839506172839,6.172839506172839,0)"
                     xlink:href="#T"/>
                <use transform="matrix(0.06172839506172839,0,0,0.06172839506172839,18.51851851851852,0)"
                     xlink:href="#U"/>
                <use transform="matrix(0.06172839506172839,0,0,0.06172839506172839,24.691358024691358,0)"
                     xlink:href="#U"/>
                <use transform="matrix(0.06172839506172839,0,0,0.06172839506172839,30.864197530864196,0)"
                     xlink:href="#V"/>
                <use transform="matrix(0.06172839506172839,0,0,0.06172839506172839,39.50617283950617,0)"
                     xlink:href="#W"/>
            </g>
            <g id="f">
                <use transform="matrix(0.06172839506172839,0,0,0.06172839506172839,0,0)" xlink:href="#R"/>
                <use transform="matrix(0.06172839506172839,0,0,0.06172839506172839,14.814814814814813,0)"
                     xlink:href="#H"/>
                <use transform="matrix(0.06172839506172839,0,0,0.06172839506172839,33.2716049382716,0)"
                     xlink:href="#I"/>
                <use transform="matrix(0.06172839506172839,0,0,0.06172839506172839,45.61728395061728,0)"
                     xlink:href="#O"/>
                <use transform="matrix(0.06172839506172839,0,0,0.06172839506172839,50.49382716049382,0)"
                     xlink:href="#G"/>
                <use transform="matrix(0.06172839506172839,0,0,0.06172839506172839,62.8395061728395,0)"
                     xlink:href="#L"/>
                <use transform="matrix(0.06172839506172839,0,0,0.06172839506172839,73.9506172839506,0)"
                     xlink:href="#N"/>
                <use transform="matrix(0.06172839506172839,0,0,0.06172839506172839,86.29629629629629,0)"
                     xlink:href="#N"/>
            </g>
            <path fill="#000000"
                  d="M96-169c-40 0-48 33-48 73s9 75 48 75c24 0 41-14 43-38l32 2c-6 37-31 61-74 61-59 0-76-41-82-99-10-93 101-131 147-64 4 7 5 14 7 22l-32 3c-4-21-16-35-41-35"
                  id="X"/>
            <g id="g">
                <use transform="matrix(0.06172839506172839,0,0,0.06172839506172839,0,0)" xlink:href="#X"/>
                <use transform="matrix(0.06172839506172839,0,0,0.06172839506172839,11.11111111111111,0)"
                     xlink:href="#G"/>
                <use transform="matrix(0.06172839506172839,0,0,0.06172839506172839,23.45679012345679,0)"
                     xlink:href="#H"/>
                <use transform="matrix(0.06172839506172839,0,0,0.06172839506172839,41.91358024691358,0)"
                     xlink:href="#I"/>
                <use transform="matrix(0.06172839506172839,0,0,0.06172839506172839,54.25925925925926,0)"
                     xlink:href="#J"/>
                <use transform="matrix(0.06172839506172839,0,0,0.06172839506172839,66.60493827160494,0)"
                     xlink:href="#K"/>
                <use transform="matrix(0.06172839506172839,0,0,0.06172839506172839,78.95061728395062,0)"
                     xlink:href="#L"/>
                <use transform="matrix(0.06172839506172839,0,0,0.06172839506172839,90.06172839506173,0)"
                     xlink:href="#Q"/>
            </g>
            <g id="h">
                <use transform="matrix(0.06172839506172839,0,0,0.06172839506172839,0,0)" xlink:href="#F"/>
                <use transform="matrix(0.06172839506172839,0,0,0.06172839506172839,15.987654320987653,0)"
                     xlink:href="#G"/>
                <use transform="matrix(0.06172839506172839,0,0,0.06172839506172839,28.333333333333332,0)"
                     xlink:href="#H"/>
                <use transform="matrix(0.06172839506172839,0,0,0.06172839506172839,46.79012345679012,0)"
                     xlink:href="#I"/>
                <use transform="matrix(0.06172839506172839,0,0,0.06172839506172839,59.1358024691358,0)"
                     xlink:href="#J"/>
                <use transform="matrix(0.06172839506172839,0,0,0.06172839506172839,71.48148148148148,0)"
                     xlink:href="#K"/>
                <use transform="matrix(0.06172839506172839,0,0,0.06172839506172839,83.82716049382717,0)"
                     xlink:href="#L"/>
            </g>
            <g id="i">
                <use transform="matrix(0.06172839506172839,0,0,0.06172839506172839,0,0)" xlink:href="#S"/>
                <use transform="matrix(0.06172839506172839,0,0,0.06172839506172839,6.172839506172839,0)"
                     xlink:href="#T"/>
                <use transform="matrix(0.06172839506172839,0,0,0.06172839506172839,18.51851851851852,0)"
                     xlink:href="#W"/>
            </g>
            <path fill="#000000"
                  d="M84 4C-5 8 30-112 23-190h32v120c0 31 7 50 39 49 72-2 45-101 50-169h31l1 190h-30c-1-10 1-25-2-33-11 22-28 36-60 37"
                  id="Y"/>
            <path fill="#000000" d="M59-47c-2 24 18 29 38 22v24C64 9 27 4 27-40v-127H5v-23h24l9-43h21v43h35v23H59v120"
                  id="Z"/>
            <g id="j">
                <use transform="matrix(0.06172839506172839,0,0,0.06172839506172839,0,0)" xlink:href="#J"/>
                <use transform="matrix(0.06172839506172839,0,0,0.06172839506172839,12.345679012345679,0)"
                     xlink:href="#X"/>
                <use transform="matrix(0.06172839506172839,0,0,0.06172839506172839,23.45679012345679,0)"
                     xlink:href="#X"/>
                <use transform="matrix(0.06172839506172839,0,0,0.06172839506172839,34.5679012345679,0)"
                     xlink:href="#G"/>
                <use transform="matrix(0.06172839506172839,0,0,0.06172839506172839,46.913580246913575,0)"
                     xlink:href="#Y"/>
                <use transform="matrix(0.06172839506172839,0,0,0.06172839506172839,59.25925925925925,0)"
                     xlink:href="#K"/>
                <use transform="matrix(0.06172839506172839,0,0,0.06172839506172839,71.60493827160494,0)"
                     xlink:href="#Z"/>
                <use transform="matrix(0.06172839506172839,0,0,0.06172839506172839,77.77777777777777,0)"
                     xlink:href="#Q"/>
            </g>
            <path fill="#000000" d="M205 0l-28-72H64L36 0H1l101-248h38L239 0h-34zm-38-99l-47-123c-12 45-31 82-46 123h93"
                  id="aa"/>
            <g id="k">
                <use transform="matrix(0.06172839506172839,0,0,0.06172839506172839,0,0)" xlink:href="#aa"/>
                <use transform="matrix(0.06172839506172839,0,0,0.06172839506172839,14.814814814814813,0)"
                     xlink:href="#X"/>
                <use transform="matrix(0.06172839506172839,0,0,0.06172839506172839,25.925925925925924,0)"
                     xlink:href="#X"/>
                <use transform="matrix(0.06172839506172839,0,0,0.06172839506172839,37.03703703703704,0)"
                     xlink:href="#G"/>
                <use transform="matrix(0.06172839506172839,0,0,0.06172839506172839,49.382716049382715,0)"
                     xlink:href="#Y"/>
                <use transform="matrix(0.06172839506172839,0,0,0.06172839506172839,61.72839506172839,0)"
                     xlink:href="#K"/>
                <use transform="matrix(0.06172839506172839,0,0,0.06172839506172839,74.07407407407408,0)"
                     xlink:href="#Z"/>
            </g>
            <path fill="#000000"
                  d="M85-194c31 0 48 13 60 33l-1-100h32l1 261h-30c-2-10 0-23-3-31C134-8 116 4 85 4 32 4 16-35 15-94c0-66 23-100 70-100zm9 24c-40 0-46 34-46 75 0 40 6 74 45 74 42 0 51-32 51-76 0-42-9-74-50-73"
                  id="ab"/>
            <path fill="#000000" d="M114-163C36-179 61-72 57 0H25l-1-190h30c1 12-1 29 2 39 6-27 23-49 58-41v29"
                  id="ac"/>
            <g id="l">
                <use transform="matrix(0.06172839506172839,0,0,0.06172839506172839,0,0)" xlink:href="#J"/>
                <use transform="matrix(0.06172839506172839,0,0,0.06172839506172839,12.345679012345679,0)"
                     xlink:href="#ab"/>
                <use transform="matrix(0.06172839506172839,0,0,0.06172839506172839,24.691358024691358,0)"
                     xlink:href="#ab"/>
                <use transform="matrix(0.06172839506172839,0,0,0.06172839506172839,37.03703703703704,0)"
                     xlink:href="#ac"/>
                <use transform="matrix(0.06172839506172839,0,0,0.06172839506172839,44.382716049382715,0)"
                     xlink:href="#N"/>
                <use transform="matrix(0.06172839506172839,0,0,0.06172839506172839,56.72839506172839,0)"
                     xlink:href="#P"/>
                <use transform="matrix(0.06172839506172839,0,0,0.06172839506172839,67.8395061728395,0)"
                     xlink:href="#P"/>
                <use transform="matrix(0.06172839506172839,0,0,0.06172839506172839,78.95061728395062,0)"
                     xlink:href="#Q"/>
            </g>
            <g id="m">
                <use transform="matrix(0.06172839506172839,0,0,0.06172839506172839,0,0)" xlink:href="#aa"/>
                <use transform="matrix(0.06172839506172839,0,0,0.06172839506172839,14.814814814814813,0)"
                     xlink:href="#ab"/>
                <use transform="matrix(0.06172839506172839,0,0,0.06172839506172839,27.160493827160494,0)"
                     xlink:href="#ab"/>
                <use transform="matrix(0.06172839506172839,0,0,0.06172839506172839,39.50617283950617,0)"
                     xlink:href="#ac"/>
                <use transform="matrix(0.06172839506172839,0,0,0.06172839506172839,46.85185185185185,0)"
                     xlink:href="#N"/>
                <use transform="matrix(0.06172839506172839,0,0,0.06172839506172839,59.197530864197525,0)"
                     xlink:href="#P"/>
                <use transform="matrix(0.06172839506172839,0,0,0.06172839506172839,70.30864197530863,0)"
                     xlink:href="#P"/>
                <use transform="matrix(0.06172839506172839,0,0,0.06172839506172839,81.41975308641975,0)"
                     xlink:href="#S"/>
                <use transform="matrix(0.06172839506172839,0,0,0.06172839506172839,87.59259259259258,0)"
                     xlink:href="#T"/>
                <use transform="matrix(0.06172839506172839,0,0,0.06172839506172839,99.93827160493827,0)"
                     xlink:href="#W"/>
            </g>
            <g id="n">
                <use transform="matrix(0.06172839506172839,0,0,0.06172839506172839,0,0)" xlink:href="#aa"/>
                <use transform="matrix(0.06172839506172839,0,0,0.06172839506172839,14.814814814814813,0)"
                     xlink:href="#X"/>
                <use transform="matrix(0.06172839506172839,0,0,0.06172839506172839,25.925925925925924,0)"
                     xlink:href="#X"/>
                <use transform="matrix(0.06172839506172839,0,0,0.06172839506172839,37.03703703703704,0)"
                     xlink:href="#G"/>
                <use transform="matrix(0.06172839506172839,0,0,0.06172839506172839,49.382716049382715,0)"
                     xlink:href="#Y"/>
                <use transform="matrix(0.06172839506172839,0,0,0.06172839506172839,61.72839506172839,0)"
                     xlink:href="#K"/>
                <use transform="matrix(0.06172839506172839,0,0,0.06172839506172839,74.07407407407408,0)"
                     xlink:href="#Z"/>
            </g>
            <path fill="#000000"
                  d="M115-194c53 0 69 39 70 98 0 66-23 100-70 100C84 3 66-7 56-30L54 0H23l1-261h32v101c10-23 28-34 59-34zm-8 174c40 0 45-34 45-75 0-40-5-75-45-74-42 0-51 32-51 76 0 43 10 73 51 73"
                  id="ad"/>
            <g id="o">
                <use transform="matrix(0.06172839506172839,0,0,0.06172839506172839,0,0)" xlink:href="#ad"/>
                <use transform="matrix(0.06172839506172839,0,0,0.06172839506172839,12.345679012345679,0)"
                     xlink:href="#J"/>
                <use transform="matrix(0.06172839506172839,0,0,0.06172839506172839,24.691358024691358,0)"
                     xlink:href="#O"/>
                <use transform="matrix(0.06172839506172839,0,0,0.06172839506172839,29.5679012345679,0)"
                     xlink:href="#J"/>
                <use transform="matrix(0.06172839506172839,0,0,0.06172839506172839,41.913580246913575,0)"
                     xlink:href="#K"/>
                <use transform="matrix(0.06172839506172839,0,0,0.06172839506172839,54.25925925925925,0)"
                     xlink:href="#X"/>
                <use transform="matrix(0.06172839506172839,0,0,0.06172839506172839,65.37037037037037,0)"
                     xlink:href="#N"/>
                <use transform="matrix(0.06172839506172839,0,0,0.06172839506172839,77.71604938271605,0)"
                     xlink:href="#Q"/>
            </g>
            <path fill="#000000"
                  d="M240 0l2-218c-23 76-54 145-80 218h-23L58-218 59 0H30v-248h44l77 211c21-75 51-140 76-211h43V0h-30"
                  id="ae"/>
            <g id="p">
                <use transform="matrix(0.06172839506172839,0,0,0.06172839506172839,0,0)" xlink:href="#ae"/>
                <use transform="matrix(0.06172839506172839,0,0,0.06172839506172839,18.456790123456788,0)"
                     xlink:href="#G"/>
                <use transform="matrix(0.06172839506172839,0,0,0.06172839506172839,30.80246913580247,0)"
                     xlink:href="#K"/>
                <use transform="matrix(0.06172839506172839,0,0,0.06172839506172839,43.148148148148145,0)"
                     xlink:href="#N"/>
                <use transform="matrix(0.06172839506172839,0,0,0.06172839506172839,55.49382716049382,0)"
                     xlink:href="#L"/>
            </g>
            <path fill="#000000" d="M127-220V0H93v-220H8v-28h204v28h-85" id="af"/>
            <g id="q">
                <use transform="matrix(0.06172839506172839,0,0,0.06172839506172839,0,0)" xlink:href="#aa"/>
                <use transform="matrix(0.06172839506172839,0,0,0.06172839506172839,14.814814814814813,0)"
                     xlink:href="#ab"/>
                <use transform="matrix(0.06172839506172839,0,0,0.06172839506172839,27.160493827160494,0)"
                     xlink:href="#ab"/>
                <use transform="matrix(0.06172839506172839,0,0,0.06172839506172839,39.50617283950617,0)"
                     xlink:href="#ac"/>
                <use transform="matrix(0.06172839506172839,0,0,0.06172839506172839,46.85185185185185,0)"
                     xlink:href="#N"/>
                <use transform="matrix(0.06172839506172839,0,0,0.06172839506172839,59.197530864197525,0)"
                     xlink:href="#P"/>
                <use transform="matrix(0.06172839506172839,0,0,0.06172839506172839,70.30864197530863,0)"
                     xlink:href="#P"/>
                <use transform="matrix(0.06172839506172839,0,0,0.06172839506172839,81.41975308641975,0)"
                     xlink:href="#af"/>
                <use transform="matrix(0.06172839506172839,0,0,0.06172839506172839,93.7037037037037,0)"
                     xlink:href="#L"/>
                <use transform="matrix(0.06172839506172839,0,0,0.06172839506172839,104.81481481481481,0)"
                     xlink:href="#I"/>
                <use transform="matrix(0.06172839506172839,0,0,0.06172839506172839,117.1604938271605,0)"
                     xlink:href="#N"/>
            </g>
            <g id="r">
                <use transform="matrix(0.06172839506172839,0,0,0.06172839506172839,0,0)" xlink:href="#aa"/>
                <use transform="matrix(0.06172839506172839,0,0,0.06172839506172839,14.814814814814813,0)"
                     xlink:href="#ab"/>
                <use transform="matrix(0.06172839506172839,0,0,0.06172839506172839,27.160493827160494,0)"
                     xlink:href="#ab"/>
                <use transform="matrix(0.06172839506172839,0,0,0.06172839506172839,39.50617283950617,0)"
                     xlink:href="#ac"/>
                <use transform="matrix(0.06172839506172839,0,0,0.06172839506172839,46.85185185185185,0)"
                     xlink:href="#N"/>
                <use transform="matrix(0.06172839506172839,0,0,0.06172839506172839,59.197530864197525,0)"
                     xlink:href="#P"/>
                <use transform="matrix(0.06172839506172839,0,0,0.06172839506172839,70.30864197530863,0)"
                     xlink:href="#P"/>
            </g>
            <g id="s">
                <use transform="matrix(0.06172839506172839,0,0,0.06172839506172839,0,0)" xlink:href="#P"/>
                <use transform="matrix(0.06172839506172839,0,0,0.06172839506172839,11.11111111111111,0)"
                     xlink:href="#Z"/>
                <use transform="matrix(0.06172839506172839,0,0,0.06172839506172839,17.28395061728395,0)"
                     xlink:href="#ac"/>
                <use transform="matrix(0.06172839506172839,0,0,0.06172839506172839,24.629629629629626,0)"
                     xlink:href="#N"/>
                <use transform="matrix(0.06172839506172839,0,0,0.06172839506172839,36.9753086419753,0)"
                     xlink:href="#N"/>
                <use transform="matrix(0.06172839506172839,0,0,0.06172839506172839,49.32098765432098,0)"
                     xlink:href="#Z"/>
                <use transform="matrix(0.06172839506172839,0,0,0.06172839506172839,55.49382716049382,0)"
                     xlink:href="#Q"/>
            </g>
            <path fill="#000000"
                  d="M185-189c-5-48-123-54-124 2 14 75 158 14 163 119 3 78-121 87-175 55-17-10-28-26-33-46l33-7c5 56 141 63 141-1 0-78-155-14-162-118-5-82 145-84 179-34 5 7 8 16 11 25"
                  id="ag"/>
            <path fill="#000000" d="M24-231v-30h32v30H24zM24 0v-190h32V0H24" id="ah"/>
            <path fill="#000000"
                  d="M177-190C167-65 218 103 67 71c-23-6-38-20-44-43l32-5c15 47 100 32 89-28v-30C133-14 115 1 83 1 29 1 15-40 15-95c0-56 16-97 71-98 29-1 48 16 59 35 1-10 0-23 2-32h30zM94-22c36 0 50-32 50-73 0-42-14-75-50-75-39 0-46 34-46 75s6 73 46 73"
                  id="ai"/>
            <g id="t">
                <use transform="matrix(0.06172839506172839,0,0,0.06172839506172839,0,0)" xlink:href="#ag"/>
                <use transform="matrix(0.06172839506172839,0,0,0.06172839506172839,14.814814814814813,0)"
                     xlink:href="#Z"/>
                <use transform="matrix(0.06172839506172839,0,0,0.06172839506172839,20.98765432098765,0)"
                     xlink:href="#ac"/>
                <use transform="matrix(0.06172839506172839,0,0,0.06172839506172839,28.33333333333333,0)"
                     xlink:href="#ah"/>
                <use transform="matrix(0.06172839506172839,0,0,0.06172839506172839,33.20987654320987,0)"
                     xlink:href="#K"/>
                <use transform="matrix(0.06172839506172839,0,0,0.06172839506172839,45.55555555555555,0)"
                     xlink:href="#ai"/>
            </g>
            <g id="u">
                <use transform="matrix(0.06172839506172839,0,0,0.06172839506172839,0,0)" xlink:href="#X"/>
                <use transform="matrix(0.06172839506172839,0,0,0.06172839506172839,11.11111111111111,0)"
                     xlink:href="#ah"/>
                <use transform="matrix(0.06172839506172839,0,0,0.06172839506172839,15.987654320987653,0)"
                     xlink:href="#Z"/>
                <use transform="matrix(0.06172839506172839,0,0,0.06172839506172839,22.160493827160494,0)"
                     xlink:href="#L"/>
                <use transform="matrix(0.06172839506172839,0,0,0.06172839506172839,33.27160493827161,0)"
                     xlink:href="#Q"/>
            </g>
            <g id="v">
                <use transform="matrix(0.06172839506172839,0,0,0.06172839506172839,0,0)" xlink:href="#X"/>
                <use transform="matrix(0.06172839506172839,0,0,0.06172839506172839,11.11111111111111,0)"
                     xlink:href="#G"/>
                <use transform="matrix(0.06172839506172839,0,0,0.06172839506172839,23.45679012345679,0)"
                     xlink:href="#Y"/>
                <use transform="matrix(0.06172839506172839,0,0,0.06172839506172839,35.80246913580247,0)"
                     xlink:href="#K"/>
                <use transform="matrix(0.06172839506172839,0,0,0.06172839506172839,48.148148148148145,0)"
                     xlink:href="#Z"/>
                <use transform="matrix(0.06172839506172839,0,0,0.06172839506172839,54.32098765432099,0)"
                     xlink:href="#ac"/>
                <use transform="matrix(0.06172839506172839,0,0,0.06172839506172839,61.666666666666664,0)"
                     xlink:href="#L"/>
                <use transform="matrix(0.06172839506172839,0,0,0.06172839506172839,72.77777777777777,0)"
                     xlink:href="#Q"/>
            </g>
            <g id="w">
                <use transform="matrix(0.06172839506172839,0,0,0.06172839506172839,0,0)" xlink:href="#ag"/>
                <use transform="matrix(0.06172839506172839,0,0,0.06172839506172839,14.814814814814813,0)"
                     xlink:href="#Z"/>
                <use transform="matrix(0.06172839506172839,0,0,0.06172839506172839,20.98765432098765,0)"
                     xlink:href="#ac"/>
                <use transform="matrix(0.06172839506172839,0,0,0.06172839506172839,28.33333333333333,0)"
                     xlink:href="#ah"/>
                <use transform="matrix(0.06172839506172839,0,0,0.06172839506172839,33.20987654320987,0)"
                     xlink:href="#K"/>
                <use transform="matrix(0.06172839506172839,0,0,0.06172839506172839,45.55555555555555,0)"
                     xlink:href="#ai"/>
            </g>
            <g id="x">
                <use transform="matrix(0.049382716049382706,0,0,0.049382716049382706,0,0)" xlink:href="#aa"/>
                <use transform="matrix(0.049382716049382706,0,0,0.049382716049382706,11.85185185185185,0)"
                     xlink:href="#ab"/>
                <use transform="matrix(0.049382716049382706,0,0,0.049382716049382706,21.728395061728392,0)"
                     xlink:href="#ab"/>
                <use transform="matrix(0.049382716049382706,0,0,0.049382716049382706,31.604938271604933,0)"
                     xlink:href="#ac"/>
                <use transform="matrix(0.049382716049382706,0,0,0.049382716049382706,37.481481481481474,0)"
                     xlink:href="#N"/>
                <use transform="matrix(0.049382716049382706,0,0,0.049382716049382706,47.35802469135801,0)"
                     xlink:href="#P"/>
                <use transform="matrix(0.049382716049382706,0,0,0.049382716049382706,56.24691358024689,0)"
                     xlink:href="#P"/>
                <use transform="matrix(0.049382716049382706,0,0,0.049382716049382706,65.13580246913578,0)"
                     xlink:href="#af"/>
                <use transform="matrix(0.049382716049382706,0,0,0.049382716049382706,74.96296296296293,0)"
                     xlink:href="#L"/>
                <use transform="matrix(0.049382716049382706,0,0,0.049382716049382706,83.85185185185182,0)"
                     xlink:href="#I"/>
                <use transform="matrix(0.049382716049382706,0,0,0.049382716049382706,93.72839506172836,0)"
                     xlink:href="#N"/>
            </g>
            <path fill="#000000"
                  d="M156-25L96-89v-11l60-65h29v5l-59 66 60 64v5h-30zm-82 0L15-89v-11l59-65h29v5L44-94l59 64v5H74"
                  id="aj"/>
            <path fill="#000000" d="M126-25H97v-5l59-64-59-66v-5h29l60 65v11zm-82 0H15v-5l59-64-59-66v-5h29l59 65v11"
                  id="ak"/>
            <g id="y">
                <use transform="matrix(0.06172839506172839,0,0,0.06172839506172839,0,0)" xlink:href="#aj"/>
                <use transform="matrix(0.06172839506172839,0,0,0.06172839506172839,12.345679012345679,0)"
                     xlink:href="#Y"/>
                <use transform="matrix(0.06172839506172839,0,0,0.06172839506172839,24.691358024691358,0)"
                     xlink:href="#P"/>
                <use transform="matrix(0.06172839506172839,0,0,0.06172839506172839,35.80246913580247,0)"
                     xlink:href="#N"/>
                <use transform="matrix(0.06172839506172839,0,0,0.06172839506172839,48.148148148148145,0)"
                     xlink:href="#ak"/>
            </g>
            <use transform="matrix(0.049382716049382706,0,0,0.049382716049382706,0,0)" xlink:href="#T" id="z"/>
            <g id="A">
                <use transform="matrix(0.049382716049382706,0,0,0.049382716049382706,0,0)" xlink:href="#T"/>
                <use transform="matrix(0.049382716049382706,0,0,0.049382716049382706,9.87654320987654,0)"
                     xlink:href="#U"/>
                <use transform="matrix(0.049382716049382706,0,0,0.049382716049382706,14.814814814814811,0)"
                     xlink:href="#U"/>
                <use transform="matrix(0.049382716049382706,0,0,0.049382716049382706,19.75308641975308,0)"
                     xlink:href="#V"/>
            </g>
            <use transform="matrix(0.049382716049382706,0,0,0.049382716049382706,0,0)" xlink:href="#T" id="B"/>
            <use transform="matrix(0.049382716049382706,0,0,0.049382716049382706,0,0)" xlink:href="#T" id="C"/>
            <path d="M33 0v-38h34V0H33" id="al"/>
            <path d="M80-196l47-18 7 23-49 13 32 44-20 13-27-46-27 45-21-12 33-44-49-13 8-23 47 19-2-53h23" id="am"/>
            <g id="D">
                <use transform="matrix(0.05925925925925927,0,0,0.05925925925925927,0,0)" xlink:href="#al"/>
                <use transform="matrix(0.05925925925925927,0,0,0.05925925925925927,5.9259259259259265,0)"
                     xlink:href="#al"/>
                <use transform="matrix(0.05925925925925927,0,0,0.05925925925925927,11.851851851851853,0)"
                     xlink:href="#am"/>
            </g>
            <path fill="#000000" d="M206 0h-36l-40-164L89 0H53L-1-190h32L70-26l43-164h34l41 164 42-164h31" id="an"/>
            <g id="E">
                <use transform="matrix(0.049382716049382706,0,0,0.049382716049382706,0,0)" xlink:href="#G"/>
                <use transform="matrix(0.049382716049382706,0,0,0.049382716049382706,9.87654320987654,0)"
                     xlink:href="#an"/>
                <use transform="matrix(0.049382716049382706,0,0,0.049382716049382706,22.666666666666664,0)"
                     xlink:href="#K"/>
                <use transform="matrix(0.049382716049382706,0,0,0.049382716049382706,32.5432098765432,0)"
                     xlink:href="#N"/>
                <use transform="matrix(0.049382716049382706,0,0,0.049382716049382706,42.419753086419746,0)"
                     xlink:href="#ac"/>
            </g>
        </defs>
    </g>
</svg>