<svg xmlns="http://www.w3.org/2000/svg" xmlns:xlink="http://www.w3.org/1999/xlink" width="200"
     height="160">
    <g transform="translate(-740 -420)" >
        <path d="M920 500c0 33.14-35.82 60-80 60s-80-26.86-80-60 35.82-60 80-60 80 26.86 80 60z" stroke="#000"
              fill-opacity="0"/>
        <use xlink:href="#a" transform="matrix(1,0,0,1,760,440) translate(40.555 63.15)"/>
        <use xlink:href="#b" transform="matrix(1,0,0,1,760,440) translate(77.505 63.15)"/>
        <defs>
            <path d="M232-93c-1 65-40 97-104 97C67 4 28-28 28-90v-158h33c8 89-33 224 67 224 102 0 64-133 71-224h33v155"
                  id="c"/>
            <path d="M135-143c-3-34-86-38-87 0 15 53 115 12 119 90S17 21 10-45l28-5c4 36 97 45 98 0-10-56-113-15-118-90-4-57 82-63 122-42 12 7 21 19 24 35"
                  id="d"/>
            <path d="M100-194c63 0 86 42 84 106H49c0 40 14 67 53 68 26 1 43-12 49-29l28 8c-11 28-37 45-77 45C44 4 14-33 15-96c1-61 26-98 85-98zm52 81c6-60-76-77-97-28-3 7-6 17-6 28h103"
                  id="e"/>
            <g id="a">
                <use transform="matrix(0.05,0,0,0.05,0,0)" xlink:href="#c"/>
                <use transform="matrix(0.05,0,0,0.05,12.950000000000001,0)" xlink:href="#d"/>
                <use transform="matrix(0.05,0,0,0.05,21.950000000000003,0)" xlink:href="#e"/>
            </g>
            <path d="M212-179c-10-28-35-45-73-45-59 0-87 40-87 99 0 60 29 101 89 101 43 0 62-24 78-52l27 14C228-24 195 4 139 4 59 4 22-46 18-125c-6-104 99-153 187-111 19 9 31 26 39 46"
                  id="f"/>
            <path d="M141-36C126-15 110 5 73 4 37 3 15-17 15-53c-1-64 63-63 125-63 3-35-9-54-41-54-24 1-41 7-42 31l-33-3c5-37 33-52 76-52 45 0 72 20 72 64v82c-1 20 7 32 28 27v20c-31 9-61-2-59-35zM48-53c0 20 12 33 32 33 41-3 63-29 60-74-43 2-92-5-92 41"
                  id="g"/>
            <g id="b">
                <use transform="matrix(0.05,0,0,0.05,0,0)" xlink:href="#f"/>
                <use transform="matrix(0.05,0,0,0.05,12.950000000000001,0)" xlink:href="#g"/>
                <use transform="matrix(0.05,0,0,0.05,22.950000000000003,0)" xlink:href="#d"/>
                <use transform="matrix(0.05,0,0,0.05,31.950000000000003,0)" xlink:href="#e"/>
            </g>
        </defs>
    </g>
</svg>