<svg xmlns="http://www.w3.org/2000/svg" xmlns:xlink="http://www.w3.org/1999/xlink"  width="500"
     height="440">
    <g transform="translate(-300 -180)">
        <path d="M360 380c0 11.05-8.95 20-20 20s-20-8.95-20-20 8.95-20 20-20 20 8.95 20 20z" stroke="#000" fill="#fff"/>
        <use xlink:href="#a" transform="matrix(1,0,0,1,325,365) translate(5.128456790123456 19.65277777777778)"/>
        <path d="M360 500c0 11.05-8.95 20-20 20s-20-8.95-20-20 8.95-20 20-20 20 8.95 20 20z" stroke="#000" fill="#fff"/>
        <use xlink:href="#b" transform="matrix(1,0,0,1,325,485) translate(5.128456790123456 19.65277777777778)"/>
        <path d="M500 501.54c0 11.04-8.95 20-20 20s-20-8.96-20-20c0-11.05 8.95-20 20-20s20 8.95 20 20z" stroke="#000"
              fill="#fff"/>
        <use xlink:href="#c"
             transform="matrix(1,0,0,1,465,486.537792274549) translate(5.128456790123456 19.65277777777778)"/>
        <path d="M500 380c0 11.05-8.95 20-20 20s-20-8.95-20-20 8.95-20 20-20 20 8.95 20 20z" stroke="#000" fill="#fff"/>
        <use xlink:href="#d" transform="matrix(1,0,0,1,465,365) translate(5.128456790123456 19.65277777777778)"/>
        <path d="M340 401v78" stroke="#000" fill="none"/>
        <path d="M339.98 400.5l.52-.02v.53h-1v-.56zM340.5 479.56l-.48-.06-.52.02V479h1z" stroke="#000"
              stroke-width=".05"/>
        <path d="M360.8 501.54H459" stroke="#000" fill="none"/>
        <path d="M360.82 502.04h-.57l.12-1h.45zM459.5 501.5l.02.54H459v-1h.56z" stroke="#000" stroke-width=".05"/>
        <path d="M354.4 364.7L545.36 235" stroke="#000" fill="none"/>
        <path d="M354.68 365.12l-.38.26-.33-.38-.43-.32.58-.4zM546.03 235l.1.08-.5.34-.55-.83.38-.27z" stroke="#000"
              stroke-width=".05"/>
        <path d="M480 401v79.54" stroke="#000" fill="none"/>
        <path d="M479.98 400.5l.52-.02v.53h-1v-.56zM480.5 481.1l-.48-.06h-.52v-.52h1z" stroke="#000"
              stroke-width=".05"/>
        <path d="M585.33 448c0 11.05-8.95 20-20 20-11.04 0-20-8.95-20-20s8.96-20 20-20c11.05 0 20 8.95 20 20z"
              stroke="#000" fill="#fff"/>
        <use xlink:href="#e"
             transform="matrix(1,0,0,1,550.3333333333333,433) translate(5.128456790123456 19.65277777777778)"/>
        <path d="M580 580c0 11.05-8.95 20-20 20s-20-8.95-20-20 8.95-20 20-20 20 8.95 20 20z" stroke="#000" fill="#fff"/>
        <use xlink:href="#f" transform="matrix(1,0,0,1,545,565) translate(5.128456790123456 19.65277777777778)"/>
        <path d="M780 580c0 11.05-8.95 20-20 20s-20-8.95-20-20 8.95-20 20-20 20 8.95 20 20z" stroke="#000" fill="#fff"/>
        <use xlink:href="#g" transform="matrix(1,0,0,1,745,565) translate(5.128456790123456 19.65277777777778)"/>
        <path d="M780 420c0 11.05-8.95 20-20 20s-20-8.95-20-20 8.95-20 20-20 20 8.95 20 20z" stroke="#000" fill="#fff"/>
        <use xlink:href="#h" transform="matrix(1,0,0,1,745,405) translate(5.128456790123456 19.65277777777778)"/>
        <path d="M565.3 469l-5.27 90" stroke="#000" fill="none"/>
        <path d="M565.3 468.5l.54-.02-.04.56-1-.06.04-.54zM560.53 559.02l-.03.54-.48-.06-.52.02.03-.56z" stroke="#000"
              stroke-width=".05"/>
        <path d="M580.8 581.53L739 580" stroke="#000" fill="none"/>
        <path d="M580.83 582.03h-.58l.12-1h.45zM739.5 579.98l.02.52H739l-.02-1h.58z" stroke="#000" stroke-width=".05"/>
        <path d="M586.04 445.24l153.3-27.82" stroke="#000" fill="none"/>
        <path d="M586.14 445.73l-.5.1-.2-1 .52-.08zM739.76 417.85l-.35.07-.16-1 .65-.1z" stroke="#000"
              stroke-width=".05"/>
        <path d="M760 441v118" stroke="#000" fill="none"/>
        <path d="M759.98 440.5l.52-.02v.53h-1v-.56zM760.5 559.56l-.48-.06-.52.02V559h1z" stroke="#000"
              stroke-width=".05"/>
        <path d="M580 220c0 11.05-8.95 20-20 20s-20-8.95-20-20 8.95-20 20-20 20 8.95 20 20z" stroke="#000" fill="#fff"/>
        <use xlink:href="#i" transform="matrix(1,0,0,1,545,205) translate(1.3908024691358032 19.65277777777778)"/>
        <path d="M580 340c0 11.05-8.95 20-20 20s-20-8.95-20-20 8.95-20 20-20 20 8.95 20 20z" stroke="#000" fill="#fff"/>
        <use xlink:href="#j" transform="matrix(1,0,0,1,545,325) translate(0.80246913580247 19.444444444444443)"/>
        <path d="M700 280c0 11.05-8.95 20-20 20s-20-8.95-20-20 8.95-20 20-20 20 8.95 20 20z" stroke="#000" fill="#fff"/>
        <use xlink:href="#k" transform="matrix(1,0,0,1,665,265) translate(5.128456790123456 19.65277777777778)"/>
        <path d="M780 220c0 11.05-8.95 20-20 20s-20-8.95-20-20 8.95-20 20-20 20 8.95 20 20z" stroke="#000" fill="#fff"/>
        <use xlink:href="#l" transform="matrix(1,0,0,1,745,205) translate(5.128456790123456 19.65277777777778)"/>
        <path d="M560 241v78" stroke="#000" fill="none"/>
        <path d="M559.98 240.5l.52-.02v.53h-1v-.56zM560.5 319.56l-.48-.06-.52.02V319h1z" stroke="#000"
              stroke-width=".05"/>
        <path d="M580.74 341.28l81.77-49.7" stroke="#000" fill="none"/>
        <path d="M581 341.7l-.77.47.16-1.27.1-.06zM662.73 291.06l.53.63-.5.3-.52-.86.4-.25z" stroke="#000"
              stroke-width=".05"/>
        <path d="M580.7 217.33h158.63" stroke="#000" fill="none"/>
        <path d="M580.73 217.83h-.42l-.18-1h.6zM739.77 217.83h-.45v-1h.57z" stroke="#000" stroke-width=".05"/>
        <path d="M745.38 235l-47.9 33.4" stroke="#000" fill="none"/>
        <path d="M746.03 235l.1.08-.48.34-.57-.82.38-.27zM697.77 268.8l-.42.3-.08-.16-.53-.63.46-.3z" stroke="#000"
              stroke-width=".05"/>
        <path d="M361 380h98" stroke="#000" fill="none"/>
        <path d="M361 380.5h-.56l.06-.48-.02-.52h.53zM459.5 379.98l.02.52H459v-1h.56z" stroke="#000"
              stroke-width=".05"/>
        <path d="M484.1 521.9l55.35 55.33" stroke="#000" fill="none"/>
        <path d="M484.47 521.55l-.7.7-.6-.6 1.17-.23zM539.88 576.95l-.16 1.26-.64-.63.7-.7z" stroke="#000"
              stroke-width=".05"/>
        <path d="M575.47 354.16l163.57 65.65" stroke="#000" fill="none"/>
        <path d="M575.67 353.7l-.38.93-.73-.3.43-.36.3-.4zM739.56 419.5l-.06.48.02.57-.68-.28.37-.92z" stroke="#000"
              stroke-width=".05"/>
        <path d="M760 241v158" stroke="#000" fill="none"/>
        <path d="M759.98 240.5l.52-.02v.53h-1v-.56zM760.5 399.56l-.48-.06-.52.02V399h1z" stroke="#000"
              stroke-width=".05"/>
        <path d="M495.42 394.26l55.62 38.54" stroke="#000" fill="none"/>
        <path d="M495.7 393.85l-.56.83-.53-.37.4-.33.3-.4zM551.85 432.75l-.8.67-.3-.2.57-.84z" stroke="#000"
              stroke-width=".05"/>
        <path d="M494.46 364.9l51.08-9.8" stroke="#000" fill="none"/>
        <path d="M494.57 365.4l-.23.03-.37-.44-.55-.4.96-.2zM546.03 355l.55.4-.96.2-.2-1 .24-.03z" stroke="#000"
              stroke-width=".05"/>
        <path d="M355.47 486l108.73-92.4" stroke="#000" fill="none"/>
        <path d="M355.8 486.38l-.4.33-.63-.75.4-.33zM464.9 393.66l-.4.33-.63-.78.4-.33z" stroke="#000"
              stroke-width=".05"/>
        <path d="M746.64 404.02L694.8 294.77" stroke="#000" fill="none"/>
        <path d="M747.25 404.14l-.8.66-.27-.58.9-.43zM695.26 294.57l-.9.43-.17-.35.78-.66z" stroke="#000"
              stroke-width=".05"/>
        <path d="M745.9 564.64L581.45 461.3" stroke="#000" fill="none"/>
        <path d="M746.73 564.57l-.8.68-.3-.2.53-.83zM581.72 460.88l-.54.85-.46-.3.6-.8z" stroke="#000"
              stroke-width=".05"/>
        <defs>
            <path fill="#3a414a" d="M141 0L90-78 38 0H4l68-98-65-92h35l48 74 47-74h35l-64 92 68 98h-35" id="m"/>
            <path fill="#3a414a"
                  d="M101-251c68 0 85 55 85 127S166 4 100 4C33 4 14-52 14-124c0-73 17-127 87-127zm-1 229c47 0 54-49 54-102s-4-102-53-102c-51 0-55 48-55 102 0 53 5 102 54 102"
                  id="n"/>
            <g id="a">
                <use transform="matrix(0.06172839506172839,0,0,0.06172839506172839,0,0)" xlink:href="#m"/>
                <use transform="matrix(0.043209876543209874,0,0,0.043209876543209874,11.11111111111111,3.1111111111111107)"
                     xlink:href="#n"/>
            </g>
            <path fill="#3a414a" d="M27 0v-27h64v-190l-56 39v-29l58-41h29v221h61V0H27" id="o"/>
            <g id="b">
                <use transform="matrix(0.06172839506172839,0,0,0.06172839506172839,0,0)" xlink:href="#m"/>
                <use transform="matrix(0.043209876543209874,0,0,0.043209876543209874,11.11111111111111,3.1111111111111107)"
                     xlink:href="#o"/>
            </g>
            <path fill="#3a414a"
                  d="M101-251c82-7 93 87 43 132L82-64C71-53 59-42 53-27h129V0H18c2-99 128-94 128-182 0-28-16-43-45-43s-46 15-49 41l-32-3c6-41 34-60 81-64"
                  id="p"/>
            <g id="c">
                <use transform="matrix(0.06172839506172839,0,0,0.06172839506172839,0,0)" xlink:href="#m"/>
                <use transform="matrix(0.043209876543209874,0,0,0.043209876543209874,11.11111111111111,3.1111111111111107)"
                     xlink:href="#p"/>
            </g>
            <path fill="#3a414a"
                  d="M126-127c33 6 58 20 58 59 0 88-139 92-164 29-3-8-5-16-6-25l32-3c6 27 21 44 54 44 32 0 52-15 52-46 0-38-36-46-79-43v-28c39 1 72-4 72-42 0-27-17-43-46-43-28 0-47 15-49 41l-32-3c6-42 35-63 81-64 48-1 79 21 79 65 0 36-21 52-52 59"
                  id="q"/>
            <g id="d">
                <use transform="matrix(0.06172839506172839,0,0,0.06172839506172839,0,0)" xlink:href="#m"/>
                <use transform="matrix(0.043209876543209874,0,0,0.043209876543209874,11.11111111111111,3.1111111111111107)"
                     xlink:href="#q"/>
            </g>
            <path fill="#3a414a"
                  d="M155-56V0h-30v-56H8v-25l114-167h33v167h35v25h-35zm-30-156c-27 46-58 90-88 131h88v-131" id="r"/>
            <g id="e">
                <use transform="matrix(0.06172839506172839,0,0,0.06172839506172839,0,0)" xlink:href="#m"/>
                <use transform="matrix(0.043209876543209874,0,0,0.043209876543209874,11.11111111111111,3.1111111111111107)"
                     xlink:href="#r"/>
            </g>
            <path fill="#3a414a"
                  d="M54-142c48-35 137-8 131 61C196 18 31 33 14-55l32-4c7 23 22 37 52 37 35-1 51-22 54-58 4-55-73-65-99-34H22l8-134h141v27H59"
                  id="s"/>
            <g id="f">
                <use transform="matrix(0.06172839506172839,0,0,0.06172839506172839,0,0)" xlink:href="#m"/>
                <use transform="matrix(0.043209876543209874,0,0,0.043209876543209874,11.11111111111111,3.1111111111111107)"
                     xlink:href="#s"/>
            </g>
            <path fill="#3a414a"
                  d="M110-160c48 1 74 30 74 79 0 53-28 85-80 85-65 0-83-55-86-122-5-90 50-162 133-122 14 7 22 21 27 39l-31 6c-5-40-67-38-82-6-9 19-15 44-15 74 11-20 30-34 60-33zm-7 138c34 0 49-23 49-58s-16-56-50-56c-29 0-50 16-49 49 1 36 15 65 50 65"
                  id="t"/>
            <g id="g">
                <use transform="matrix(0.06172839506172839,0,0,0.06172839506172839,0,0)" xlink:href="#m"/>
                <use transform="matrix(0.043209876543209874,0,0,0.043209876543209874,11.11111111111111,3.1111111111111107)"
                     xlink:href="#t"/>
            </g>
            <path fill="#3a414a" d="M64 0c3-98 48-159 88-221H18v-27h164v26C143-157 98-101 97 0H64" id="u"/>
            <g id="h">
                <use transform="matrix(0.06172839506172839,0,0,0.06172839506172839,0,0)" xlink:href="#m"/>
                <use transform="matrix(0.043209876543209874,0,0,0.043209876543209874,11.11111111111111,3.1111111111111107)"
                     xlink:href="#u"/>
            </g>
            <g id="i">
                <use transform="matrix(0.06172839506172839,0,0,0.06172839506172839,0,0)" xlink:href="#m"/>
                <use transform="matrix(0.043209876543209874,0,0,0.043209876543209874,11.11111111111111,3.1111111111111107)"
                     xlink:href="#o"/>
                <use transform="matrix(0.043209876543209874,0,0,0.043209876543209874,18.586419753086417,3.1111111111111107)"
                     xlink:href="#o"/>
            </g>
            <g id="j">
                <use transform="matrix(0.06172839506172839,0,0,0.06172839506172839,0,0)" xlink:href="#m"/>
                <use transform="matrix(0.043209876543209874,0,0,0.043209876543209874,11.11111111111111,3.1111111111111107)"
                     xlink:href="#o"/>
                <use transform="matrix(0.043209876543209874,0,0,0.043209876543209874,19.753086419753085,3.1111111111111107)"
                     xlink:href="#n"/>
            </g>
            <path fill="#3a414a"
                  d="M99-251c64 0 84 50 84 122C183-37 130 33 47-8c-14-7-20-23-25-40l30-5c6 39 69 39 84 7 9-19 16-44 16-74-10 22-31 35-62 35-49 0-73-33-73-83 0-54 28-83 82-83zm-1 141c31-1 51-18 51-49 0-36-14-67-51-67-34 0-49 23-49 58 0 34 15 58 49 58"
                  id="v"/>
            <g id="k">
                <use transform="matrix(0.06172839506172839,0,0,0.06172839506172839,0,0)" xlink:href="#m"/>
                <use transform="matrix(0.043209876543209874,0,0,0.043209876543209874,11.11111111111111,3.1111111111111107)"
                     xlink:href="#v"/>
            </g>
            <path fill="#3a414a"
                  d="M134-131c28 9 52 24 51 62-1 50-34 73-85 73S17-19 16-69c0-36 21-54 49-61-75-25-45-126 34-121 46 3 78 18 79 63 0 33-17 51-44 57zm-34-11c31 1 46-15 46-44 0-28-17-43-47-42-29 0-46 13-45 42 1 28 16 44 46 44zm1 122c35 0 51-18 51-52 0-30-18-46-53-46-33 0-51 17-51 47 0 34 19 51 53 51"
                  id="w"/>
            <g id="l">
                <use transform="matrix(0.06172839506172839,0,0,0.06172839506172839,0,0)" xlink:href="#m"/>
                <use transform="matrix(0.043209876543209874,0,0,0.043209876543209874,11.11111111111111,3.1111111111111107)"
                     xlink:href="#w"/>
            </g>
        </defs>
    </g>
</svg>