<svg xmlns="http://www.w3.org/2000/svg" xmlns:xlink="http://www.w3.org/1999/xlink" width="500"
     height="524.33">
    <g transform="translate(0 -101.66666666666663)">
        <path d="M320 127.67a6 6 0 0 1 6-6h148a6 6 0 0 1 6 6v114a6 6 0 0 1-6 6H326a6 6 0 0 1-6-6z" stroke="#000000"
              fill-opacity="0"/>
        <use xlink:href="#a"
             transform="matrix(1,0,0,1,328,129.66666666666663) translate(24.53086419753086 59.44444444444444)"/>
        <path d="M20 280a6 6 0 0 1 6-6h148a6 6 0 0 1 6 6v114a6 6 0 0 1-6 6H26a6 6 0 0 1-6-6z" stroke="#000000"
              fill-opacity="0"/>
        <use xlink:href="#b" transform="matrix(1,0,0,1,28,282) translate(31.290123456790127 59.44444444444444)"/>
        <path d="M100.5 272.6h-1v-7.47h1zm41.7-87.43h-41.7v58.63h-1v-59.63h42.7z" stroke="#000000" stroke-width=".05"
              fill="#000000"/>
        <path d="M100 273.5l-4.95-8.37h1.17l3.78 6.4 3.78-6.4h1.17z" stroke="#000000" stroke-width=".05"
              fill="#000000"/>
        <path d="M142.7 184.67l.06.5h-.56v-1h.56z" fill="#000000"/>
        <path d="M142.73 184.67l.06.52h-.63v-1.06h.62zm-.5-.48v.94h.5l-.05-.47.05-.48z" stroke="#000000"
              stroke-width=".05" fill="#000000"/>
        <use xlink:href="#c"
             transform="matrix(1,0,0,1,86.66666666666666,243.80156555233302) translate(0 14.222222222222223)"/>
        <path d="M165 168a9 9 0 0 1 10 0l20 13.34a4 4 0 0 1 0 6.66l-20 13.34a9 9 0 0 1-10 0L145 188a4 4 0 0 1 0-6.66z"
              stroke="#000000"/>
        <path d="M320 486a6 6 0 0 1 6-6h148a6 6 0 0 1 6 6v114a6 6 0 0 1-6 6H326a6 6 0 0 1-6-6z" stroke="#000000"
              fill-opacity="0"/>
        <use xlink:href="#d"
             transform="matrix(1,0,0,1,328,487.9999999999999) translate(22.679012345679013 59.44444444444444)"/>
        <path d="M100.5 542.5h161.86v1H99.5v-95.77h1zm0-116.1h-1v-25h1z" stroke="#000000" stroke-width=".05"
              fill="#000000"/>
        <path d="M110.6 418.44l-.85.5-9.75-16.48-9.75 16.5-.86-.52L100 400.5z" stroke="#000000" stroke-width=".05"
              fill="#000000"/>
        <path d="M262.86 543l.05.5h-.56v-1h.57z" fill="#000000"/>
        <path d="M262.88 543l.05.52h-.6v-1.04h.6zm-.5-.48v.96h.5l-.05-.48.05-.48z" stroke="#000000" stroke-width=".05"
              fill="#000000"/>
        <use xlink:href="#e"
             transform="matrix(1,0,0,1,95.06172839506172,426.3946770085079) translate(0 14.222222222222223)"/>
        <path d="M284.9 527.73a9.78 9.78 0 0 1 10.2 0l19.8 12.13a3.68 3.68 0 0 1 0 6.28l-19.8 12.13a9.78 9.78 0 0 1-10.2 0l-19.8-12.13a3.68 3.68 0 0 1 0-6.28z"
              stroke="#000000"/>
        <path d="M200 170.67a6 6 0 0 1 6-6h108a6 6 0 0 1 6 6v28a6 6 0 0 1-6 6H206a6 6 0 0 1-6-6z" stroke="#000000"
              fill-opacity="0"/>
        <use xlink:href="#f"
             transform="matrix(1,0,0,1,205,169.66666666666663) translate(3.197530864197546 17.97222222222222)"/>
        <defs>
            <path fill="#000000"
                  d="M212-179c-10-28-35-45-73-45-59 0-87 40-87 99 0 60 29 101 89 101 43 0 62-24 78-52l27 14C228-24 195 4 139 4 59 4 22-46 18-125c-6-104 99-153 187-111 19 9 31 26 39 46"
                  id="g"/>
            <path fill="#000000"
                  d="M100-194c62-1 85 37 85 99 1 63-27 99-86 99S16-35 15-95c0-66 28-99 85-99zM99-20c44 1 53-31 53-75 0-43-8-75-51-75s-53 32-53 75 10 74 51 75"
                  id="h"/>
            <path fill="#000000"
                  d="M210-169c-67 3-38 105-44 169h-31v-121c0-29-5-50-35-48C34-165 62-65 56 0H25l-1-190h30c1 10-1 24 2 32 10-44 99-50 107 0 11-21 27-35 58-36 85-2 47 119 55 194h-31v-121c0-29-5-49-35-48"
                  id="i"/>
            <path fill="#000000"
                  d="M115-194c55 1 70 41 70 98S169 2 115 4C84 4 66-9 55-30l1 105H24l-1-265h31l2 30c10-21 28-34 59-34zm-8 174c40 0 45-34 45-75s-6-73-45-74c-42 0-51 32-51 76 0 43 10 73 51 73"
                  id="j"/>
            <path fill="#000000"
                  d="M141-36C126-15 110 5 73 4 37 3 15-17 15-53c-1-64 63-63 125-63 3-35-9-54-41-54-24 1-41 7-42 31l-33-3c5-37 33-52 76-52 45 0 72 20 72 64v82c-1 20 7 32 28 27v20c-31 9-61-2-59-35zM48-53c0 20 12 33 32 33 41-3 63-29 60-74-43 2-92-5-92 41"
                  id="k"/>
            <path fill="#000000"
                  d="M117-194c89-4 53 116 60 194h-32v-121c0-31-8-49-39-48C34-167 62-67 57 0H25l-1-190h30c1 10-1 24 2 32 11-22 29-35 61-36"
                  id="l"/>
            <path fill="#000000" d="M179-190L93 31C79 59 56 82 12 73V49c39 6 53-20 64-50L1-190h34L92-34l54-156h33"
                  id="m"/>
            <g id="a">
                <use transform="matrix(0.06172839506172839,0,0,0.06172839506172839,0,0)" xlink:href="#g"/>
                <use transform="matrix(0.06172839506172839,0,0,0.06172839506172839,15.987654320987653,0)"
                     xlink:href="#h"/>
                <use transform="matrix(0.06172839506172839,0,0,0.06172839506172839,28.333333333333332,0)"
                     xlink:href="#i"/>
                <use transform="matrix(0.06172839506172839,0,0,0.06172839506172839,46.79012345679012,0)"
                     xlink:href="#j"/>
                <use transform="matrix(0.06172839506172839,0,0,0.06172839506172839,59.1358024691358,0)"
                     xlink:href="#k"/>
                <use transform="matrix(0.06172839506172839,0,0,0.06172839506172839,71.48148148148148,0)"
                     xlink:href="#l"/>
                <use transform="matrix(0.06172839506172839,0,0,0.06172839506172839,83.82716049382717,0)"
                     xlink:href="#m"/>
            </g>
            <path fill="#000000" d="M205 0l-28-72H64L36 0H1l101-248h38L239 0h-34zm-38-99l-47-123c-12 45-31 82-46 123h93"
                  id="n"/>
            <path fill="#000000"
                  d="M85-194c31 0 48 13 60 33l-1-100h32l1 261h-30c-2-10 0-23-3-31C134-8 116 4 85 4 32 4 16-35 15-94c0-66 23-100 70-100zm9 24c-40 0-46 34-46 75 0 40 6 74 45 74 42 0 51-32 51-76 0-42-9-74-50-73"
                  id="o"/>
            <path fill="#000000" d="M114-163C36-179 61-72 57 0H25l-1-190h30c1 12-1 29 2 39 6-27 23-49 58-41v29" id="p"/>
            <path fill="#000000"
                  d="M100-194c63 0 86 42 84 106H49c0 40 14 67 53 68 26 1 43-12 49-29l28 8c-11 28-37 45-77 45C44 4 14-33 15-96c1-61 26-98 85-98zm52 81c6-60-76-77-97-28-3 7-6 17-6 28h103"
                  id="q"/>
            <path fill="#000000"
                  d="M135-143c-3-34-86-38-87 0 15 53 115 12 119 90S17 21 10-45l28-5c4 36 97 45 98 0-10-56-113-15-118-90-4-57 82-63 122-42 12 7 21 19 24 35"
                  id="r"/>
            <g id="b">
                <use transform="matrix(0.06172839506172839,0,0,0.06172839506172839,0,0)" xlink:href="#n"/>
                <use transform="matrix(0.06172839506172839,0,0,0.06172839506172839,14.814814814814813,0)"
                     xlink:href="#o"/>
                <use transform="matrix(0.06172839506172839,0,0,0.06172839506172839,27.160493827160494,0)"
                     xlink:href="#o"/>
                <use transform="matrix(0.06172839506172839,0,0,0.06172839506172839,39.50617283950617,0)"
                     xlink:href="#p"/>
                <use transform="matrix(0.06172839506172839,0,0,0.06172839506172839,46.85185185185185,0)"
                     xlink:href="#q"/>
                <use transform="matrix(0.06172839506172839,0,0,0.06172839506172839,59.197530864197525,0)"
                     xlink:href="#r"/>
                <use transform="matrix(0.06172839506172839,0,0,0.06172839506172839,70.30864197530863,0)"
                     xlink:href="#r"/>
            </g>
            <path fill="#333" d="M23 0v-37h61v-169l-59 37v-38l62-41h46v211h57V0H23" id="s"/>
            <path fill="#333" d="M24 0v-54h51V0H24" id="t"/>
            <path fill="#333"
                  d="M86-200l42-18 12 35-44 11 32 37-32 21-26-44-26 44-32-21 33-37-44-11 12-35 42 18-3-48h38" id="u"/>
            <g id="c">
                <use transform="matrix(0.04938271604938272,0,0,0.04938271604938272,0,0)" xlink:href="#s"/>
                <use transform="matrix(0.04938271604938272,0,0,0.04938271604938272,9.876543209876544,0)"
                     xlink:href="#t"/>
                <use transform="matrix(0.04938271604938272,0,0,0.04938271604938272,14.814814814814817,0)"
                     xlink:href="#t"/>
                <use transform="matrix(0.04938271604938272,0,0,0.04938271604938272,19.75308641975309,0)"
                     xlink:href="#u"/>
            </g>
            <path fill="#000000" d="M30 0v-248h187v28H63v79h144v27H63v87h162V0H30" id="v"/>
            <path fill="#000000" d="M24 0v-261h32V0H24" id="w"/>
            <g id="d">
                <use transform="matrix(0.06172839506172839,0,0,0.06172839506172839,0,0)" xlink:href="#v"/>
                <use transform="matrix(0.06172839506172839,0,0,0.06172839506172839,14.814814814814813,0)"
                     xlink:href="#i"/>
                <use transform="matrix(0.06172839506172839,0,0,0.06172839506172839,33.2716049382716,0)"
                     xlink:href="#j"/>
                <use transform="matrix(0.06172839506172839,0,0,0.06172839506172839,45.61728395061728,0)"
                     xlink:href="#w"/>
                <use transform="matrix(0.06172839506172839,0,0,0.06172839506172839,50.49382716049382,0)"
                     xlink:href="#h"/>
                <use transform="matrix(0.06172839506172839,0,0,0.06172839506172839,62.8395061728395,0)"
                     xlink:href="#m"/>
                <use transform="matrix(0.06172839506172839,0,0,0.06172839506172839,73.9506172839506,0)"
                     xlink:href="#q"/>
                <use transform="matrix(0.06172839506172839,0,0,0.06172839506172839,86.29629629629629,0)"
                     xlink:href="#q"/>
            </g>
            <use transform="matrix(0.04938271604938272,0,0,0.04938271604938272,0,0)" xlink:href="#s" id="e"/>
            <path fill="#000000" d="M127-220V0H93v-220H8v-28h204v28h-85" id="x"/>
            <g id="f">
                <use transform="matrix(0.049382716049382706,0,0,0.049382716049382706,0,0)" xlink:href="#n"/>
                <use transform="matrix(0.049382716049382706,0,0,0.049382716049382706,11.85185185185185,0)"
                     xlink:href="#o"/>
                <use transform="matrix(0.049382716049382706,0,0,0.049382716049382706,21.728395061728392,0)"
                     xlink:href="#o"/>
                <use transform="matrix(0.049382716049382706,0,0,0.049382716049382706,31.604938271604933,0)"
                     xlink:href="#p"/>
                <use transform="matrix(0.049382716049382706,0,0,0.049382716049382706,37.481481481481474,0)"
                     xlink:href="#q"/>
                <use transform="matrix(0.049382716049382706,0,0,0.049382716049382706,47.35802469135801,0)"
                     xlink:href="#r"/>
                <use transform="matrix(0.049382716049382706,0,0,0.049382716049382706,56.24691358024689,0)"
                     xlink:href="#r"/>
                <use transform="matrix(0.049382716049382706,0,0,0.049382716049382706,65.13580246913578,0)"
                     xlink:href="#x"/>
                <use transform="matrix(0.049382716049382706,0,0,0.049382716049382706,74.96296296296293,0)"
                     xlink:href="#m"/>
                <use transform="matrix(0.049382716049382706,0,0,0.049382716049382706,83.85185185185182,0)"
                     xlink:href="#j"/>
                <use transform="matrix(0.049382716049382706,0,0,0.049382716049382706,93.72839506172836,0)"
                     xlink:href="#q"/>
            </g>
        </defs>
    </g>
</svg>