<svg xmlns="http://www.w3.org/2000/svg" xmlns:xlink="http://www.w3.org/1999/xlink" width="520"
     height="326">
    <g transform="translate(-20 -40)">
        <path d="M360 66a6 6 0 0 1 6-6h148a6 6 0 0 1 6 6v114a6 6 0 0 1-6 6H366a6 6 0 0 1-6-6z" stroke="#000000"
              fill-opacity="0"/>
        <use xlink:href="#a" transform="matrix(1,0,0,1,368,68) translate(22.679012345679013 59.44444444444444)"/>
        <path d="M40 66a6 6 0 0 1 6-6h148a6 6 0 0 1 6 6v114a6 6 0 0 1-6 6H46a6 6 0 0 1-6-6z" stroke="#000000"
              fill-opacity="0"/>
        <use xlink:href="#b" transform="matrix(1,0,0,1,48,68) translate(24.53086419753086 59.44444444444444)"/>
        <path d="M440 216.32V283h-79.25" stroke="#000000" fill="none"/>
        <path d="M440 215.82l.5-.04v.55h-1v-.55zM360.76 283.5h-.5v-1h.5z" stroke="#000000" stroke-width=".05"
              fill="#000000"/>
        <path d="M436 188.47a5.37 5.37 0 0 1 8 0l7.2 8.06a6.7 6.7 0 0 1 0 8.94l-7.2 8.06a5.37 5.37 0 0 1-8 0l-7.2-8.06a6.7 6.7 0 0 1 0-8.94z"
              stroke="#000000" fill-opacity="0"/>
        <path d="M60 274a6 6 0 0 1 6-6h228a6 6 0 0 1 6 6v48a6 6 0 0 1-6 6H66a6 6 0 0 1-6-6z" stroke="#000"
              stroke-opacity="0" fill="none" fill-opacity="0"/>
        <use xlink:href="#c" transform="matrix(1,0,0,1,65,273) translate(100.18518518518519 29.84722222222222)"/>
        <path d="M199.75 226a6 6 0 0 1 6-6h148a6 6 0 0 1 6 6v114a6 6 0 0 1-6 6h-148a6 6 0 0 1-6-6z" stroke="#000000"
              fill-opacity="0"/>
        <use xlink:href="#d"
             transform="matrix(1,0,0,1,207.75002499999988,228.00000000000003) translate(31.290123456790127 59.44444444444444)"/>
        <path d="M119.5 246.32V283h79.25" stroke="#000000" fill="none"/>
        <path d="M119.5 245.82l.5-.04v.55h-1v-.55zM199.25 283.5h-.5v-1h.5z" stroke="#000000" stroke-width=".05"
              fill="#000000"/>
        <path d="M115.5 218.47a5.37 5.37 0 0 1 8 0l7.2 8.06a6.7 6.7 0 0 1 0 8.94l-7.2 8.06a5.37 5.37 0 0 1-8 0l-7.2-8.06a6.7 6.7 0 0 1 0-8.94z"
              stroke="#000000" fill-opacity="0"/>
        <path d="M60 192a6 6 0 0 1 6-6h108a6 6 0 0 1 6 6v18a6 6 0 0 1-6 6H66a6 6 0 0 1-6-6z" stroke="#000000"
              fill="none"/>
        <use xlink:href="#e" transform="matrix(1,0,0,1,72,198) translate(-3.802469135802454 14.222222222222221)"/>
        <path d="M254 274a6 6 0 0 1 6-6h228a6 6 0 0 1 6 6v48a6 6 0 0 1-6 6H260a6 6 0 0 1-6-6z" stroke="#000"
              stroke-opacity="0" fill="none" fill-opacity="0"/>
        <use xlink:href="#f" transform="matrix(1,0,0,1,259,273) translate(110.06172839506173 29.84722222222222)"/>
        <defs>
            <path fill="#000000" d="M30 0v-248h187v28H63v79h144v27H63v87h162V0H30" id="g"/>
            <path fill="#000000"
                  d="M210-169c-67 3-38 105-44 169h-31v-121c0-29-5-50-35-48C34-165 62-65 56 0H25l-1-190h30c1 10-1 24 2 32 10-44 99-50 107 0 11-21 27-35 58-36 85-2 47 119 55 194h-31v-121c0-29-5-49-35-48"
                  id="h"/>
            <path fill="#000000"
                  d="M115-194c55 1 70 41 70 98S169 2 115 4C84 4 66-9 55-30l1 105H24l-1-265h31l2 30c10-21 28-34 59-34zm-8 174c40 0 45-34 45-75s-6-73-45-74c-42 0-51 32-51 76 0 43 10 73 51 73"
                  id="i"/>
            <path fill="#000000" d="M24 0v-261h32V0H24" id="j"/>
            <path fill="#000000"
                  d="M100-194c62-1 85 37 85 99 1 63-27 99-86 99S16-35 15-95c0-66 28-99 85-99zM99-20c44 1 53-31 53-75 0-43-8-75-51-75s-53 32-53 75 10 74 51 75"
                  id="k"/>
            <path fill="#000000" d="M179-190L93 31C79 59 56 82 12 73V49c39 6 53-20 64-50L1-190h34L92-34l54-156h33"
                  id="l"/>
            <path fill="#000000"
                  d="M100-194c63 0 86 42 84 106H49c0 40 14 67 53 68 26 1 43-12 49-29l28 8c-11 28-37 45-77 45C44 4 14-33 15-96c1-61 26-98 85-98zm52 81c6-60-76-77-97-28-3 7-6 17-6 28h103"
                  id="m"/>
            <g id="a">
                <use transform="matrix(0.06172839506172839,0,0,0.06172839506172839,0,0)" xlink:href="#g"/>
                <use transform="matrix(0.06172839506172839,0,0,0.06172839506172839,14.814814814814813,0)"
                     xlink:href="#h"/>
                <use transform="matrix(0.06172839506172839,0,0,0.06172839506172839,33.2716049382716,0)"
                     xlink:href="#i"/>
                <use transform="matrix(0.06172839506172839,0,0,0.06172839506172839,45.61728395061728,0)"
                     xlink:href="#j"/>
                <use transform="matrix(0.06172839506172839,0,0,0.06172839506172839,50.49382716049382,0)"
                     xlink:href="#k"/>
                <use transform="matrix(0.06172839506172839,0,0,0.06172839506172839,62.8395061728395,0)"
                     xlink:href="#l"/>
                <use transform="matrix(0.06172839506172839,0,0,0.06172839506172839,73.9506172839506,0)"
                     xlink:href="#m"/>
                <use transform="matrix(0.06172839506172839,0,0,0.06172839506172839,86.29629629629629,0)"
                     xlink:href="#m"/>
            </g>
            <path fill="#000000"
                  d="M212-179c-10-28-35-45-73-45-59 0-87 40-87 99 0 60 29 101 89 101 43 0 62-24 78-52l27 14C228-24 195 4 139 4 59 4 22-46 18-125c-6-104 99-153 187-111 19 9 31 26 39 46"
                  id="n"/>
            <path fill="#000000"
                  d="M141-36C126-15 110 5 73 4 37 3 15-17 15-53c-1-64 63-63 125-63 3-35-9-54-41-54-24 1-41 7-42 31l-33-3c5-37 33-52 76-52 45 0 72 20 72 64v82c-1 20 7 32 28 27v20c-31 9-61-2-59-35zM48-53c0 20 12 33 32 33 41-3 63-29 60-74-43 2-92-5-92 41"
                  id="o"/>
            <path fill="#000000"
                  d="M117-194c89-4 53 116 60 194h-32v-121c0-31-8-49-39-48C34-167 62-67 57 0H25l-1-190h30c1 10-1 24 2 32 11-22 29-35 61-36"
                  id="p"/>
            <g id="b">
                <use transform="matrix(0.06172839506172839,0,0,0.06172839506172839,0,0)" xlink:href="#n"/>
                <use transform="matrix(0.06172839506172839,0,0,0.06172839506172839,15.987654320987653,0)"
                     xlink:href="#k"/>
                <use transform="matrix(0.06172839506172839,0,0,0.06172839506172839,28.333333333333332,0)"
                     xlink:href="#h"/>
                <use transform="matrix(0.06172839506172839,0,0,0.06172839506172839,46.79012345679012,0)"
                     xlink:href="#i"/>
                <use transform="matrix(0.06172839506172839,0,0,0.06172839506172839,59.1358024691358,0)"
                     xlink:href="#o"/>
                <use transform="matrix(0.06172839506172839,0,0,0.06172839506172839,71.48148148148148,0)"
                     xlink:href="#p"/>
                <use transform="matrix(0.06172839506172839,0,0,0.06172839506172839,83.82716049382717,0)"
                     xlink:href="#l"/>
            </g>
            <path fill="#000000" d="M27 0v-27h64v-190l-56 39v-29l58-41h29v221h61V0H27" id="q"/>
            <path fill="#000000" d="M33 0v-38h34V0H33" id="r"/>
            <g id="c">
                <use transform="matrix(0.049382716049382706,0,0,0.049382716049382706,0,0)" xlink:href="#q"/>
                <use transform="matrix(0.049382716049382706,0,0,0.049382716049382706,9.87654320987654,0)"
                     xlink:href="#r"/>
                <use transform="matrix(0.049382716049382706,0,0,0.049382716049382706,14.814814814814811,0)"
                     xlink:href="#r"/>
                <use transform="matrix(0.049382716049382706,0,0,0.049382716049382706,19.75308641975308,0)"
                     xlink:href="#p"/>
            </g>
            <path fill="#000000" d="M205 0l-28-72H64L36 0H1l101-248h38L239 0h-34zm-38-99l-47-123c-12 45-31 82-46 123h93"
                  id="s"/>
            <path fill="#000000"
                  d="M85-194c31 0 48 13 60 33l-1-100h32l1 261h-30c-2-10 0-23-3-31C134-8 116 4 85 4 32 4 16-35 15-94c0-66 23-100 70-100zm9 24c-40 0-46 34-46 75 0 40 6 74 45 74 42 0 51-32 51-76 0-42-9-74-50-73"
                  id="t"/>
            <path fill="#000000" d="M114-163C36-179 61-72 57 0H25l-1-190h30c1 12-1 29 2 39 6-27 23-49 58-41v29" id="u"/>
            <path fill="#000000"
                  d="M135-143c-3-34-86-38-87 0 15 53 115 12 119 90S17 21 10-45l28-5c4 36 97 45 98 0-10-56-113-15-118-90-4-57 82-63 122-42 12 7 21 19 24 35"
                  id="v"/>
            <g id="d">
                <use transform="matrix(0.06172839506172839,0,0,0.06172839506172839,0,0)" xlink:href="#s"/>
                <use transform="matrix(0.06172839506172839,0,0,0.06172839506172839,14.814814814814813,0)"
                     xlink:href="#t"/>
                <use transform="matrix(0.06172839506172839,0,0,0.06172839506172839,27.160493827160494,0)"
                     xlink:href="#t"/>
                <use transform="matrix(0.06172839506172839,0,0,0.06172839506172839,39.50617283950617,0)"
                     xlink:href="#u"/>
                <use transform="matrix(0.06172839506172839,0,0,0.06172839506172839,46.85185185185185,0)"
                     xlink:href="#m"/>
                <use transform="matrix(0.06172839506172839,0,0,0.06172839506172839,59.197530864197525,0)"
                     xlink:href="#v"/>
                <use transform="matrix(0.06172839506172839,0,0,0.06172839506172839,70.30864197530863,0)"
                     xlink:href="#v"/>
            </g>
            <path fill="#000000" d="M127-220V0H93v-220H8v-28h204v28h-85" id="w"/>
            <g id="e">
                <use transform="matrix(0.049382716049382706,0,0,0.049382716049382706,0,0)" xlink:href="#s"/>
                <use transform="matrix(0.049382716049382706,0,0,0.049382716049382706,11.85185185185185,0)"
                     xlink:href="#t"/>
                <use transform="matrix(0.049382716049382706,0,0,0.049382716049382706,21.728395061728392,0)"
                     xlink:href="#t"/>
                <use transform="matrix(0.049382716049382706,0,0,0.049382716049382706,31.604938271604933,0)"
                     xlink:href="#u"/>
                <use transform="matrix(0.049382716049382706,0,0,0.049382716049382706,37.481481481481474,0)"
                     xlink:href="#m"/>
                <use transform="matrix(0.049382716049382706,0,0,0.049382716049382706,47.35802469135801,0)"
                     xlink:href="#v"/>
                <use transform="matrix(0.049382716049382706,0,0,0.049382716049382706,56.24691358024689,0)"
                     xlink:href="#v"/>
                <use transform="matrix(0.049382716049382706,0,0,0.049382716049382706,65.13580246913578,0)"
                     xlink:href="#w"/>
                <use transform="matrix(0.049382716049382706,0,0,0.049382716049382706,74.96296296296293,0)"
                     xlink:href="#l"/>
                <use transform="matrix(0.049382716049382706,0,0,0.049382716049382706,83.85185185185182,0)"
                     xlink:href="#i"/>
                <use transform="matrix(0.049382716049382706,0,0,0.049382716049382706,93.72839506172836,0)"
                     xlink:href="#m"/>
            </g>
            <use transform="matrix(0.049382716049382706,0,0,0.049382716049382706,0,0)" xlink:href="#q" id="f"/>
        </defs>
    </g>
</svg>