<svg xmlns="http://www.w3.org/2000/svg" xmlns:xlink="http://www.w3.org/1999/xlink" xmlns:lucid="lucid" width="1261"
     height="61">
    <g transform="translate(1773.6211151499854 496.51613491777397)" lucid:page-tab-id="0_0">
        <path d="M-1773.12-490.02a6 6 0 0 1 6-6h48a6 6 0 0 1 6 6v48a6 6 0 0 1-6 6h-48a6 6 0 0 1-6-6z" stroke="#979ea8"
              fill="#fff" fill-opacity="0"/>
        <use xlink:href="#a"
             transform="matrix(1,0,0,1,-1768.1211151090579,-491.0161348768465) translate(12.654320987654321 30.27777777777778)"/>
        <path d="M-1693.12-490.02a6 6 0 0 1 6-6h48a6 6 0 0 1 6 6v48a6 6 0 0 1-6 6h-48a6 6 0 0 1-6-6z" stroke="#979ea8"
              fill="#fff" fill-opacity="0"/>
        <use xlink:href="#b"
             transform="matrix(1,0,0,1,-1688.1211151090579,-491.0161348768465) translate(12.654320987654321 30.27777777777778)"/>
        <path d="M-1613.12-490.02a6 6 0 0 1 6-6h48a6 6 0 0 1 6 6v48a6 6 0 0 1-6 6h-48a6 6 0 0 1-6-6z" stroke="#979ea8"
              fill="#fff" fill-opacity="0"/>
        <use xlink:href="#c"
             transform="matrix(1,0,0,1,-1608.1211151090579,-491.0161348768465) translate(12.654320987654321 30.27777777777778)"/>
        <path d="M-1133.12-490.02a6 6 0 0 1 6-6h48a6 6 0 0 1 6 6v48a6 6 0 0 1-6 6h-48a6 6 0 0 1-6-6z" stroke="#979ea8"
              fill="#fff" fill-opacity="0"/>
        <use xlink:href="#d"
             transform="matrix(1,0,0,1,-1128.1211151090579,-491.0161348768465) translate(18.82716049382716 30.27777777777778)"/>
        <path d="M-1213.12-490.02a6 6 0 0 1 6-6h48a6 6 0 0 1 6 6v48a6 6 0 0 1-6 6h-48a6 6 0 0 1-6-6z" stroke="#979ea8"
              fill="#fff" fill-opacity="0"/>
        <use xlink:href="#e"
             transform="matrix(1,0,0,1,-1208.1211151090579,-491.0161348768465) translate(18.82716049382716 30.27777777777778)"/>
        <path d="M-1293.12-490.02a6 6 0 0 1 6-6h48a6 6 0 0 1 6 6v48a6 6 0 0 1-6 6h-48a6 6 0 0 1-6-6z" stroke="#979ea8"
              fill="#fff" fill-opacity="0"/>
        <use xlink:href="#f"
             transform="matrix(1,0,0,1,-1288.1211151090579,-491.0161348768465) translate(12.654320987654321 30.27777777777778)"/>
        <path d="M-1373.12-490.02a6 6 0 0 1 6-6h48a6 6 0 0 1 6 6v48a6 6 0 0 1-6 6h-48a6 6 0 0 1-6-6z" stroke="#979ea8"
              fill="#fff" fill-opacity="0"/>
        <use xlink:href="#g"
             transform="matrix(1,0,0,1,-1368.1211151090579,-491.0161348768465) translate(13.271604938271604 30.27777777777778)"/>
        <path d="M-1533.12-490.02a6 6 0 0 1 6-6h48a6 6 0 0 1 6 6v48a6 6 0 0 1-6 6h-48a6 6 0 0 1-6-6z" stroke="#979ea8"
              fill="#fff" fill-opacity="0"/>
        <use xlink:href="#h"
             transform="matrix(1,0,0,1,-1528.1211151090579,-491.0161348768465) translate(12.654320987654321 30.27777777777778)"/>
        <path d="M-1453.12-490.02a6 6 0 0 1 6-6h48a6 6 0 0 1 6 6v48a6 6 0 0 1-6 6h-48a6 6 0 0 1-6-6z" stroke="#979ea8"
              fill="#fff" fill-opacity="0"/>
        <use xlink:href="#i"
             transform="matrix(1,0,0,1,-1448.1211151090579,-491.0161348768465) translate(12.654320987654321 30.27777777777778)"/>
        <path d="M-1053.12-490.02a6 6 0 0 1 6-6h48a6 6 0 0 1 6 6v48a6 6 0 0 1-6 6h-48a6 6 0 0 1-6-6z" stroke="#979ea8"
              fill="#fff" fill-opacity="0"/>
        <use xlink:href="#j"
             transform="matrix(1,0,0,1,-1048.1211151090579,-491.0161348768465) translate(18.82716049382716 30.27777777777778)"/>
        <path d="M-973.12-490.02a6 6 0 0 1 6-6h48a6 6 0 0 1 6 6v48a6 6 0 0 1-6 6h-48a6 6 0 0 1-6-6z" stroke="#979ea8"
              fill="#fff" fill-opacity="0"/>
        <use xlink:href="#k"
             transform="matrix(1,0,0,1,-968.1211151090579,-491.0161348768465) translate(18.82716049382716 30.27777777777778)"/>
        <path d="M-893.12-490.02a6 6 0 0 1 6-6h48a6 6 0 0 1 6 6v48a6 6 0 0 1-6 6h-48a6 6 0 0 1-6-6z" stroke="#979ea8"
              fill="#fff" fill-opacity="0"/>
        <use xlink:href="#l"
             transform="matrix(1,0,0,1,-888.1211151090579,-491.0161348768465) translate(18.82716049382716 30.27777777777778)"/>
        <path d="M-573.12-490.02a6 6 0 0 1 6-6h48a6 6 0 0 1 6 6v48a6 6 0 0 1-6 6h-48a6 6 0 0 1-6-6z" stroke="#979ea8"
              fill="#fff" fill-opacity="0"/>
        <use xlink:href="#m"
             transform="matrix(1,0,0,1,-568.1211151090579,-491.0161348768465) translate(18.82716049382716 30.27777777777778)"/>
        <path d="M-653.12-490.02a6 6 0 0 1 6-6h48a6 6 0 0 1 6 6v48a6 6 0 0 1-6 6h-48a6 6 0 0 1-6-6z" stroke="#979ea8"
              fill="#fff" fill-opacity="0"/>
        <use xlink:href="#n"
             transform="matrix(1,0,0,1,-648.1211151090579,-491.0161348768465) translate(18.82716049382716 30.27777777777778)"/>
        <path d="M-813.12-490.02a6 6 0 0 1 6-6h48a6 6 0 0 1 6 6v48a6 6 0 0 1-6 6h-48a6 6 0 0 1-6-6z" stroke="#979ea8"
              fill="#fff" fill-opacity="0"/>
        <use xlink:href="#o"
             transform="matrix(1,0,0,1,-808.1211151090579,-491.0161348768465) translate(18.82716049382716 30.27777777777778)"/>
        <path d="M-733.12-490.02a6 6 0 0 1 6-6h48a6 6 0 0 1 6 6v48a6 6 0 0 1-6 6h-48a6 6 0 0 1-6-6z" stroke="#979ea8"
              fill="#fff" fill-opacity="0"/>
        <use xlink:href="#p"
             transform="matrix(1,0,0,1,-728.1211151090579,-491.0161348768465) translate(18.82716049382716 30.27777777777778)"/>
        <defs>
            <path fill="#3a414a" d="M23 0v-37h61v-169l-59 37v-38l62-41h46v211h57V0H23" id="q"/>
            <path fill="#3a414a"
                  d="M115-159c48 0 72 30 72 78 0 54-30 85-83 85-64 0-91-50-91-122 0-98 58-163 141-120 15 8 21 24 27 44l-47 6c-5-31-48-31-61-4-7 14-11 33-11 60 9-17 28-27 53-27zM102-35c24 0 36-20 36-45s-11-43-37-43c-23 0-36 14-36 38 0 27 11 50 37 50"
                  id="r"/>
            <g id="a">
                <use transform="matrix(0.06172839506172839,0,0,0.06172839506172839,0,0)" xlink:href="#q"/>
                <use transform="matrix(0.06172839506172839,0,0,0.06172839506172839,12.345679012345679,0)"
                     xlink:href="#r"/>
            </g>
            <path fill="#3a414a"
                  d="M139-81c0-46-55-55-73-27H18l9-140h149v37H72l-4 63c44-38 133-4 122 66C201 21 21 35 11-62l49-4c5 18 15 30 39 30 26 0 40-18 40-45"
                  id="s"/>
            <g id="b">
                <use transform="matrix(0.06172839506172839,0,0,0.06172839506172839,0,0)" xlink:href="#q"/>
                <use transform="matrix(0.06172839506172839,0,0,0.06172839506172839,12.345679012345679,0)"
                     xlink:href="#s"/>
            </g>
            <path fill="#3a414a" d="M165-50V0h-47v-50H5v-38l105-160h55v161h33v37h-33zm-47-37l2-116L46-87h72" id="t"/>
            <g id="c">
                <use transform="matrix(0.06172839506172839,0,0,0.06172839506172839,0,0)" xlink:href="#q"/>
                <use transform="matrix(0.06172839506172839,0,0,0.06172839506172839,12.345679012345679,0)"
                     xlink:href="#t"/>
            </g>
            <path fill="#3a414a"
                  d="M138-131c27 9 52 24 51 61 0 53-36 74-89 74S11-19 11-69c0-35 22-54 51-61-78-25-46-121 38-121 51 0 83 19 83 66 0 30-18 49-45 54zm-38-16c24 0 32-13 32-36 1-23-11-34-32-34-22 0-33 12-32 34 0 22 9 36 32 36zm1 116c27 0 37-17 37-43 0-25-13-39-39-39-24 0-37 15-37 40 0 27 11 42 39 42"
                  id="u"/>
            <use transform="matrix(0.06172839506172839,0,0,0.06172839506172839,0,0)" xlink:href="#u" id="d"/>
            <path fill="#3a414a"
                  d="M99-251c69 0 84 53 88 123 5 99-61 162-144 118-15-8-21-25-26-45l46-6c4 31 50 33 63 7 7-15 12-36 12-60-9 18-29 28-54 28-48 0-72-32-72-82 0-55 31-83 87-83zm-1 128c24 0 37-16 37-39 0-27-10-51-37-51-25 0-35 19-35 45 0 25 10 45 35 45"
                  id="v"/>
            <use transform="matrix(0.06172839506172839,0,0,0.06172839506172839,0,0)" xlink:href="#v" id="e"/>
            <path fill="#3a414a"
                  d="M101-251c68 0 84 54 84 127C185-50 166 4 99 4S15-52 14-124c-1-75 17-127 87-127zm-1 216c37-5 36-46 36-89s4-89-36-89c-39 0-36 45-36 89 0 43-3 85 36 89"
                  id="w"/>
            <g id="f">
                <use transform="matrix(0.06172839506172839,0,0,0.06172839506172839,0,0)" xlink:href="#q"/>
                <use transform="matrix(0.06172839506172839,0,0,0.06172839506172839,12.345679012345679,0)"
                     xlink:href="#w"/>
            </g>
            <g id="g">
                <use transform="matrix(0.06172839506172839,0,0,0.06172839506172839,0,0)" xlink:href="#q"/>
                <use transform="matrix(0.06172839506172839,0,0,0.06172839506172839,11.11111111111111,0)"
                     xlink:href="#q"/>
            </g>
            <path fill="#3a414a"
                  d="M128-127c34 4 56 21 59 58 7 91-148 94-172 28-4-9-6-17-7-26l51-5c1 24 16 35 40 36 23 0 39-12 38-36-1-31-31-36-65-34v-40c32 2 59-3 59-33 0-20-13-33-34-33s-33 13-35 32l-50-3c6-44 37-68 86-68 50 0 83 20 83 66 0 35-22 52-53 58"
                  id="x"/>
            <g id="h">
                <use transform="matrix(0.06172839506172839,0,0,0.06172839506172839,0,0)" xlink:href="#q"/>
                <use transform="matrix(0.06172839506172839,0,0,0.06172839506172839,12.345679012345679,0)"
                     xlink:href="#x"/>
            </g>
            <path fill="#3a414a"
                  d="M182-182c0 78-84 86-111 141h115V0H12c-6-101 99-100 120-180 1-22-12-31-33-32-23 0-32 14-35 34l-49-3c5-45 32-70 84-70 51 0 83 22 83 69"
                  id="y"/>
            <g id="i">
                <use transform="matrix(0.06172839506172839,0,0,0.06172839506172839,0,0)" xlink:href="#q"/>
                <use transform="matrix(0.06172839506172839,0,0,0.06172839506172839,12.345679012345679,0)"
                     xlink:href="#y"/>
            </g>
            <path fill="#3a414a" d="M52 0c1-96 47-148 87-207H15v-41h169v40c-36 62-79 113-81 208H52" id="z"/>
            <use transform="matrix(0.06172839506172839,0,0,0.06172839506172839,0,0)" xlink:href="#z" id="j"/>
            <use transform="matrix(0.06172839506172839,0,0,0.06172839506172839,0,0)" xlink:href="#r" id="k"/>
            <use transform="matrix(0.06172839506172839,0,0,0.06172839506172839,0,0)" xlink:href="#s" id="l"/>
            <use transform="matrix(0.06172839506172839,0,0,0.06172839506172839,0,0)" xlink:href="#q" id="m"/>
            <use transform="matrix(0.06172839506172839,0,0,0.06172839506172839,0,0)" xlink:href="#y" id="n"/>
            <use transform="matrix(0.06172839506172839,0,0,0.06172839506172839,0,0)" xlink:href="#t" id="o"/>
            <use transform="matrix(0.06172839506172839,0,0,0.06172839506172839,0,0)" xlink:href="#x" id="p"/>
        </defs>
    </g>
</svg>