<svg xmlns="http://www.w3.org/2000/svg" xmlns:xlink="http://www.w3.org/1999/xlink"  width="340"
     height="320">
    <g transform="translate(-260 -280)">
        <path d="M315.92 546.54l139.7-111.22" stroke="#000000" fill="none"/>
        <path d="M316.24 546.93l-.4.3-.63-.76.42-.32zM456.03 435l.42.3-.5.42-.64-.8.4-.3z" stroke="#000000"
              stroke-width=".05" fill="#000000"/>
        <path d="M400 320c0 11.05-8.95 20-20 20s-20-8.95-20-20 8.95-20 20-20 20 8.95 20 20z" stroke="#000000"
              fill="#fff"/>
        <use xlink:href="#a" transform="matrix(1,0,0,1,365,305) translate(8.83216049382716 19.65277777777778)"/>
        <path d="M320 420c0 11.05-8.95 20-20 20s-20-8.95-20-20 8.95-20 20-20 20 8.95 20 20z" stroke="#000000"
              fill="#fff"/>
        <use xlink:href="#b" transform="matrix(1,0,0,1,285,405) translate(8.83216049382716 19.65277777777778)"/>
        <path d="M320 560c0 11.05-8.95 20-20 20s-20-8.95-20-20 8.95-20 20-20 20 8.95 20 20z" stroke="#000000"
              fill="#fff"/>
        <use xlink:href="#c" transform="matrix(1,0,0,1,285,545) translate(8.83216049382716 19.65277777777778)"/>
        <path d="M490 560c0 11.05-8.95 20-20 20s-20-8.95-20-20 8.95-20 20-20 20 8.95 20 20z" stroke="#000000"
              fill="#fff"/>
        <use xlink:href="#d" transform="matrix(1,0,0,1,455,545) translate(8.83216049382716 19.65277777777778)"/>
        <path d="M490 420c0 11.05-8.95 20-20 20s-20-8.95-20-20 8.95-20 20-20 20 8.95 20 20z" stroke="#000000"
              fill="#fff"/>
        <use xlink:href="#e" transform="matrix(1,0,0,1,455,405) translate(8.83216049382716 19.65277777777778)"/>
        <path d="M405.33 493.33c0 11.05-8.95 20-20 20-11.04 0-20-8.95-20-20 0-11.04 8.96-20 20-20 11.05 0 20 8.96 20 20z"
              stroke="#000000" fill="#fff"/>
        <use xlink:href="#f"
             transform="matrix(1,0,0,1,370.33333333333337,478.3333333333333) translate(8.83216049382716 19.65277777777778)"/>
        <path d="M580 482.67c0 11.04-8.95 20-20 20s-20-8.96-20-20c0-11.05 8.95-20 20-20s20 8.95 20 20z" stroke="#000000"
              fill="#fff"/>
        <use xlink:href="#g"
             transform="matrix(1,0,0,1,545,467.6666666666667) translate(8.83216049382716 19.65277777777778)"/>
        <path d="M365.03 334.57l-51.45 69.52" stroke="#000000" fill="none"/>
        <path d="M365.66 334.56l-.23.32-.8-.6.37-.5zM314 404.38l-.32.4-.8-.58.3-.42z" stroke="#000000"
              stroke-width=".05" fill="#000000"/>
        <path d="M300 441v98" stroke="#000000" fill="none"/>
        <path d="M299.98 440.5l.52-.02v.53h-1v-.56zM300.5 539.56l-.48-.06-.52.02V539h1z" stroke="#000000"
              stroke-width=".05" fill="#000000"/>
        <path d="M320.5 556.25h128.97" stroke="#000000" fill="none"/>
        <path d="M320.5 556.75h-.4l-.2-1h.6zM449.9 556.75h-.45v-1h.58z" stroke="#000000" stroke-width=".05"
              fill="#000000"/>
        <path d="M484.5 544.85l61.13-46.87" stroke="#000000" fill="none"/>
        <path d="M484.82 545.24l-.4.3-.45-.54-.24-.18.48-.37zM546.03 497.67l.42.3-.53.4-.6-.78.4-.3z" stroke="#000000"
              stroke-width=".05" fill="#000000"/>
        <path d="M486.16 433.22l58.4 35.2" stroke="#000000" fill="none"/>
        <path d="M486.43 432.8l-.5.85-.5-.28.6-.8zM545.4 468.35l-.4.34-.3.4-.4-.24.5-.86z" stroke="#000000"
              stroke-width=".05" fill="#000000"/>
        <path d="M321 420h128" stroke="#000000" fill="none"/>
        <path d="M321 420.5h-.56l.06-.48-.02-.52h.53zM449.5 419.98l.02.52H449v-1h.56z" stroke="#000000"
              stroke-width=".05" fill="#000000"/>
        <path d="M395.32 334.36L454 406.58" stroke="#000000" fill="none"/>
        <path d="M395.72 334.06l-.78.63-.32-.4.38-.33.3-.42zM454.62 406.55l-.6.83-.4-.5.76-.63z" stroke="#000000"
              stroke-width=".05" fill="#000000"/>
        <path d="M470 539v-98" stroke="#000000" fill="none"/>
        <path d="M470.5 539.56l-.48-.06-.52.02V539h1zM469.98 440.5l.52-.02v.53h-1v-.56z" stroke="#000000"
              stroke-width=".05" fill="#000000"/>
        <defs>
            <path fill="#000000" d="M27 0v-27h64v-190l-56 39v-29l58-41h29v221h61V0H27" id="h"/>
            <use transform="matrix(0.06172839506172839,0,0,0.06172839506172839,0,0)" xlink:href="#h" id="a"/>
            <path fill="#000000"
                  d="M101-251c82-7 93 87 43 132L82-64C71-53 59-42 53-27h129V0H18c2-99 128-94 128-182 0-28-16-43-45-43s-46 15-49 41l-32-3c6-41 34-60 81-64"
                  id="i"/>
            <use transform="matrix(0.06172839506172839,0,0,0.06172839506172839,0,0)" xlink:href="#i" id="b"/>
            <path fill="#000000"
                  d="M126-127c33 6 58 20 58 59 0 88-139 92-164 29-3-8-5-16-6-25l32-3c6 27 21 44 54 44 32 0 52-15 52-46 0-38-36-46-79-43v-28c39 1 72-4 72-42 0-27-17-43-46-43-28 0-47 15-49 41l-32-3c6-42 35-63 81-64 48-1 79 21 79 65 0 36-21 52-52 59"
                  id="j"/>
            <use transform="matrix(0.06172839506172839,0,0,0.06172839506172839,0,0)" xlink:href="#j" id="c"/>
            <path fill="#000000"
                  d="M155-56V0h-30v-56H8v-25l114-167h33v167h35v25h-35zm-30-156c-27 46-58 90-88 131h88v-131" id="k"/>
            <use transform="matrix(0.06172839506172839,0,0,0.06172839506172839,0,0)" xlink:href="#k" id="d"/>
            <path fill="#000000"
                  d="M110-160c48 1 74 30 74 79 0 53-28 85-80 85-65 0-83-55-86-122-5-90 50-162 133-122 14 7 22 21 27 39l-31 6c-5-40-67-38-82-6-9 19-15 44-15 74 11-20 30-34 60-33zm-7 138c34 0 49-23 49-58s-16-56-50-56c-29 0-50 16-49 49 1 36 15 65 50 65"
                  id="l"/>
            <use transform="matrix(0.06172839506172839,0,0,0.06172839506172839,0,0)" xlink:href="#l" id="e"/>
            <path fill="#000000" d="M64 0c3-98 48-159 88-221H18v-27h164v26C143-157 98-101 97 0H64" id="m"/>
            <use transform="matrix(0.06172839506172839,0,0,0.06172839506172839,0,0)" xlink:href="#m" id="f"/>
            <path fill="#000000"
                  d="M54-142c48-35 137-8 131 61C196 18 31 33 14-55l32-4c7 23 22 37 52 37 35-1 51-22 54-58 4-55-73-65-99-34H22l8-134h141v27H59"
                  id="n"/>
            <use transform="matrix(0.06172839506172839,0,0,0.06172839506172839,0,0)" xlink:href="#n" id="g"/>
        </defs>
    </g>
</svg>