<svg xmlns="http://www.w3.org/2000/svg" xmlns:xlink="http://www.w3.org/1999/xlink" width="600"
     height="380">
    <g transform="translate(0 0)" >
        <path d="M20 26a6 6 0 0 1 6-6h248a6 6 0 0 1 6 6v128a6 6 0 0 1-6 6H26a6 6 0 0 1-6-6z" stroke="#000"
              fill-opacity="0"/>
        <use xlink:href="#a" transform="matrix(1,0,0,1,28,28) translate(19.685185185185205 66.44444444444444)"/>
        <path d="M320 246a6 6 0 0 1 6-6h248a6 6 0 0 1 6 6v108a6 6 0 0 1-6 6H326a6 6 0 0 1-6-6z" stroke="#000"
              fill-opacity="0"/>
        <use xlink:href="#b" transform="matrix(1,0,0,1,328,248) translate(50.48765432098766 56.44444444444444)"/>
        <path d="M303.12 90H281" stroke="#000" fill="none"/>
        <path d="M317.88 90l-14.26 4.64v-9.28z" stroke="#000"/>
        <path d="M281 90.5h-.5v-1h.5z" stroke="#000" stroke-width=".05"/>
        <path d="M450 183.5v9.25m0 9.25v18.5m0 9.25V239" stroke="#000" fill="none"/>
        <path d="M450 161.48L462.73 183h-25.46z" stroke="#000" fill="none"/>
        <path d="M450.5 239.5h-1v-.5h1z" stroke="#000" stroke-width=".05"/>
        <path d="M320 26a6 6 0 0 1 6-6h248a6 6 0 0 1 6 6v128a6 6 0 0 1-6 6H326a6 6 0 0 1-6-6z" stroke="#000" fill="none"
              fill-opacity="0"/>
        <use xlink:href="#c" transform="matrix(1,0,0,1,325,25) translate(56.543209876543216 54.34027777777778)"/>
        <use xlink:href="#d" transform="matrix(1,0,0,1,325,25) translate(5.40123456790127 81.00694444444446)"/>
        <defs>
            <path d="M30 0v-248h187v28H63v79h144v27H63v87h162V0H30" id="e"/>
            <path d="M210-169c-67 3-38 105-44 169h-31v-121c0-29-5-50-35-48C34-165 62-65 56 0H25l-1-190h30c1 10-1 24 2 32 10-44 99-50 107 0 11-21 27-35 58-36 85-2 47 119 55 194h-31v-121c0-29-5-49-35-48"
                  id="f"/>
            <path d="M115-194c55 1 70 41 70 98S169 2 115 4C84 4 66-9 55-30l1 105H24l-1-265h31l2 30c10-21 28-34 59-34zm-8 174c40 0 45-34 45-75s-6-73-45-74c-42 0-51 32-51 76 0 43 10 73 51 73"
                  id="g"/>
            <path d="M24 0v-261h32V0H24" id="h"/>
            <path d="M100-194c62-1 85 37 85 99 1 63-27 99-86 99S16-35 15-95c0-66 28-99 85-99zM99-20c44 1 53-31 53-75 0-43-8-75-51-75s-53 32-53 75 10 74 51 75"
                  id="i"/>
            <path d="M179-190L93 31C79 59 56 82 12 73V49c39 6 53-20 64-50L1-190h34L92-34l54-156h33" id="j"/>
            <path d="M100-194c63 0 86 42 84 106H49c0 40 14 67 53 68 26 1 43-12 49-29l28 8c-11 28-37 45-77 45C44 4 14-33 15-96c1-61 26-98 85-98zm52 81c6-60-76-77-97-28-3 7-6 17-6 28h103"
                  id="k"/>
            <path d="M233-177c-1 41-23 64-60 70L243 0h-38l-65-103H63V0H30v-248c88 3 205-21 203 71zM63-129c60-2 137 13 137-47 0-61-80-42-137-45v92"
                  id="l"/>
            <path d="M135-143c-3-34-86-38-87 0 15 53 115 12 119 90S17 21 10-45l28-5c4 36 97 45 98 0-10-56-113-15-118-90-4-57 82-63 122-42 12 7 21 19 24 35"
                  id="m"/>
            <path d="M24-231v-30h32v30H24zM24 0v-190h32V0H24" id="n"/>
            <path d="M59-47c-2 24 18 29 38 22v24C64 9 27 4 27-40v-127H5v-23h24l9-43h21v43h35v23H59v120" id="o"/>
            <path d="M114-163C36-179 61-72 57 0H25l-1-190h30c1 12-1 29 2 39 6-27 23-49 58-41v29" id="p"/>
            <g id="a">
                <use transform="matrix(0.06172839506172839,0,0,0.06172839506172839,0,0)" xlink:href="#e"/>
                <use transform="matrix(0.06172839506172839,0,0,0.06172839506172839,14.814814814814813,0)"
                     xlink:href="#f"/>
                <use transform="matrix(0.06172839506172839,0,0,0.06172839506172839,33.2716049382716,0)"
                     xlink:href="#g"/>
                <use transform="matrix(0.06172839506172839,0,0,0.06172839506172839,45.61728395061728,0)"
                     xlink:href="#h"/>
                <use transform="matrix(0.06172839506172839,0,0,0.06172839506172839,50.49382716049382,0)"
                     xlink:href="#i"/>
                <use transform="matrix(0.06172839506172839,0,0,0.06172839506172839,62.8395061728395,0)"
                     xlink:href="#j"/>
                <use transform="matrix(0.06172839506172839,0,0,0.06172839506172839,73.9506172839506,0)"
                     xlink:href="#k"/>
                <use transform="matrix(0.06172839506172839,0,0,0.06172839506172839,86.29629629629629,0)"
                     xlink:href="#k"/>
                <use transform="matrix(0.06172839506172839,0,0,0.06172839506172839,98.64197530864197,0)"
                     xlink:href="#l"/>
                <use transform="matrix(0.06172839506172839,0,0,0.06172839506172839,114.62962962962963,0)"
                     xlink:href="#k"/>
                <use transform="matrix(0.06172839506172839,0,0,0.06172839506172839,126.97530864197533,0)"
                     xlink:href="#g"/>
                <use transform="matrix(0.06172839506172839,0,0,0.06172839506172839,139.320987654321,0)"
                     xlink:href="#i"/>
                <use transform="matrix(0.06172839506172839,0,0,0.06172839506172839,151.66666666666666,0)"
                     xlink:href="#m"/>
                <use transform="matrix(0.06172839506172839,0,0,0.06172839506172839,162.77777777777777,0)"
                     xlink:href="#n"/>
                <use transform="matrix(0.06172839506172839,0,0,0.06172839506172839,167.6543209876543,0)"
                     xlink:href="#o"/>
                <use transform="matrix(0.06172839506172839,0,0,0.06172839506172839,173.82716049382714,0)"
                     xlink:href="#i"/>
                <use transform="matrix(0.06172839506172839,0,0,0.06172839506172839,186.1728395061728,0)"
                     xlink:href="#p"/>
                <use transform="matrix(0.06172839506172839,0,0,0.06172839506172839,193.51851851851848,0)"
                     xlink:href="#j"/>
            </g>
            <path d="M30-248c118-7 216 8 213 122C240-48 200 0 122 0H30v-248zM63-27c89 8 146-16 146-99s-60-101-146-95v194"
                  id="q"/>
            <path d="M160-131c35 5 61 23 61 61C221 17 115-2 30 0v-248c76 3 177-17 177 60 0 33-19 50-47 57zm-97-11c50-1 110 9 110-42 0-47-63-36-110-37v79zm0 115c55-2 124 14 124-45 0-56-70-42-124-44v89"
                  id="r"/>
            <path d="M212-179c-10-28-35-45-73-45-59 0-87 40-87 99 0 60 29 101 89 101 43 0 62-24 78-52l27 14C228-24 195 4 139 4 59 4 22-46 18-125c-6-104 99-153 187-111 19 9 31 26 39 46"
                  id="s"/>
            <path d="M117-194c89-4 53 116 60 194h-32v-121c0-31-8-49-39-48C34-167 62-67 57 0H25l-1-190h30c1 10-1 24 2 32 11-22 29-35 61-36"
                  id="t"/>
            <path d="M96-169c-40 0-48 33-48 73s9 75 48 75c24 0 41-14 43-38l32 2c-6 37-31 61-74 61-59 0-76-41-82-99-10-93 101-131 147-64 4 7 5 14 7 22l-32 3c-4-21-16-35-41-35"
                  id="u"/>
            <g id="b">
                <use transform="matrix(0.06172839506172839,0,0,0.06172839506172839,0,0)" xlink:href="#q"/>
                <use transform="matrix(0.06172839506172839,0,0,0.06172839506172839,15.987654320987653,0)"
                     xlink:href="#r"/>
                <use transform="matrix(0.06172839506172839,0,0,0.06172839506172839,30.80246913580247,0)"
                     xlink:href="#s"/>
                <use transform="matrix(0.06172839506172839,0,0,0.06172839506172839,46.79012345679012,0)"
                     xlink:href="#i"/>
                <use transform="matrix(0.06172839506172839,0,0,0.06172839506172839,59.1358024691358,0)"
                     xlink:href="#t"/>
                <use transform="matrix(0.06172839506172839,0,0,0.06172839506172839,71.48148148148148,0)"
                     xlink:href="#t"/>
                <use transform="matrix(0.06172839506172839,0,0,0.06172839506172839,83.82716049382717,0)"
                     xlink:href="#k"/>
                <use transform="matrix(0.06172839506172839,0,0,0.06172839506172839,96.17283950617285,0)"
                     xlink:href="#u"/>
                <use transform="matrix(0.06172839506172839,0,0,0.06172839506172839,107.28395061728396,0)"
                     xlink:href="#o"/>
                <use transform="matrix(0.06172839506172839,0,0,0.06172839506172839,113.4567901234568,0)"
                     xlink:href="#n"/>
                <use transform="matrix(0.06172839506172839,0,0,0.06172839506172839,118.33333333333334,0)"
                     xlink:href="#i"/>
                <use transform="matrix(0.06172839506172839,0,0,0.06172839506172839,130.679012345679,0)"
                     xlink:href="#t"/>
            </g>
            <path d="M18-100v-36l175-74v27L42-118l151 64v27" id="v"/>
            <path d="M101-234c-31-9-42 10-38 44h38v23H63V0H32v-167H5v-23h27c-7-52 17-82 69-68v24" id="w"/>
            <path d="M141-36C126-15 110 5 73 4 37 3 15-17 15-53c-1-64 63-63 125-63 3-35-9-54-41-54-24 1-41 7-42 31l-33-3c5-37 33-52 76-52 45 0 72 20 72 64v82c-1 20 7 32 28 27v20c-31 9-61-2-59-35zM48-53c0 20 12 33 32 33 41-3 63-29 60-74-43 2-92-5-92 41"
                  id="x"/>
            <path d="M18-27v-27l151-64-151-65v-27l175 74v36" id="y"/>
            <g id="c">
                <use transform="matrix(0.06172839506172839,0,0,0.06172839506172839,0,0)" xlink:href="#v"/>
                <use transform="matrix(0.06172839506172839,0,0,0.06172839506172839,12.962962962962962,0)"
                     xlink:href="#v"/>
                <use transform="matrix(0.06172839506172839,0,0,0.06172839506172839,25.925925925925924,0)"
                     xlink:href="#n"/>
                <use transform="matrix(0.06172839506172839,0,0,0.06172839506172839,30.80246913580247,0)"
                     xlink:href="#t"/>
                <use transform="matrix(0.06172839506172839,0,0,0.06172839506172839,43.148148148148145,0)"
                     xlink:href="#o"/>
                <use transform="matrix(0.06172839506172839,0,0,0.06172839506172839,49.32098765432099,0)"
                     xlink:href="#k"/>
                <use transform="matrix(0.06172839506172839,0,0,0.06172839506172839,61.666666666666664,0)"
                     xlink:href="#p"/>
                <use transform="matrix(0.06172839506172839,0,0,0.06172839506172839,69.01234567901234,0)"
                     xlink:href="#w"/>
                <use transform="matrix(0.06172839506172839,0,0,0.06172839506172839,75.18518518518518,0)"
                     xlink:href="#x"/>
                <use transform="matrix(0.06172839506172839,0,0,0.06172839506172839,87.53086419753086,0)"
                     xlink:href="#u"/>
                <use transform="matrix(0.06172839506172839,0,0,0.06172839506172839,98.64197530864197,0)"
                     xlink:href="#k"/>
                <use transform="matrix(0.06172839506172839,0,0,0.06172839506172839,110.98765432098766,0)"
                     xlink:href="#y"/>
                <use transform="matrix(0.06172839506172839,0,0,0.06172839506172839,123.95061728395062,0)"
                     xlink:href="#y"/>
            </g>
            <path d="M127-220V0H93v-220H8v-28h204v28h-85" id="z"/>
            <path d="M115-194c53 0 69 39 70 98 0 66-23 100-70 100C84 3 66-7 56-30L54 0H23l1-261h32v101c10-23 28-34 59-34zm-8 174c40 0 45-34 45-75 0-40-5-75-45-74-42 0-51 32-51 76 0 43 10 73 51 73"
                  id="A"/>
            <path d="M143 4C61 4 22-44 18-125c-5-107 100-154 193-111 17 8 29 25 37 43l-32 9c-13-25-37-40-76-40-61 0-88 39-88 99 0 61 29 100 91 101 35 0 62-11 79-27v-45h-74v-28h105v86C228-13 192 4 143 4"
                  id="B"/>
            <path d="M206 0h-36l-40-164L89 0H53L-1-190h32L70-26l43-164h34l41 164 42-164h31" id="C"/>
            <g id="d">
                <use transform="matrix(0.06172839506172839,0,0,0.06172839506172839,0,0)" xlink:href="#e"/>
                <use transform="matrix(0.06172839506172839,0,0,0.06172839506172839,14.814814814814813,0)"
                     xlink:href="#f"/>
                <use transform="matrix(0.06172839506172839,0,0,0.06172839506172839,33.2716049382716,0)"
                     xlink:href="#g"/>
                <use transform="matrix(0.06172839506172839,0,0,0.06172839506172839,45.61728395061728,0)"
                     xlink:href="#h"/>
                <use transform="matrix(0.06172839506172839,0,0,0.06172839506172839,50.49382716049382,0)"
                     xlink:href="#i"/>
                <use transform="matrix(0.06172839506172839,0,0,0.06172839506172839,62.8395061728395,0)"
                     xlink:href="#j"/>
                <use transform="matrix(0.06172839506172839,0,0,0.06172839506172839,73.9506172839506,0)"
                     xlink:href="#k"/>
                <use transform="matrix(0.06172839506172839,0,0,0.06172839506172839,86.29629629629629,0)"
                     xlink:href="#k"/>
                <use transform="matrix(0.06172839506172839,0,0,0.06172839506172839,98.64197530864197,0)"
                     xlink:href="#z"/>
                <use transform="matrix(0.06172839506172839,0,0,0.06172839506172839,109.69135802469135,0)"
                     xlink:href="#x"/>
                <use transform="matrix(0.06172839506172839,0,0,0.06172839506172839,122.03703703703704,0)"
                     xlink:href="#A"/>
                <use transform="matrix(0.06172839506172839,0,0,0.06172839506172839,134.3827160493827,0)"
                     xlink:href="#h"/>
                <use transform="matrix(0.06172839506172839,0,0,0.06172839506172839,139.25925925925924,0)"
                     xlink:href="#k"/>
                <use transform="matrix(0.06172839506172839,0,0,0.06172839506172839,151.6049382716049,0)"
                     xlink:href="#B"/>
                <use transform="matrix(0.06172839506172839,0,0,0.06172839506172839,168.88888888888886,0)"
                     xlink:href="#x"/>
                <use transform="matrix(0.06172839506172839,0,0,0.06172839506172839,181.23456790123453,0)"
                     xlink:href="#o"/>
                <use transform="matrix(0.06172839506172839,0,0,0.06172839506172839,187.40740740740736,0)"
                     xlink:href="#k"/>
                <use transform="matrix(0.06172839506172839,0,0,0.06172839506172839,199.75308641975303,0)"
                     xlink:href="#C"/>
                <use transform="matrix(0.06172839506172839,0,0,0.06172839506172839,215.74074074074068,0)"
                     xlink:href="#x"/>
                <use transform="matrix(0.06172839506172839,0,0,0.06172839506172839,228.08641975308635,0)"
                     xlink:href="#j"/>
            </g>
        </defs>
    </g>
</svg>