<svg xmlns="http://www.w3.org/2000/svg" xmlns:xlink="http://www.w3.org/1999/xlink"  width="780"
     height="465">
    <g transform="translate(100 34)">
        <path d="M10 217a6 6 0 0 1 6-6h638a6 6 0 0 1 6 6v188a6 6 0 0 1-6 6H16a6 6 0 0 1-6-6z" fill-opacity="0"/>
        <path d="M10.5 217c0 .28-.22.5-.5.5s-.5-.22-.5-.5.22-.5.5-.5.5.22.5.5zm1.76-4.24c0 .27-.23.5-.5.5-.28 0-.5-.23-.5-.5 0-.28.22-.5.5-.5.27 0 .5.22.5.5zM16.5 211c0 .28-.22.5-.5.5s-.5-.22-.5-.5.22-.5.5-.5.5.22.5.5zm4 0c0 .28-.24.5-.5.5-.3 0-.5-.22-.5-.5s.2-.5.5-.5c.26 0 .5.22.5.5zm3.98 0c0 .28-.23.5-.5.5-.28 0-.5-.22-.5-.5s.22-.5.5-.5c.27 0 .5.22.5.5zm3.98 0c0 .28-.22.5-.5.5-.27 0-.5-.22-.5-.5s.23-.5.5-.5c.28 0 .5.22.5.5zm4 0c0 .28-.23.5-.5.5-.3 0-.5-.22-.5-.5s.2-.5.5-.5c.27 0 .5.22.5.5zm3.98 0c0 .28-.23.5-.5.5-.28 0-.5-.22-.5-.5s.22-.5.5-.5c.27 0 .5.22.5.5zm3.98 0c0 .28-.22.5-.5.5-.27 0-.5-.22-.5-.5s.23-.5.5-.5c.28 0 .5.22.5.5zm4 0c0 .28-.23.5-.5.5-.28 0-.5-.22-.5-.5s.22-.5.5-.5c.27 0 .5.22.5.5zm3.98 0c0 .28-.22.5-.5.5s-.5-.22-.5-.5.22-.5.5-.5.5.22.5.5zm4 0c0 .28-.24.5-.5.5-.3 0-.5-.22-.5-.5s.2-.5.5-.5c.26 0 .5.22.5.5zm3.98 0c0 .28-.23.5-.5.5-.28 0-.5-.22-.5-.5s.22-.5.5-.5c.27 0 .5.22.5.5zm3.98 0c0 .28-.22.5-.5.5-.27 0-.5-.22-.5-.5s.23-.5.5-.5c.28 0 .5.22.5.5zm4 0c0 .28-.23.5-.5.5-.3 0-.5-.22-.5-.5s.2-.5.5-.5c.27 0 .5.22.5.5zm3.98 0c0 .28-.23.5-.5.5-.28 0-.5-.22-.5-.5s.22-.5.5-.5c.27 0 .5.22.5.5zm3.98 0c0 .28-.22.5-.5.5-.27 0-.5-.22-.5-.5s.23-.5.5-.5c.28 0 .5.22.5.5zm4 0c0 .28-.23.5-.5.5-.28 0-.5-.22-.5-.5s.22-.5.5-.5c.27 0 .5.22.5.5zm3.98 0c0 .28-.22.5-.5.5s-.5-.22-.5-.5.22-.5.5-.5.5.22.5.5zm4 0c0 .28-.24.5-.5.5-.3 0-.5-.22-.5-.5s.2-.5.5-.5c.26 0 .5.22.5.5zm3.98 0c0 .28-.23.5-.5.5-.28 0-.5-.22-.5-.5s.22-.5.5-.5c.27 0 .5.22.5.5zm3.98 0c0 .28-.22.5-.5.5-.27 0-.5-.22-.5-.5s.23-.5.5-.5c.28 0 .5.22.5.5zm4 0c0 .28-.23.5-.5.5-.3 0-.5-.22-.5-.5s.2-.5.5-.5c.27 0 .5.22.5.5zm3.98 0c0 .28-.23.5-.5.5-.28 0-.5-.22-.5-.5s.22-.5.5-.5c.27 0 .5.22.5.5zm3.98 0c0 .28-.22.5-.5.5-.27 0-.5-.22-.5-.5s.23-.5.5-.5c.28 0 .5.22.5.5zm4 0c0 .28-.23.5-.5.5-.28 0-.5-.22-.5-.5s.22-.5.5-.5c.27 0 .5.22.5.5zm3.98 0c0 .28-.22.5-.5.5s-.5-.22-.5-.5.22-.5.5-.5.5.22.5.5zm4 0c0 .28-.24.5-.5.5-.3 0-.5-.22-.5-.5s.2-.5.5-.5c.26 0 .5.22.5.5zm3.97 0c0 .28-.22.5-.5.5-.27 0-.5-.22-.5-.5s.23-.5.5-.5c.28 0 .5.22.5.5zm4 0c0 .28-.23.5-.5.5-.28 0-.5-.22-.5-.5s.22-.5.5-.5c.27 0 .5.22.5.5zm3.98 0c0 .28-.22.5-.5.5s-.5-.22-.5-.5.22-.5.5-.5.5.22.5.5zm4 0c0 .28-.24.5-.5.5-.3 0-.5-.22-.5-.5s.2-.5.5-.5c.26 0 .5.22.5.5zm3.97 0c0 .28-.22.5-.5.5-.27 0-.5-.22-.5-.5s.23-.5.5-.5c.28 0 .5.22.5.5zm4 0c0 .28-.23.5-.5.5-.28 0-.5-.22-.5-.5s.22-.5.5-.5c.27 0 .5.22.5.5zm3.98 0c0 .28-.22.5-.5.5s-.5-.22-.5-.5.22-.5.5-.5.5.22.5.5zm4 0c0 .28-.24.5-.5.5-.3 0-.5-.22-.5-.5s.2-.5.5-.5c.26 0 .5.22.5.5zm3.97 0c0 .28-.22.5-.5.5-.27 0-.5-.22-.5-.5s.23-.5.5-.5c.28 0 .5.22.5.5zm4 0c0 .28-.23.5-.5.5-.28 0-.5-.22-.5-.5s.22-.5.5-.5c.27 0 .5.22.5.5zm3.98 0c0 .28-.22.5-.5.5s-.5-.22-.5-.5.22-.5.5-.5.5.22.5.5zm4 0c0 .28-.24.5-.5.5-.3 0-.5-.22-.5-.5s.2-.5.5-.5c.26 0 .5.22.5.5zm3.97 0c0 .28-.22.5-.5.5-.27 0-.5-.22-.5-.5s.23-.5.5-.5c.28 0 .5.22.5.5zm4 0c0 .28-.23.5-.5.5-.28 0-.5-.22-.5-.5s.22-.5.5-.5c.27 0 .5.22.5.5zm3.98 0c0 .28-.22.5-.5.5s-.5-.22-.5-.5.22-.5.5-.5.5.22.5.5zm4 0c0 .28-.24.5-.5.5-.3 0-.5-.22-.5-.5s.2-.5.5-.5c.26 0 .5.22.5.5zm3.97 0c0 .28-.22.5-.5.5-.27 0-.5-.22-.5-.5s.23-.5.5-.5c.28 0 .5.22.5.5zm4 0c0 .28-.23.5-.5.5-.28 0-.5-.22-.5-.5s.22-.5.5-.5c.27 0 .5.22.5.5zm3.98 0c0 .28-.22.5-.5.5s-.5-.22-.5-.5.22-.5.5-.5.5.22.5.5zm4 0c0 .28-.24.5-.5.5-.3 0-.5-.22-.5-.5s.2-.5.5-.5c.26 0 .5.22.5.5zm3.98 0c0 .28-.23.5-.5.5-.28 0-.5-.22-.5-.5s.22-.5.5-.5c.27 0 .5.22.5.5zm3.98 0c0 .28-.2.5-.5.5-.26 0-.5-.22-.5-.5s.24-.5.5-.5c.3 0 .5.22.5.5zm4 0c0 .28-.22.5-.5.5s-.5-.22-.5-.5.22-.5.5-.5.5.22.5.5zm4 0c0 .28-.24.5-.5.5-.3 0-.5-.22-.5-.5s.2-.5.5-.5c.26 0 .5.22.5.5zm3.97 0c0 .28-.22.5-.5.5-.27 0-.5-.22-.5-.5s.23-.5.5-.5c.28 0 .5.22.5.5zm4 0c0 .28-.23.5-.5.5-.28 0-.5-.22-.5-.5s.22-.5.5-.5c.27 0 .5.22.5.5zm3.98 0c0 .28-.22.5-.5.5s-.5-.22-.5-.5.22-.5.5-.5.5.22.5.5zm4 0c0 .28-.24.5-.5.5-.3 0-.5-.22-.5-.5s.2-.5.5-.5c.26 0 .5.22.5.5zm3.97 0c0 .28-.22.5-.5.5-.27 0-.5-.22-.5-.5s.23-.5.5-.5c.28 0 .5.22.5.5zm4 0c0 .28-.23.5-.5.5-.28 0-.5-.22-.5-.5s.22-.5.5-.5c.27 0 .5.22.5.5zm3.98 0c0 .28-.22.5-.5.5s-.5-.22-.5-.5.22-.5.5-.5.5.22.5.5zm4 0c0 .28-.24.5-.5.5-.3 0-.5-.22-.5-.5s.2-.5.5-.5c.26 0 .5.22.5.5zm3.97 0c0 .28-.22.5-.5.5-.27 0-.5-.22-.5-.5s.23-.5.5-.5c.28 0 .5.22.5.5zm4 0c0 .28-.23.5-.5.5-.28 0-.5-.22-.5-.5s.22-.5.5-.5c.27 0 .5.22.5.5zm3.98 0c0 .28-.22.5-.5.5s-.5-.22-.5-.5.22-.5.5-.5.5.22.5.5zm4 0c0 .28-.24.5-.5.5-.3 0-.5-.22-.5-.5s.2-.5.5-.5c.26 0 .5.22.5.5zm3.98 0c0 .28-.23.5-.5.5-.28 0-.5-.22-.5-.5s.22-.5.5-.5c.27 0 .5.22.5.5zm3.98 0c0 .28-.2.5-.5.5-.26 0-.5-.22-.5-.5s.24-.5.5-.5c.3 0 .5.22.5.5zm4 0c0 .28-.22.5-.5.5s-.5-.22-.5-.5.22-.5.5-.5.5.22.5.5zm4 0c0 .28-.24.5-.5.5-.3 0-.5-.22-.5-.5s.2-.5.5-.5c.26 0 .5.22.5.5zm3.98 0c0 .28-.23.5-.5.5-.28 0-.5-.22-.5-.5s.22-.5.5-.5c.27 0 .5.22.5.5zm3.98 0c0 .28-.22.5-.5.5-.27 0-.5-.22-.5-.5s.23-.5.5-.5c.28 0 .5.22.5.5zm4 0c0 .28-.23.5-.5.5-.3 0-.5-.22-.5-.5s.2-.5.5-.5c.27 0 .5.22.5.5zm3.98 0c0 .28-.23.5-.5.5-.28 0-.5-.22-.5-.5s.22-.5.5-.5c.27 0 .5.22.5.5zm4 0c0 .28-.24.5-.5.5-.3 0-.5-.22-.5-.5s.2-.5.5-.5c.26 0 .5.22.5.5zm3.97 0c0 .28-.2.5-.5.5-.26 0-.5-.22-.5-.5s.24-.5.5-.5c.3 0 .5.22.5.5zm4 0c0 .28-.22.5-.5.5s-.5-.22-.5-.5.22-.5.5-.5.5.22.5.5zm4 0c0 .28-.24.5-.5.5-.3 0-.5-.22-.5-.5s.2-.5.5-.5c.26 0 .5.22.5.5zm3.97 0c0 .28-.22.5-.5.5-.27 0-.5-.22-.5-.5s.23-.5.5-.5c.28 0 .5.22.5.5zm4 0c0 .28-.23.5-.5.5-.28 0-.5-.22-.5-.5s.22-.5.5-.5c.27 0 .5.22.5.5zm3.98 0c0 .28-.22.5-.5.5s-.5-.22-.5-.5.22-.5.5-.5.5.22.5.5zm4 0c0 .28-.24.5-.5.5-.3 0-.5-.22-.5-.5s.2-.5.5-.5c.26 0 .5.22.5.5zm3.97 0c0 .28-.22.5-.5.5-.27 0-.5-.22-.5-.5s.23-.5.5-.5c.28 0 .5.22.5.5zm4 0c0 .28-.23.5-.5.5-.28 0-.5-.22-.5-.5s.22-.5.5-.5c.27 0 .5.22.5.5zm3.98 0c0 .28-.22.5-.5.5s-.5-.22-.5-.5.22-.5.5-.5.5.22.5.5zm4 0c0 .28-.24.5-.5.5-.3 0-.5-.22-.5-.5s.2-.5.5-.5c.26 0 .5.22.5.5zm3.98 0c0 .28-.23.5-.5.5-.28 0-.5-.22-.5-.5s.22-.5.5-.5c.27 0 .5.22.5.5zm3.98 0c0 .28-.22.5-.5.5-.27 0-.5-.22-.5-.5s.23-.5.5-.5c.28 0 .5.22.5.5zm4 0c0 .28-.23.5-.5.5-.3 0-.5-.22-.5-.5s.2-.5.5-.5c.27 0 .5.22.5.5zm3.98 0c0 .28-.23.5-.5.5-.28 0-.5-.22-.5-.5s.22-.5.5-.5c.27 0 .5.22.5.5zm4 0c0 .28-.24.5-.5.5-.3 0-.5-.22-.5-.5s.2-.5.5-.5c.26 0 .5.22.5.5zm3.97 0c0 .28-.2.5-.5.5-.26 0-.5-.22-.5-.5s.24-.5.5-.5c.3 0 .5.22.5.5zm4 0c0 .28-.22.5-.5.5s-.5-.22-.5-.5.22-.5.5-.5.5.22.5.5zm4 0c0 .28-.24.5-.5.5-.3 0-.5-.22-.5-.5s.2-.5.5-.5c.26 0 .5.22.5.5zm3.98 0c0 .28-.23.5-.5.5-.28 0-.5-.22-.5-.5s.22-.5.5-.5c.27 0 .5.22.5.5zm3.98 0c0 .28-.22.5-.5.5-.27 0-.5-.22-.5-.5s.23-.5.5-.5c.28 0 .5.22.5.5zm4 0c0 .28-.23.5-.5.5-.3 0-.5-.22-.5-.5s.2-.5.5-.5c.27 0 .5.22.5.5zm3.98 0c0 .28-.23.5-.5.5-.28 0-.5-.22-.5-.5s.22-.5.5-.5c.27 0 .5.22.5.5zm4 0c0 .28-.24.5-.5.5-.3 0-.5-.22-.5-.5s.2-.5.5-.5c.26 0 .5.22.5.5zm3.97 0c0 .28-.2.5-.5.5-.26 0-.5-.22-.5-.5s.24-.5.5-.5c.3 0 .5.22.5.5zm4 0c0 .28-.22.5-.5.5s-.5-.22-.5-.5.22-.5.5-.5.5.22.5.5zm4 0c0 .28-.24.5-.5.5-.3 0-.5-.22-.5-.5s.2-.5.5-.5c.26 0 .5.22.5.5zm3.97 0c0 .28-.22.5-.5.5-.27 0-.5-.22-.5-.5s.23-.5.5-.5c.28 0 .5.22.5.5zm4 0c0 .28-.23.5-.5.5-.28 0-.5-.22-.5-.5s.22-.5.5-.5c.27 0 .5.22.5.5zm3.98 0c0 .28-.22.5-.5.5s-.5-.22-.5-.5.22-.5.5-.5.5.22.5.5zm4 0c0 .28-.24.5-.5.5-.3 0-.5-.22-.5-.5s.2-.5.5-.5c.26 0 .5.22.5.5zm3.98 0c0 .28-.23.5-.5.5-.28 0-.5-.22-.5-.5s.22-.5.5-.5c.27 0 .5.22.5.5zm3.98 0c0 .28-.2.5-.5.5-.26 0-.5-.22-.5-.5s.24-.5.5-.5c.3 0 .5.22.5.5zm4 0c0 .28-.22.5-.5.5s-.5-.22-.5-.5.22-.5.5-.5.5.22.5.5zm4 0c0 .28-.24.5-.5.5-.3 0-.5-.22-.5-.5s.2-.5.5-.5c.26 0 .5.22.5.5zm3.98 0c0 .28-.23.5-.5.5-.28 0-.5-.22-.5-.5s.22-.5.5-.5c.27 0 .5.22.5.5zm3.98 0c0 .28-.22.5-.5.5-.27 0-.5-.22-.5-.5s.23-.5.5-.5c.28 0 .5.22.5.5zm4 0c0 .28-.23.5-.5.5-.3 0-.5-.22-.5-.5s.2-.5.5-.5c.27 0 .5.22.5.5zm3.98 0c0 .28-.23.5-.5.5-.28 0-.5-.22-.5-.5s.22-.5.5-.5c.27 0 .5.22.5.5zm4 0c0 .28-.24.5-.5.5-.3 0-.5-.22-.5-.5s.2-.5.5-.5c.26 0 .5.22.5.5zm3.97 0c0 .28-.2.5-.5.5-.26 0-.5-.22-.5-.5s.24-.5.5-.5c.3 0 .5.22.5.5zm4 0c0 .28-.22.5-.5.5s-.5-.22-.5-.5.22-.5.5-.5.5.22.5.5zm4 0c0 .28-.24.5-.5.5-.3 0-.5-.22-.5-.5s.2-.5.5-.5c.26 0 .5.22.5.5zm3.97 0c0 .28-.22.5-.5.5-.27 0-.5-.22-.5-.5s.23-.5.5-.5c.28 0 .5.22.5.5zm4 0c0 .28-.23.5-.5.5-.28 0-.5-.22-.5-.5s.22-.5.5-.5c.27 0 .5.22.5.5zm3.98 0c0 .28-.22.5-.5.5s-.5-.22-.5-.5.22-.5.5-.5.5.22.5.5zm4 0c0 .28-.24.5-.5.5-.3 0-.5-.22-.5-.5s.2-.5.5-.5c.26 0 .5.22.5.5zm3.97 0c0 .28-.22.5-.5.5-.27 0-.5-.22-.5-.5s.23-.5.5-.5c.28 0 .5.22.5.5zm4 0c0 .28-.23.5-.5.5-.28 0-.5-.22-.5-.5s.22-.5.5-.5c.27 0 .5.22.5.5zm3.98 0c0 .28-.22.5-.5.5s-.5-.22-.5-.5.22-.5.5-.5.5.22.5.5zm4 0c0 .28-.24.5-.5.5-.3 0-.5-.22-.5-.5s.2-.5.5-.5c.26 0 .5.22.5.5zm3.98 0c0 .28-.23.5-.5.5-.28 0-.5-.22-.5-.5s.22-.5.5-.5c.27 0 .5.22.5.5zm3.98 0c0 .28-.22.5-.5.5-.27 0-.5-.22-.5-.5s.23-.5.5-.5c.28 0 .5.22.5.5zm4 0c0 .28-.23.5-.5.5-.3 0-.5-.22-.5-.5s.2-.5.5-.5c.27 0 .5.22.5.5zm3.98 0c0 .28-.23.5-.5.5-.28 0-.5-.22-.5-.5s.22-.5.5-.5c.27 0 .5.22.5.5zm3.98 0c0 .28-.22.5-.5.5-.27 0-.5-.22-.5-.5s.23-.5.5-.5c.28 0 .5.22.5.5zm4 0c0 .28-.23.5-.5.5-.28 0-.5-.22-.5-.5s.22-.5.5-.5c.27 0 .5.22.5.5zm3.98 0c0 .28-.22.5-.5.5s-.5-.22-.5-.5.22-.5.5-.5.5.22.5.5zm4 0c0 .28-.24.5-.5.5-.3 0-.5-.22-.5-.5s.2-.5.5-.5c.26 0 .5.22.5.5zm3.98 0c0 .28-.23.5-.5.5-.28 0-.5-.22-.5-.5s.22-.5.5-.5c.27 0 .5.22.5.5zm3.98 0c0 .28-.22.5-.5.5-.27 0-.5-.22-.5-.5s.23-.5.5-.5c.28 0 .5.22.5.5zm4 0c0 .28-.23.5-.5.5-.3 0-.5-.22-.5-.5s.2-.5.5-.5c.27 0 .5.22.5.5zm3.98 0c0 .28-.23.5-.5.5-.28 0-.5-.22-.5-.5s.22-.5.5-.5c.27 0 .5.22.5.5zm4 0c0 .28-.24.5-.5.5-.3 0-.5-.22-.5-.5s.2-.5.5-.5c.26 0 .5.22.5.5zm3.97 0c0 .28-.2.5-.5.5-.26 0-.5-.22-.5-.5s.24-.5.5-.5c.3 0 .5.22.5.5zm4 0c0 .28-.22.5-.5.5s-.5-.22-.5-.5.22-.5.5-.5.5.22.5.5zm4 0c0 .28-.24.5-.5.5-.3 0-.5-.22-.5-.5s.2-.5.5-.5c.26 0 .5.22.5.5zm3.98 0c0 .28-.23.5-.5.5-.28 0-.5-.22-.5-.5s.22-.5.5-.5c.27 0 .5.22.5.5zm3.98 0c0 .28-.22.5-.5.5-.27 0-.5-.22-.5-.5s.23-.5.5-.5c.28 0 .5.22.5.5zm4 0c0 .28-.23.5-.5.5-.3 0-.5-.22-.5-.5s.2-.5.5-.5c.27 0 .5.22.5.5zm3.98 0c0 .28-.23.5-.5.5-.28 0-.5-.22-.5-.5s.22-.5.5-.5c.27 0 .5.22.5.5zm4 0c0 .28-.24.5-.5.5-.3 0-.5-.22-.5-.5s.2-.5.5-.5c.26 0 .5.22.5.5zm3.97 0c0 .28-.2.5-.5.5-.26 0-.5-.22-.5-.5s.24-.5.5-.5c.3 0 .5.22.5.5zm4 0c0 .28-.22.5-.5.5s-.5-.22-.5-.5.22-.5.5-.5.5.22.5.5zm4 0c0 .28-.24.5-.5.5-.3 0-.5-.22-.5-.5s.2-.5.5-.5c.26 0 .5.22.5.5zm3.97 0c0 .28-.22.5-.5.5-.27 0-.5-.22-.5-.5s.23-.5.5-.5c.28 0 .5.22.5.5zm4 0c0 .28-.23.5-.5.5-.28 0-.5-.22-.5-.5s.22-.5.5-.5c.27 0 .5.22.5.5zm3.98 0c0 .28-.22.5-.5.5s-.5-.22-.5-.5.22-.5.5-.5.5.22.5.5zm4 0c0 .28-.24.5-.5.5-.3 0-.5-.22-.5-.5s.2-.5.5-.5c.26 0 .5.22.5.5zm3.98 0c0 .28-.23.5-.5.5-.28 0-.5-.22-.5-.5s.22-.5.5-.5c.27 0 .5.22.5.5zm3.98 0c0 .28-.2.5-.5.5-.26 0-.5-.22-.5-.5s.24-.5.5-.5c.3 0 .5.22.5.5zm4 0c0 .28-.22.5-.5.5s-.5-.22-.5-.5.22-.5.5-.5.5.22.5.5zm4 0c0 .28-.24.5-.5.5-.3 0-.5-.22-.5-.5s.2-.5.5-.5c.26 0 .5.22.5.5zm3.98 0c0 .28-.23.5-.5.5-.28 0-.5-.22-.5-.5s.22-.5.5-.5c.27 0 .5.22.5.5zm3.98 0c0 .28-.22.5-.5.5-.27 0-.5-.22-.5-.5s.23-.5.5-.5c.28 0 .5.22.5.5zm4 0c0 .28-.23.5-.5.5-.3 0-.5-.22-.5-.5s.2-.5.5-.5c.27 0 .5.22.5.5zm3.98 0c0 .28-.23.5-.5.5-.28 0-.5-.22-.5-.5s.22-.5.5-.5c.27 0 .5.22.5.5zm4 0c0 .28-.24.5-.5.5-.3 0-.5-.22-.5-.5s.2-.5.5-.5c.26 0 .5.22.5.5zm3.97 0c0 .28-.2.5-.5.5-.26 0-.5-.22-.5-.5s.24-.5.5-.5c.3 0 .5.22.5.5zm4 0c0 .28-.22.5-.5.5s-.5-.22-.5-.5.22-.5.5-.5.5.22.5.5zm4.24 1.76c0 .27-.22.5-.5.5-.27 0-.5-.23-.5-.5 0-.28.23-.5.5-.5.28 0 .5.22.5.5zm1.76 4.24c0 .28-.22.5-.5.5s-.5-.22-.5-.5.22-.5.5-.5.5.22.5.5zm0 4c0 .28-.22.5-.5.5s-.5-.22-.5-.5.22-.5.5-.5.5.22.5.5zm0 4c0 .28-.22.5-.5.5s-.5-.22-.5-.5.22-.5.5-.5.5.22.5.5zm0 4c0 .28-.22.5-.5.5s-.5-.22-.5-.5.22-.5.5-.5.5.22.5.5zm0 4c0 .28-.22.5-.5.5s-.5-.22-.5-.5.22-.5.5-.5.5.22.5.5zm0 4c0 .28-.22.5-.5.5s-.5-.22-.5-.5.22-.5.5-.5.5.22.5.5zm0 4c0 .28-.22.5-.5.5s-.5-.22-.5-.5.22-.5.5-.5.5.22.5.5zm0 4c0 .28-.22.5-.5.5s-.5-.22-.5-.5.22-.5.5-.5.5.22.5.5zm0 4c0 .28-.22.5-.5.5s-.5-.22-.5-.5.22-.5.5-.5.5.22.5.5zm0 4c0 .28-.22.5-.5.5s-.5-.22-.5-.5.22-.5.5-.5.5.22.5.5zm0 4c0 .28-.22.5-.5.5s-.5-.22-.5-.5.22-.5.5-.5.5.22.5.5zm0 4c0 .28-.22.5-.5.5s-.5-.22-.5-.5.22-.5.5-.5.5.22.5.5zm0 4c0 .28-.22.5-.5.5s-.5-.22-.5-.5.22-.5.5-.5.5.22.5.5zm0 4c0 .28-.22.5-.5.5s-.5-.22-.5-.5.22-.5.5-.5.5.22.5.5zm0 4c0 .28-.22.5-.5.5s-.5-.22-.5-.5.22-.5.5-.5.5.22.5.5zm0 4c0 .28-.22.5-.5.5s-.5-.22-.5-.5.22-.5.5-.5.5.22.5.5zm0 4c0 .28-.22.5-.5.5s-.5-.22-.5-.5.22-.5.5-.5.5.22.5.5zm0 4c0 .28-.22.5-.5.5s-.5-.22-.5-.5.22-.5.5-.5.5.22.5.5zm0 4c0 .28-.22.5-.5.5s-.5-.22-.5-.5.22-.5.5-.5.5.22.5.5zm0 4c0 .28-.22.5-.5.5s-.5-.22-.5-.5.22-.5.5-.5.5.22.5.5zm0 4c0 .28-.22.5-.5.5s-.5-.22-.5-.5.22-.5.5-.5.5.22.5.5zm0 4c0 .28-.22.5-.5.5s-.5-.22-.5-.5.22-.5.5-.5.5.22.5.5zm0 4c0 .28-.22.5-.5.5s-.5-.22-.5-.5.22-.5.5-.5.5.22.5.5zm0 4c0 .28-.22.5-.5.5s-.5-.22-.5-.5.22-.5.5-.5.5.22.5.5zm0 4c0 .28-.22.5-.5.5s-.5-.22-.5-.5.22-.5.5-.5.5.22.5.5zm0 4c0 .28-.22.5-.5.5s-.5-.22-.5-.5.22-.5.5-.5.5.22.5.5zm0 4c0 .28-.22.5-.5.5s-.5-.22-.5-.5.22-.5.5-.5.5.22.5.5zm0 4c0 .28-.22.5-.5.5s-.5-.22-.5-.5.22-.5.5-.5.5.22.5.5zm0 4c0 .28-.22.5-.5.5s-.5-.22-.5-.5.22-.5.5-.5.5.22.5.5zm0 4c0 .28-.22.5-.5.5s-.5-.22-.5-.5.22-.5.5-.5.5.22.5.5zm0 4c0 .28-.22.5-.5.5s-.5-.22-.5-.5.22-.5.5-.5.5.22.5.5zm0 4c0 .28-.22.5-.5.5s-.5-.22-.5-.5.22-.5.5-.5.5.22.5.5zm0 4c0 .28-.22.5-.5.5s-.5-.22-.5-.5.22-.5.5-.5.5.22.5.5zm0 4c0 .28-.22.5-.5.5s-.5-.22-.5-.5.22-.5.5-.5.5.22.5.5zm0 4c0 .28-.22.5-.5.5s-.5-.22-.5-.5.22-.5.5-.5.5.22.5.5zm0 4c0 .28-.22.5-.5.5s-.5-.22-.5-.5.22-.5.5-.5.5.22.5.5zm0 4c0 .28-.22.5-.5.5s-.5-.22-.5-.5.22-.5.5-.5.5.22.5.5zm0 4c0 .28-.22.5-.5.5s-.5-.22-.5-.5.22-.5.5-.5.5.22.5.5zm0 4c0 .28-.22.5-.5.5s-.5-.22-.5-.5.22-.5.5-.5.5.22.5.5zm0 4c0 .28-.22.5-.5.5s-.5-.22-.5-.5.22-.5.5-.5.5.22.5.5zm0 4c0 .28-.22.5-.5.5s-.5-.22-.5-.5.22-.5.5-.5.5.22.5.5zm0 4c0 .28-.22.5-.5.5s-.5-.22-.5-.5.22-.5.5-.5.5.22.5.5zm0 4c0 .28-.22.5-.5.5s-.5-.22-.5-.5.22-.5.5-.5.5.22.5.5zm0 4c0 .28-.22.5-.5.5s-.5-.22-.5-.5.22-.5.5-.5.5.22.5.5zm0 4c0 .28-.22.5-.5.5s-.5-.22-.5-.5.22-.5.5-.5.5.22.5.5zm0 4c0 .28-.22.5-.5.5s-.5-.22-.5-.5.22-.5.5-.5.5.22.5.5zm0 4c0 .28-.22.5-.5.5s-.5-.22-.5-.5.22-.5.5-.5.5.22.5.5zm0 4c0 .28-.22.5-.5.5s-.5-.22-.5-.5.22-.5.5-.5.5.22.5.5zm-1.76 4.24c0 .28-.22.5-.5.5-.27 0-.5-.22-.5-.5 0-.27.23-.5.5-.5.28 0 .5.23.5.5zM654.5 411c0 .28-.22.5-.5.5s-.5-.22-.5-.5.22-.5.5-.5.5.22.5.5zm-4 0c0 .28-.2.5-.5.5-.26 0-.5-.22-.5-.5s.24-.5.5-.5c.3 0 .5.22.5.5zm-3.98 0c0 .28-.22.5-.5.5-.27 0-.5-.22-.5-.5s.23-.5.5-.5c.28 0 .5.22.5.5zm-3.98 0c0 .28-.23.5-.5.5-.28 0-.5-.22-.5-.5s.22-.5.5-.5c.27 0 .5.22.5.5zm-4 0c0 .28-.2.5-.5.5-.27 0-.5-.22-.5-.5s.23-.5.5-.5c.3 0 .5.22.5.5zm-3.98 0c0 .28-.22.5-.5.5-.27 0-.5-.22-.5-.5s.23-.5.5-.5c.28 0 .5.22.5.5zm-3.98 0c0 .28-.23.5-.5.5-.28 0-.5-.22-.5-.5s.22-.5.5-.5c.27 0 .5.22.5.5zm-4 0c0 .28-.22.5-.5.5-.27 0-.5-.22-.5-.5s.23-.5.5-.5c.28 0 .5.22.5.5zm-3.98 0c0 .28-.22.5-.5.5s-.5-.22-.5-.5.22-.5.5-.5.5.22.5.5zm-4 0c0 .28-.2.5-.5.5-.26 0-.5-.22-.5-.5s.24-.5.5-.5c.3 0 .5.22.5.5zm-3.98 0c0 .28-.22.5-.5.5-.27 0-.5-.22-.5-.5s.23-.5.5-.5c.28 0 .5.22.5.5zm-3.98 0c0 .28-.23.5-.5.5-.28 0-.5-.22-.5-.5s.22-.5.5-.5c.27 0 .5.22.5.5zm-4 0c0 .28-.2.5-.5.5-.27 0-.5-.22-.5-.5s.23-.5.5-.5c.3 0 .5.22.5.5zm-3.98 0c0 .28-.22.5-.5.5-.27 0-.5-.22-.5-.5s.23-.5.5-.5c.28 0 .5.22.5.5zm-4 0c0 .28-.2.5-.5.5-.26 0-.5-.22-.5-.5s.24-.5.5-.5c.3 0 .5.22.5.5zm-3.97 0c0 .28-.24.5-.5.5-.3 0-.5-.22-.5-.5s.2-.5.5-.5c.26 0 .5.22.5.5zm-4 0c0 .28-.22.5-.5.5s-.5-.22-.5-.5.22-.5.5-.5.5.22.5.5zm-4 0c0 .28-.2.5-.5.5-.26 0-.5-.22-.5-.5s.24-.5.5-.5c.3 0 .5.22.5.5zm-3.98 0c0 .28-.22.5-.5.5-.27 0-.5-.22-.5-.5s.23-.5.5-.5c.28 0 .5.22.5.5zm-3.98 0c0 .28-.23.5-.5.5-.28 0-.5-.22-.5-.5s.22-.5.5-.5c.27 0 .5.22.5.5zm-4 0c0 .28-.2.5-.5.5-.27 0-.5-.22-.5-.5s.23-.5.5-.5c.3 0 .5.22.5.5zm-3.98 0c0 .28-.22.5-.5.5-.27 0-.5-.22-.5-.5s.23-.5.5-.5c.28 0 .5.22.5.5zm-4 0c0 .28-.2.5-.5.5-.26 0-.5-.22-.5-.5s.24-.5.5-.5c.3 0 .5.22.5.5zm-3.97 0c0 .28-.24.5-.5.5-.3 0-.5-.22-.5-.5s.2-.5.5-.5c.26 0 .5.22.5.5zm-4 0c0 .28-.22.5-.5.5s-.5-.22-.5-.5.22-.5.5-.5.5.22.5.5zm-4 0c0 .28-.2.5-.5.5-.26 0-.5-.22-.5-.5s.24-.5.5-.5c.3 0 .5.22.5.5zm-3.97 0c0 .28-.23.5-.5.5-.28 0-.5-.22-.5-.5s.22-.5.5-.5c.27 0 .5.22.5.5zm-4 0c0 .28-.22.5-.5.5-.27 0-.5-.22-.5-.5s.23-.5.5-.5c.28 0 .5.22.5.5zm-3.98 0c0 .28-.22.5-.5.5s-.5-.22-.5-.5.22-.5.5-.5.5.22.5.5zm-4 0c0 .28-.2.5-.5.5-.26 0-.5-.22-.5-.5s.24-.5.5-.5c.3 0 .5.22.5.5zm-3.98 0c0 .28-.22.5-.5.5-.27 0-.5-.22-.5-.5s.23-.5.5-.5c.28 0 .5.22.5.5zm-3.98 0c0 .28-.24.5-.5.5-.3 0-.5-.22-.5-.5s.2-.5.5-.5c.26 0 .5.22.5.5zm-4 0c0 .28-.22.5-.5.5s-.5-.22-.5-.5.22-.5.5-.5.5.22.5.5zm-4 0c0 .28-.2.5-.5.5-.26 0-.5-.22-.5-.5s.24-.5.5-.5c.3 0 .5.22.5.5zm-3.98 0c0 .28-.22.5-.5.5-.27 0-.5-.22-.5-.5s.23-.5.5-.5c.28 0 .5.22.5.5zm-3.98 0c0 .28-.23.5-.5.5-.28 0-.5-.22-.5-.5s.22-.5.5-.5c.27 0 .5.22.5.5zm-4 0c0 .28-.2.5-.5.5-.27 0-.5-.22-.5-.5s.23-.5.5-.5c.3 0 .5.22.5.5zm-3.98 0c0 .28-.22.5-.5.5-.27 0-.5-.22-.5-.5s.23-.5.5-.5c.28 0 .5.22.5.5zm-3.98 0c0 .28-.23.5-.5.5-.28 0-.5-.22-.5-.5s.22-.5.5-.5c.27 0 .5.22.5.5zm-4 0c0 .28-.22.5-.5.5-.27 0-.5-.22-.5-.5s.23-.5.5-.5c.28 0 .5.22.5.5zm-3.98 0c0 .28-.22.5-.5.5s-.5-.22-.5-.5.22-.5.5-.5.5.22.5.5zm-4 0c0 .28-.2.5-.5.5-.26 0-.5-.22-.5-.5s.24-.5.5-.5c.3 0 .5.22.5.5zm-3.98 0c0 .28-.22.5-.5.5-.27 0-.5-.22-.5-.5s.23-.5.5-.5c.28 0 .5.22.5.5zm-3.98 0c0 .28-.23.5-.5.5-.28 0-.5-.22-.5-.5s.22-.5.5-.5c.27 0 .5.22.5.5zm-4 0c0 .28-.2.5-.5.5-.27 0-.5-.22-.5-.5s.23-.5.5-.5c.3 0 .5.22.5.5zm-3.98 0c0 .28-.22.5-.5.5-.27 0-.5-.22-.5-.5s.23-.5.5-.5c.28 0 .5.22.5.5zm-4 0c0 .28-.2.5-.5.5-.26 0-.5-.22-.5-.5s.24-.5.5-.5c.3 0 .5.22.5.5zm-3.97 0c0 .28-.24.5-.5.5-.3 0-.5-.22-.5-.5s.2-.5.5-.5c.26 0 .5.22.5.5zm-4 0c0 .28-.22.5-.5.5s-.5-.22-.5-.5.22-.5.5-.5.5.22.5.5zm-4 0c0 .28-.2.5-.5.5-.26 0-.5-.22-.5-.5s.24-.5.5-.5c.3 0 .5.22.5.5zm-3.98 0c0 .28-.22.5-.5.5-.27 0-.5-.22-.5-.5s.23-.5.5-.5c.28 0 .5.22.5.5zm-3.98 0c0 .28-.23.5-.5.5-.28 0-.5-.22-.5-.5s.22-.5.5-.5c.27 0 .5.22.5.5zm-4 0c0 .28-.2.5-.5.5-.27 0-.5-.22-.5-.5s.23-.5.5-.5c.3 0 .5.22.5.5zm-3.98 0c0 .28-.22.5-.5.5-.27 0-.5-.22-.5-.5s.23-.5.5-.5c.28 0 .5.22.5.5zm-4 0c0 .28-.2.5-.5.5-.26 0-.5-.22-.5-.5s.24-.5.5-.5c.3 0 .5.22.5.5zm-3.97 0c0 .28-.24.5-.5.5-.3 0-.5-.22-.5-.5s.2-.5.5-.5c.26 0 .5.22.5.5zm-4 0c0 .28-.22.5-.5.5s-.5-.22-.5-.5.22-.5.5-.5.5.22.5.5zm-4 0c0 .28-.2.5-.5.5-.26 0-.5-.22-.5-.5s.24-.5.5-.5c.3 0 .5.22.5.5zm-3.97 0c0 .28-.23.5-.5.5-.28 0-.5-.22-.5-.5s.22-.5.5-.5c.27 0 .5.22.5.5zm-4 0c0 .28-.22.5-.5.5-.27 0-.5-.22-.5-.5s.23-.5.5-.5c.28 0 .5.22.5.5zm-3.98 0c0 .28-.22.5-.5.5s-.5-.22-.5-.5.22-.5.5-.5.5.22.5.5zm-4 0c0 .28-.2.5-.5.5-.26 0-.5-.22-.5-.5s.24-.5.5-.5c.3 0 .5.22.5.5zm-3.98 0c0 .28-.22.5-.5.5-.27 0-.5-.22-.5-.5s.23-.5.5-.5c.28 0 .5.22.5.5zm-3.98 0c0 .28-.24.5-.5.5-.3 0-.5-.22-.5-.5s.2-.5.5-.5c.26 0 .5.22.5.5zm-4 0c0 .28-.22.5-.5.5s-.5-.22-.5-.5.22-.5.5-.5.5.22.5.5zm-4 0c0 .28-.2.5-.5.5-.26 0-.5-.22-.5-.5s.24-.5.5-.5c.3 0 .5.22.5.5zm-3.98 0c0 .28-.22.5-.5.5-.27 0-.5-.22-.5-.5s.23-.5.5-.5c.28 0 .5.22.5.5zm-3.98 0c0 .28-.23.5-.5.5-.28 0-.5-.22-.5-.5s.22-.5.5-.5c.27 0 .5.22.5.5zm-4 0c0 .28-.2.5-.5.5-.27 0-.5-.22-.5-.5s.23-.5.5-.5c.3 0 .5.22.5.5zm-3.98 0c0 .28-.22.5-.5.5-.27 0-.5-.22-.5-.5s.23-.5.5-.5c.28 0 .5.22.5.5zm-4 0c0 .28-.2.5-.5.5-.26 0-.5-.22-.5-.5s.24-.5.5-.5c.3 0 .5.22.5.5zm-3.97 0c0 .28-.24.5-.5.5-.3 0-.5-.22-.5-.5s.2-.5.5-.5c.26 0 .5.22.5.5zm-4 0c0 .28-.22.5-.5.5s-.5-.22-.5-.5.22-.5.5-.5.5.22.5.5zm-4 0c0 .28-.2.5-.5.5-.26 0-.5-.22-.5-.5s.24-.5.5-.5c.3 0 .5.22.5.5zm-3.97 0c0 .28-.23.5-.5.5-.28 0-.5-.22-.5-.5s.22-.5.5-.5c.27 0 .5.22.5.5zm-4 0c0 .28-.22.5-.5.5-.27 0-.5-.22-.5-.5s.23-.5.5-.5c.28 0 .5.22.5.5zm-3.98 0c0 .28-.22.5-.5.5s-.5-.22-.5-.5.22-.5.5-.5.5.22.5.5zm-4 0c0 .28-.2.5-.5.5-.26 0-.5-.22-.5-.5s.24-.5.5-.5c.3 0 .5.22.5.5zm-3.97 0c0 .28-.23.5-.5.5-.28 0-.5-.22-.5-.5s.22-.5.5-.5c.27 0 .5.22.5.5zm-4 0c0 .28-.22.5-.5.5-.27 0-.5-.22-.5-.5s.23-.5.5-.5c.28 0 .5.22.5.5zm-3.98 0c0 .28-.22.5-.5.5s-.5-.22-.5-.5.22-.5.5-.5.5.22.5.5zm-4 0c0 .28-.2.5-.5.5-.26 0-.5-.22-.5-.5s.24-.5.5-.5c.3 0 .5.22.5.5zm-3.98 0c0 .28-.22.5-.5.5-.27 0-.5-.22-.5-.5s.23-.5.5-.5c.28 0 .5.22.5.5zm-3.98 0c0 .28-.23.5-.5.5-.28 0-.5-.22-.5-.5s.22-.5.5-.5c.27 0 .5.22.5.5zm-4 0c0 .28-.2.5-.5.5-.27 0-.5-.22-.5-.5s.23-.5.5-.5c.3 0 .5.22.5.5zm-3.98 0c0 .28-.22.5-.5.5-.27 0-.5-.22-.5-.5s.23-.5.5-.5c.28 0 .5.22.5.5zm-4 0c0 .28-.2.5-.5.5-.26 0-.5-.22-.5-.5s.24-.5.5-.5c.3 0 .5.22.5.5zm-3.97 0c0 .28-.24.5-.5.5-.3 0-.5-.22-.5-.5s.2-.5.5-.5c.26 0 .5.22.5.5zm-4 0c0 .28-.22.5-.5.5s-.5-.22-.5-.5.22-.5.5-.5.5.22.5.5zm-4 0c0 .28-.2.5-.5.5-.26 0-.5-.22-.5-.5s.24-.5.5-.5c.3 0 .5.22.5.5zm-3.98 0c0 .28-.22.5-.5.5-.27 0-.5-.22-.5-.5s.23-.5.5-.5c.28 0 .5.22.5.5zm-3.98 0c0 .28-.23.5-.5.5-.28 0-.5-.22-.5-.5s.22-.5.5-.5c.27 0 .5.22.5.5zm-4 0c0 .28-.2.5-.5.5-.27 0-.5-.22-.5-.5s.23-.5.5-.5c.3 0 .5.22.5.5zm-3.98 0c0 .28-.22.5-.5.5-.27 0-.5-.22-.5-.5s.23-.5.5-.5c.28 0 .5.22.5.5zm-4 0c0 .28-.2.5-.5.5-.26 0-.5-.22-.5-.5s.24-.5.5-.5c.3 0 .5.22.5.5zm-3.97 0c0 .28-.24.5-.5.5-.3 0-.5-.22-.5-.5s.2-.5.5-.5c.26 0 .5.22.5.5zm-4 0c0 .28-.22.5-.5.5s-.5-.22-.5-.5.22-.5.5-.5.5.22.5.5zm-4 0c0 .28-.2.5-.5.5-.26 0-.5-.22-.5-.5s.24-.5.5-.5c.3 0 .5.22.5.5zm-3.97 0c0 .28-.23.5-.5.5-.28 0-.5-.22-.5-.5s.22-.5.5-.5c.27 0 .5.22.5.5zm-4 0c0 .28-.22.5-.5.5-.27 0-.5-.22-.5-.5s.23-.5.5-.5c.28 0 .5.22.5.5zm-3.98 0c0 .28-.22.5-.5.5s-.5-.22-.5-.5.22-.5.5-.5.5.22.5.5zm-4 0c0 .28-.2.5-.5.5-.26 0-.5-.22-.5-.5s.24-.5.5-.5c.3 0 .5.22.5.5zm-3.97 0c0 .28-.23.5-.5.5-.28 0-.5-.22-.5-.5s.22-.5.5-.5c.27 0 .5.22.5.5zm-4 0c0 .28-.22.5-.5.5-.27 0-.5-.22-.5-.5s.23-.5.5-.5c.28 0 .5.22.5.5zm-3.98 0c0 .28-.22.5-.5.5s-.5-.22-.5-.5.22-.5.5-.5.5.22.5.5zm-4 0c0 .28-.2.5-.5.5-.26 0-.5-.22-.5-.5s.24-.5.5-.5c.3 0 .5.22.5.5zm-3.98 0c0 .28-.22.5-.5.5-.27 0-.5-.22-.5-.5s.23-.5.5-.5c.28 0 .5.22.5.5zm-3.98 0c0 .28-.23.5-.5.5-.28 0-.5-.22-.5-.5s.22-.5.5-.5c.27 0 .5.22.5.5zm-4 0c0 .28-.2.5-.5.5-.27 0-.5-.22-.5-.5s.23-.5.5-.5c.3 0 .5.22.5.5zm-3.98 0c0 .28-.22.5-.5.5-.27 0-.5-.22-.5-.5s.23-.5.5-.5c.28 0 .5.22.5.5zm-4 0c0 .28-.2.5-.5.5-.26 0-.5-.22-.5-.5s.24-.5.5-.5c.3 0 .5.22.5.5zm-3.97 0c0 .28-.24.5-.5.5-.3 0-.5-.22-.5-.5s.2-.5.5-.5c.26 0 .5.22.5.5zm-4 0c0 .28-.22.5-.5.5s-.5-.22-.5-.5.22-.5.5-.5.5.22.5.5zm-4 0c0 .28-.2.5-.5.5-.26 0-.5-.22-.5-.5s.24-.5.5-.5c.3 0 .5.22.5.5zm-3.97 0c0 .28-.23.5-.5.5-.28 0-.5-.22-.5-.5s.22-.5.5-.5c.27 0 .5.22.5.5zm-4 0c0 .28-.22.5-.5.5-.27 0-.5-.22-.5-.5s.23-.5.5-.5c.28 0 .5.22.5.5zm-3.98 0c0 .28-.22.5-.5.5s-.5-.22-.5-.5.22-.5.5-.5.5.22.5.5zm-4 0c0 .28-.2.5-.5.5-.26 0-.5-.22-.5-.5s.24-.5.5-.5c.3 0 .5.22.5.5zm-3.97 0c0 .28-.23.5-.5.5-.28 0-.5-.22-.5-.5s.22-.5.5-.5c.27 0 .5.22.5.5zm-4 0c0 .28-.22.5-.5.5-.27 0-.5-.22-.5-.5s.23-.5.5-.5c.28 0 .5.22.5.5zm-3.98 0c0 .28-.22.5-.5.5s-.5-.22-.5-.5.22-.5.5-.5.5.22.5.5zm-4 0c0 .28-.2.5-.5.5-.26 0-.5-.22-.5-.5s.24-.5.5-.5c.3 0 .5.22.5.5zm-3.97 0c0 .28-.23.5-.5.5-.28 0-.5-.22-.5-.5s.22-.5.5-.5c.27 0 .5.22.5.5zm-4 0c0 .28-.22.5-.5.5-.27 0-.5-.22-.5-.5s.23-.5.5-.5c.28 0 .5.22.5.5zm-3.98 0c0 .28-.22.5-.5.5s-.5-.22-.5-.5.22-.5.5-.5.5.22.5.5zm-4 0c0 .28-.2.5-.5.5-.26 0-.5-.22-.5-.5s.24-.5.5-.5c.3 0 .5.22.5.5zm-3.98 0c0 .28-.22.5-.5.5-.27 0-.5-.22-.5-.5s.23-.5.5-.5c.28 0 .5.22.5.5zm-3.98 0c0 .28-.24.5-.5.5-.3 0-.5-.22-.5-.5s.2-.5.5-.5c.26 0 .5.22.5.5zm-4 0c0 .28-.22.5-.5.5s-.5-.22-.5-.5.22-.5.5-.5.5.22.5.5zm-4 0c0 .28-.2.5-.5.5-.26 0-.5-.22-.5-.5s.24-.5.5-.5c.3 0 .5.22.5.5zm-3.97 0c0 .28-.23.5-.5.5-.28 0-.5-.22-.5-.5s.22-.5.5-.5c.27 0 .5.22.5.5zm-4 0c0 .28-.22.5-.5.5-.27 0-.5-.22-.5-.5s.23-.5.5-.5c.28 0 .5.22.5.5zm-3.98 0c0 .28-.22.5-.5.5s-.5-.22-.5-.5.22-.5.5-.5.5.22.5.5zm-4 0c0 .28-.2.5-.5.5-.26 0-.5-.22-.5-.5s.24-.5.5-.5c.3 0 .5.22.5.5zm-3.98 0c0 .28-.22.5-.5.5-.27 0-.5-.22-.5-.5s.23-.5.5-.5c.28 0 .5.22.5.5zm-3.98 0c0 .28-.24.5-.5.5-.3 0-.5-.22-.5-.5s.2-.5.5-.5c.26 0 .5.22.5.5zm-4 0c0 .28-.22.5-.5.5s-.5-.22-.5-.5.22-.5.5-.5.5.22.5.5zm-4 0c0 .28-.2.5-.5.5-.26 0-.5-.22-.5-.5s.24-.5.5-.5c.3 0 .5.22.5.5zm-3.98 0c0 .28-.22.5-.5.5-.27 0-.5-.22-.5-.5s.23-.5.5-.5c.28 0 .5.22.5.5zm-3.98 0c0 .28-.23.5-.5.5-.28 0-.5-.22-.5-.5s.22-.5.5-.5c.27 0 .5.22.5.5zm-4 0c0 .28-.2.5-.5.5-.27 0-.5-.22-.5-.5s.23-.5.5-.5c.3 0 .5.22.5.5zm-3.98 0c0 .28-.22.5-.5.5-.27 0-.5-.22-.5-.5s.23-.5.5-.5c.28 0 .5.22.5.5zm-3.98 0c0 .28-.23.5-.5.5-.28 0-.5-.22-.5-.5s.22-.5.5-.5c.27 0 .5.22.5.5zm-4 0c0 .28-.22.5-.5.5-.27 0-.5-.22-.5-.5s.23-.5.5-.5c.28 0 .5.22.5.5zm-3.98 0c0 .28-.22.5-.5.5s-.5-.22-.5-.5.22-.5.5-.5.5.22.5.5zm-4 0c0 .28-.2.5-.5.5-.26 0-.5-.22-.5-.5s.24-.5.5-.5c.3 0 .5.22.5.5zm-3.97 0c0 .28-.23.5-.5.5-.28 0-.5-.22-.5-.5s.22-.5.5-.5c.27 0 .5.22.5.5zm-4 0c0 .28-.22.5-.5.5-.27 0-.5-.22-.5-.5s.23-.5.5-.5c.28 0 .5.22.5.5zm-3.98 0c0 .28-.22.5-.5.5s-.5-.22-.5-.5.22-.5.5-.5.5.22.5.5zm-4 0c0 .28-.2.5-.5.5-.26 0-.5-.22-.5-.5s.24-.5.5-.5c.3 0 .5.22.5.5zm-3.98 0c0 .28-.22.5-.5.5-.27 0-.5-.22-.5-.5s.23-.5.5-.5c.28 0 .5.22.5.5zm-3.98 0c0 .28-.24.5-.5.5-.3 0-.5-.22-.5-.5s.2-.5.5-.5c.26 0 .5.22.5.5zm-4 0c0 .28-.22.5-.5.5s-.5-.22-.5-.5.22-.5.5-.5.5.22.5.5zm-4 0c0 .28-.2.5-.5.5-.26 0-.5-.22-.5-.5s.24-.5.5-.5c.3 0 .5.22.5.5zm-3.98 0c0 .28-.22.5-.5.5-.27 0-.5-.22-.5-.5s.23-.5.5-.5c.28 0 .5.22.5.5zm-3.98 0c0 .28-.23.5-.5.5-.28 0-.5-.22-.5-.5s.22-.5.5-.5c.27 0 .5.22.5.5zm-4 0c0 .28-.2.5-.5.5-.27 0-.5-.22-.5-.5s.23-.5.5-.5c.3 0 .5.22.5.5zm-3.98 0c0 .28-.22.5-.5.5-.27 0-.5-.22-.5-.5s.23-.5.5-.5c.28 0 .5.22.5.5zm-3.98 0c0 .28-.23.5-.5.5-.28 0-.5-.22-.5-.5s.22-.5.5-.5c.27 0 .5.22.5.5zm-4 0c0 .28-.22.5-.5.5-.27 0-.5-.22-.5-.5s.23-.5.5-.5c.28 0 .5.22.5.5zm-3.98 0c0 .28-.22.5-.5.5s-.5-.22-.5-.5.22-.5.5-.5.5.22.5.5zm-4.24-1.76c0 .28-.23.5-.5.5-.28 0-.5-.22-.5-.5 0-.27.22-.5.5-.5.27 0 .5.23.5.5zM10.5 405c0 .28-.22.5-.5.5s-.5-.22-.5-.5.22-.5.5-.5.5.22.5.5zm0-4c0 .28-.22.5-.5.5s-.5-.22-.5-.5.22-.5.5-.5.5.22.5.5zm0-4c0 .28-.22.5-.5.5s-.5-.22-.5-.5.22-.5.5-.5.5.22.5.5zm0-4c0 .28-.22.5-.5.5s-.5-.22-.5-.5.22-.5.5-.5.5.22.5.5zm0-4c0 .28-.22.5-.5.5s-.5-.22-.5-.5.22-.5.5-.5.5.22.5.5zm0-4c0 .28-.22.5-.5.5s-.5-.22-.5-.5.22-.5.5-.5.5.22.5.5zm0-4c0 .28-.22.5-.5.5s-.5-.22-.5-.5.22-.5.5-.5.5.22.5.5zm0-4c0 .28-.22.5-.5.5s-.5-.22-.5-.5.22-.5.5-.5.5.22.5.5zm0-4c0 .28-.22.5-.5.5s-.5-.22-.5-.5.22-.5.5-.5.5.22.5.5zm0-4c0 .28-.22.5-.5.5s-.5-.22-.5-.5.22-.5.5-.5.5.22.5.5zm0-4c0 .28-.22.5-.5.5s-.5-.22-.5-.5.22-.5.5-.5.5.22.5.5zm0-4c0 .28-.22.5-.5.5s-.5-.22-.5-.5.22-.5.5-.5.5.22.5.5zm0-4c0 .28-.22.5-.5.5s-.5-.22-.5-.5.22-.5.5-.5.5.22.5.5zm0-4c0 .28-.22.5-.5.5s-.5-.22-.5-.5.22-.5.5-.5.5.22.5.5zm0-4c0 .28-.22.5-.5.5s-.5-.22-.5-.5.22-.5.5-.5.5.22.5.5zm0-4c0 .28-.22.5-.5.5s-.5-.22-.5-.5.22-.5.5-.5.5.22.5.5zm0-4c0 .28-.22.5-.5.5s-.5-.22-.5-.5.22-.5.5-.5.5.22.5.5zm0-4c0 .28-.22.5-.5.5s-.5-.22-.5-.5.22-.5.5-.5.5.22.5.5zm0-4c0 .28-.22.5-.5.5s-.5-.22-.5-.5.22-.5.5-.5.5.22.5.5zm0-4c0 .28-.22.5-.5.5s-.5-.22-.5-.5.22-.5.5-.5.5.22.5.5zm0-4c0 .28-.22.5-.5.5s-.5-.22-.5-.5.22-.5.5-.5.5.22.5.5zm0-4c0 .28-.22.5-.5.5s-.5-.22-.5-.5.22-.5.5-.5.5.22.5.5zm0-4c0 .28-.22.5-.5.5s-.5-.22-.5-.5.22-.5.5-.5.5.22.5.5zm0-4c0 .28-.22.5-.5.5s-.5-.22-.5-.5.22-.5.5-.5.5.22.5.5zm0-4c0 .28-.22.5-.5.5s-.5-.22-.5-.5.22-.5.5-.5.5.22.5.5zm0-4c0 .28-.22.5-.5.5s-.5-.22-.5-.5.22-.5.5-.5.5.22.5.5zm0-4c0 .28-.22.5-.5.5s-.5-.22-.5-.5.22-.5.5-.5.5.22.5.5zm0-4c0 .28-.22.5-.5.5s-.5-.22-.5-.5.22-.5.5-.5.5.22.5.5zm0-4c0 .28-.22.5-.5.5s-.5-.22-.5-.5.22-.5.5-.5.5.22.5.5zm0-4c0 .28-.22.5-.5.5s-.5-.22-.5-.5.22-.5.5-.5.5.22.5.5zm0-4c0 .28-.22.5-.5.5s-.5-.22-.5-.5.22-.5.5-.5.5.22.5.5zm0-4c0 .28-.22.5-.5.5s-.5-.22-.5-.5.22-.5.5-.5.5.22.5.5zm0-4c0 .28-.22.5-.5.5s-.5-.22-.5-.5.22-.5.5-.5.5.22.5.5zm0-4c0 .28-.22.5-.5.5s-.5-.22-.5-.5.22-.5.5-.5.5.22.5.5zm0-4c0 .28-.22.5-.5.5s-.5-.22-.5-.5.22-.5.5-.5.5.22.5.5zm0-4c0 .28-.22.5-.5.5s-.5-.22-.5-.5.22-.5.5-.5.5.22.5.5zm0-4c0 .28-.22.5-.5.5s-.5-.22-.5-.5.22-.5.5-.5.5.22.5.5zm0-4c0 .28-.22.5-.5.5s-.5-.22-.5-.5.22-.5.5-.5.5.22.5.5zm0-4c0 .28-.22.5-.5.5s-.5-.22-.5-.5.22-.5.5-.5.5.22.5.5zm0-4c0 .28-.22.5-.5.5s-.5-.22-.5-.5.22-.5.5-.5.5.22.5.5zm0-4c0 .28-.22.5-.5.5s-.5-.22-.5-.5.22-.5.5-.5.5.22.5.5zm0-4c0 .28-.22.5-.5.5s-.5-.22-.5-.5.22-.5.5-.5.5.22.5.5zm0-4c0 .28-.22.5-.5.5s-.5-.22-.5-.5.22-.5.5-.5.5.22.5.5zm0-4c0 .28-.22.5-.5.5s-.5-.22-.5-.5.22-.5.5-.5.5.22.5.5zm0-4c0 .28-.22.5-.5.5s-.5-.22-.5-.5.22-.5.5-.5.5.22.5.5zm0-4c0 .28-.22.5-.5.5s-.5-.22-.5-.5.22-.5.5-.5.5.22.5.5zm0-4c0 .28-.22.5-.5.5s-.5-.22-.5-.5.22-.5.5-.5.5.22.5.5zm0-4c0 .28-.22.5-.5.5s-.5-.22-.5-.5.22-.5.5-.5.5.22.5.5z"
              fill="#000000"/>
        <path d="M10 6a6 6 0 0 1 6-6h638a6 6 0 0 1 6 6v188a6 6 0 0 1-6 6H16a6 6 0 0 1-6-6z" fill-opacity="0"/>
        <path d="M10.5 6c0 .28-.22.5-.5.5s-.5-.22-.5-.5.22-.5.5-.5.5.22.5.5zm1.76-4.24c0 .27-.23.5-.5.5-.28 0-.5-.23-.5-.5 0-.28.22-.5.5-.5.27 0 .5.22.5.5zM16.5 0c0 .28-.22.5-.5.5s-.5-.22-.5-.5.22-.5.5-.5.5.22.5.5zm4 0c0 .28-.24.5-.5.5-.3 0-.5-.22-.5-.5s.2-.5.5-.5c.26 0 .5.22.5.5zm3.98 0c0 .28-.23.5-.5.5-.28 0-.5-.22-.5-.5s.22-.5.5-.5c.27 0 .5.22.5.5zm3.98 0c0 .28-.22.5-.5.5-.27 0-.5-.22-.5-.5s.23-.5.5-.5c.28 0 .5.22.5.5zm4 0c0 .28-.23.5-.5.5-.3 0-.5-.22-.5-.5s.2-.5.5-.5c.27 0 .5.22.5.5zm3.98 0c0 .28-.23.5-.5.5-.28 0-.5-.22-.5-.5s.22-.5.5-.5c.27 0 .5.22.5.5zm3.98 0c0 .28-.22.5-.5.5-.27 0-.5-.22-.5-.5s.23-.5.5-.5c.28 0 .5.22.5.5zm4 0c0 .28-.23.5-.5.5-.28 0-.5-.22-.5-.5s.22-.5.5-.5c.27 0 .5.22.5.5zm3.98 0c0 .28-.22.5-.5.5s-.5-.22-.5-.5.22-.5.5-.5.5.22.5.5zm4 0c0 .28-.24.5-.5.5-.3 0-.5-.22-.5-.5s.2-.5.5-.5c.26 0 .5.22.5.5zm3.98 0c0 .28-.23.5-.5.5-.28 0-.5-.22-.5-.5s.22-.5.5-.5c.27 0 .5.22.5.5zm3.98 0c0 .28-.22.5-.5.5-.27 0-.5-.22-.5-.5s.23-.5.5-.5c.28 0 .5.22.5.5zm4 0c0 .28-.23.5-.5.5-.3 0-.5-.22-.5-.5s.2-.5.5-.5c.27 0 .5.22.5.5zm3.98 0c0 .28-.23.5-.5.5-.28 0-.5-.22-.5-.5s.22-.5.5-.5c.27 0 .5.22.5.5zm3.98 0c0 .28-.22.5-.5.5-.27 0-.5-.22-.5-.5s.23-.5.5-.5c.28 0 .5.22.5.5zm4 0c0 .28-.23.5-.5.5-.28 0-.5-.22-.5-.5s.22-.5.5-.5c.27 0 .5.22.5.5zm3.98 0c0 .28-.22.5-.5.5s-.5-.22-.5-.5.22-.5.5-.5.5.22.5.5zm4 0c0 .28-.24.5-.5.5-.3 0-.5-.22-.5-.5s.2-.5.5-.5c.26 0 .5.22.5.5zm3.98 0c0 .28-.23.5-.5.5-.28 0-.5-.22-.5-.5s.22-.5.5-.5c.27 0 .5.22.5.5zm3.98 0c0 .28-.22.5-.5.5-.27 0-.5-.22-.5-.5s.23-.5.5-.5c.28 0 .5.22.5.5zm4 0c0 .28-.23.5-.5.5-.3 0-.5-.22-.5-.5s.2-.5.5-.5c.27 0 .5.22.5.5zm3.98 0c0 .28-.23.5-.5.5-.28 0-.5-.22-.5-.5s.22-.5.5-.5c.27 0 .5.22.5.5zm3.98 0c0 .28-.22.5-.5.5-.27 0-.5-.22-.5-.5s.23-.5.5-.5c.28 0 .5.22.5.5zm4 0c0 .28-.23.5-.5.5-.28 0-.5-.22-.5-.5s.22-.5.5-.5c.27 0 .5.22.5.5zm3.98 0c0 .28-.22.5-.5.5s-.5-.22-.5-.5.22-.5.5-.5.5.22.5.5zm4 0c0 .28-.24.5-.5.5-.3 0-.5-.22-.5-.5s.2-.5.5-.5c.26 0 .5.22.5.5zm3.97 0c0 .28-.22.5-.5.5-.27 0-.5-.22-.5-.5s.23-.5.5-.5c.28 0 .5.22.5.5zm4 0c0 .28-.23.5-.5.5-.28 0-.5-.22-.5-.5s.22-.5.5-.5c.27 0 .5.22.5.5zm3.98 0c0 .28-.22.5-.5.5s-.5-.22-.5-.5.22-.5.5-.5.5.22.5.5zm4 0c0 .28-.24.5-.5.5-.3 0-.5-.22-.5-.5s.2-.5.5-.5c.26 0 .5.22.5.5zm3.97 0c0 .28-.22.5-.5.5-.27 0-.5-.22-.5-.5s.23-.5.5-.5c.28 0 .5.22.5.5zm4 0c0 .28-.23.5-.5.5-.28 0-.5-.22-.5-.5s.22-.5.5-.5c.27 0 .5.22.5.5zm3.98 0c0 .28-.22.5-.5.5s-.5-.22-.5-.5.22-.5.5-.5.5.22.5.5zm4 0c0 .28-.24.5-.5.5-.3 0-.5-.22-.5-.5s.2-.5.5-.5c.26 0 .5.22.5.5zm3.97 0c0 .28-.22.5-.5.5-.27 0-.5-.22-.5-.5s.23-.5.5-.5c.28 0 .5.22.5.5zm4 0c0 .28-.23.5-.5.5-.28 0-.5-.22-.5-.5s.22-.5.5-.5c.27 0 .5.22.5.5zm3.98 0c0 .28-.22.5-.5.5s-.5-.22-.5-.5.22-.5.5-.5.5.22.5.5zm4 0c0 .28-.24.5-.5.5-.3 0-.5-.22-.5-.5s.2-.5.5-.5c.26 0 .5.22.5.5zM168 0c0 .28-.22.5-.5.5-.27 0-.5-.22-.5-.5s.23-.5.5-.5c.28 0 .5.22.5.5zm4 0c0 .28-.23.5-.5.5-.28 0-.5-.22-.5-.5s.22-.5.5-.5c.27 0 .5.22.5.5zM176 0c0 .28-.22.5-.5.5s-.5-.22-.5-.5.22-.5.5-.5.5.22.5.5zm4 0c0 .28-.24.5-.5.5-.3 0-.5-.22-.5-.5s.2-.5.5-.5c.26 0 .5.22.5.5zm3.97 0c0 .28-.22.5-.5.5-.27 0-.5-.22-.5-.5s.23-.5.5-.5c.28 0 .5.22.5.5zm4 0c0 .28-.23.5-.5.5-.28 0-.5-.22-.5-.5s.22-.5.5-.5c.27 0 .5.22.5.5zm3.98 0c0 .28-.22.5-.5.5s-.5-.22-.5-.5.22-.5.5-.5.5.22.5.5zm4 0c0 .28-.24.5-.5.5-.3 0-.5-.22-.5-.5s.2-.5.5-.5c.26 0 .5.22.5.5zm3.98 0c0 .28-.23.5-.5.5-.28 0-.5-.22-.5-.5s.22-.5.5-.5c.27 0 .5.22.5.5zm3.98 0c0 .28-.2.5-.5.5-.26 0-.5-.22-.5-.5s.24-.5.5-.5c.3 0 .5.22.5.5zm4 0c0 .28-.22.5-.5.5s-.5-.22-.5-.5.22-.5.5-.5.5.22.5.5zm4 0c0 .28-.24.5-.5.5-.3 0-.5-.22-.5-.5s.2-.5.5-.5c.26 0 .5.22.5.5zm3.97 0c0 .28-.22.5-.5.5-.27 0-.5-.22-.5-.5s.23-.5.5-.5c.28 0 .5.22.5.5zm4 0c0 .28-.23.5-.5.5-.28 0-.5-.22-.5-.5s.22-.5.5-.5c.27 0 .5.22.5.5zm3.98 0c0 .28-.22.5-.5.5s-.5-.22-.5-.5.22-.5.5-.5.5.22.5.5zm4 0c0 .28-.24.5-.5.5-.3 0-.5-.22-.5-.5s.2-.5.5-.5c.26 0 .5.22.5.5zm3.97 0c0 .28-.22.5-.5.5-.27 0-.5-.22-.5-.5s.23-.5.5-.5c.28 0 .5.22.5.5zm4 0c0 .28-.23.5-.5.5-.28 0-.5-.22-.5-.5s.22-.5.5-.5c.27 0 .5.22.5.5zm3.98 0c0 .28-.22.5-.5.5s-.5-.22-.5-.5.22-.5.5-.5.5.22.5.5zm4 0c0 .28-.24.5-.5.5-.3 0-.5-.22-.5-.5s.2-.5.5-.5c.26 0 .5.22.5.5zm3.97 0c0 .28-.22.5-.5.5-.27 0-.5-.22-.5-.5s.23-.5.5-.5c.28 0 .5.22.5.5zm4 0c0 .28-.23.5-.5.5-.28 0-.5-.22-.5-.5s.22-.5.5-.5c.27 0 .5.22.5.5zm3.98 0c0 .28-.22.5-.5.5s-.5-.22-.5-.5.22-.5.5-.5.5.22.5.5zm4 0c0 .28-.24.5-.5.5-.3 0-.5-.22-.5-.5s.2-.5.5-.5c.26 0 .5.22.5.5zm3.98 0c0 .28-.23.5-.5.5-.28 0-.5-.22-.5-.5s.22-.5.5-.5c.27 0 .5.22.5.5zm3.98 0c0 .28-.2.5-.5.5-.26 0-.5-.22-.5-.5s.24-.5.5-.5c.3 0 .5.22.5.5zm4 0c0 .28-.22.5-.5.5s-.5-.22-.5-.5.22-.5.5-.5.5.22.5.5zm4 0c0 .28-.24.5-.5.5-.3 0-.5-.22-.5-.5s.2-.5.5-.5c.26 0 .5.22.5.5zm3.98 0c0 .28-.23.5-.5.5-.28 0-.5-.22-.5-.5s.22-.5.5-.5c.27 0 .5.22.5.5zm3.98 0c0 .28-.22.5-.5.5-.27 0-.5-.22-.5-.5s.23-.5.5-.5c.28 0 .5.22.5.5zm4 0c0 .28-.23.5-.5.5-.3 0-.5-.22-.5-.5s.2-.5.5-.5c.27 0 .5.22.5.5zm3.98 0c0 .28-.23.5-.5.5-.28 0-.5-.22-.5-.5s.22-.5.5-.5c.27 0 .5.22.5.5zm4 0c0 .28-.24.5-.5.5-.3 0-.5-.22-.5-.5s.2-.5.5-.5c.26 0 .5.22.5.5zm3.97 0c0 .28-.2.5-.5.5-.26 0-.5-.22-.5-.5s.24-.5.5-.5c.3 0 .5.22.5.5zm4 0c0 .28-.22.5-.5.5s-.5-.22-.5-.5.22-.5.5-.5.5.22.5.5zm4 0c0 .28-.24.5-.5.5-.3 0-.5-.22-.5-.5s.2-.5.5-.5c.26 0 .5.22.5.5zm3.97 0c0 .28-.22.5-.5.5-.27 0-.5-.22-.5-.5s.23-.5.5-.5c.28 0 .5.22.5.5zm4 0c0 .28-.23.5-.5.5-.28 0-.5-.22-.5-.5s.22-.5.5-.5c.27 0 .5.22.5.5zm3.98 0c0 .28-.22.5-.5.5s-.5-.22-.5-.5.22-.5.5-.5.5.22.5.5zm4 0c0 .28-.24.5-.5.5-.3 0-.5-.22-.5-.5s.2-.5.5-.5c.26 0 .5.22.5.5zm3.97 0c0 .28-.22.5-.5.5-.27 0-.5-.22-.5-.5s.23-.5.5-.5c.28 0 .5.22.5.5zm4 0c0 .28-.23.5-.5.5-.28 0-.5-.22-.5-.5s.22-.5.5-.5c.27 0 .5.22.5.5zm3.98 0c0 .28-.22.5-.5.5s-.5-.22-.5-.5.22-.5.5-.5.5.22.5.5zm4 0c0 .28-.24.5-.5.5-.3 0-.5-.22-.5-.5s.2-.5.5-.5c.26 0 .5.22.5.5zm3.98 0c0 .28-.23.5-.5.5-.28 0-.5-.22-.5-.5s.22-.5.5-.5c.27 0 .5.22.5.5zm3.98 0c0 .28-.22.5-.5.5-.27 0-.5-.22-.5-.5s.23-.5.5-.5c.28 0 .5.22.5.5zm4 0c0 .28-.23.5-.5.5-.3 0-.5-.22-.5-.5s.2-.5.5-.5c.27 0 .5.22.5.5zm3.98 0c0 .28-.23.5-.5.5-.28 0-.5-.22-.5-.5s.22-.5.5-.5c.27 0 .5.22.5.5zm4 0c0 .28-.24.5-.5.5-.3 0-.5-.22-.5-.5s.2-.5.5-.5c.26 0 .5.22.5.5zm3.97 0c0 .28-.2.5-.5.5-.26 0-.5-.22-.5-.5s.24-.5.5-.5c.3 0 .5.22.5.5zm4 0c0 .28-.22.5-.5.5s-.5-.22-.5-.5.22-.5.5-.5.5.22.5.5zm4 0c0 .28-.24.5-.5.5-.3 0-.5-.22-.5-.5s.2-.5.5-.5c.26 0 .5.22.5.5zm3.98 0c0 .28-.23.5-.5.5-.28 0-.5-.22-.5-.5s.22-.5.5-.5c.27 0 .5.22.5.5zm3.98 0c0 .28-.22.5-.5.5-.27 0-.5-.22-.5-.5s.23-.5.5-.5c.28 0 .5.22.5.5zm4 0c0 .28-.23.5-.5.5-.3 0-.5-.22-.5-.5s.2-.5.5-.5c.27 0 .5.22.5.5zm3.98 0c0 .28-.23.5-.5.5-.28 0-.5-.22-.5-.5s.22-.5.5-.5c.27 0 .5.22.5.5zm4 0c0 .28-.24.5-.5.5-.3 0-.5-.22-.5-.5s.2-.5.5-.5c.26 0 .5.22.5.5zm3.97 0c0 .28-.2.5-.5.5-.26 0-.5-.22-.5-.5s.24-.5.5-.5c.3 0 .5.22.5.5zm4 0c0 .28-.22.5-.5.5s-.5-.22-.5-.5.22-.5.5-.5.5.22.5.5zm4 0c0 .28-.24.5-.5.5-.3 0-.5-.22-.5-.5s.2-.5.5-.5c.26 0 .5.22.5.5zm3.97 0c0 .28-.22.5-.5.5-.27 0-.5-.22-.5-.5s.23-.5.5-.5c.28 0 .5.22.5.5zm4 0c0 .28-.23.5-.5.5-.28 0-.5-.22-.5-.5s.22-.5.5-.5c.27 0 .5.22.5.5zm3.98 0c0 .28-.22.5-.5.5s-.5-.22-.5-.5.22-.5.5-.5.5.22.5.5zm4 0c0 .28-.24.5-.5.5-.3 0-.5-.22-.5-.5s.2-.5.5-.5c.26 0 .5.22.5.5zm3.98 0c0 .28-.23.5-.5.5-.28 0-.5-.22-.5-.5s.22-.5.5-.5c.27 0 .5.22.5.5zm3.98 0c0 .28-.2.5-.5.5-.26 0-.5-.22-.5-.5s.24-.5.5-.5c.3 0 .5.22.5.5zm4 0c0 .28-.22.5-.5.5s-.5-.22-.5-.5.22-.5.5-.5.5.22.5.5zm4 0c0 .28-.24.5-.5.5-.3 0-.5-.22-.5-.5s.2-.5.5-.5c.26 0 .5.22.5.5zm3.98 0c0 .28-.23.5-.5.5-.28 0-.5-.22-.5-.5s.22-.5.5-.5c.27 0 .5.22.5.5zm3.98 0c0 .28-.22.5-.5.5-.27 0-.5-.22-.5-.5s.23-.5.5-.5c.28 0 .5.22.5.5zm4 0c0 .28-.23.5-.5.5-.3 0-.5-.22-.5-.5s.2-.5.5-.5c.27 0 .5.22.5.5zm3.98 0c0 .28-.23.5-.5.5-.28 0-.5-.22-.5-.5s.22-.5.5-.5c.27 0 .5.22.5.5zm4 0c0 .28-.24.5-.5.5-.3 0-.5-.22-.5-.5s.2-.5.5-.5c.26 0 .5.22.5.5zm3.97 0c0 .28-.2.5-.5.5-.26 0-.5-.22-.5-.5s.24-.5.5-.5c.3 0 .5.22.5.5zm4 0c0 .28-.22.5-.5.5s-.5-.22-.5-.5.22-.5.5-.5.5.22.5.5zm4 0c0 .28-.24.5-.5.5-.3 0-.5-.22-.5-.5s.2-.5.5-.5c.26 0 .5.22.5.5zm3.97 0c0 .28-.22.5-.5.5-.27 0-.5-.22-.5-.5s.23-.5.5-.5c.28 0 .5.22.5.5zm4 0c0 .28-.23.5-.5.5-.28 0-.5-.22-.5-.5s.22-.5.5-.5c.27 0 .5.22.5.5zm3.98 0c0 .28-.22.5-.5.5s-.5-.22-.5-.5.22-.5.5-.5.5.22.5.5zm4 0c0 .28-.24.5-.5.5-.3 0-.5-.22-.5-.5s.2-.5.5-.5c.26 0 .5.22.5.5zM487 0c0 .28-.22.5-.5.5-.27 0-.5-.22-.5-.5s.23-.5.5-.5c.28 0 .5.22.5.5zm4 0c0 .28-.23.5-.5.5-.28 0-.5-.22-.5-.5s.22-.5.5-.5c.27 0 .5.22.5.5zM495 0c0 .28-.22.5-.5.5s-.5-.22-.5-.5.22-.5.5-.5.5.22.5.5zm4 0c0 .28-.24.5-.5.5-.3 0-.5-.22-.5-.5s.2-.5.5-.5c.26 0 .5.22.5.5zm3.98 0c0 .28-.23.5-.5.5-.28 0-.5-.22-.5-.5s.22-.5.5-.5c.27 0 .5.22.5.5zm3.98 0c0 .28-.22.5-.5.5-.27 0-.5-.22-.5-.5s.23-.5.5-.5c.28 0 .5.22.5.5zm4 0c0 .28-.23.5-.5.5-.3 0-.5-.22-.5-.5s.2-.5.5-.5c.27 0 .5.22.5.5zm3.98 0c0 .28-.23.5-.5.5-.28 0-.5-.22-.5-.5s.22-.5.5-.5c.27 0 .5.22.5.5zm3.98 0c0 .28-.22.5-.5.5-.27 0-.5-.22-.5-.5s.23-.5.5-.5c.28 0 .5.22.5.5zm4 0c0 .28-.23.5-.5.5-.28 0-.5-.22-.5-.5s.22-.5.5-.5c.27 0 .5.22.5.5zm3.98 0c0 .28-.22.5-.5.5s-.5-.22-.5-.5.22-.5.5-.5.5.22.5.5zm4 0c0 .28-.24.5-.5.5-.3 0-.5-.22-.5-.5s.2-.5.5-.5c.26 0 .5.22.5.5zm3.98 0c0 .28-.23.5-.5.5-.28 0-.5-.22-.5-.5s.22-.5.5-.5c.27 0 .5.22.5.5zm3.98 0c0 .28-.22.5-.5.5-.27 0-.5-.22-.5-.5s.23-.5.5-.5c.28 0 .5.22.5.5zm4 0c0 .28-.23.5-.5.5-.3 0-.5-.22-.5-.5s.2-.5.5-.5c.27 0 .5.22.5.5zm3.98 0c0 .28-.23.5-.5.5-.28 0-.5-.22-.5-.5s.22-.5.5-.5c.27 0 .5.22.5.5zm4 0c0 .28-.24.5-.5.5-.3 0-.5-.22-.5-.5s.2-.5.5-.5c.26 0 .5.22.5.5zm3.97 0c0 .28-.2.5-.5.5-.26 0-.5-.22-.5-.5s.24-.5.5-.5c.3 0 .5.22.5.5zm4 0c0 .28-.22.5-.5.5s-.5-.22-.5-.5.22-.5.5-.5.5.22.5.5zm4 0c0 .28-.24.5-.5.5-.3 0-.5-.22-.5-.5s.2-.5.5-.5c.26 0 .5.22.5.5zm3.98 0c0 .28-.23.5-.5.5-.28 0-.5-.22-.5-.5s.22-.5.5-.5c.27 0 .5.22.5.5zm3.98 0c0 .28-.22.5-.5.5-.27 0-.5-.22-.5-.5s.23-.5.5-.5c.28 0 .5.22.5.5zm4 0c0 .28-.23.5-.5.5-.3 0-.5-.22-.5-.5s.2-.5.5-.5c.27 0 .5.22.5.5zm3.98 0c0 .28-.23.5-.5.5-.28 0-.5-.22-.5-.5s.22-.5.5-.5c.27 0 .5.22.5.5zm4 0c0 .28-.24.5-.5.5-.3 0-.5-.22-.5-.5s.2-.5.5-.5c.26 0 .5.22.5.5zm3.97 0c0 .28-.2.5-.5.5-.26 0-.5-.22-.5-.5s.24-.5.5-.5c.3 0 .5.22.5.5zm4 0c0 .28-.22.5-.5.5s-.5-.22-.5-.5.22-.5.5-.5.5.22.5.5zm4 0c0 .28-.24.5-.5.5-.3 0-.5-.22-.5-.5s.2-.5.5-.5c.26 0 .5.22.5.5zm3.97 0c0 .28-.22.5-.5.5-.27 0-.5-.22-.5-.5s.23-.5.5-.5c.28 0 .5.22.5.5zm4 0c0 .28-.23.5-.5.5-.28 0-.5-.22-.5-.5s.22-.5.5-.5c.27 0 .5.22.5.5zm3.98 0c0 .28-.22.5-.5.5s-.5-.22-.5-.5.22-.5.5-.5.5.22.5.5zm4 0c0 .28-.24.5-.5.5-.3 0-.5-.22-.5-.5s.2-.5.5-.5c.26 0 .5.22.5.5zm3.98 0c0 .28-.23.5-.5.5-.28 0-.5-.22-.5-.5s.22-.5.5-.5c.27 0 .5.22.5.5zm3.98 0c0 .28-.2.5-.5.5-.26 0-.5-.22-.5-.5s.24-.5.5-.5c.3 0 .5.22.5.5zm4 0c0 .28-.22.5-.5.5s-.5-.22-.5-.5.22-.5.5-.5.5.22.5.5zm4 0c0 .28-.24.5-.5.5-.3 0-.5-.22-.5-.5s.2-.5.5-.5c.26 0 .5.22.5.5zm3.98 0c0 .28-.23.5-.5.5-.28 0-.5-.22-.5-.5s.22-.5.5-.5c.27 0 .5.22.5.5zm3.98 0c0 .28-.22.5-.5.5-.27 0-.5-.22-.5-.5s.23-.5.5-.5c.28 0 .5.22.5.5zm4 0c0 .28-.23.5-.5.5-.3 0-.5-.22-.5-.5s.2-.5.5-.5c.27 0 .5.22.5.5zm3.98 0c0 .28-.23.5-.5.5-.28 0-.5-.22-.5-.5s.22-.5.5-.5c.27 0 .5.22.5.5zm4 0c0 .28-.24.5-.5.5-.3 0-.5-.22-.5-.5s.2-.5.5-.5c.26 0 .5.22.5.5zm3.97 0c0 .28-.2.5-.5.5-.26 0-.5-.22-.5-.5s.24-.5.5-.5c.3 0 .5.22.5.5zm4 0c0 .28-.22.5-.5.5s-.5-.22-.5-.5.22-.5.5-.5.5.22.5.5zm4.24 1.76c0 .27-.22.5-.5.5-.27 0-.5-.23-.5-.5 0-.28.23-.5.5-.5.28 0 .5.22.5.5zM660.5 6c0 .28-.22.5-.5.5s-.5-.22-.5-.5.22-.5.5-.5.5.22.5.5zm0 4c0 .28-.22.5-.5.5s-.5-.22-.5-.5.22-.5.5-.5.5.22.5.5zm0 4c0 .28-.22.5-.5.5s-.5-.22-.5-.5.22-.5.5-.5.5.22.5.5zm0 4c0 .28-.22.5-.5.5s-.5-.22-.5-.5.22-.5.5-.5.5.22.5.5zm0 4c0 .28-.22.5-.5.5s-.5-.22-.5-.5.22-.5.5-.5.5.22.5.5zm0 4c0 .28-.22.5-.5.5s-.5-.22-.5-.5.22-.5.5-.5.5.22.5.5zm0 4c0 .28-.22.5-.5.5s-.5-.22-.5-.5.22-.5.5-.5.5.22.5.5zm0 4c0 .28-.22.5-.5.5s-.5-.22-.5-.5.22-.5.5-.5.5.22.5.5zm0 4c0 .28-.22.5-.5.5s-.5-.22-.5-.5.22-.5.5-.5.5.22.5.5zm0 4c0 .28-.22.5-.5.5s-.5-.22-.5-.5.22-.5.5-.5.5.22.5.5zm0 4c0 .28-.22.5-.5.5s-.5-.22-.5-.5.22-.5.5-.5.5.22.5.5zm0 4c0 .28-.22.5-.5.5s-.5-.22-.5-.5.22-.5.5-.5.5.22.5.5zm0 4c0 .28-.22.5-.5.5s-.5-.22-.5-.5.22-.5.5-.5.5.22.5.5zm0 4c0 .28-.22.5-.5.5s-.5-.22-.5-.5.22-.5.5-.5.5.22.5.5zm0 4c0 .28-.22.5-.5.5s-.5-.22-.5-.5.22-.5.5-.5.5.22.5.5zm0 4c0 .28-.22.5-.5.5s-.5-.22-.5-.5.22-.5.5-.5.5.22.5.5zm0 4c0 .28-.22.5-.5.5s-.5-.22-.5-.5.22-.5.5-.5.5.22.5.5zm0 4c0 .28-.22.5-.5.5s-.5-.22-.5-.5.22-.5.5-.5.5.22.5.5zm0 4c0 .28-.22.5-.5.5s-.5-.22-.5-.5.22-.5.5-.5.5.22.5.5zm0 4c0 .28-.22.5-.5.5s-.5-.22-.5-.5.22-.5.5-.5.5.22.5.5zm0 4c0 .28-.22.5-.5.5s-.5-.22-.5-.5.22-.5.5-.5.5.22.5.5zm0 4c0 .28-.22.5-.5.5s-.5-.22-.5-.5.22-.5.5-.5.5.22.5.5zm0 4c0 .28-.22.5-.5.5s-.5-.22-.5-.5.22-.5.5-.5.5.22.5.5zm0 4c0 .28-.22.5-.5.5s-.5-.22-.5-.5.22-.5.5-.5.5.22.5.5zm0 4c0 .28-.22.5-.5.5s-.5-.22-.5-.5.22-.5.5-.5.5.22.5.5zm0 4c0 .28-.22.5-.5.5s-.5-.22-.5-.5.22-.5.5-.5.5.22.5.5zm0 4c0 .28-.22.5-.5.5s-.5-.22-.5-.5.22-.5.5-.5.5.22.5.5zm0 4c0 .28-.22.5-.5.5s-.5-.22-.5-.5.22-.5.5-.5.5.22.5.5zm0 4c0 .28-.22.5-.5.5s-.5-.22-.5-.5.22-.5.5-.5.5.22.5.5zm0 4c0 .28-.22.5-.5.5s-.5-.22-.5-.5.22-.5.5-.5.5.22.5.5zm0 4c0 .28-.22.5-.5.5s-.5-.22-.5-.5.22-.5.5-.5.5.22.5.5zm0 4c0 .28-.22.5-.5.5s-.5-.22-.5-.5.22-.5.5-.5.5.22.5.5zm0 4c0 .28-.22.5-.5.5s-.5-.22-.5-.5.22-.5.5-.5.5.22.5.5zm0 4c0 .28-.22.5-.5.5s-.5-.22-.5-.5.22-.5.5-.5.5.22.5.5zm0 4c0 .28-.22.5-.5.5s-.5-.22-.5-.5.22-.5.5-.5.5.22.5.5zm0 4c0 .28-.22.5-.5.5s-.5-.22-.5-.5.22-.5.5-.5.5.22.5.5zm0 4c0 .28-.22.5-.5.5s-.5-.22-.5-.5.22-.5.5-.5.5.22.5.5zm0 4c0 .28-.22.5-.5.5s-.5-.22-.5-.5.22-.5.5-.5.5.22.5.5zm0 4c0 .28-.22.5-.5.5s-.5-.22-.5-.5.22-.5.5-.5.5.22.5.5zm0 4c0 .28-.22.5-.5.5s-.5-.22-.5-.5.22-.5.5-.5.5.22.5.5zm0 4c0 .28-.22.5-.5.5s-.5-.22-.5-.5.22-.5.5-.5.5.22.5.5zm0 4c0 .28-.22.5-.5.5s-.5-.22-.5-.5.22-.5.5-.5.5.22.5.5zm0 4c0 .28-.22.5-.5.5s-.5-.22-.5-.5.22-.5.5-.5.5.22.5.5zm0 4c0 .28-.22.5-.5.5s-.5-.22-.5-.5.22-.5.5-.5.5.22.5.5zm0 4c0 .28-.22.5-.5.5s-.5-.22-.5-.5.22-.5.5-.5.5.22.5.5zm0 4c0 .28-.22.5-.5.5s-.5-.22-.5-.5.22-.5.5-.5.5.22.5.5zm0 4c0 .28-.22.5-.5.5s-.5-.22-.5-.5.22-.5.5-.5.5.22.5.5zm0 4c0 .28-.22.5-.5.5s-.5-.22-.5-.5.22-.5.5-.5.5.22.5.5zm-1.76 4.24c0 .28-.22.5-.5.5-.27 0-.5-.22-.5-.5 0-.27.23-.5.5-.5.28 0 .5.23.5.5zM654.5 200c0 .28-.22.5-.5.5s-.5-.22-.5-.5.22-.5.5-.5.5.22.5.5zm-4 0c0 .28-.2.5-.5.5-.26 0-.5-.22-.5-.5s.24-.5.5-.5c.3 0 .5.22.5.5zm-3.98 0c0 .28-.22.5-.5.5-.27 0-.5-.22-.5-.5s.23-.5.5-.5c.28 0 .5.22.5.5zm-3.98 0c0 .28-.23.5-.5.5-.28 0-.5-.22-.5-.5s.22-.5.5-.5c.27 0 .5.22.5.5zm-4 0c0 .28-.2.5-.5.5-.27 0-.5-.22-.5-.5s.23-.5.5-.5c.3 0 .5.22.5.5zm-3.98 0c0 .28-.22.5-.5.5-.27 0-.5-.22-.5-.5s.23-.5.5-.5c.28 0 .5.22.5.5zm-3.98 0c0 .28-.23.5-.5.5-.28 0-.5-.22-.5-.5s.22-.5.5-.5c.27 0 .5.22.5.5zm-4 0c0 .28-.22.5-.5.5-.27 0-.5-.22-.5-.5s.23-.5.5-.5c.28 0 .5.22.5.5zm-3.98 0c0 .28-.22.5-.5.5s-.5-.22-.5-.5.22-.5.5-.5.5.22.5.5zm-4 0c0 .28-.2.5-.5.5-.26 0-.5-.22-.5-.5s.24-.5.5-.5c.3 0 .5.22.5.5zm-3.98 0c0 .28-.22.5-.5.5-.27 0-.5-.22-.5-.5s.23-.5.5-.5c.28 0 .5.22.5.5zm-3.98 0c0 .28-.23.5-.5.5-.28 0-.5-.22-.5-.5s.22-.5.5-.5c.27 0 .5.22.5.5zm-4 0c0 .28-.2.5-.5.5-.27 0-.5-.22-.5-.5s.23-.5.5-.5c.3 0 .5.22.5.5zm-3.98 0c0 .28-.22.5-.5.5-.27 0-.5-.22-.5-.5s.23-.5.5-.5c.28 0 .5.22.5.5zm-4 0c0 .28-.2.5-.5.5-.26 0-.5-.22-.5-.5s.24-.5.5-.5c.3 0 .5.22.5.5zm-3.97 0c0 .28-.24.5-.5.5-.3 0-.5-.22-.5-.5s.2-.5.5-.5c.26 0 .5.22.5.5zm-4 0c0 .28-.22.5-.5.5s-.5-.22-.5-.5.22-.5.5-.5.5.22.5.5zm-4 0c0 .28-.2.5-.5.5-.26 0-.5-.22-.5-.5s.24-.5.5-.5c.3 0 .5.22.5.5zm-3.98 0c0 .28-.22.5-.5.5-.27 0-.5-.22-.5-.5s.23-.5.5-.5c.28 0 .5.22.5.5zm-3.98 0c0 .28-.23.5-.5.5-.28 0-.5-.22-.5-.5s.22-.5.5-.5c.27 0 .5.22.5.5zm-4 0c0 .28-.2.5-.5.5-.27 0-.5-.22-.5-.5s.23-.5.5-.5c.3 0 .5.22.5.5zm-3.98 0c0 .28-.22.5-.5.5-.27 0-.5-.22-.5-.5s.23-.5.5-.5c.28 0 .5.22.5.5zm-4 0c0 .28-.2.5-.5.5-.26 0-.5-.22-.5-.5s.24-.5.5-.5c.3 0 .5.22.5.5zm-3.97 0c0 .28-.24.5-.5.5-.3 0-.5-.22-.5-.5s.2-.5.5-.5c.26 0 .5.22.5.5zm-4 0c0 .28-.22.5-.5.5s-.5-.22-.5-.5.22-.5.5-.5.5.22.5.5zm-4 0c0 .28-.2.5-.5.5-.26 0-.5-.22-.5-.5s.24-.5.5-.5c.3 0 .5.22.5.5zm-3.97 0c0 .28-.23.5-.5.5-.28 0-.5-.22-.5-.5s.22-.5.5-.5c.27 0 .5.22.5.5zm-4 0c0 .28-.22.5-.5.5-.27 0-.5-.22-.5-.5s.23-.5.5-.5c.28 0 .5.22.5.5zm-3.98 0c0 .28-.22.5-.5.5s-.5-.22-.5-.5.22-.5.5-.5.5.22.5.5zm-4 0c0 .28-.2.5-.5.5-.26 0-.5-.22-.5-.5s.24-.5.5-.5c.3 0 .5.22.5.5zm-3.98 0c0 .28-.22.5-.5.5-.27 0-.5-.22-.5-.5s.23-.5.5-.5c.28 0 .5.22.5.5zm-3.98 0c0 .28-.24.5-.5.5-.3 0-.5-.22-.5-.5s.2-.5.5-.5c.26 0 .5.22.5.5zm-4 0c0 .28-.22.5-.5.5s-.5-.22-.5-.5.22-.5.5-.5.5.22.5.5zm-4 0c0 .28-.2.5-.5.5-.26 0-.5-.22-.5-.5s.24-.5.5-.5c.3 0 .5.22.5.5zm-3.98 0c0 .28-.22.5-.5.5-.27 0-.5-.22-.5-.5s.23-.5.5-.5c.28 0 .5.22.5.5zm-3.98 0c0 .28-.23.5-.5.5-.28 0-.5-.22-.5-.5s.22-.5.5-.5c.27 0 .5.22.5.5zm-4 0c0 .28-.2.5-.5.5-.27 0-.5-.22-.5-.5s.23-.5.5-.5c.3 0 .5.22.5.5zm-3.98 0c0 .28-.22.5-.5.5-.27 0-.5-.22-.5-.5s.23-.5.5-.5c.28 0 .5.22.5.5zm-3.98 0c0 .28-.23.5-.5.5-.28 0-.5-.22-.5-.5s.22-.5.5-.5c.27 0 .5.22.5.5zm-4 0c0 .28-.22.5-.5.5-.27 0-.5-.22-.5-.5s.23-.5.5-.5c.28 0 .5.22.5.5zm-3.98 0c0 .28-.22.5-.5.5s-.5-.22-.5-.5.22-.5.5-.5.5.22.5.5zm-4 0c0 .28-.2.5-.5.5-.26 0-.5-.22-.5-.5s.24-.5.5-.5c.3 0 .5.22.5.5zm-3.98 0c0 .28-.22.5-.5.5-.27 0-.5-.22-.5-.5s.23-.5.5-.5c.28 0 .5.22.5.5zm-3.98 0c0 .28-.23.5-.5.5-.28 0-.5-.22-.5-.5s.22-.5.5-.5c.27 0 .5.22.5.5zm-4 0c0 .28-.2.5-.5.5-.27 0-.5-.22-.5-.5s.23-.5.5-.5c.3 0 .5.22.5.5zm-3.98 0c0 .28-.22.5-.5.5-.27 0-.5-.22-.5-.5s.23-.5.5-.5c.28 0 .5.22.5.5zm-4 0c0 .28-.2.5-.5.5-.26 0-.5-.22-.5-.5s.24-.5.5-.5c.3 0 .5.22.5.5zm-3.97 0c0 .28-.24.5-.5.5-.3 0-.5-.22-.5-.5s.2-.5.5-.5c.26 0 .5.22.5.5zm-4 0c0 .28-.22.5-.5.5s-.5-.22-.5-.5.22-.5.5-.5.5.22.5.5zm-4 0c0 .28-.2.5-.5.5-.26 0-.5-.22-.5-.5s.24-.5.5-.5c.3 0 .5.22.5.5zm-3.98 0c0 .28-.22.5-.5.5-.27 0-.5-.22-.5-.5s.23-.5.5-.5c.28 0 .5.22.5.5zm-3.98 0c0 .28-.23.5-.5.5-.28 0-.5-.22-.5-.5s.22-.5.5-.5c.27 0 .5.22.5.5zm-4 0c0 .28-.2.5-.5.5-.27 0-.5-.22-.5-.5s.23-.5.5-.5c.3 0 .5.22.5.5zm-3.98 0c0 .28-.22.5-.5.5-.27 0-.5-.22-.5-.5s.23-.5.5-.5c.28 0 .5.22.5.5zm-4 0c0 .28-.2.5-.5.5-.26 0-.5-.22-.5-.5s.24-.5.5-.5c.3 0 .5.22.5.5zm-3.97 0c0 .28-.24.5-.5.5-.3 0-.5-.22-.5-.5s.2-.5.5-.5c.26 0 .5.22.5.5zm-4 0c0 .28-.22.5-.5.5s-.5-.22-.5-.5.22-.5.5-.5.5.22.5.5zm-4 0c0 .28-.2.5-.5.5-.26 0-.5-.22-.5-.5s.24-.5.5-.5c.3 0 .5.22.5.5zm-3.97 0c0 .28-.23.5-.5.5-.28 0-.5-.22-.5-.5s.22-.5.5-.5c.27 0 .5.22.5.5zm-4 0c0 .28-.22.5-.5.5-.27 0-.5-.22-.5-.5s.23-.5.5-.5c.28 0 .5.22.5.5zm-3.98 0c0 .28-.22.5-.5.5s-.5-.22-.5-.5.22-.5.5-.5.5.22.5.5zm-4 0c0 .28-.2.5-.5.5-.26 0-.5-.22-.5-.5s.24-.5.5-.5c.3 0 .5.22.5.5zm-3.98 0c0 .28-.22.5-.5.5-.27 0-.5-.22-.5-.5s.23-.5.5-.5c.28 0 .5.22.5.5zm-3.98 0c0 .28-.24.5-.5.5-.3 0-.5-.22-.5-.5s.2-.5.5-.5c.26 0 .5.22.5.5zm-4 0c0 .28-.22.5-.5.5s-.5-.22-.5-.5.22-.5.5-.5.5.22.5.5zm-4 0c0 .28-.2.5-.5.5-.26 0-.5-.22-.5-.5s.24-.5.5-.5c.3 0 .5.22.5.5zm-3.98 0c0 .28-.22.5-.5.5-.27 0-.5-.22-.5-.5s.23-.5.5-.5c.28 0 .5.22.5.5zm-3.98 0c0 .28-.23.5-.5.5-.28 0-.5-.22-.5-.5s.22-.5.5-.5c.27 0 .5.22.5.5zm-4 0c0 .28-.2.5-.5.5-.27 0-.5-.22-.5-.5s.23-.5.5-.5c.3 0 .5.22.5.5zm-3.98 0c0 .28-.22.5-.5.5-.27 0-.5-.22-.5-.5s.23-.5.5-.5c.28 0 .5.22.5.5zm-4 0c0 .28-.2.5-.5.5-.26 0-.5-.22-.5-.5s.24-.5.5-.5c.3 0 .5.22.5.5zm-3.97 0c0 .28-.24.5-.5.5-.3 0-.5-.22-.5-.5s.2-.5.5-.5c.26 0 .5.22.5.5zm-4 0c0 .28-.22.5-.5.5s-.5-.22-.5-.5.22-.5.5-.5.5.22.5.5zm-4 0c0 .28-.2.5-.5.5-.26 0-.5-.22-.5-.5s.24-.5.5-.5c.3 0 .5.22.5.5zm-3.97 0c0 .28-.23.5-.5.5-.28 0-.5-.22-.5-.5s.22-.5.5-.5c.27 0 .5.22.5.5zm-4 0c0 .28-.22.5-.5.5-.27 0-.5-.22-.5-.5s.23-.5.5-.5c.28 0 .5.22.5.5zm-3.98 0c0 .28-.22.5-.5.5s-.5-.22-.5-.5.22-.5.5-.5.5.22.5.5zm-4 0c0 .28-.2.5-.5.5-.26 0-.5-.22-.5-.5s.24-.5.5-.5c.3 0 .5.22.5.5zm-3.97 0c0 .28-.23.5-.5.5-.28 0-.5-.22-.5-.5s.22-.5.5-.5c.27 0 .5.22.5.5zm-4 0c0 .28-.22.5-.5.5-.27 0-.5-.22-.5-.5s.23-.5.5-.5c.28 0 .5.22.5.5zm-3.98 0c0 .28-.22.5-.5.5s-.5-.22-.5-.5.22-.5.5-.5.5.22.5.5zm-4 0c0 .28-.2.5-.5.5-.26 0-.5-.22-.5-.5s.24-.5.5-.5c.3 0 .5.22.5.5zm-3.98 0c0 .28-.22.5-.5.5-.27 0-.5-.22-.5-.5s.23-.5.5-.5c.28 0 .5.22.5.5zm-3.98 0c0 .28-.23.5-.5.5-.28 0-.5-.22-.5-.5s.22-.5.5-.5c.27 0 .5.22.5.5zm-4 0c0 .28-.2.5-.5.5-.27 0-.5-.22-.5-.5s.23-.5.5-.5c.3 0 .5.22.5.5zm-3.98 0c0 .28-.22.5-.5.5-.27 0-.5-.22-.5-.5s.23-.5.5-.5c.28 0 .5.22.5.5zm-4 0c0 .28-.2.5-.5.5-.26 0-.5-.22-.5-.5s.24-.5.5-.5c.3 0 .5.22.5.5zm-3.97 0c0 .28-.24.5-.5.5-.3 0-.5-.22-.5-.5s.2-.5.5-.5c.26 0 .5.22.5.5zm-4 0c0 .28-.22.5-.5.5s-.5-.22-.5-.5.22-.5.5-.5.5.22.5.5zm-4 0c0 .28-.2.5-.5.5-.26 0-.5-.22-.5-.5s.24-.5.5-.5c.3 0 .5.22.5.5zm-3.98 0c0 .28-.22.5-.5.5-.27 0-.5-.22-.5-.5s.23-.5.5-.5c.28 0 .5.22.5.5zm-3.98 0c0 .28-.23.5-.5.5-.28 0-.5-.22-.5-.5s.22-.5.5-.5c.27 0 .5.22.5.5zm-4 0c0 .28-.2.5-.5.5-.27 0-.5-.22-.5-.5s.23-.5.5-.5c.3 0 .5.22.5.5zm-3.98 0c0 .28-.22.5-.5.5-.27 0-.5-.22-.5-.5s.23-.5.5-.5c.28 0 .5.22.5.5zm-4 0c0 .28-.2.5-.5.5-.26 0-.5-.22-.5-.5s.24-.5.5-.5c.3 0 .5.22.5.5zm-3.97 0c0 .28-.24.5-.5.5-.3 0-.5-.22-.5-.5s.2-.5.5-.5c.26 0 .5.22.5.5zm-4 0c0 .28-.22.5-.5.5s-.5-.22-.5-.5.22-.5.5-.5.5.22.5.5zm-4 0c0 .28-.2.5-.5.5-.26 0-.5-.22-.5-.5s.24-.5.5-.5c.3 0 .5.22.5.5zm-3.97 0c0 .28-.23.5-.5.5-.28 0-.5-.22-.5-.5s.22-.5.5-.5c.27 0 .5.22.5.5zm-4 0c0 .28-.22.5-.5.5-.27 0-.5-.22-.5-.5s.23-.5.5-.5c.28 0 .5.22.5.5zm-3.98 0c0 .28-.22.5-.5.5s-.5-.22-.5-.5.22-.5.5-.5.5.22.5.5zm-4 0c0 .28-.2.5-.5.5-.26 0-.5-.22-.5-.5s.24-.5.5-.5c.3 0 .5.22.5.5zm-3.97 0c0 .28-.23.5-.5.5-.28 0-.5-.22-.5-.5s.22-.5.5-.5c.27 0 .5.22.5.5zm-4 0c0 .28-.22.5-.5.5-.27 0-.5-.22-.5-.5s.23-.5.5-.5c.28 0 .5.22.5.5zm-3.98 0c0 .28-.22.5-.5.5s-.5-.22-.5-.5.22-.5.5-.5.5.22.5.5zm-4 0c0 .28-.2.5-.5.5-.26 0-.5-.22-.5-.5s.24-.5.5-.5c.3 0 .5.22.5.5zm-3.98 0c0 .28-.22.5-.5.5-.27 0-.5-.22-.5-.5s.23-.5.5-.5c.28 0 .5.22.5.5zm-3.98 0c0 .28-.23.5-.5.5-.28 0-.5-.22-.5-.5s.22-.5.5-.5c.27 0 .5.22.5.5zm-4 0c0 .28-.2.5-.5.5-.27 0-.5-.22-.5-.5s.23-.5.5-.5c.3 0 .5.22.5.5zm-3.98 0c0 .28-.22.5-.5.5-.27 0-.5-.22-.5-.5s.23-.5.5-.5c.28 0 .5.22.5.5zm-4 0c0 .28-.2.5-.5.5-.26 0-.5-.22-.5-.5s.24-.5.5-.5c.3 0 .5.22.5.5zm-3.97 0c0 .28-.24.5-.5.5-.3 0-.5-.22-.5-.5s.2-.5.5-.5c.26 0 .5.22.5.5zm-4 0c0 .28-.22.5-.5.5s-.5-.22-.5-.5.22-.5.5-.5.5.22.5.5zm-4 0c0 .28-.2.5-.5.5-.26 0-.5-.22-.5-.5s.24-.5.5-.5c.3 0 .5.22.5.5zm-3.97 0c0 .28-.23.5-.5.5-.28 0-.5-.22-.5-.5s.22-.5.5-.5c.27 0 .5.22.5.5zm-4 0c0 .28-.22.5-.5.5-.27 0-.5-.22-.5-.5s.23-.5.5-.5c.28 0 .5.22.5.5zm-3.98 0c0 .28-.22.5-.5.5s-.5-.22-.5-.5.22-.5.5-.5.5.22.5.5zm-4 0c0 .28-.2.5-.5.5-.26 0-.5-.22-.5-.5s.24-.5.5-.5c.3 0 .5.22.5.5zm-3.97 0c0 .28-.23.5-.5.5-.28 0-.5-.22-.5-.5s.22-.5.5-.5c.27 0 .5.22.5.5zm-4 0c0 .28-.22.5-.5.5-.27 0-.5-.22-.5-.5s.23-.5.5-.5c.28 0 .5.22.5.5zm-3.98 0c0 .28-.22.5-.5.5s-.5-.22-.5-.5.22-.5.5-.5.5.22.5.5zm-4 0c0 .28-.2.5-.5.5-.26 0-.5-.22-.5-.5s.24-.5.5-.5c.3 0 .5.22.5.5zm-3.97 0c0 .28-.23.5-.5.5-.28 0-.5-.22-.5-.5s.22-.5.5-.5c.27 0 .5.22.5.5zm-4 0c0 .28-.22.5-.5.5-.27 0-.5-.22-.5-.5s.23-.5.5-.5c.28 0 .5.22.5.5zm-3.98 0c0 .28-.22.5-.5.5s-.5-.22-.5-.5.22-.5.5-.5.5.22.5.5zm-4 0c0 .28-.2.5-.5.5-.26 0-.5-.22-.5-.5s.24-.5.5-.5c.3 0 .5.22.5.5zm-3.98 0c0 .28-.22.5-.5.5-.27 0-.5-.22-.5-.5s.23-.5.5-.5c.28 0 .5.22.5.5zm-3.98 0c0 .28-.24.5-.5.5-.3 0-.5-.22-.5-.5s.2-.5.5-.5c.26 0 .5.22.5.5zm-4 0c0 .28-.22.5-.5.5s-.5-.22-.5-.5.22-.5.5-.5.5.22.5.5zm-4 0c0 .28-.2.5-.5.5-.26 0-.5-.22-.5-.5s.24-.5.5-.5c.3 0 .5.22.5.5zm-3.97 0c0 .28-.23.5-.5.5-.28 0-.5-.22-.5-.5s.22-.5.5-.5c.27 0 .5.22.5.5zm-4 0c0 .28-.22.5-.5.5-.27 0-.5-.22-.5-.5s.23-.5.5-.5c.28 0 .5.22.5.5zm-3.98 0c0 .28-.22.5-.5.5s-.5-.22-.5-.5.22-.5.5-.5.5.22.5.5zm-4 0c0 .28-.2.5-.5.5-.26 0-.5-.22-.5-.5s.24-.5.5-.5c.3 0 .5.22.5.5zm-3.98 0c0 .28-.22.5-.5.5-.27 0-.5-.22-.5-.5s.23-.5.5-.5c.28 0 .5.22.5.5zm-3.98 0c0 .28-.24.5-.5.5-.3 0-.5-.22-.5-.5s.2-.5.5-.5c.26 0 .5.22.5.5zm-4 0c0 .28-.22.5-.5.5s-.5-.22-.5-.5.22-.5.5-.5.5.22.5.5zm-4 0c0 .28-.2.5-.5.5-.26 0-.5-.22-.5-.5s.24-.5.5-.5c.3 0 .5.22.5.5zm-3.98 0c0 .28-.22.5-.5.5-.27 0-.5-.22-.5-.5s.23-.5.5-.5c.28 0 .5.22.5.5zm-3.98 0c0 .28-.23.5-.5.5-.28 0-.5-.22-.5-.5s.22-.5.5-.5c.27 0 .5.22.5.5zm-4 0c0 .28-.2.5-.5.5-.27 0-.5-.22-.5-.5s.23-.5.5-.5c.3 0 .5.22.5.5zm-3.98 0c0 .28-.22.5-.5.5-.27 0-.5-.22-.5-.5s.23-.5.5-.5c.28 0 .5.22.5.5zm-3.98 0c0 .28-.23.5-.5.5-.28 0-.5-.22-.5-.5s.22-.5.5-.5c.27 0 .5.22.5.5zm-4 0c0 .28-.22.5-.5.5-.27 0-.5-.22-.5-.5s.23-.5.5-.5c.28 0 .5.22.5.5zm-3.98 0c0 .28-.22.5-.5.5s-.5-.22-.5-.5.22-.5.5-.5.5.22.5.5zm-4 0c0 .28-.2.5-.5.5-.26 0-.5-.22-.5-.5s.24-.5.5-.5c.3 0 .5.22.5.5zm-3.97 0c0 .28-.23.5-.5.5-.28 0-.5-.22-.5-.5s.22-.5.5-.5c.27 0 .5.22.5.5zm-4 0c0 .28-.22.5-.5.5-.27 0-.5-.22-.5-.5s.23-.5.5-.5c.28 0 .5.22.5.5zm-3.98 0c0 .28-.22.5-.5.5s-.5-.22-.5-.5.22-.5.5-.5.5.22.5.5zm-4 0c0 .28-.2.5-.5.5-.26 0-.5-.22-.5-.5s.24-.5.5-.5c.3 0 .5.22.5.5zm-3.98 0c0 .28-.22.5-.5.5-.27 0-.5-.22-.5-.5s.23-.5.5-.5c.28 0 .5.22.5.5zm-3.98 0c0 .28-.24.5-.5.5-.3 0-.5-.22-.5-.5s.2-.5.5-.5c.26 0 .5.22.5.5zm-4 0c0 .28-.22.5-.5.5s-.5-.22-.5-.5.22-.5.5-.5.5.22.5.5zm-4 0c0 .28-.2.5-.5.5-.26 0-.5-.22-.5-.5s.24-.5.5-.5c.3 0 .5.22.5.5zm-3.98 0c0 .28-.22.5-.5.5-.27 0-.5-.22-.5-.5s.23-.5.5-.5c.28 0 .5.22.5.5zm-3.98 0c0 .28-.23.5-.5.5-.28 0-.5-.22-.5-.5s.22-.5.5-.5c.27 0 .5.22.5.5zm-4 0c0 .28-.2.5-.5.5-.27 0-.5-.22-.5-.5s.23-.5.5-.5c.3 0 .5.22.5.5zm-3.98 0c0 .28-.22.5-.5.5-.27 0-.5-.22-.5-.5s.23-.5.5-.5c.28 0 .5.22.5.5zm-3.98 0c0 .28-.23.5-.5.5-.28 0-.5-.22-.5-.5s.22-.5.5-.5c.27 0 .5.22.5.5zm-4 0c0 .28-.22.5-.5.5-.27 0-.5-.22-.5-.5s.23-.5.5-.5c.28 0 .5.22.5.5zm-3.98 0c0 .28-.22.5-.5.5s-.5-.22-.5-.5.22-.5.5-.5.5.22.5.5zm-4.24-1.76c0 .28-.23.5-.5.5-.28 0-.5-.22-.5-.5 0-.27.22-.5.5-.5.27 0 .5.23.5.5zM10.5 194c0 .28-.22.5-.5.5s-.5-.22-.5-.5.22-.5.5-.5.5.22.5.5zm0-4c0 .28-.22.5-.5.5s-.5-.22-.5-.5.22-.5.5-.5.5.22.5.5zm0-4c0 .28-.22.5-.5.5s-.5-.22-.5-.5.22-.5.5-.5.5.22.5.5zm0-4c0 .28-.22.5-.5.5s-.5-.22-.5-.5.22-.5.5-.5.5.22.5.5zm0-4c0 .28-.22.5-.5.5s-.5-.22-.5-.5.22-.5.5-.5.5.22.5.5zm0-4c0 .28-.22.5-.5.5s-.5-.22-.5-.5.22-.5.5-.5.5.22.5.5zm0-4c0 .28-.22.5-.5.5s-.5-.22-.5-.5.22-.5.5-.5.5.22.5.5zm0-4c0 .28-.22.5-.5.5s-.5-.22-.5-.5.22-.5.5-.5.5.22.5.5zm0-4c0 .28-.22.5-.5.5s-.5-.22-.5-.5.22-.5.5-.5.5.22.5.5zm0-4c0 .28-.22.5-.5.5s-.5-.22-.5-.5.22-.5.5-.5.5.22.5.5zm0-4c0 .28-.22.5-.5.5s-.5-.22-.5-.5.22-.5.5-.5.5.22.5.5zm0-4c0 .28-.22.5-.5.5s-.5-.22-.5-.5.22-.5.5-.5.5.22.5.5zm0-4c0 .28-.22.5-.5.5s-.5-.22-.5-.5.22-.5.5-.5.5.22.5.5zm0-4c0 .28-.22.5-.5.5s-.5-.22-.5-.5.22-.5.5-.5.5.22.5.5zm0-4c0 .28-.22.5-.5.5s-.5-.22-.5-.5.22-.5.5-.5.5.22.5.5zm0-4c0 .28-.22.5-.5.5s-.5-.22-.5-.5.22-.5.5-.5.5.22.5.5zm0-4c0 .28-.22.5-.5.5s-.5-.22-.5-.5.22-.5.5-.5.5.22.5.5zm0-4c0 .28-.22.5-.5.5s-.5-.22-.5-.5.22-.5.5-.5.5.22.5.5zm0-4c0 .28-.22.5-.5.5s-.5-.22-.5-.5.22-.5.5-.5.5.22.5.5zm0-4c0 .28-.22.5-.5.5s-.5-.22-.5-.5.22-.5.5-.5.5.22.5.5zm0-4c0 .28-.22.5-.5.5s-.5-.22-.5-.5.22-.5.5-.5.5.22.5.5zm0-4c0 .28-.22.5-.5.5s-.5-.22-.5-.5.22-.5.5-.5.5.22.5.5zm0-4c0 .28-.22.5-.5.5s-.5-.22-.5-.5.22-.5.5-.5.5.22.5.5zm0-4c0 .28-.22.5-.5.5s-.5-.22-.5-.5.22-.5.5-.5.5.22.5.5zm0-4c0 .28-.22.5-.5.5s-.5-.22-.5-.5.22-.5.5-.5.5.22.5.5zm0-4c0 .28-.22.5-.5.5s-.5-.22-.5-.5.22-.5.5-.5.5.22.5.5zm0-4c0 .28-.22.5-.5.5s-.5-.22-.5-.5.22-.5.5-.5.5.22.5.5zm0-4c0 .28-.22.5-.5.5s-.5-.22-.5-.5.22-.5.5-.5.5.22.5.5zm0-4c0 .28-.22.5-.5.5s-.5-.22-.5-.5.22-.5.5-.5.5.22.5.5zm0-4c0 .28-.22.5-.5.5s-.5-.22-.5-.5.22-.5.5-.5.5.22.5.5zm0-4c0 .28-.22.5-.5.5s-.5-.22-.5-.5.22-.5.5-.5.5.22.5.5zm0-4c0 .28-.22.5-.5.5s-.5-.22-.5-.5.22-.5.5-.5.5.22.5.5zm0-4c0 .28-.22.5-.5.5s-.5-.22-.5-.5.22-.5.5-.5.5.22.5.5zm0-4c0 .28-.22.5-.5.5s-.5-.22-.5-.5.22-.5.5-.5.5.22.5.5zm0-4c0 .28-.22.5-.5.5s-.5-.22-.5-.5.22-.5.5-.5.5.22.5.5zm0-4c0 .28-.22.5-.5.5s-.5-.22-.5-.5.22-.5.5-.5.5.22.5.5zm0-4c0 .28-.22.5-.5.5s-.5-.22-.5-.5.22-.5.5-.5.5.22.5.5zm0-4c0 .28-.22.5-.5.5s-.5-.22-.5-.5.22-.5.5-.5.5.22.5.5zm0-4c0 .28-.22.5-.5.5s-.5-.22-.5-.5.22-.5.5-.5.5.22.5.5zm0-4c0 .28-.22.5-.5.5s-.5-.22-.5-.5.22-.5.5-.5.5.22.5.5zm0-4c0 .28-.22.5-.5.5s-.5-.22-.5-.5.22-.5.5-.5.5.22.5.5zm0-4c0 .28-.22.5-.5.5s-.5-.22-.5-.5.22-.5.5-.5.5.22.5.5zm0-4c0 .28-.22.5-.5.5s-.5-.22-.5-.5.22-.5.5-.5.5.22.5.5zm0-4c0 .28-.22.5-.5.5s-.5-.22-.5-.5.22-.5.5-.5.5.22.5.5zm0-4c0 .28-.22.5-.5.5s-.5-.22-.5-.5.22-.5.5-.5.5.22.5.5zm0-4c0 .28-.22.5-.5.5s-.5-.22-.5-.5.22-.5.5-.5.5.22.5.5zm0-4c0 .28-.22.5-.5.5s-.5-.22-.5-.5.22-.5.5-.5.5.22.5.5zm0-4c0 .28-.22.5-.5.5s-.5-.22-.5-.5.22-.5.5-.5.5.22.5.5z"
              fill="#000000"/>
        <path d="M220 28a6 6 0 0 1 6-6h148a6 6 0 0 1 6 6v114a6 6 0 0 1-6 6H226a6 6 0 0 1-6-6z" stroke="#000000"
              fill-opacity="0"/>
        <use xlink:href="#a" transform="matrix(1,0,0,1,228,30) translate(64.5925925925926 59.44444444444444)"/>
        <path d="M40 263a6 6 0 0 1 6-6h88a6 6 0 0 1 6 6v34a6 6 0 0 1-6 6H46a6 6 0 0 1-6-6z" stroke="#000000"
              fill-opacity="0"/>
        <use xlink:href="#b" transform="matrix(1,0,0,1,48,265) translate(28.419753086419753 19.444444444444443)"/>
        <path d="M180 323a6 6 0 0 1 6-6h88a6 6 0 0 1 6 6v34a6 6 0 0 1-6 6h-88a6 6 0 0 1-6-6z" stroke="#000000"
              fill-opacity="0"/>
        <use xlink:href="#c" transform="matrix(1,0,0,1,188,325) translate(28.419753086419753 19.444444444444443)"/>
        <path d="M440 263a6 6 0 0 1 6-6h88a6 6 0 0 1 6 6v34a6 6 0 0 1-6 6h-88a6 6 0 0 1-6-6z" stroke="#000000"
              fill-opacity="0"/>
        <use xlink:href="#d" transform="matrix(1,0,0,1,448,265) translate(28.419753086419753 19.444444444444443)"/>
        <path d="M340 343a6 6 0 0 1 6-6h88a6 6 0 0 1 6 6v34a6 6 0 0 1-6 6h-88a6 6 0 0 1-6-6z" stroke="#000000"
              fill-opacity="0"/>
        <use xlink:href="#e" transform="matrix(1,0,0,1,348,345) translate(28.419753086419753 19.444444444444443)"/>
        <path d="M90 256v-36h210v-16.7" stroke="#000000" fill="none"/>
        <path d="M90.5 256.5h-1v-.5h1z" stroke="#000000" stroke-width=".05" fill="#000000"/>
        <path d="M300 203.3v-.5M230 316v-96h70v-16.7" stroke="#000000" fill="none"/>
        <path d="M230.5 316.5h-1v-.5h1z" stroke="#000000" stroke-width=".05" fill="#000000"/>
        <path d="M300 203.3v-.5M390 336v-59h-90v-73.7" stroke="#000000" fill="none"/>
        <path d="M390.5 336.5h-1v-.5h1z" stroke="#000000" stroke-width=".05" fill="#000000"/>
        <path d="M300 203.3v-.5M490 256v-36H300v-16.7" stroke="#000000" fill="none"/>
        <path d="M490.5 256.5h-1v-.5h1z" stroke="#000000" stroke-width=".05" fill="#000000"/>
        <path d="M300 203.3v-.5" stroke="#000000" fill="none"/>
        <path d="M454.16 60h136l24 24v96h-160z" stroke="#000000" fill="none"/>
        <path d="M590.16 60.48V84h23.52" stroke="#000000" fill="none"/>
        <use xlink:href="#f" transform="matrix(1,0,0,1,459.15989436530265,65) translate(0 17.65972222222222)"/>
        <use xlink:href="#g"
             transform="matrix(1,0,0,1,459.15989436530265,65) translate(35.50617283950616 17.65972222222222)"/>
        <use xlink:href="#h" transform="matrix(1,0,0,1,459.15989436530265,65) translate(0 38.99305555555556)"/>
        <use xlink:href="#i"
             transform="matrix(1,0,0,1,459.15989436530265,65) translate(17.728395061728392 38.99305555555556)"/>
        <use xlink:href="#j"
             transform="matrix(1,0,0,1,459.15989436530265,65) translate(100.64197530864195 38.99305555555556)"/>
        <use xlink:href="#k" transform="matrix(1,0,0,1,459.15989436530265,65) translate(0 60.326388888888886)"/>
        <use xlink:href="#l"
             transform="matrix(1,0,0,1,459.15989436530265,65) translate(95.60493827160491 60.326388888888886)"/>
        <use xlink:href="#m"
             transform="matrix(1,0,0,1,459.15989436530265,65) translate(115.358024691358 60.326388888888886)"/>
        <use xlink:href="#n" transform="matrix(1,0,0,1,459.15989436530265,65) translate(0 81.65972222222223)"/>
        <use xlink:href="#o"
             transform="matrix(1,0,0,1,459.15989436530265,65) translate(44.39506172839505 81.65972222222223)"/>
        <use xlink:href="#p"
             transform="matrix(1,0,0,1,459.15989436530265,65) translate(75.99999999999999 81.65972222222223)"/>
        <use xlink:href="#q"
             transform="matrix(1,0,0,1,459.15989436530265,65) translate(107.60493827160492 81.65972222222223)"/>
        <use xlink:href="#r" transform="matrix(1,0,0,1,459.15989436530265,65) translate(0 102.99305555555554)"/>
        <path d="M300 178.88v23.4" stroke="#000000" fill="none"/>
        <path d="M300 149.2l14.85 14.86L300 179.2l-14.85-15.14z" stroke="#000000" fill="#000000"/>
        <path d="M300 202.28v.5" stroke="#000000" fill="none"/>
        <g>
            <path d="M453.76 114.28a.25.25 0 0 1-.3.15l-84.3-28.56a.25.25 0 0 1-.16-.32.25.25 0 0 1 .3-.15l84.3 28.56a.25.25 0 0 1 .16.32z"
                  stroke="#000000" stroke-width=".5" fill="none"/>
        </g>
        <path d="M369.6 84.8c0 2.65-2.15 4.8-4.8 4.8s-4.8-2.15-4.8-4.8 2.15-4.8 4.8-4.8 4.8 2.15 4.8 4.8z"
              stroke="#000000"/>
        <path d="M-60-8a6 6 0 0 1 6-6h228a6 6 0 0 1 6 6v48a6 6 0 0 1-6 6H-54a6 6 0 0 1-6-6z" stroke="#000"
              stroke-opacity="0" fill="none" fill-opacity="0"/>
        <g>
            <use xlink:href="#s" transform="matrix(1,0,0,1,-55,-9) translate(74.55555555555557 29.84722222222222)"/>
        </g>
        <path d="M-80 206a6 6 0 0 1 6-6h228a6 6 0 0 1 6 6v48a6 6 0 0 1-6 6H-74a6 6 0 0 1-6-6z" stroke="#000"
              stroke-opacity="0" fill="none" fill-opacity="0"/>
        <g>
            <use xlink:href="#t" transform="matrix(1,0,0,1,-75,205) translate(95.27160493827161 29.84722222222222)"/>
        </g>
        <g>
            <path d="M-44 325a6 6 0 0 1-6-6V91a6 6 0 0 1 6-6H4a6 6 0 0 1 6 6v228a6 6 0 0 1-6 6z" stroke="#000"
                  stroke-opacity="0" fill="none" fill-opacity="0"/>
        </g>
        <g>
            <use xlink:href="#u"
                 transform="matrix(6.123233995736766e-17,-1,1,6.123233995736766e-17,-45,320) translate(53.395061728395056 30.27777777777778)"/>
        </g>
        <defs>
            <path fill="#000000" d="M205 0l-28-72H64L36 0H1l101-248h38L239 0h-34zm-38-99l-47-123c-12 45-31 82-46 123h93"
                  id="v"/>
            <use transform="matrix(0.06172839506172839,0,0,0.06172839506172839,0,0)" xlink:href="#v" id="a"/>
            <path fill="#000000"
                  d="M30-248c87 1 191-15 191 75 0 78-77 80-158 76V0H30v-248zm33 125c57 0 124 11 124-50 0-59-68-47-124-48v98"
                  id="w"/>
            <path fill="#000000" d="M27 0v-27h64v-190l-56 39v-29l58-41h29v221h61V0H27" id="x"/>
            <g id="b">
                <use transform="matrix(0.06172839506172839,0,0,0.06172839506172839,0,0)" xlink:href="#w"/>
                <use transform="matrix(0.06172839506172839,0,0,0.06172839506172839,14.814814814814813,0)"
                     xlink:href="#x"/>
            </g>
            <path fill="#000000"
                  d="M101-251c82-7 93 87 43 132L82-64C71-53 59-42 53-27h129V0H18c2-99 128-94 128-182 0-28-16-43-45-43s-46 15-49 41l-32-3c6-41 34-60 81-64"
                  id="y"/>
            <g id="c">
                <use transform="matrix(0.06172839506172839,0,0,0.06172839506172839,0,0)" xlink:href="#w"/>
                <use transform="matrix(0.06172839506172839,0,0,0.06172839506172839,14.814814814814813,0)"
                     xlink:href="#y"/>
            </g>
            <path fill="#000000"
                  d="M155-56V0h-30v-56H8v-25l114-167h33v167h35v25h-35zm-30-156c-27 46-58 90-88 131h88v-131" id="z"/>
            <g id="d">
                <use transform="matrix(0.06172839506172839,0,0,0.06172839506172839,0,0)" xlink:href="#w"/>
                <use transform="matrix(0.06172839506172839,0,0,0.06172839506172839,14.814814814814813,0)"
                     xlink:href="#z"/>
            </g>
            <path fill="#000000"
                  d="M126-127c33 6 58 20 58 59 0 88-139 92-164 29-3-8-5-16-6-25l32-3c6 27 21 44 54 44 32 0 52-15 52-46 0-38-36-46-79-43v-28c39 1 72-4 72-42 0-27-17-43-46-43-28 0-47 15-49 41l-32-3c6-42 35-63 81-64 48-1 79 21 79 65 0 36-21 52-52 59"
                  id="A"/>
            <g id="e">
                <use transform="matrix(0.06172839506172839,0,0,0.06172839506172839,0,0)" xlink:href="#w"/>
                <use transform="matrix(0.06172839506172839,0,0,0.06172839506172839,14.814814814814813,0)"
                     xlink:href="#A"/>
            </g>
            <path fill="#000000" d="M127-220V0H93v-220H8v-28h204v28h-85" id="B"/>
            <path fill="#000000"
                  d="M106-169C34-169 62-67 57 0H25v-261h32l-1 103c12-21 28-36 61-36 89 0 53 116 60 194h-32v-121c2-32-8-49-39-48"
                  id="C"/>
            <path fill="#000000"
                  d="M100-194c63 0 86 42 84 106H49c0 40 14 67 53 68 26 1 43-12 49-29l28 8c-11 28-37 45-77 45C44 4 14-33 15-96c1-61 26-98 85-98zm52 81c6-60-76-77-97-28-3 7-6 17-6 28h103"
                  id="D"/>
            <g id="f">
                <use transform="matrix(0.049382716049382706,0,0,0.049382716049382706,0,0)" xlink:href="#B"/>
                <use transform="matrix(0.049382716049382706,0,0,0.049382716049382706,10.814814814814813,0)"
                     xlink:href="#C"/>
                <use transform="matrix(0.049382716049382706,0,0,0.049382716049382706,20.691358024691354,0)"
                     xlink:href="#D"/>
            </g>
            <path fill="#000000"
                  d="M212-179c-10-28-35-45-73-45-59 0-87 40-87 99 0 60 29 101 89 101 43 0 62-24 78-52l27 14C228-24 195 4 139 4 59 4 22-46 18-125c-6-104 99-153 187-111 19 9 31 26 39 46"
                  id="E"/>
            <path fill="#000000"
                  d="M100-194c62-1 85 37 85 99 1 63-27 99-86 99S16-35 15-95c0-66 28-99 85-99zM99-20c44 1 53-31 53-75 0-43-8-75-51-75s-53 32-53 75 10 74 51 75"
                  id="F"/>
            <path fill="#000000"
                  d="M210-169c-67 3-38 105-44 169h-31v-121c0-29-5-50-35-48C34-165 62-65 56 0H25l-1-190h30c1 10-1 24 2 32 10-44 99-50 107 0 11-21 27-35 58-36 85-2 47 119 55 194h-31v-121c0-29-5-49-35-48"
                  id="G"/>
            <path fill="#000000"
                  d="M115-194c55 1 70 41 70 98S169 2 115 4C84 4 66-9 55-30l1 105H24l-1-265h31l2 30c10-21 28-34 59-34zm-8 174c40 0 45-34 45-75s-6-73-45-74c-42 0-51 32-51 76 0 43 10 73 51 73"
                  id="H"/>
            <path fill="#000000"
                  d="M135-143c-3-34-86-38-87 0 15 53 115 12 119 90S17 21 10-45l28-5c4 36 97 45 98 0-10-56-113-15-118-90-4-57 82-63 122-42 12 7 21 19 24 35"
                  id="I"/>
            <path fill="#000000" d="M24-231v-30h32v30H24zM24 0v-190h32V0H24" id="J"/>
            <path fill="#000000" d="M59-47c-2 24 18 29 38 22v24C64 9 27 4 27-40v-127H5v-23h24l9-43h21v43h35v23H59v120"
                  id="K"/>
            <g id="g">
                <use transform="matrix(0.049382716049382706,0,0,0.049382716049382706,0,0)" xlink:href="#E"/>
                <use transform="matrix(0.049382716049382706,0,0,0.049382716049382706,12.790123456790122,0)"
                     xlink:href="#F"/>
                <use transform="matrix(0.049382716049382706,0,0,0.049382716049382706,22.666666666666664,0)"
                     xlink:href="#G"/>
                <use transform="matrix(0.049382716049382706,0,0,0.049382716049382706,37.432098765432094,0)"
                     xlink:href="#H"/>
                <use transform="matrix(0.049382716049382706,0,0,0.049382716049382706,47.30864197530863,0)"
                     xlink:href="#F"/>
                <use transform="matrix(0.049382716049382706,0,0,0.049382716049382706,57.185185185185176,0)"
                     xlink:href="#I"/>
                <use transform="matrix(0.049382716049382706,0,0,0.049382716049382706,66.07407407407406,0)"
                     xlink:href="#J"/>
                <use transform="matrix(0.049382716049382706,0,0,0.049382716049382706,69.97530864197529,0)"
                     xlink:href="#K"/>
                <use transform="matrix(0.049382716049382706,0,0,0.049382716049382706,74.91358024691355,0)"
                     xlink:href="#D"/>
            </g>
            <path fill="#000000" d="M199 0l-22-63H83L61 0H9l90-248h61L250 0h-51zm-33-102l-36-108c-10 38-24 72-36 108h72"
                  id="L"/>
            <use transform="matrix(0.049382716049382706,0,0,0.049382716049382706,0,0)" xlink:href="#L" id="h"/>
            <path fill="#000000"
                  d="M141-36C126-15 110 5 73 4 37 3 15-17 15-53c-1-64 63-63 125-63 3-35-9-54-41-54-24 1-41 7-42 31l-33-3c5-37 33-52 76-52 45 0 72 20 72 64v82c-1 20 7 32 28 27v20c-31 9-61-2-59-35zM48-53c0 20 12 33 32 33 41-3 63-29 60-74-43 2-92-5-92 41"
                  id="M"/>
            <path fill="#000000"
                  d="M117-194c89-4 53 116 60 194h-32v-121c0-31-8-49-39-48C34-167 62-67 57 0H25l-1-190h30c1 10-1 24 2 32 11-22 29-35 61-36"
                  id="N"/>
            <path fill="#000000"
                  d="M85-194c31 0 48 13 60 33l-1-100h32l1 261h-30c-2-10 0-23-3-31C134-8 116 4 85 4 32 4 16-35 15-94c0-66 23-100 70-100zm9 24c-40 0-46 34-46 75 0 40 6 74 45 74 42 0 51-32 51-76 0-42-9-74-50-73"
                  id="O"/>
            <g id="i">
                <use transform="matrix(0.049382716049382706,0,0,0.049382716049382706,0,0)" xlink:href="#G"/>
                <use transform="matrix(0.049382716049382706,0,0,0.049382716049382706,14.765432098765428,0)"
                     xlink:href="#M"/>
                <use transform="matrix(0.049382716049382706,0,0,0.049382716049382706,24.641975308641968,0)"
                     xlink:href="#N"/>
                <use transform="matrix(0.049382716049382706,0,0,0.049382716049382706,34.518518518518505,0)"
                     xlink:href="#O"/>
                <use transform="matrix(0.049382716049382706,0,0,0.049382716049382706,44.39506172839505,0)"
                     xlink:href="#M"/>
                <use transform="matrix(0.049382716049382706,0,0,0.049382716049382706,54.271604938271594,0)"
                     xlink:href="#K"/>
                <use transform="matrix(0.049382716049382706,0,0,0.049382716049382706,59.209876543209866,0)"
                     xlink:href="#D"/>
                <use transform="matrix(0.049382716049382706,0,0,0.049382716049382706,69.0864197530864,0)"
                     xlink:href="#I"/>
            </g>
            <g id="j">
                <use transform="matrix(0.049382716049382706,0,0,0.049382716049382706,0,0)" xlink:href="#K"/>
                <use transform="matrix(0.049382716049382706,0,0,0.049382716049382706,4.93827160493827,0)"
                     xlink:href="#C"/>
                <use transform="matrix(0.049382716049382706,0,0,0.049382716049382706,14.814814814814811,0)"
                     xlink:href="#D"/>
            </g>
            <path fill="#000000" d="M114-163C36-179 61-72 57 0H25l-1-190h30c1 12-1 29 2 39 6-27 23-49 58-41v29" id="P"/>
            <path fill="#000000" d="M24 0v-261h32V0H24" id="Q"/>
            <g id="k">
                <use transform="matrix(0.049382716049382706,0,0,0.049382716049382706,0,0)" xlink:href="#P"/>
                <use transform="matrix(0.049382716049382706,0,0,0.049382716049382706,5.876543209876542,0)"
                     xlink:href="#D"/>
                <use transform="matrix(0.049382716049382706,0,0,0.049382716049382706,15.75308641975308,0)"
                     xlink:href="#Q"/>
                <use transform="matrix(0.049382716049382706,0,0,0.049382716049382706,19.654320987654316,0)"
                     xlink:href="#M"/>
                <use transform="matrix(0.049382716049382706,0,0,0.049382716049382706,29.530864197530857,0)"
                     xlink:href="#K"/>
                <use transform="matrix(0.049382716049382706,0,0,0.049382716049382706,34.469135802469125,0)"
                     xlink:href="#J"/>
                <use transform="matrix(0.049382716049382706,0,0,0.049382716049382706,38.37037037037036,0)"
                     xlink:href="#F"/>
                <use transform="matrix(0.049382716049382706,0,0,0.049382716049382706,48.2469135802469,0)"
                     xlink:href="#N"/>
                <use transform="matrix(0.049382716049382706,0,0,0.049382716049382706,58.12345679012345,0)"
                     xlink:href="#I"/>
                <use transform="matrix(0.049382716049382706,0,0,0.049382716049382706,67.01234567901233,0)"
                     xlink:href="#C"/>
                <use transform="matrix(0.049382716049382706,0,0,0.049382716049382706,76.88888888888887,0)"
                     xlink:href="#J"/>
                <use transform="matrix(0.049382716049382706,0,0,0.049382716049382706,80.7901234567901,0)"
                     xlink:href="#H"/>
            </g>
            <g id="l">
                <use transform="matrix(0.049382716049382706,0,0,0.049382716049382706,0,0)" xlink:href="#K"/>
                <use transform="matrix(0.049382716049382706,0,0,0.049382716049382706,4.93827160493827,0)"
                     xlink:href="#F"/>
            </g>
            <g id="m">
                <use transform="matrix(0.049382716049382706,0,0,0.049382716049382706,0,0)" xlink:href="#J"/>
                <use transform="matrix(0.049382716049382706,0,0,0.049382716049382706,3.9012345679012337,0)"
                     xlink:href="#K"/>
                <use transform="matrix(0.049382716049382706,0,0,0.049382716049382706,8.839506172839505,0)"
                     xlink:href="#I"/>
            </g>
            <g id="n">
                <use transform="matrix(0.049382716049382706,0,0,0.049382716049382706,0,0)" xlink:href="#H"/>
                <use transform="matrix(0.049382716049382706,0,0,0.049382716049382706,9.87654320987654,0)"
                     xlink:href="#M"/>
                <use transform="matrix(0.049382716049382706,0,0,0.049382716049382706,19.75308641975308,0)"
                     xlink:href="#P"/>
                <use transform="matrix(0.049382716049382706,0,0,0.049382716049382706,25.629629629629626,0)"
                     xlink:href="#K"/>
                <use transform="matrix(0.049382716049382706,0,0,0.049382716049382706,30.56790123456789,0)"
                     xlink:href="#I"/>
            </g>
            <path fill="#000000"
                  d="M24-248c93 1 206-16 204 79-1 75-69 88-152 82V0H24v-248zm52 121c47 0 100 7 100-41 0-47-54-39-100-39v80"
                  id="R"/>
            <path fill="#000000" d="M23 0v-37h61v-169l-59 37v-38l62-41h46v211h57V0H23" id="S"/>
            <path fill="#000000" d="M68-38c1 34 0 65-14 84H32c9-13 17-26 17-46H33v-38h35" id="T"/>
            <g id="o">
                <use transform="matrix(0.049382716049382706,0,0,0.049382716049382706,0,0)" xlink:href="#R"/>
                <use transform="matrix(0.049382716049382706,0,0,0.049382716049382706,11.85185185185185,0)"
                     xlink:href="#S"/>
                <use transform="matrix(0.049382716049382706,0,0,0.049382716049382706,21.728395061728392,0)"
                     xlink:href="#T"/>
            </g>
            <path fill="#000000"
                  d="M182-182c0 78-84 86-111 141h115V0H12c-6-101 99-100 120-180 1-22-12-31-33-32-23 0-32 14-35 34l-49-3c5-45 32-70 84-70 51 0 83 22 83 69"
                  id="U"/>
            <g id="p">
                <use transform="matrix(0.049382716049382706,0,0,0.049382716049382706,0,0)" xlink:href="#R"/>
                <use transform="matrix(0.049382716049382706,0,0,0.049382716049382706,11.85185185185185,0)"
                     xlink:href="#U"/>
                <use transform="matrix(0.049382716049382706,0,0,0.049382716049382706,21.728395061728392,0)"
                     xlink:href="#T"/>
            </g>
            <path fill="#000000"
                  d="M128-127c34 4 56 21 59 58 7 91-148 94-172 28-4-9-6-17-7-26l51-5c1 24 16 35 40 36 23 0 39-12 38-36-1-31-31-36-65-34v-40c32 2 59-3 59-33 0-20-13-33-34-33s-33 13-35 32l-50-3c6-44 37-68 86-68 50 0 83 20 83 66 0 35-22 52-53 58"
                  id="V"/>
            <g id="q">
                <use transform="matrix(0.049382716049382706,0,0,0.049382716049382706,0,0)" xlink:href="#R"/>
                <use transform="matrix(0.049382716049382706,0,0,0.049382716049382706,11.85185185185185,0)"
                     xlink:href="#V"/>
                <use transform="matrix(0.049382716049382706,0,0,0.049382716049382706,21.728395061728392,0)"
                     xlink:href="#T"/>
            </g>
            <path fill="#000000" d="M165-50V0h-47v-50H5v-38l105-160h55v161h33v37h-33zm-47-37l2-116L46-87h72" id="W"/>
            <g id="r">
                <use transform="matrix(0.049382716049382706,0,0,0.049382716049382706,0,0)" xlink:href="#R"/>
                <use transform="matrix(0.049382716049382706,0,0,0.049382716049382706,11.85185185185185,0)"
                     xlink:href="#W"/>
            </g>
            <path fill="#000000"
                  d="M44-68c0 29 11 47 38 47 30 0 42-19 51-41l28 9C148-21 126 4 82 4 31 4 10-29 12-85c3-77 74-140 146-93 12 8 15 23 18 40l-31 5c-1-22-13-36-36-36-52 0-65 49-65 101"
                  id="X"/>
            <path fill="#000000"
                  d="M30-147c31-64 166-65 159 27C183-49 158 1 86 4 9 8 1-88 30-147zM88-20c53 0 68-48 68-100 0-31-11-51-44-50-52 1-68 46-68 97 0 32 13 53 44 53"
                  id="Y"/>
            <path fill="#000000"
                  d="M248-111c6-24 9-61-24-58-72 9-57 108-77 169h-31l26-142c3-37-50-30-64-10C52-115 50-51 37 0H6l36-190h30c-1 10-6 24-4 32 13-43 101-52 105 5 13-22 29-41 61-41 90 0 28 129 23 194h-31"
                  id="Z"/>
            <path fill="#000000"
                  d="M67-162c32-53 139-36 121 50C175-51 163 2 97 4 68 4 52-11 42-31 38 6 28 39 22 75H-9l50-265h29c-1 10 0 20-3 28zm89 36c0-26-10-43-35-43-54 0-67 50-69 103-1 29 14 45 42 46 53 0 62-58 62-106"
                  id="aa"/>
            <path fill="#000000"
                  d="M55-144c13 50 104 24 104 88C159 21 15 23 1-39l26-10c6 40 102 42 102-4-13-50-104-23-104-87 0-71 143-71 148-8l-29 4c-5-35-85-37-89 0"
                  id="ab"/>
            <path fill="#000000" d="M50-231l6-30h32l-6 30H50zM6 0l37-190h31L37 0H6" id="ac"/>
            <path fill="#000000"
                  d="M51-54c-9 22 5 41 31 30L79-1C43 14 10-4 19-52l22-115H19l5-23h22l19-43h21l-9 43h35l-4 23H73"
                  id="ad"/>
            <path fill="#000000"
                  d="M111-194c62-3 86 47 72 106H45c-7 38 6 69 45 68 27-1 43-14 53-32l24 11C152-15 129 4 87 4 38 3 12-23 12-71c0-70 32-119 99-123zm44 81c14-66-71-72-95-28-4 8-8 17-11 28h106"
                  id="ae"/>
            <g id="s">
                <use transform="matrix(0.049382716049382706,0,0,0.049382716049382706,0,0)" xlink:href="#X"/>
                <use transform="matrix(0.049382716049382706,0,0,0.049382716049382706,8.888888888888888,0)"
                     xlink:href="#Y"/>
                <use transform="matrix(0.049382716049382706,0,0,0.049382716049382706,18.76543209876543,0)"
                     xlink:href="#Z"/>
                <use transform="matrix(0.049382716049382706,0,0,0.049382716049382706,33.53086419753086,0)"
                     xlink:href="#aa"/>
                <use transform="matrix(0.049382716049382706,0,0,0.049382716049382706,43.407407407407405,0)"
                     xlink:href="#Y"/>
                <use transform="matrix(0.049382716049382706,0,0,0.049382716049382706,53.28395061728395,0)"
                     xlink:href="#ab"/>
                <use transform="matrix(0.049382716049382706,0,0,0.049382716049382706,62.17283950617284,0)"
                     xlink:href="#ac"/>
                <use transform="matrix(0.049382716049382706,0,0,0.049382716049382706,66.07407407407406,0)"
                     xlink:href="#ad"/>
                <use transform="matrix(0.049382716049382706,0,0,0.049382716049382706,71.01234567901233,0)"
                     xlink:href="#ae"/>
            </g>
            <path fill="#000000"
                  d="M165-48c-4 18 1 34 23 27l-3 20c-29 8-62 0-52-35h-2C116-14 99 4 63 4 30 4 8-16 8-49c0-68 71-67 138-67 10-26 0-56-31-54-26 1-42 9-47 31l-32-5c8-67 160-71 144 15-5 28-9 54-15 81zM42-50c3 52 80 24 89-6 7-12 7-24 11-38-47 1-103-4-100 44"
                  id="af"/>
            <path fill="#000000" d="M66-151c12-25 30-51 66-40l-6 26C45-176 58-65 38 0H6l36-190h30" id="ag"/>
            <g id="t">
                <use transform="matrix(0.049382716049382706,0,0,0.049382716049382706,0,0)" xlink:href="#aa"/>
                <use transform="matrix(0.049382716049382706,0,0,0.049382716049382706,9.87654320987654,0)"
                     xlink:href="#af"/>
                <use transform="matrix(0.049382716049382706,0,0,0.049382716049382706,19.75308641975308,0)"
                     xlink:href="#ag"/>
                <use transform="matrix(0.049382716049382706,0,0,0.049382716049382706,25.629629629629626,0)"
                     xlink:href="#ad"/>
                <use transform="matrix(0.049382716049382706,0,0,0.049382716049382706,30.56790123456789,0)"
                     xlink:href="#ab"/>
            </g>
            <path fill="#000000"
                  d="M125-24c46 0 70-25 89-51l25 16C214-24 183 4 123 4 8 4-5-146 60-208c32-50 158-61 191-5 5 7 9 14 11 22l-32 10c-9-28-33-43-69-43-74 0-108 51-108 125 0 46 24 75 72 75"
                  id="ah"/>
            <path fill="#000000"
                  d="M67-158c22-48 132-52 116 29L158 0h-32l25-140c3-38-53-32-70-12C52-117 51-52 38 0H6l36-190h30"
                  id="ai"/>
            <g id="u">
                <use transform="matrix(0.06172839506172839,0,0,0.06172839506172839,0,0)" xlink:href="#ah"/>
                <use transform="matrix(0.06172839506172839,0,0,0.06172839506172839,15.987654320987653,0)"
                     xlink:href="#Y"/>
                <use transform="matrix(0.06172839506172839,0,0,0.06172839506172839,28.333333333333332,0)"
                     xlink:href="#Z"/>
                <use transform="matrix(0.06172839506172839,0,0,0.06172839506172839,46.79012345679012,0)"
                     xlink:href="#aa"/>
                <use transform="matrix(0.06172839506172839,0,0,0.06172839506172839,59.1358024691358,0)"
                     xlink:href="#Y"/>
                <use transform="matrix(0.06172839506172839,0,0,0.06172839506172839,71.48148148148148,0)"
                     xlink:href="#ab"/>
                <use transform="matrix(0.06172839506172839,0,0,0.06172839506172839,82.5925925925926,0)"
                     xlink:href="#ac"/>
                <use transform="matrix(0.06172839506172839,0,0,0.06172839506172839,87.46913580246914,0)"
                     xlink:href="#ad"/>
                <use transform="matrix(0.06172839506172839,0,0,0.06172839506172839,93.64197530864197,0)"
                     xlink:href="#ac"/>
                <use transform="matrix(0.06172839506172839,0,0,0.06172839506172839,98.51851851851852,0)"
                     xlink:href="#Y"/>
                <use transform="matrix(0.06172839506172839,0,0,0.06172839506172839,110.8641975308642,0)"
                     xlink:href="#ai"/>
            </g>
        </defs>
    </g>
</svg>