<svg xmlns="http://www.w3.org/2000/svg" xmlns:xlink="http://www.w3.org/1999/xlink" width="638.16"
     height="514.77">
    <g transform="translate(0 0)">
        <path d="M200 26a6 6 0 0 1 6-6h148a6 6 0 0 1 6 6v114a6 6 0 0 1-6 6H206a6 6 0 0 1-6-6z" stroke="#000000"
              fill-opacity="0"/>
        <use xlink:href="#a" transform="matrix(1,0,0,1,208,28) translate(64.5925925925926 59.44444444444444)"/>
        <path d="M20 206a6 6 0 0 1 6-6h108a6 6 0 0 1 6 6v68a6 6 0 0 1-6 6H26a6 6 0 0 1-6-6z" stroke="#000000"
              fill="none"/>
        <use xlink:href="#b" transform="matrix(1,0,0,1,32,212) translate(21.487654320987655 31.77777777777778)"/>
        <path d="M160 306a6 6 0 0 1 6-6h108a6 6 0 0 1 6 6v68a6 6 0 0 1-6 6H166a6 6 0 0 1-6-6z" stroke="#000000"
              fill="none"/>
        <use xlink:href="#c" transform="matrix(1,0,0,1,172,312) translate(21.487654320987655 31.77777777777778)"/>
        <path d="M300 286a6 6 0 0 1 6-6h108a6 6 0 0 1 6 6v68a6 6 0 0 1-6 6H306a6 6 0 0 1-6-6z" stroke="#000000"
              fill="none"/>
        <use xlink:href="#d" transform="matrix(1,0,0,1,312,292) translate(21.487654320987655 31.77777777777778)"/>
        <path d="M440 206a6 6 0 0 1 6-6h108a6 6 0 0 1 6 6v68a6 6 0 0 1-6 6H446a6 6 0 0 1-6-6z" stroke="#000000"
              fill="none"/>
        <use xlink:href="#e" transform="matrix(1,0,0,1,452,212) translate(21.487654320987655 31.77777777777778)"/>
        <path d="M280 176.88V240h80v39" stroke="#000000" fill="none"/>
        <path d="M280 147.2l14.85 14.86L280 177.2l-14.85-15.14z" stroke="#000000" fill="#000000"/>
        <path d="M360.5 279.5h-1v-.5h1z" stroke="#000000" stroke-width=".05" fill="#000000"/>
        <path d="M439 240h-78.5" stroke="#000000" fill="none"/>
        <path d="M439.5 240.5h-.5v-1h.5z" stroke="#000000" stroke-width=".05" fill="#000000"/>
        <path d="M360.5 240h-.5M141 240h138.5" stroke="#000000" fill="none"/>
        <path d="M141 240.5h-.5v-1h.5z" stroke="#000000" stroke-width=".05" fill="#000000"/>
        <path d="M279.5 240h.5M220 299v-58.5" stroke="#000000" fill="none"/>
        <path d="M220.5 299.5h-1v-.5h1z" stroke="#000000" stroke-width=".05" fill="#000000"/>
        <path d="M220 240.5v-.5" stroke="#000000" fill="none"/>
        <path d="M340.34 80.54a.25.25 0 0 1 .3-.2L457.6 102.1a.25.25 0 0 1 .2.3.25.25 0 0 1-.3.2L340.55 80.82a.25.25 0 0 1-.2-.3z"
              stroke="#000000" stroke-width=".5" fill="none"/>
        <path d="M344.85 79.98c0 2.75-2.2 4.98-4.93 4.98-2.72 0-4.92-2.23-4.92-4.98 0-2.75 2.2-4.98 4.93-4.98 2.7 0 4.92 2.23 4.92 4.98z"
              stroke="#000000"/>
        <path d="M458.16 60h140l20 20v80h-160z" stroke="#000000" fill-opacity="0"/>
        <path d="M598.16 60.48V80h19.52" stroke="#000000" fill-opacity="0"/>
        <use xlink:href="#f" transform="matrix(1,0,0,1,463.1588796135692,65) translate(0 28.284722222222218)"/>
        <use xlink:href="#g"
             transform="matrix(1,0,0,1,463.1588796135692,65) translate(35.50617283950616 28.284722222222218)"/>
        <use xlink:href="#h"
             transform="matrix(1,0,0,1,463.1588796135692,65) translate(121.33333333333327 28.284722222222218)"/>
        <use xlink:href="#i" transform="matrix(1,0,0,1,463.1588796135692,65) translate(0 49.61805555555554)"/>
        <use xlink:href="#j"
             transform="matrix(1,0,0,1,463.1588796135692,65) translate(95.65432098765427 49.61805555555554)"/>
        <use xlink:href="#k"
             transform="matrix(1,0,0,1,463.1588796135692,65) translate(121.28395061728389 49.61805555555554)"/>
        <use xlink:href="#l" transform="matrix(1,0,0,1,463.1588796135692,65) translate(0 70.95138888888887)"/>
        <use xlink:href="#m"
             transform="matrix(1,0,0,1,463.1588796135692,65) translate(61.03703703703702 70.95138888888887)"/>
        <use xlink:href="#n"
             transform="matrix(1,0,0,1,463.1588796135692,65) translate(80.7901234567901 70.95138888888887)"/>
        <use xlink:href="#o"
             transform="matrix(1,0,0,1,463.1588796135692,65) translate(103.45679012345676 70.95138888888887)"/>
        <g>
            <path d="M494.1 271.1a.25.25 0 0 1 .08.35L434.16 374.2a.25.25 0 0 1-.34.1.25.25 0 0 1-.1-.35l60.03-102.75a.25.25 0 0 1 .34-.1z"
                  stroke="#000000" stroke-width=".5" fill="none"/>
        </g>
        <g>
            <path d="M492.03 276.74c-2.85-1.02-4.38-4-3.42-6.68.96-2.66 4.05-4 6.9-2.97 2.85 1 4.38 4 3.42 6.67-.95 2.66-4.04 4-6.9 2.97z"
                  stroke="#000000"/>
        </g>
        <path d="M334.65 374.76h136l24 24v96h-160z" stroke="#000000" fill-opacity="0"/>
        <path d="M470.65 375.24v23.52h23.53" stroke="#000000" fill-opacity="0"/>
        <g>
            <use xlink:href="#p"
                 transform="matrix(1,0,0,1,339.6508376578778,379.7651769177564) translate(0 27.972222222222218)"/>
            <use xlink:href="#q"
                 transform="matrix(1,0,0,1,339.6508376578778,379.7651769177564) translate(45.43209876543208 27.972222222222218)"/>
            <use xlink:href="#r"
                 transform="matrix(1,0,0,1,339.6508376578778,379.7651769177564) translate(0 49.30555555555554)"/>
            <use xlink:href="#s"
                 transform="matrix(1,0,0,1,339.6508376578778,379.7651769177564) translate(58.2222222222222 49.30555555555554)"/>
            <use xlink:href="#t"
                 transform="matrix(1,0,0,1,339.6508376578778,379.7651769177564) translate(87.85185185185182 49.30555555555554)"/>
            <use xlink:href="#m"
                 transform="matrix(1,0,0,1,339.6508376578778,379.7651769177564) translate(0 70.63888888888887)"/>
            <use xlink:href="#s"
                 transform="matrix(1,0,0,1,339.6508376578778,379.7651769177564) translate(19.753086419753078 70.63888888888887)"/>
            <use xlink:href="#u"
                 transform="matrix(1,0,0,1,339.6508376578778,379.7651769177564) translate(49.382716049382694 70.63888888888887)"/>
            <use xlink:href="#v"
                 transform="matrix(1,0,0,1,339.6508376578778,379.7651769177564) translate(0 91.9722222222222)"/>
        </g>
        <defs>
            <path fill="#000000" d="M205 0l-28-72H64L36 0H1l101-248h38L239 0h-34zm-38-99l-47-123c-12 45-31 82-46 123h93"
                  id="w"/>
            <use transform="matrix(0.06172839506172839,0,0,0.06172839506172839,0,0)" xlink:href="#w" id="a"/>
            <path fill="#000000"
                  d="M30-248c87 1 191-15 191 75 0 78-77 80-158 76V0H30v-248zm33 125c57 0 124 11 124-50 0-59-68-47-124-48v98"
                  id="x"/>
            <path fill="#000000"
                  d="M141-36C126-15 110 5 73 4 37 3 15-17 15-53c-1-64 63-63 125-63 3-35-9-54-41-54-24 1-41 7-42 31l-33-3c5-37 33-52 76-52 45 0 72 20 72 64v82c-1 20 7 32 28 27v20c-31 9-61-2-59-35zM48-53c0 20 12 33 32 33 41-3 63-29 60-74-43 2-92-5-92 41"
                  id="y"/>
            <path fill="#000000" d="M114-163C36-179 61-72 57 0H25l-1-190h30c1 12-1 29 2 39 6-27 23-49 58-41v29" id="z"/>
            <path fill="#000000" d="M59-47c-2 24 18 29 38 22v24C64 9 27 4 27-40v-127H5v-23h24l9-43h21v43h35v23H59v120"
                  id="A"/>
            <path fill="#000000" d="M27 0v-27h64v-190l-56 39v-29l58-41h29v221h61V0H27" id="B"/>
            <g id="b">
                <use transform="matrix(0.06172839506172839,0,0,0.06172839506172839,0,0)" xlink:href="#x"/>
                <use transform="matrix(0.06172839506172839,0,0,0.06172839506172839,14.814814814814813,0)"
                     xlink:href="#y"/>
                <use transform="matrix(0.06172839506172839,0,0,0.06172839506172839,27.160493827160494,0)"
                     xlink:href="#z"/>
                <use transform="matrix(0.06172839506172839,0,0,0.06172839506172839,34.50617283950617,0)"
                     xlink:href="#A"/>
                <use transform="matrix(0.06172839506172839,0,0,0.06172839506172839,40.67901234567901,0)"
                     xlink:href="#B"/>
            </g>
            <path fill="#000000"
                  d="M101-251c82-7 93 87 43 132L82-64C71-53 59-42 53-27h129V0H18c2-99 128-94 128-182 0-28-16-43-45-43s-46 15-49 41l-32-3c6-41 34-60 81-64"
                  id="C"/>
            <g id="c">
                <use transform="matrix(0.06172839506172839,0,0,0.06172839506172839,0,0)" xlink:href="#x"/>
                <use transform="matrix(0.06172839506172839,0,0,0.06172839506172839,14.814814814814813,0)"
                     xlink:href="#y"/>
                <use transform="matrix(0.06172839506172839,0,0,0.06172839506172839,27.160493827160494,0)"
                     xlink:href="#z"/>
                <use transform="matrix(0.06172839506172839,0,0,0.06172839506172839,34.50617283950617,0)"
                     xlink:href="#A"/>
                <use transform="matrix(0.06172839506172839,0,0,0.06172839506172839,40.67901234567901,0)"
                     xlink:href="#C"/>
            </g>
            <path fill="#000000"
                  d="M126-127c33 6 58 20 58 59 0 88-139 92-164 29-3-8-5-16-6-25l32-3c6 27 21 44 54 44 32 0 52-15 52-46 0-38-36-46-79-43v-28c39 1 72-4 72-42 0-27-17-43-46-43-28 0-47 15-49 41l-32-3c6-42 35-63 81-64 48-1 79 21 79 65 0 36-21 52-52 59"
                  id="D"/>
            <g id="d">
                <use transform="matrix(0.06172839506172839,0,0,0.06172839506172839,0,0)" xlink:href="#x"/>
                <use transform="matrix(0.06172839506172839,0,0,0.06172839506172839,14.814814814814813,0)"
                     xlink:href="#y"/>
                <use transform="matrix(0.06172839506172839,0,0,0.06172839506172839,27.160493827160494,0)"
                     xlink:href="#z"/>
                <use transform="matrix(0.06172839506172839,0,0,0.06172839506172839,34.50617283950617,0)"
                     xlink:href="#A"/>
                <use transform="matrix(0.06172839506172839,0,0,0.06172839506172839,40.67901234567901,0)"
                     xlink:href="#D"/>
            </g>
            <path fill="#000000"
                  d="M155-56V0h-30v-56H8v-25l114-167h33v167h35v25h-35zm-30-156c-27 46-58 90-88 131h88v-131" id="E"/>
            <g id="e">
                <use transform="matrix(0.06172839506172839,0,0,0.06172839506172839,0,0)" xlink:href="#x"/>
                <use transform="matrix(0.06172839506172839,0,0,0.06172839506172839,14.814814814814813,0)"
                     xlink:href="#y"/>
                <use transform="matrix(0.06172839506172839,0,0,0.06172839506172839,27.160493827160494,0)"
                     xlink:href="#z"/>
                <use transform="matrix(0.06172839506172839,0,0,0.06172839506172839,34.50617283950617,0)"
                     xlink:href="#A"/>
                <use transform="matrix(0.06172839506172839,0,0,0.06172839506172839,40.67901234567901,0)"
                     xlink:href="#E"/>
            </g>
            <path fill="#000000" d="M127-220V0H93v-220H8v-28h204v28h-85" id="F"/>
            <path fill="#000000"
                  d="M106-169C34-169 62-67 57 0H25v-261h32l-1 103c12-21 28-36 61-36 89 0 53 116 60 194h-32v-121c2-32-8-49-39-48"
                  id="G"/>
            <path fill="#000000"
                  d="M100-194c63 0 86 42 84 106H49c0 40 14 67 53 68 26 1 43-12 49-29l28 8c-11 28-37 45-77 45C44 4 14-33 15-96c1-61 26-98 85-98zm52 81c6-60-76-77-97-28-3 7-6 17-6 28h103"
                  id="H"/>
            <g id="f">
                <use transform="matrix(0.0493827160493827,0,0,0.0493827160493827,0,0)" xlink:href="#F"/>
                <use transform="matrix(0.0493827160493827,0,0,0.0493827160493827,10.814814814814811,0)"
                     xlink:href="#G"/>
                <use transform="matrix(0.0493827160493827,0,0,0.0493827160493827,20.69135802469135,0)" xlink:href="#H"/>
            </g>
            <path fill="#000000"
                  d="M96-169c-40 0-48 33-48 73s9 75 48 75c24 0 41-14 43-38l32 2c-6 37-31 61-74 61-59 0-76-41-82-99-10-93 101-131 147-64 4 7 5 14 7 22l-32 3c-4-21-16-35-41-35"
                  id="I"/>
            <path fill="#000000"
                  d="M100-194c62-1 85 37 85 99 1 63-27 99-86 99S16-35 15-95c0-66 28-99 85-99zM99-20c44 1 53-31 53-75 0-43-8-75-51-75s-53 32-53 75 10 74 51 75"
                  id="J"/>
            <path fill="#000000"
                  d="M210-169c-67 3-38 105-44 169h-31v-121c0-29-5-50-35-48C34-165 62-65 56 0H25l-1-190h30c1 10-1 24 2 32 10-44 99-50 107 0 11-21 27-35 58-36 85-2 47 119 55 194h-31v-121c0-29-5-49-35-48"
                  id="K"/>
            <path fill="#000000"
                  d="M115-194c55 1 70 41 70 98S169 2 115 4C84 4 66-9 55-30l1 105H24l-1-265h31l2 30c10-21 28-34 59-34zm-8 174c40 0 45-34 45-75s-6-73-45-74c-42 0-51 32-51 76 0 43 10 73 51 73"
                  id="L"/>
            <path fill="#000000"
                  d="M135-143c-3-34-86-38-87 0 15 53 115 12 119 90S17 21 10-45l28-5c4 36 97 45 98 0-10-56-113-15-118-90-4-57 82-63 122-42 12 7 21 19 24 35"
                  id="M"/>
            <path fill="#000000" d="M24-231v-30h32v30H24zM24 0v-190h32V0H24" id="N"/>
            <g id="g">
                <use transform="matrix(0.0493827160493827,0,0,0.0493827160493827,0,0)" xlink:href="#I"/>
                <use transform="matrix(0.0493827160493827,0,0,0.0493827160493827,8.888888888888886,0)" xlink:href="#J"/>
                <use transform="matrix(0.0493827160493827,0,0,0.0493827160493827,18.765432098765423,0)"
                     xlink:href="#K"/>
                <use transform="matrix(0.0493827160493827,0,0,0.0493827160493827,33.530864197530846,0)"
                     xlink:href="#L"/>
                <use transform="matrix(0.0493827160493827,0,0,0.0493827160493827,43.40740740740738,0)" xlink:href="#J"/>
                <use transform="matrix(0.0493827160493827,0,0,0.0493827160493827,53.28395061728392,0)" xlink:href="#M"/>
                <use transform="matrix(0.0493827160493827,0,0,0.0493827160493827,62.17283950617281,0)" xlink:href="#N"/>
                <use transform="matrix(0.0493827160493827,0,0,0.0493827160493827,66.07407407407403,0)" xlink:href="#A"/>
                <use transform="matrix(0.0493827160493827,0,0,0.0493827160493827,71.0123456790123,0)" xlink:href="#H"/>
            </g>
            <g id="h">
                <use transform="matrix(0.0493827160493827,0,0,0.0493827160493827,0,0)" xlink:href="#N"/>
                <use transform="matrix(0.0493827160493827,0,0,0.0493827160493827,3.9012345679012332,0)"
                     xlink:href="#M"/>
            </g>
            <path fill="#000000"
                  d="M117-194c89-4 53 116 60 194h-32v-121c0-31-8-49-39-48C34-167 62-67 57 0H25l-1-190h30c1 10-1 24 2 32 11-22 29-35 61-36"
                  id="O"/>
            <path fill="#000000"
                  d="M115-194c53 0 69 39 70 98 0 66-23 100-70 100C84 3 66-7 56-30L54 0H23l1-261h32v101c10-23 28-34 59-34zm-8 174c40 0 45-34 45-75 0-40-5-75-45-74-42 0-51 32-51 76 0 43 10 73 51 73"
                  id="P"/>
            <path fill="#000000" d="M24 0v-261h32V0H24" id="Q"/>
            <g id="i">
                <use transform="matrix(0.0493827160493827,0,0,0.0493827160493827,0,0)" xlink:href="#z"/>
                <use transform="matrix(0.0493827160493827,0,0,0.0493827160493827,5.876543209876541,0)" xlink:href="#H"/>
                <use transform="matrix(0.0493827160493827,0,0,0.0493827160493827,15.753086419753082,0)"
                     xlink:href="#M"/>
                <use transform="matrix(0.0493827160493827,0,0,0.0493827160493827,24.641975308641968,0)"
                     xlink:href="#L"/>
                <use transform="matrix(0.0493827160493827,0,0,0.0493827160493827,34.518518518518505,0)"
                     xlink:href="#J"/>
                <use transform="matrix(0.0493827160493827,0,0,0.0493827160493827,44.39506172839504,0)" xlink:href="#O"/>
                <use transform="matrix(0.0493827160493827,0,0,0.0493827160493827,54.27160493827157,0)" xlink:href="#M"/>
                <use transform="matrix(0.0493827160493827,0,0,0.0493827160493827,63.16049382716046,0)" xlink:href="#N"/>
                <use transform="matrix(0.0493827160493827,0,0,0.0493827160493827,67.06172839506169,0)" xlink:href="#P"/>
                <use transform="matrix(0.0493827160493827,0,0,0.0493827160493827,76.93827160493824,0)" xlink:href="#Q"/>
                <use transform="matrix(0.0493827160493827,0,0,0.0493827160493827,80.83950617283946,0)" xlink:href="#H"/>
            </g>
            <path fill="#000000" d="M101-234c-31-9-42 10-38 44h38v23H63V0H32v-167H5v-23h27c-7-52 17-82 69-68v24"
                  id="R"/>
            <g id="j">
                <use transform="matrix(0.0493827160493827,0,0,0.0493827160493827,0,0)" xlink:href="#R"/>
                <use transform="matrix(0.0493827160493827,0,0,0.0493827160493827,4.9382716049382696,0)"
                     xlink:href="#J"/>
                <use transform="matrix(0.0493827160493827,0,0,0.0493827160493827,14.81481481481481,0)" xlink:href="#z"/>
            </g>
            <g id="k">
                <use transform="matrix(0.0493827160493827,0,0,0.0493827160493827,0,0)" xlink:href="#A"/>
                <use transform="matrix(0.0493827160493827,0,0,0.0493827160493827,4.9382716049382696,0)"
                     xlink:href="#G"/>
                <use transform="matrix(0.0493827160493827,0,0,0.0493827160493827,14.81481481481481,0)" xlink:href="#H"/>
            </g>
            <g id="l">
                <use transform="matrix(0.0493827160493827,0,0,0.0493827160493827,0,0)" xlink:href="#Q"/>
                <use transform="matrix(0.0493827160493827,0,0,0.0493827160493827,3.9012345679012332,0)"
                     xlink:href="#N"/>
                <use transform="matrix(0.0493827160493827,0,0,0.0493827160493827,7.8024691358024665,0)"
                     xlink:href="#R"/>
                <use transform="matrix(0.0493827160493827,0,0,0.0493827160493827,12.740740740740737,0)"
                     xlink:href="#H"/>
                <use transform="matrix(0.0493827160493827,0,0,0.0493827160493827,22.617283950617278,0)"
                     xlink:href="#A"/>
                <use transform="matrix(0.0493827160493827,0,0,0.0493827160493827,27.555555555555546,0)"
                     xlink:href="#N"/>
                <use transform="matrix(0.0493827160493827,0,0,0.0493827160493827,31.45679012345678,0)" xlink:href="#K"/>
                <use transform="matrix(0.0493827160493827,0,0,0.0493827160493827,46.22222222222221,0)" xlink:href="#H"/>
            </g>
            <g id="m">
                <use transform="matrix(0.0493827160493827,0,0,0.0493827160493827,0,0)" xlink:href="#J"/>
                <use transform="matrix(0.0493827160493827,0,0,0.0493827160493827,9.876543209876539,0)" xlink:href="#R"/>
            </g>
            <g id="n">
                <use transform="matrix(0.0493827160493827,0,0,0.0493827160493827,0,0)" xlink:href="#N"/>
                <use transform="matrix(0.0493827160493827,0,0,0.0493827160493827,3.9012345679012332,0)"
                     xlink:href="#A"/>
                <use transform="matrix(0.0493827160493827,0,0,0.0493827160493827,8.839506172839503,0)" xlink:href="#M"/>
            </g>
            <path fill="#000000" d="M33 0v-38h34V0H33" id="S"/>
            <g id="o">
                <use transform="matrix(0.0493827160493827,0,0,0.0493827160493827,0,0)" xlink:href="#L"/>
                <use transform="matrix(0.0493827160493827,0,0,0.0493827160493827,9.876543209876539,0)" xlink:href="#y"/>
                <use transform="matrix(0.0493827160493827,0,0,0.0493827160493827,19.753086419753078,0)"
                     xlink:href="#z"/>
                <use transform="matrix(0.0493827160493827,0,0,0.0493827160493827,25.629629629629623,0)"
                     xlink:href="#A"/>
                <use transform="matrix(0.0493827160493827,0,0,0.0493827160493827,30.567901234567884,0)"
                     xlink:href="#M"/>
                <use transform="matrix(0.0493827160493827,0,0,0.0493827160493827,39.45679012345677,0)" xlink:href="#S"/>
            </g>
            <path fill="#000000" d="M30 0v-248h187v28H63v79h144v27H63v87h162V0H30" id="T"/>
            <g id="p">
                <use transform="matrix(0.0493827160493827,0,0,0.0493827160493827,0,0)" xlink:href="#T"/>
                <use transform="matrix(0.0493827160493827,0,0,0.0493827160493827,11.851851851851848,0)"
                     xlink:href="#y"/>
                <use transform="matrix(0.0493827160493827,0,0,0.0493827160493827,21.728395061728385,0)"
                     xlink:href="#I"/>
                <use transform="matrix(0.0493827160493827,0,0,0.0493827160493827,30.617283950617267,0)"
                     xlink:href="#G"/>
            </g>
            <g id="q">
                <use transform="matrix(0.0493827160493827,0,0,0.0493827160493827,0,0)" xlink:href="#L"/>
                <use transform="matrix(0.0493827160493827,0,0,0.0493827160493827,9.876543209876539,0)" xlink:href="#y"/>
                <use transform="matrix(0.0493827160493827,0,0,0.0493827160493827,19.753086419753078,0)"
                     xlink:href="#z"/>
                <use transform="matrix(0.0493827160493827,0,0,0.0493827160493827,25.629629629629623,0)"
                     xlink:href="#A"/>
            </g>
            <g id="r">
                <use transform="matrix(0.0493827160493827,0,0,0.0493827160493827,0,0)" xlink:href="#M"/>
                <use transform="matrix(0.0493827160493827,0,0,0.0493827160493827,8.888888888888886,0)" xlink:href="#G"/>
                <use transform="matrix(0.0493827160493827,0,0,0.0493827160493827,18.765432098765423,0)"
                     xlink:href="#y"/>
                <use transform="matrix(0.0493827160493827,0,0,0.0493827160493827,28.64197530864196,0)" xlink:href="#z"/>
                <use transform="matrix(0.0493827160493827,0,0,0.0493827160493827,34.518518518518505,0)"
                     xlink:href="#H"/>
                <use transform="matrix(0.0493827160493827,0,0,0.0493827160493827,44.39506172839504,0)" xlink:href="#M"/>
            </g>
            <g id="s">
                <use transform="matrix(0.0493827160493827,0,0,0.0493827160493827,0,0)" xlink:href="#A"/>
                <use transform="matrix(0.0493827160493827,0,0,0.0493827160493827,4.9382716049382696,0)"
                     xlink:href="#G"/>
                <use transform="matrix(0.0493827160493827,0,0,0.0493827160493827,14.81481481481481,0)" xlink:href="#H"/>
            </g>
            <g id="t">
                <use transform="matrix(0.0493827160493827,0,0,0.0493827160493827,0,0)" xlink:href="#Q"/>
                <use transform="matrix(0.0493827160493827,0,0,0.0493827160493827,3.9012345679012332,0)"
                     xlink:href="#N"/>
                <use transform="matrix(0.0493827160493827,0,0,0.0493827160493827,7.8024691358024665,0)"
                     xlink:href="#R"/>
                <use transform="matrix(0.0493827160493827,0,0,0.0493827160493827,12.740740740740737,0)"
                     xlink:href="#H"/>
                <use transform="matrix(0.0493827160493827,0,0,0.0493827160493827,22.617283950617278,0)"
                     xlink:href="#A"/>
                <use transform="matrix(0.0493827160493827,0,0,0.0493827160493827,27.555555555555546,0)"
                     xlink:href="#N"/>
                <use transform="matrix(0.0493827160493827,0,0,0.0493827160493827,31.45679012345678,0)" xlink:href="#K"/>
                <use transform="matrix(0.0493827160493827,0,0,0.0493827160493827,46.22222222222221,0)" xlink:href="#H"/>
            </g>
            <path fill="#000000" d="M206 0h-36l-40-164L89 0H53L-1-190h32L70-26l43-164h34l41 164 42-164h31" id="U"/>
            <path fill="#000000"
                  d="M177-190C167-65 218 103 67 71c-23-6-38-20-44-43l32-5c15 47 100 32 89-28v-30C133-14 115 1 83 1 29 1 15-40 15-95c0-56 16-97 71-98 29-1 48 16 59 35 1-10 0-23 2-32h30zM94-22c36 0 50-32 50-73 0-42-14-75-50-75-39 0-46 34-46 75s6 73 46 73"
                  id="V"/>
            <g id="u">
                <use transform="matrix(0.0493827160493827,0,0,0.0493827160493827,0,0)" xlink:href="#J"/>
                <use transform="matrix(0.0493827160493827,0,0,0.0493827160493827,9.876543209876539,0)" xlink:href="#U"/>
                <use transform="matrix(0.0493827160493827,0,0,0.0493827160493827,22.666666666666657,0)"
                     xlink:href="#O"/>
                <use transform="matrix(0.0493827160493827,0,0,0.0493827160493827,32.543209876543195,0)"
                     xlink:href="#N"/>
                <use transform="matrix(0.0493827160493827,0,0,0.0493827160493827,36.44444444444443,0)" xlink:href="#O"/>
                <use transform="matrix(0.0493827160493827,0,0,0.0493827160493827,46.320987654320966,0)"
                     xlink:href="#V"/>
            </g>
            <g id="v">
                <use transform="matrix(0.0493827160493827,0,0,0.0493827160493827,0,0)" xlink:href="#I"/>
                <use transform="matrix(0.0493827160493827,0,0,0.0493827160493827,8.888888888888886,0)" xlink:href="#J"/>
                <use transform="matrix(0.0493827160493827,0,0,0.0493827160493827,18.765432098765423,0)"
                     xlink:href="#K"/>
                <use transform="matrix(0.0493827160493827,0,0,0.0493827160493827,33.530864197530846,0)"
                     xlink:href="#L"/>
                <use transform="matrix(0.0493827160493827,0,0,0.0493827160493827,43.40740740740738,0)" xlink:href="#J"/>
                <use transform="matrix(0.0493827160493827,0,0,0.0493827160493827,53.28395061728392,0)" xlink:href="#M"/>
                <use transform="matrix(0.0493827160493827,0,0,0.0493827160493827,62.17283950617281,0)" xlink:href="#N"/>
                <use transform="matrix(0.0493827160493827,0,0,0.0493827160493827,66.07407407407403,0)" xlink:href="#A"/>
                <use transform="matrix(0.0493827160493827,0,0,0.0493827160493827,71.0123456790123,0)" xlink:href="#H"/>
                <use transform="matrix(0.0493827160493827,0,0,0.0493827160493827,80.88888888888884,0)" xlink:href="#S"/>
            </g>
        </defs>
    </g>
</svg>