<svg xmlns="http://www.w3.org/2000/svg" xmlns:xlink="http://www.w3.org/1999/xlink"  width="405"
     height="352">
    <g transform="translate(-95 0)">
        <path d="M120 26a6 6 0 0 1 6-6h348a6 6 0 0 1 6 6v88a6 6 0 0 1-6 6H126a6 6 0 0 1-6-6z" stroke="#000000"
              fill-opacity="0"/>
        <path d="M120 57.6h360" stroke="#000000" fill="none"/>
        <use xlink:href="#a" transform="matrix(1,0,0,1,128,28) translate(139.05 14.6)"/>
        <use xlink:href="#b" transform="matrix(1,0,0,1,128,28) translate(192 14.6)"/>
        <use xlink:href="#c" transform="matrix(1,0,0,1,132,65.6) translate(0 27.944444444444443)"/>
        <use xlink:href="#d" transform="matrix(1,0,0,1,132,65.6) translate(19.1358024691358 27.944444444444443)"/>
        <use xlink:href="#e" transform="matrix(1,0,0,1,132,65.6) translate(133.2716049382716 27.944444444444443)"/>
        <path d="M115 238a6 6 0 0 1 6-6h348a6 6 0 0 1 6 6v88a6 6 0 0 1-6 6H121a6 6 0 0 1-6-6z" stroke="#000000"
              fill-opacity="0"/>
        <path d="M115 269.6h360" stroke="#000000" fill="none"/>
        <use xlink:href="#a" transform="matrix(1,0,0,1,123,240) translate(139.05 14.6)"/>
        <use xlink:href="#f" transform="matrix(1,0,0,1,123,240) translate(192 14.6)"/>
        <use xlink:href="#c" transform="matrix(1,0,0,1,127,277.6) translate(0 27.944444444444443)"/>
        <use xlink:href="#g" transform="matrix(1,0,0,1,127,277.6) translate(19.1358024691358 27.944444444444443)"/>
        <use xlink:href="#h" transform="matrix(1,0,0,1,127,277.6) translate(120.18518518518518 27.944444444444443)"/>
        <use xlink:href="#e" transform="matrix(1,0,0,1,127,277.6) translate(144.07407407407408 27.944444444444443)"/>
        <path d="M300 143.5V231" stroke="#000000" fill="none"/>
        <path d="M300 121.48L312.73 143h-25.46z" stroke="#000000" fill="#fff"/>
        <path d="M300.5 231.5h-1v-.5h1z" stroke="#000000" stroke-width=".05" fill="#000000"/>
        <g class="lucid-layer"  display="block" stroke="#000000">
            <path d="M253 131v146.5" fill="none"/>
            <path d="M253 108.98l12.73 21.52h-25.46z" fill="#fff"/>
            <path d="M253 277.5v.5" fill="none"/>
        </g>
        <defs>
            <path d="M67-125c0 53 21 87 73 88 37 1 54-22 65-47l45 17C233-25 199 4 140 4 58 4 20-42 15-125 8-235 124-281 211-232c18 10 29 29 36 50l-46 12c-8-25-30-41-62-41-52 0-71 34-72 86"
                  id="i"/>
            <path d="M25 0v-261h50V0H25" id="j"/>
            <path d="M133-34C117-15 103 5 69 4 32 3 11-16 11-54c-1-60 55-63 116-61 1-26-3-47-28-47-18 1-26 9-28 27l-52-2c7-38 36-58 82-57s74 22 75 68l1 82c-1 14 12 18 25 15v27c-30 8-71 5-69-32zm-48 3c29 0 43-24 42-57-32 0-66-3-65 30 0 17 8 27 23 27"
                  id="k"/>
            <path d="M137-138c1-29-70-34-71-4 15 46 118 7 119 86 1 83-164 76-172 9l43-7c4 19 20 25 44 25 33 8 57-30 24-41C81-84 22-81 20-136c-2-80 154-74 161-7"
                  id="l"/>
            <g id="a">
                <use transform="matrix(0.05,0,0,0.05,0,0)" xlink:href="#i"/>
                <use transform="matrix(0.05,0,0,0.05,12.950000000000001,0)" xlink:href="#j"/>
                <use transform="matrix(0.05,0,0,0.05,17.950000000000003,0)" xlink:href="#k"/>
                <use transform="matrix(0.05,0,0,0.05,27.950000000000003,0)" xlink:href="#l"/>
                <use transform="matrix(0.05,0,0,0.05,37.95,0)" xlink:href="#l"/>
            </g>
            <path d="M199 0l-22-63H83L61 0H9l90-248h61L250 0h-51zm-33-102l-36-108c-10 38-24 72-36 108h72" id="m"/>
            <use transform="matrix(0.05,0,0,0.05,0,0)" xlink:href="#m" id="b"/>
            <path fill="#000000" d="M118-107v75H92v-75H18v-26h74v-75h26v75h74v26h-74" id="n"/>
            <use transform="matrix(0.06172839506172839,0,0,0.06172839506172839,0,0)" xlink:href="#n" id="c"/>
            <path fill="#000000"
                  d="M210-169c-67 3-38 105-44 169h-31v-121c0-29-5-50-35-48C34-165 62-65 56 0H25l-1-190h30c1 10-1 24 2 32 10-44 99-50 107 0 11-21 27-35 58-36 85-2 47 119 55 194h-31v-121c0-29-5-49-35-48"
                  id="o"/>
            <path fill="#000000"
                  d="M100-194c63 0 86 42 84 106H49c0 40 14 67 53 68 26 1 43-12 49-29l28 8c-11 28-37 45-77 45C44 4 14-33 15-96c1-61 26-98 85-98zm52 81c6-60-76-77-97-28-3 7-6 17-6 28h103"
                  id="p"/>
            <path fill="#000000" d="M59-47c-2 24 18 29 38 22v24C64 9 27 4 27-40v-127H5v-23h24l9-43h21v43h35v23H59v120"
                  id="q"/>
            <path fill="#000000"
                  d="M106-169C34-169 62-67 57 0H25v-261h32l-1 103c12-21 28-36 61-36 89 0 53 116 60 194h-32v-121c2-32-8-49-39-48"
                  id="r"/>
            <path fill="#000000"
                  d="M100-194c62-1 85 37 85 99 1 63-27 99-86 99S16-35 15-95c0-66 28-99 85-99zM99-20c44 1 53-31 53-75 0-43-8-75-51-75s-53 32-53 75 10 74 51 75"
                  id="s"/>
            <path fill="#000000"
                  d="M85-194c31 0 48 13 60 33l-1-100h32l1 261h-30c-2-10 0-23-3-31C134-8 116 4 85 4 32 4 16-35 15-94c0-66 23-100 70-100zm9 24c-40 0-46 34-46 75 0 40 6 74 45 74 42 0 51-32 51-76 0-42-9-74-50-73"
                  id="t"/>
            <path fill="#000000" d="M87 75C49 33 22-17 22-94c0-76 28-126 65-167h31c-38 41-64 92-64 168S80 34 118 75H87"
                  id="u"/>
            <path fill="#000000" d="M33-261c38 41 65 92 65 168S71 34 33 75H2C39 34 66-17 66-93S39-220 2-261h31" id="v"/>
            <path fill="#000000" d="M33-154v-36h34v36H33zM33 0v-36h34V0H33" id="w"/>
            <path fill="#000000" d="M127-220V0H93v-220H8v-28h204v28h-85" id="x"/>
            <g id="d">
                <use transform="matrix(0.06172839506172839,0,0,0.06172839506172839,0,0)" xlink:href="#o"/>
                <use transform="matrix(0.06172839506172839,0,0,0.06172839506172839,18.456790123456788,0)"
                     xlink:href="#p"/>
                <use transform="matrix(0.06172839506172839,0,0,0.06172839506172839,30.80246913580247,0)"
                     xlink:href="#q"/>
                <use transform="matrix(0.06172839506172839,0,0,0.06172839506172839,36.97530864197531,0)"
                     xlink:href="#r"/>
                <use transform="matrix(0.06172839506172839,0,0,0.06172839506172839,49.32098765432099,0)"
                     xlink:href="#s"/>
                <use transform="matrix(0.06172839506172839,0,0,0.06172839506172839,61.666666666666664,0)"
                     xlink:href="#t"/>
                <use transform="matrix(0.06172839506172839,0,0,0.06172839506172839,74.01234567901234,0)"
                     xlink:href="#u"/>
                <use transform="matrix(0.06172839506172839,0,0,0.06172839506172839,81.35802469135803,0)"
                     xlink:href="#v"/>
                <use transform="matrix(0.06172839506172839,0,0,0.06172839506172839,88.70370370370371,0)"
                     xlink:href="#w"/>
                <use transform="matrix(0.06172839506172839,0,0,0.06172839506172839,94.87654320987654,0)"
                     xlink:href="#x"/>
            </g>
            <path fill="#000000"
                  d="M141-36C126-15 110 5 73 4 37 3 15-17 15-53c-1-64 63-63 125-63 3-35-9-54-41-54-24 1-41 7-42 31l-33-3c5-37 33-52 76-52 45 0 72 20 72 64v82c-1 20 7 32 28 27v20c-31 9-61-2-59-35zM48-53c0 20 12 33 32 33 41-3 63-29 60-74-43 2-92-5-92 41"
                  id="y"/>
            <use transform="matrix(0.06172839506172839,0,0,0.06172839506172839,0,0)" xlink:href="#y" id="e"/>
            <path d="M182-130c37 4 62 22 62 59C244 23 116-4 24 0v-248c84 5 203-23 205 63 0 31-19 50-47 55zM76-148c40-3 101 13 101-30 0-44-60-28-101-31v61zm0 110c48-3 116 14 116-37 0-48-69-32-116-35v72"
                  id="z"/>
            <use transform="matrix(0.05,0,0,0.05,0,0)" xlink:href="#z" id="f"/>
            <g id="g">
                <use transform="matrix(0.06172839506172839,0,0,0.06172839506172839,0,0)" xlink:href="#o"/>
                <use transform="matrix(0.06172839506172839,0,0,0.06172839506172839,18.456790123456788,0)"
                     xlink:href="#p"/>
                <use transform="matrix(0.06172839506172839,0,0,0.06172839506172839,30.80246913580247,0)"
                     xlink:href="#q"/>
                <use transform="matrix(0.06172839506172839,0,0,0.06172839506172839,36.97530864197531,0)"
                     xlink:href="#r"/>
                <use transform="matrix(0.06172839506172839,0,0,0.06172839506172839,49.32098765432099,0)"
                     xlink:href="#s"/>
                <use transform="matrix(0.06172839506172839,0,0,0.06172839506172839,61.666666666666664,0)"
                     xlink:href="#t"/>
                <use transform="matrix(0.06172839506172839,0,0,0.06172839506172839,74.01234567901234,0)"
                     xlink:href="#u"/>
                <use transform="matrix(0.06172839506172839,0,0,0.06172839506172839,81.35802469135803,0)"
                     xlink:href="#v"/>
                <use transform="matrix(0.06172839506172839,0,0,0.06172839506172839,88.70370370370371,0)"
                     xlink:href="#w"/>
            </g>
            <path fill="#000000" d="M47-170H22l-4-78h33" id="A"/>
            <g id="h">
                <use transform="matrix(0.06172839506172839,0,0,0.06172839506172839,0,0)" xlink:href="#x"/>
                <use transform="matrix(0.06172839506172839,0,0,0.06172839506172839,13.518518518518517,0)"
                     xlink:href="#A"/>
            </g>
        </defs>
    </g>
</svg>