<svg xmlns="http://www.w3.org/2000/svg" xmlns:xlink="http://www.w3.org/1999/xlink" width="1060"
     height="1663.44">
    <g transform="translate(0 203.93992140108367)">
        <path d="M231.85-162.54a8.74 8.74 0 0 0 8.15 5.6h114a6 6 0 0 1 6 6v222a6 6 0 0 1-6 6H26a6 6 0 0 1-6-6v-248a6 6 0 0 1 6-6h192a8.74 8.74 0 0 1 8.15 5.6zM20-156.94h214"
              stroke="#000" fill-opacity="0"/>
        <use xlink:href="#a" transform="matrix(1,0,0,1,28,-182.93992140108367) translate(0 17.77777777777778)"/>
        <use xlink:href="#b"
             transform="matrix(1,0,0,1,28,-182.93992140108367) translate(67.71604938271605 17.77777777777778)"/>
        <path d="M799.46 161.16A11.82 11.82 0 0 0 809 166h225a6 6 0 0 1 6 6v222a6 6 0 0 1-6 6H406a6 6 0 0 1-6-6V146a6 6 0 0 1 6-6h372a11.82 11.82 0 0 1 9.54 4.84zM400 166h403"
              stroke="#000" fill-opacity="0"/>
        <use xlink:href="#c" transform="matrix(1,0,0,1,408,140) translate(0 17.77777777777778)"/>
        <use xlink:href="#b" transform="matrix(1,0,0,1,408,140) translate(126.79012345679013 17.77777777777778)"/>
        <path d="M658.4 502.14A16.5 16.5 0 0 0 669 506h365a6 6 0 0 1 6 6v522a6 6 0 0 1-6 6H26a6 6 0 0 1-6-6V486a6 6 0 0 1 6-6h600a16.5 16.5 0 0 1 10.6 3.86zM20 506h643"
              stroke="#000" fill-opacity="0"/>
        <use xlink:href="#d" transform="matrix(1,0,0,1,28,480) translate(0 17.77777777777778)"/>
        <use xlink:href="#e" transform="matrix(1,0,0,1,28,480) translate(87.46913580246913 17.77777777777778)"/>
        <path d="M844.86 1140.4a10.74 10.74 0 0 0 9.14 5.1h180a6 6 0 0 1 6 6v282a6 6 0 0 1-6 6H526a6 6 0 0 1-6-6v-308a6 6 0 0 1 6-6h300a10.74 10.74 0 0 1 9.14 5.1zM520 1145.5h328"
              stroke="#000" fill-opacity="0"/>
        <use xlink:href="#f" transform="matrix(1,0,0,1,528,1119.50005) translate(0 17.77777777777778)"/>
        <use xlink:href="#b" transform="matrix(1,0,0,1,528,1119.50005) translate(150.2469135802469 17.77777777777778)"/>
        <path d="M40 546a6 6 0 0 1 6-6h428a6 6 0 0 1 6 6v159a6 6 0 0 1-6 6H46a6 6 0 0 1-6-6z" stroke="#000"
              fill-opacity="0"/>
        <path d="M40 582.67h440M40 646.83h440" stroke="#000" fill="none"/>
        <use xlink:href="#g" transform="matrix(1,0,0,1,48,548) translate(178.14197530864197 17.944444444444443)"/>
        <use xlink:href="#h" transform="matrix(1,0,0,1,52,654.8333333333333) translate(0 28.944444444444443)"/>
        <use xlink:href="#i"
             transform="matrix(1,0,0,1,52,654.8333333333333) translate(19.1358024691358 28.944444444444443)"/>
        <use xlink:href="#j"
             transform="matrix(1,0,0,1,52,654.8333333333333) translate(270.6790123456789 28.944444444444443)"/>
        <path d="M480 206a6 6 0 0 1 6-6h428a6 6 0 0 1 6 6v172a6 6 0 0 1-6 6H486a6 6 0 0 1-6-6z" stroke="#000"
              fill-opacity="0"/>
        <path d="M480 242.67h440m-440 44.16h440" stroke="#000" fill="none"/>
        <use xlink:href="#k"
             transform="matrix(1,0,0,1,487.9999999999999,208) translate(114.68518518518522 17.944444444444443)"/>
        <use xlink:href="#h"
             transform="matrix(1,0,0,1,491.9999999999999,294.83333333333337) translate(0 18.77777777777778)"/>
        <use xlink:href="#l"
             transform="matrix(1,0,0,1,491.9999999999999,294.83333333333337) translate(19.1358024691358 18.77777777777778)"/>
        <use xlink:href="#m"
             transform="matrix(1,0,0,1,491.9999999999999,294.83333333333337) translate(183.14814814814812 18.77777777777778)"/>
        <use xlink:href="#n"
             transform="matrix(1,0,0,1,491.9999999999999,294.83333333333337) translate(249.69135802469134 18.77777777777778)"/>
        <use xlink:href="#o"
             transform="matrix(1,0,0,1,491.9999999999999,294.83333333333337) translate(317.53086419753083 18.77777777777778)"/>
        <use xlink:href="#p"
             transform="matrix(1,0,0,1,491.9999999999999,294.83333333333337) translate(0 45.44444444444444)"/>
        <use xlink:href="#m"
             transform="matrix(1,0,0,1,491.9999999999999,294.83333333333337) translate(91.29629629629629 45.44444444444444)"/>
        <use xlink:href="#q"
             transform="matrix(1,0,0,1,491.9999999999999,294.83333333333337) translate(157.8395061728395 45.44444444444444)"/>
        <use xlink:href="#r"
             transform="matrix(1,0,0,1,491.9999999999999,294.83333333333337) translate(277.4074074074074 45.44444444444444)"/>
        <use xlink:href="#s"
             transform="matrix(1,0,0,1,491.9999999999999,294.83333333333337) translate(0 72.11111111111111)"/>
        <use xlink:href="#t"
             transform="matrix(1,0,0,1,491.9999999999999,294.83333333333337) translate(50.55555555555556 72.11111111111111)"/>
        <use xlink:href="#u"
             transform="matrix(1,0,0,1,491.9999999999999,294.83333333333337) translate(104.81481481481482 72.11111111111111)"/>
        <use xlink:href="#v"
             transform="matrix(1,0,0,1,491.9999999999999,294.83333333333337) translate(281.04938271604937 72.11111111111111)"/>
        <path d="M40 826a6 6 0 0 1 6-6h428a6 6 0 0 1 6 6v159a6 6 0 0 1-6 6H46a6 6 0 0 1-6-6z" stroke="#000"
              fill-opacity="0"/>
        <path d="M40 862.67h440M40 926.83h440" stroke="#000" fill="none"/>
        <use xlink:href="#w"
             transform="matrix(1,0,0,1,47.99999999999994,828) translate(162.679012345679 17.944444444444443)"/>
        <path d="M560 546a6 6 0 0 1 6-6h428a6 6 0 0 1 6 6v159a6 6 0 0 1-6 6H566a6 6 0 0 1-6-6z" stroke="#000"
              fill-opacity="0"/>
        <path d="M560 582.67h440m-440 64.16h440" stroke="#000" fill="none"/>
        <use xlink:href="#x" transform="matrix(1,0,0,1,568,548) translate(109.6851851851852 17.944444444444443)"/>
        <use xlink:href="#h" transform="matrix(1,0,0,1,572,654.8333333333333) translate(0 28.944444444444443)"/>
        <use xlink:href="#i"
             transform="matrix(1,0,0,1,572,654.8333333333333) translate(19.1358024691358 28.944444444444443)"/>
        <use xlink:href="#j"
             transform="matrix(1,0,0,1,572,654.8333333333333) translate(270.6790123456789 28.944444444444443)"/>
        <path d="M545.75 1185.5a6 6 0 0 1 6-6h468a6 6 0 0 1 6 6v212a6 6 0 0 1-6 6h-468a6 6 0 0 1-6-6z" stroke="#000"
              fill-opacity="0"/>
        <path d="M545.75 1222.17h480m-480 64.16h480" stroke="#000" fill="none"/>
        <use xlink:href="#y"
             transform="matrix(1,0,0,1,553.7517636000762,1187.50005) translate(138.88271604938274 17.944444444444443)"/>
        <use xlink:href="#h"
             transform="matrix(1,0,0,1,557.7517636000762,1294.3333833333336) translate(0 28.77777777777778)"/>
        <use xlink:href="#z"
             transform="matrix(1,0,0,1,557.7517636000762,1294.3333833333336) translate(19.1358024691358 28.77777777777778)"/>
        <use xlink:href="#m"
             transform="matrix(1,0,0,1,557.7517636000762,1294.3333833333336) translate(154.69135802469134 28.77777777777778)"/>
        <use xlink:href="#n"
             transform="matrix(1,0,0,1,557.7517636000762,1294.3333833333336) translate(221.23456790123453 28.77777777777778)"/>
        <use xlink:href="#m"
             transform="matrix(1,0,0,1,557.7517636000762,1294.3333833333336) translate(289.074074074074 28.77777777777778)"/>
        <use xlink:href="#A"
             transform="matrix(1,0,0,1,557.7517636000762,1294.3333833333336) translate(355.6172839506172 28.77777777777778)"/>
        <use xlink:href="#m"
             transform="matrix(1,0,0,1,557.7517636000762,1294.3333833333336) translate(0 55.44444444444445)"/>
        <use xlink:href="#q"
             transform="matrix(1,0,0,1,557.7517636000762,1294.3333833333336) translate(66.5432098765432 55.44444444444445)"/>
        <use xlink:href="#m"
             transform="matrix(1,0,0,1,557.7517636000762,1294.3333833333336) translate(186.1111111111111 55.44444444444445)"/>
        <use xlink:href="#B"
             transform="matrix(1,0,0,1,557.7517636000762,1294.3333833333336) translate(252.65432098765427 55.44444444444445)"/>
        <use xlink:href="#C"
             transform="matrix(1,0,0,1,557.7517636000762,1294.3333833333336) translate(303.2098765432098 55.44444444444445)"/>
        <use xlink:href="#u"
             transform="matrix(1,0,0,1,557.7517636000762,1294.3333833333336) translate(0 82.11111111111111)"/>
        <use xlink:href="#D"
             transform="matrix(1,0,0,1,557.7517636000762,1294.3333833333336) translate(176.23456790123456 82.11111111111111)"/>
        <path d="M780 712v86.6" stroke="#000" fill="none"/>
        <path d="M780.5 712h-1v-.5h1z" stroke="#000" stroke-width=".05"/>
        <path d="M769.82 781.3L780 798.52l10.18-17.22" stroke="#000" fill="none"/>
        <path d="M605.75 806a6 6 0 0 1 6-6h348a6 6 0 0 1 6 6v188a6 6 0 0 1-6 6h-348a6 6 0 0 1-6-6z" stroke="#000"
              fill-opacity="0"/>
        <path d="M605.75 859.2h360" stroke="#000" fill="none"/>
        <g>
            <use xlink:href="#E"
                 transform="matrix(1,0,0,1,613.7517636000762,808) translate(113.57499999999999 14.799999999999999)"/>
            <use xlink:href="#F" transform="matrix(1,0,0,1,613.7517636000762,808) translate(96.125 36.4)"/>
        </g>
        <g>
            <use xlink:href="#h" transform="matrix(1,0,0,1,617.7517636000762,867.2) translate(0 53.611111111111114)"/>
            <use xlink:href="#G"
                 transform="matrix(1,0,0,1,617.7517636000762,867.2) translate(19.1358024691358 53.611111111111114)"/>
            <use xlink:href="#j" transform="matrix(1,0,0,1,617.7517636000762,867.2) translate(0 80.27777777777777)"/>
        </g>
        <path d="M260 712v8.88m0 8.88v17.77m0 8.88v17.78m0 8.88v17.77m0 8.88v8.9" stroke="#000" fill="none"/>
        <path d="M260.5 712h-1v-.5h1z" stroke="#000" stroke-width=".05"/>
        <path d="M249.82 801.3L260 818.52l10.18-17.22M481 625.5h62.12" stroke="#000" fill="none"/>
        <path d="M481 626h-.5v-1h.5z" stroke="#000" stroke-width=".05"/>
        <path d="M557.88 625.5l-14.26 4.63v-9.26z" stroke="#000"/>
        <path d="M780 712v10.25m0 10.25V753m-3.26 7h-20.5M746 760h-20.52m-10.25 0h-20.5m-10.26 0h-20.5m-10.25 0h-20.5m-10.26 0h-20.5m-10.25 0h-20.5m-10.25 0h-20.5m-.95 9.3v20.5m0 10.26v20.5m0 10.26v20.5m0 10.25v20.5m0 10.26v13.17h-7.33m-10.25 0h-20.5m-10.26 0H481.4"
              stroke="#000" fill="none"/>
        <path d="M780.5 712h-1v-.5h1z" stroke="#000" stroke-width=".05"/>
        <path d="M498.7 895.32l-17.22 10.18 17.22 10.18M785.75 1178.5v-155" stroke="#000" fill="none"/>
        <path d="M786.25 1179h-1v-.5h1z" stroke="#000" stroke-width=".05"/>
        <path d="M785.75 1001.48l12.73 21.52h-25.45z" stroke="#000" fill="none"/>
        <path d="M700 385v55H260v83.12" stroke="#000" fill="none"/>
        <path d="M700.5 385h-1v-.5h1z" stroke="#000" stroke-width=".05"/>
        <path d="M260 537.88l-4.63-14.26h9.26z" stroke="#000"/>
        <path d="M460-159.78h336l24 24v96H460z" fill-opacity="0"/>
        <path d="M480.36-159.78h20.37m10.18 0h20.37m10.2 0h20.35m10.18 0h20.36m10.18 0h20.37m10.2 0h20.36m10.18 0H684m10.18 0h20.37m10.18 0h20.36m10.17 0h20.37m10.18 0H796l8 8m8 8l8 8v10.66m0 10.67v21.33m0 10.67v21.33m0 10.67v10.67h-10m-10 0h-20m-10 0h-20m-10 0h-20m-10 0h-20m-10 0h-20m-10 0h-20m-10 0h-20m-10 0h-20m-10 0h-20m-10 0h-20m-10 0h-20m-10 0h-10v-10m0-10v-20m0-10v-20m0-10v-20m0-10v-10h10.18"
              stroke="#000" fill="none"/>
        <path d="M796-159.3v23.52h23.52" fill-opacity="0"/>
        <path d="M796-159.3v7.83m0 7.84v7.85h7.84m7.84 0h7.84" stroke="#000" fill="none"/>
        <g>
            <use xlink:href="#H" transform="matrix(1,0,0,1,465,-154.78449819741093) translate(0 59.02777777777778)"/>
            <use xlink:href="#I"
                 transform="matrix(1,0,0,1,465,-154.78449819741093) translate(41.7283950617284 59.02777777777778)"/>
            <use xlink:href="#J"
                 transform="matrix(1,0,0,1,465,-154.78449819741093) translate(72.5925925925926 59.02777777777778)"/>
            <use xlink:href="#K"
                 transform="matrix(1,0,0,1,465,-154.78449819741093) translate(182.28395061728395 59.02777777777778)"/>
            <use xlink:href="#L"
                 transform="matrix(1,0,0,1,465,-154.78449819741093) translate(211.91358024691357 59.02777777777778)"/>
            <use xlink:href="#M"
                 transform="matrix(1,0,0,1,465,-154.78449819741093) translate(248.9506172839506 59.02777777777778)"/>
            <use xlink:href="#N"
                 transform="matrix(1,0,0,1,465,-154.78449819741093) translate(290.9259259259259 59.02777777777778)"/>
        </g>
        <g fill="none">
            <path d="M620.56-39.38a.25.25 0 0 1 .32.15l68 184.17a.25.25 0 0 1-.16.32.25.25 0 0 1-.32-.15l-68-184.16a.25.25 0 0 1 .16-.32z"/>
            <path d="M627.35-21.7l6.48 17.55m3.24 8.77l6.47 17.54m3.24 8.77l6.48 17.54m3.23 8.77l6.47 17.54m3.24 8.77l6.48 17.54m3.24 8.76l6.48 17.54m3.23 8.77l3.24 8.77v.03l.02.04v.05l-.02.04v.03l-.03.03-.03.03-.03.02-.04.02-.04.02h-.19l-.03-.03-.03-.02-.03-.02-.02-.04-.02-.03-3.23-8.76m-3.24-8.77l-6.48-17.54m-3.24-8.77l-6.46-17.54m-3.24-8.77l-6.48-17.54m-3.23-8.76l-6.5-17.54m-3.23-8.77L636.6 4.8M633.36-4l-6.48-17.54m-3.23-8.77l-3.24-8.76v-.19l.03-.03.03-.03.03-.04.02-.02.04-.02h.19l.03.03.03.02.04.03.02.04.02.03 3.23 8.77"
                  stroke="#000" stroke-width=".5"/>
        </g>
        <g fill="none">
            <path d="M274-59.92a.25.25 0 0 1 .2-.27l185.22-19.5a.25.25 0 0 1 .28.22.25.25 0 0 1-.22.28l-185.2 19.5a.25.25 0 0 1-.3-.22z"/>
            <path d="M294.8-62.36l20.57-2.17m10.3-1.08l20.57-2.18m10.3-1.08l20.57-2.17m10.3-1.08l20.58-2.18m10.3-1.08l20.57-2.17m10.28-1.08l10.3-1.1h.07l.04.02h.04l.03.04.04.02.02.03.02.05v.04l.02.02v.08l-.02.04v.03l-.04.04-.02.04-.03.02-.05.02h-.03l-.04.02-10.3 1.08m-10.28 1.1l-20.58 2.15m-10.3 1.1l-20.57 2.16m-10.3 1.07l-20.57 2.17m-10.3 1.08l-20.57 2.17m-10.28 1.07l-20.58 2.17m-10.3 1.08l-10.27 1.1h-.04l-.04-.02h-.05l-.04-.03-.02-.02-.03-.02-.02-.04-.02-.04v-.18l.02-.04.02-.03.03-.03.03-.02.04-.02h.03l.04-.02 10.3-1.07"
                  stroke="#000" stroke-width=".5"/>
        </g>
        <path d="M190 78.06v10.27m0 10.27v20.54m0 10.27v20.55m0 10.27v20.54m0 10.27v20.54m0 10.27v20.54m0 10.27V270h3.2m10.26 0H224m10.27 0h20.54m10.28 0h20.54m10.27 0h20.53m10.27 0h20.54m10.27 0h20.55m10.27 0h10.27"
              stroke="#000" fill="none"/>
        <path d="M190.5 78.07h-1v-.5h1z" stroke="#000" stroke-width=".05"/>
        <path d="M381.3 280.18L398.52 270l-17.22-10.18M700 385v9.85m0 9.86v19.72m0 9.85v19.7m-3.84 6.03h-19.7m-9.86 0h-19.7m-9.86 0h-19.7m-9.87 0h-19.7m-9.86 0h-19.7m-9.86 0h-19.7m-8.64 1.22v19.7m0 9.86v19.7m0 9.87v19.7m0 9.86v19.72m0 9.85v19.7m0 9.87v19.7m0 9.86v19.7m0 9.86v19.7m0 9.87v19.7m0 9.86V747m0 9.86v19.7m0 9.86v19.7m0 9.86v19.7m0 9.87v19.7m0 9.86v19.72m0 9.85v.83h-18.88m-9.86 0h-9.85"
              stroke="#000" fill="none"/>
        <path d="M700.5 385h-1v-.5h1z" stroke="#000" stroke-width=".05"/>
        <path d="M498.7 895.32l-17.22 10.18 17.22 10.18" stroke="#000" fill="none"/>
        <defs>
            <path d="M67-125c0 53 21 87 73 88 37 1 54-22 65-47l45 17C233-25 199 4 140 4 58 4 20-42 15-125 8-235 124-281 211-232c18 10 29 29 36 50l-46 12c-8-25-30-41-62-41-52 0-71 34-72 86"
                  id="O"/>
            <path d="M25 0v-261h50V0H25" id="P"/>
            <path d="M25-224v-37h50v37H25zM25 0v-190h50V0H25" id="Q"/>
            <path d="M185-48c-13 30-37 53-82 52C43 2 14-33 14-96s30-98 90-98c62 0 83 45 84 108H66c0 31 8 55 39 56 18 0 30-7 34-22zm-45-69c5-46-57-63-70-21-2 6-4 13-4 21h74"
                  id="R"/>
            <path d="M135-194c87-1 58 113 63 194h-50c-7-57 23-157-34-157-59 0-34 97-39 157H25l-1-190h47c2 12-1 28 3 38 12-26 28-41 61-42"
                  id="S"/>
            <path d="M115-3C79 11 28 4 28-45v-112H4v-33h27l15-45h31v45h36v33H77v99c-1 23 16 31 38 25v30" id="T"/>
            <g id="a">
                <use transform="matrix(0.06172839506172839,0,0,0.06172839506172839,0,0)" xlink:href="#O"/>
                <use transform="matrix(0.06172839506172839,0,0,0.06172839506172839,15.987654320987653,0)"
                     xlink:href="#P"/>
                <use transform="matrix(0.06172839506172839,0,0,0.06172839506172839,22.160493827160494,0)"
                     xlink:href="#Q"/>
                <use transform="matrix(0.06172839506172839,0,0,0.06172839506172839,28.333333333333332,0)"
                     xlink:href="#R"/>
                <use transform="matrix(0.06172839506172839,0,0,0.06172839506172839,40.67901234567901,0)"
                     xlink:href="#S"/>
                <use transform="matrix(0.06172839506172839,0,0,0.06172839506172839,54.19753086419753,0)"
                     xlink:href="#T"/>
            </g>
            <path d="M24 0v-248h52v208h133V0H24" id="U"/>
            <path d="M133-34C117-15 103 5 69 4 32 3 11-16 11-54c-1-60 55-63 116-61 1-26-3-47-28-47-18 1-26 9-28 27l-52-2c7-38 36-58 82-57s74 22 75 68l1 82c-1 14 12 18 25 15v27c-30 8-71 5-69-32zm-48 3c29 0 43-24 42-57-32 0-66-3-65 30 0 17 8 27 23 27"
                  id="V"/>
            <path d="M123 10C108 53 80 86 19 72V37c35 8 53-11 59-39L3-190h52l48 148c12-52 28-100 44-148h51" id="W"/>
            <path d="M135-150c-39-12-60 13-60 57V0H25l-1-190h47c2 13-1 29 3 40 6-28 27-53 61-41v41" id="X"/>
            <g id="b">
                <use transform="matrix(0.06172839506172839,0,0,0.06172839506172839,0,0)" xlink:href="#U"/>
                <use transform="matrix(0.06172839506172839,0,0,0.06172839506172839,13.518518518518517,0)"
                     xlink:href="#V"/>
                <use transform="matrix(0.06172839506172839,0,0,0.06172839506172839,25.864197530864196,0)"
                     xlink:href="#W"/>
                <use transform="matrix(0.06172839506172839,0,0,0.06172839506172839,38.20987654320987,0)"
                     xlink:href="#R"/>
                <use transform="matrix(0.06172839506172839,0,0,0.06172839506172839,50.55555555555555,0)"
                     xlink:href="#X"/>
            </g>
            <path d="M199 0l-22-63H83L61 0H9l90-248h61L250 0h-51zm-33-102l-36-108c-10 38-24 72-36 108h72" id="Y"/>
            <path d="M135-194c53 0 70 44 70 98 0 56-19 98-73 100-31 1-45-17-59-34 3 33 2 69 2 105H25l-1-265h48c2 10 0 23 3 31 11-24 29-35 60-35zM114-30c33 0 39-31 40-66 0-38-9-64-40-64-56 0-55 130 0 130"
                  id="Z"/>
            <path d="M190-63c-7 42-38 67-86 67-59 0-84-38-90-98-12-110 154-137 174-36l-49 2c-2-19-15-32-35-32-30 0-35 28-38 64-6 74 65 87 74 30"
                  id="aa"/>
            <path d="M110-194c64 0 96 36 96 99 0 64-35 99-97 99-61 0-95-36-95-99 0-62 34-99 96-99zm-1 164c35 0 45-28 45-65 0-40-10-65-43-65-34 0-45 26-45 65 0 36 10 65 43 65"
                  id="ab"/>
            <g id="c">
                <use transform="matrix(0.06172839506172839,0,0,0.06172839506172839,0,0)" xlink:href="#Y"/>
                <use transform="matrix(0.06172839506172839,0,0,0.06172839506172839,15.987654320987653,0)"
                     xlink:href="#Z"/>
                <use transform="matrix(0.06172839506172839,0,0,0.06172839506172839,29.50617283950617,0)"
                     xlink:href="#Z"/>
                <use transform="matrix(0.06172839506172839,0,0,0.06172839506172839,43.02469135802469,0)"
                     xlink:href="#P"/>
                <use transform="matrix(0.06172839506172839,0,0,0.06172839506172839,49.19753086419753,0)"
                     xlink:href="#Q"/>
                <use transform="matrix(0.06172839506172839,0,0,0.06172839506172839,55.370370370370374,0)"
                     xlink:href="#aa"/>
                <use transform="matrix(0.06172839506172839,0,0,0.06172839506172839,67.71604938271605,0)"
                     xlink:href="#V"/>
                <use transform="matrix(0.06172839506172839,0,0,0.06172839506172839,80.06172839506173,0)"
                     xlink:href="#T"/>
                <use transform="matrix(0.06172839506172839,0,0,0.06172839506172839,87.40740740740742,0)"
                     xlink:href="#Q"/>
                <use transform="matrix(0.06172839506172839,0,0,0.06172839506172839,93.58024691358025,0)"
                     xlink:href="#ab"/>
                <use transform="matrix(0.06172839506172839,0,0,0.06172839506172839,107.09876543209877,0)"
                     xlink:href="#S"/>
            </g>
            <path d="M24-248c120-7 223 5 221 122C244-46 201 0 124 0H24v-248zM76-40c74 7 117-18 117-86 0-67-45-88-117-82v168"
                  id="ac"/>
            <path d="M220-157c-53 9-28 100-34 157h-49v-107c1-27-5-49-29-50C55-147 81-57 75 0H25l-1-190h47c2 12-1 28 3 38 10-53 101-56 108 0 13-22 24-43 59-42 82 1 51 116 57 194h-49v-107c-1-25-5-48-29-50"
                  id="ad"/>
            <g id="d">
                <use transform="matrix(0.06172839506172839,0,0,0.06172839506172839,0,0)" xlink:href="#ac"/>
                <use transform="matrix(0.06172839506172839,0,0,0.06172839506172839,15.987654320987653,0)"
                     xlink:href="#ab"/>
                <use transform="matrix(0.06172839506172839,0,0,0.06172839506172839,29.50617283950617,0)"
                     xlink:href="#ad"/>
                <use transform="matrix(0.06172839506172839,0,0,0.06172839506172839,49.25925925925925,0)"
                     xlink:href="#V"/>
                <use transform="matrix(0.06172839506172839,0,0,0.06172839506172839,61.60493827160493,0)"
                     xlink:href="#Q"/>
                <use transform="matrix(0.06172839506172839,0,0,0.06172839506172839,67.77777777777777,0)"
                     xlink:href="#S"/>
            </g>
            <g id="e">
                <use transform="matrix(0.06172839506172839,0,0,0.06172839506172839,0,0)" xlink:href="#U"/>
                <use transform="matrix(0.06172839506172839,0,0,0.06172839506172839,13.518518518518517,0)"
                     xlink:href="#V"/>
                <use transform="matrix(0.06172839506172839,0,0,0.06172839506172839,25.864197530864196,0)"
                     xlink:href="#W"/>
                <use transform="matrix(0.06172839506172839,0,0,0.06172839506172839,38.20987654320987,0)"
                     xlink:href="#R"/>
                <use transform="matrix(0.06172839506172839,0,0,0.06172839506172839,50.55555555555555,0)"
                     xlink:href="#X"/>
            </g>
            <path d="M24 0v-248h52V0H24" id="ae"/>
            <path d="M121-226c-27-7-43 5-38 36h38v33H83V0H34v-157H6v-33h28c-9-59 32-81 87-68v32" id="af"/>
            <path d="M137-138c1-29-70-34-71-4 15 46 118 7 119 86 1 83-164 76-172 9l43-7c4 19 20 25 44 25 33 8 57-30 24-41C81-84 22-81 20-136c-2-80 154-74 161-7"
                  id="ag"/>
            <path d="M85 4C-2 5 27-109 22-190h50c7 57-23 150 33 157 60-5 35-97 40-157h50l1 190h-47c-2-12 1-28-3-38-12 25-28 42-61 42"
                  id="ah"/>
            <g id="f">
                <use transform="matrix(0.06172839506172839,0,0,0.06172839506172839,0,0)" xlink:href="#ae"/>
                <use transform="matrix(0.06172839506172839,0,0,0.06172839506172839,6.172839506172839,0)"
                     xlink:href="#S"/>
                <use transform="matrix(0.06172839506172839,0,0,0.06172839506172839,19.691358024691358,0)"
                     xlink:href="#af"/>
                <use transform="matrix(0.06172839506172839,0,0,0.06172839506172839,27.037037037037038,0)"
                     xlink:href="#X"/>
                <use transform="matrix(0.06172839506172839,0,0,0.06172839506172839,35.67901234567901,0)"
                     xlink:href="#V"/>
                <use transform="matrix(0.06172839506172839,0,0,0.06172839506172839,48.02469135802469,0)"
                     xlink:href="#ag"/>
                <use transform="matrix(0.06172839506172839,0,0,0.06172839506172839,60.37037037037037,0)"
                     xlink:href="#T"/>
                <use transform="matrix(0.06172839506172839,0,0,0.06172839506172839,67.71604938271605,0)"
                     xlink:href="#X"/>
                <use transform="matrix(0.06172839506172839,0,0,0.06172839506172839,76.35802469135803,0)"
                     xlink:href="#ah"/>
                <use transform="matrix(0.06172839506172839,0,0,0.06172839506172839,89.87654320987654,0)"
                     xlink:href="#aa"/>
                <use transform="matrix(0.06172839506172839,0,0,0.06172839506172839,102.22222222222223,0)"
                     xlink:href="#T"/>
                <use transform="matrix(0.06172839506172839,0,0,0.06172839506172839,109.56790123456791,0)"
                     xlink:href="#ah"/>
                <use transform="matrix(0.06172839506172839,0,0,0.06172839506172839,123.08641975308643,0)"
                     xlink:href="#X"/>
                <use transform="matrix(0.06172839506172839,0,0,0.06172839506172839,131.7283950617284,0)"
                     xlink:href="#R"/>
            </g>
            <path d="M30-248c87 1 191-15 191 75 0 78-77 80-158 76V0H30v-248zm33 125c57 0 124 11 124-50 0-59-68-47-124-48v98"
                  id="ai"/>
            <path d="M141-36C126-15 110 5 73 4 37 3 15-17 15-53c-1-64 63-63 125-63 3-35-9-54-41-54-24 1-41 7-42 31l-33-3c5-37 33-52 76-52 45 0 72 20 72 64v82c-1 20 7 32 28 27v20c-31 9-61-2-59-35zM48-53c0 20 12 33 32 33 41-3 63-29 60-74-43 2-92-5-92 41"
                  id="aj"/>
            <path d="M179-190L93 31C79 59 56 82 12 73V49c39 6 53-20 64-50L1-190h34L92-34l54-156h33" id="ak"/>
            <path d="M114-163C36-179 61-72 57 0H25l-1-190h30c1 12-1 29 2 39 6-27 23-49 58-41v29" id="al"/>
            <path d="M100-194c62-1 85 37 85 99 1 63-27 99-86 99S16-35 15-95c0-66 28-99 85-99zM99-20c44 1 53-31 53-75 0-43-8-75-51-75s-53 32-53 75 10 74 51 75"
                  id="am"/>
            <path d="M24 0v-261h32V0H24" id="an"/>
            <g id="g">
                <use transform="matrix(0.06172839506172839,0,0,0.06172839506172839,0,0)" xlink:href="#ai"/>
                <use transform="matrix(0.06172839506172839,0,0,0.06172839506172839,14.814814814814813,0)"
                     xlink:href="#aj"/>
                <use transform="matrix(0.06172839506172839,0,0,0.06172839506172839,27.160493827160494,0)"
                     xlink:href="#ak"/>
                <use transform="matrix(0.06172839506172839,0,0,0.06172839506172839,38.27160493827161,0)"
                     xlink:href="#al"/>
                <use transform="matrix(0.06172839506172839,0,0,0.06172839506172839,45.617283950617285,0)"
                     xlink:href="#am"/>
                <use transform="matrix(0.06172839506172839,0,0,0.06172839506172839,57.96296296296296,0)"
                     xlink:href="#an"/>
                <use transform="matrix(0.06172839506172839,0,0,0.06172839506172839,62.839506172839506,0)"
                     xlink:href="#an"/>
            </g>
            <path d="M118-107v75H92v-75H18v-26h74v-75h26v75h74v26h-74" id="ao"/>
            <use transform="matrix(0.06172839506172839,0,0,0.06172839506172839,0,0)" xlink:href="#ao" id="h"/>
            <path d="M85-194c31 0 48 13 60 33l-1-100h32l1 261h-30c-2-10 0-23-3-31C134-8 116 4 85 4 32 4 16-35 15-94c0-66 23-100 70-100zm9 24c-40 0-46 34-46 75 0 40 6 74 45 74 42 0 51-32 51-76 0-42-9-74-50-73"
                  id="ap"/>
            <path d="M30 0v-248h187v28H63v79h144v27H63v87h162V0H30" id="aq"/>
            <path d="M210-169c-67 3-38 105-44 169h-31v-121c0-29-5-50-35-48C34-165 62-65 56 0H25l-1-190h30c1 10-1 24 2 32 10-44 99-50 107 0 11-21 27-35 58-36 85-2 47 119 55 194h-31v-121c0-29-5-49-35-48"
                  id="ar"/>
            <path d="M115-194c55 1 70 41 70 98S169 2 115 4C84 4 66-9 55-30l1 105H24l-1-265h31l2 30c10-21 28-34 59-34zm-8 174c40 0 45-34 45-75s-6-73-45-74c-42 0-51 32-51 76 0 43 10 73 51 73"
                  id="as"/>
            <path d="M100-194c63 0 86 42 84 106H49c0 40 14 67 53 68 26 1 43-12 49-29l28 8c-11 28-37 45-77 45C44 4 14-33 15-96c1-61 26-98 85-98zm52 81c6-60-76-77-97-28-3 7-6 17-6 28h103"
                  id="at"/>
            <path d="M87 75C49 33 22-17 22-94c0-76 28-126 65-167h31c-38 41-64 92-64 168S80 34 118 75H87" id="au"/>
            <path d="M33-154v-36h34v36H33zM33 0v-36h34V0H33" id="av"/>
            <g id="i">
                <use transform="matrix(0.06172839506172839,0,0,0.06172839506172839,0,0)" xlink:href="#aj"/>
                <use transform="matrix(0.06172839506172839,0,0,0.06172839506172839,12.345679012345679,0)"
                     xlink:href="#ap"/>
                <use transform="matrix(0.06172839506172839,0,0,0.06172839506172839,24.691358024691358,0)"
                     xlink:href="#ap"/>
                <use transform="matrix(0.06172839506172839,0,0,0.06172839506172839,37.03703703703704,0)"
                     xlink:href="#aq"/>
                <use transform="matrix(0.06172839506172839,0,0,0.06172839506172839,51.85185185185185,0)"
                     xlink:href="#ar"/>
                <use transform="matrix(0.06172839506172839,0,0,0.06172839506172839,70.30864197530863,0)"
                     xlink:href="#as"/>
                <use transform="matrix(0.06172839506172839,0,0,0.06172839506172839,82.65432098765432,0)"
                     xlink:href="#an"/>
                <use transform="matrix(0.06172839506172839,0,0,0.06172839506172839,87.53086419753086,0)"
                     xlink:href="#am"/>
                <use transform="matrix(0.06172839506172839,0,0,0.06172839506172839,99.87654320987654,0)"
                     xlink:href="#ak"/>
                <use transform="matrix(0.06172839506172839,0,0,0.06172839506172839,110.98765432098766,0)"
                     xlink:href="#at"/>
                <use transform="matrix(0.06172839506172839,0,0,0.06172839506172839,123.33333333333334,0)"
                     xlink:href="#at"/>
                <use transform="matrix(0.06172839506172839,0,0,0.06172839506172839,135.679012345679,0)"
                     xlink:href="#au"/>
                <use transform="matrix(0.06172839506172839,0,0,0.06172839506172839,143.02469135802468,0)"
                     xlink:href="#at"/>
                <use transform="matrix(0.06172839506172839,0,0,0.06172839506172839,155.37037037037035,0)"
                     xlink:href="#ar"/>
                <use transform="matrix(0.06172839506172839,0,0,0.06172839506172839,173.82716049382714,0)"
                     xlink:href="#as"/>
                <use transform="matrix(0.06172839506172839,0,0,0.06172839506172839,186.1728395061728,0)"
                     xlink:href="#an"/>
                <use transform="matrix(0.06172839506172839,0,0,0.06172839506172839,191.04938271604934,0)"
                     xlink:href="#am"/>
                <use transform="matrix(0.06172839506172839,0,0,0.06172839506172839,203.395061728395,0)"
                     xlink:href="#ak"/>
                <use transform="matrix(0.06172839506172839,0,0,0.06172839506172839,214.50617283950612,0)"
                     xlink:href="#at"/>
                <use transform="matrix(0.06172839506172839,0,0,0.06172839506172839,226.8518518518518,0)"
                     xlink:href="#at"/>
                <use transform="matrix(0.06172839506172839,0,0,0.06172839506172839,239.19753086419746,0)"
                     xlink:href="#av"/>
            </g>
            <path d="M33-261c38 41 65 92 65 168S71 34 33 75H2C39 34 66-17 66-93S39-220 2-261h31" id="aw"/>
            <g id="j">
                <use transform="matrix(0.06172839506172839,0,0,0.06172839506172839,0,0)" xlink:href="#aq"/>
                <use transform="matrix(0.06172839506172839,0,0,0.06172839506172839,14.814814814814813,0)"
                     xlink:href="#ar"/>
                <use transform="matrix(0.06172839506172839,0,0,0.06172839506172839,33.2716049382716,0)"
                     xlink:href="#as"/>
                <use transform="matrix(0.06172839506172839,0,0,0.06172839506172839,45.61728395061728,0)"
                     xlink:href="#an"/>
                <use transform="matrix(0.06172839506172839,0,0,0.06172839506172839,50.49382716049382,0)"
                     xlink:href="#am"/>
                <use transform="matrix(0.06172839506172839,0,0,0.06172839506172839,62.8395061728395,0)"
                     xlink:href="#ak"/>
                <use transform="matrix(0.06172839506172839,0,0,0.06172839506172839,73.9506172839506,0)"
                     xlink:href="#at"/>
                <use transform="matrix(0.06172839506172839,0,0,0.06172839506172839,86.29629629629629,0)"
                     xlink:href="#at"/>
                <use transform="matrix(0.06172839506172839,0,0,0.06172839506172839,98.64197530864197,0)"
                     xlink:href="#aw"/>
            </g>
            <path d="M212-179c-10-28-35-45-73-45-59 0-87 40-87 99 0 60 29 101 89 101 43 0 62-24 78-52l27 14C228-24 195 4 139 4 59 4 22-46 18-125c-6-104 99-153 187-111 19 9 31 26 39 46"
                  id="ax"/>
            <path d="M117-194c89-4 53 116 60 194h-32v-121c0-31-8-49-39-48C34-167 62-67 57 0H25l-1-190h30c1 10-1 24 2 32 11-22 29-35 61-36"
                  id="ay"/>
            <path d="M59-47c-2 24 18 29 38 22v24C64 9 27 4 27-40v-127H5v-23h24l9-43h21v43h35v23H59v120" id="az"/>
            <g id="k">
                <use transform="matrix(0.06172839506172839,0,0,0.06172839506172839,0,0)" xlink:href="#aq"/>
                <use transform="matrix(0.06172839506172839,0,0,0.06172839506172839,14.814814814814813,0)"
                     xlink:href="#ar"/>
                <use transform="matrix(0.06172839506172839,0,0,0.06172839506172839,33.2716049382716,0)"
                     xlink:href="#as"/>
                <use transform="matrix(0.06172839506172839,0,0,0.06172839506172839,45.61728395061728,0)"
                     xlink:href="#an"/>
                <use transform="matrix(0.06172839506172839,0,0,0.06172839506172839,50.49382716049382,0)"
                     xlink:href="#am"/>
                <use transform="matrix(0.06172839506172839,0,0,0.06172839506172839,62.8395061728395,0)"
                     xlink:href="#ak"/>
                <use transform="matrix(0.06172839506172839,0,0,0.06172839506172839,73.9506172839506,0)"
                     xlink:href="#at"/>
                <use transform="matrix(0.06172839506172839,0,0,0.06172839506172839,86.29629629629629,0)"
                     xlink:href="#at"/>
                <use transform="matrix(0.06172839506172839,0,0,0.06172839506172839,98.64197530864197,0)"
                     xlink:href="#ax"/>
                <use transform="matrix(0.06172839506172839,0,0,0.06172839506172839,114.62962962962963,0)"
                     xlink:href="#am"/>
                <use transform="matrix(0.06172839506172839,0,0,0.06172839506172839,126.97530864197533,0)"
                     xlink:href="#ay"/>
                <use transform="matrix(0.06172839506172839,0,0,0.06172839506172839,139.320987654321,0)"
                     xlink:href="#az"/>
                <use transform="matrix(0.06172839506172839,0,0,0.06172839506172839,145.49382716049382,0)"
                     xlink:href="#al"/>
                <use transform="matrix(0.06172839506172839,0,0,0.06172839506172839,152.8395061728395,0)"
                     xlink:href="#am"/>
                <use transform="matrix(0.06172839506172839,0,0,0.06172839506172839,165.18518518518516,0)"
                     xlink:href="#an"/>
                <use transform="matrix(0.06172839506172839,0,0,0.06172839506172839,170.0617283950617,0)"
                     xlink:href="#an"/>
                <use transform="matrix(0.06172839506172839,0,0,0.06172839506172839,174.93827160493822,0)"
                     xlink:href="#at"/>
                <use transform="matrix(0.06172839506172839,0,0,0.06172839506172839,187.2839506172839,0)"
                     xlink:href="#al"/>
            </g>
            <path d="M33 0v-248h34V0H33" id="aA"/>
            <g id="l">
                <use transform="matrix(0.06172839506172839,0,0,0.06172839506172839,0,0)" xlink:href="#aj"/>
                <use transform="matrix(0.06172839506172839,0,0,0.06172839506172839,12.345679012345679,0)"
                     xlink:href="#ap"/>
                <use transform="matrix(0.06172839506172839,0,0,0.06172839506172839,24.691358024691358,0)"
                     xlink:href="#ap"/>
                <use transform="matrix(0.06172839506172839,0,0,0.06172839506172839,37.03703703703704,0)"
                     xlink:href="#aq"/>
                <use transform="matrix(0.06172839506172839,0,0,0.06172839506172839,51.85185185185185,0)"
                     xlink:href="#ar"/>
                <use transform="matrix(0.06172839506172839,0,0,0.06172839506172839,70.30864197530863,0)"
                     xlink:href="#as"/>
                <use transform="matrix(0.06172839506172839,0,0,0.06172839506172839,82.65432098765432,0)"
                     xlink:href="#au"/>
                <use transform="matrix(0.06172839506172839,0,0,0.06172839506172839,90,0)" xlink:href="#at"/>
                <use transform="matrix(0.06172839506172839,0,0,0.06172839506172839,102.34567901234568,0)"
                     xlink:href="#ar"/>
                <use transform="matrix(0.06172839506172839,0,0,0.06172839506172839,120.80246913580247,0)"
                     xlink:href="#as"/>
                <use transform="matrix(0.06172839506172839,0,0,0.06172839506172839,133.14814814814815,0)"
                     xlink:href="#aA"/>
                <use transform="matrix(0.06172839506172839,0,0,0.06172839506172839,139.320987654321,0)"
                     xlink:href="#ap"/>
                <use transform="matrix(0.06172839506172839,0,0,0.06172839506172839,151.66666666666666,0)"
                     xlink:href="#av"/>
            </g>
            <path d="M135-143c-3-34-86-38-87 0 15 53 115 12 119 90S17 21 10-45l28-5c4 36 97 45 98 0-10-56-113-15-118-90-4-57 82-63 122-42 12 7 21 19 24 35"
                  id="aB"/>
            <path d="M24-231v-30h32v30H24zM24 0v-190h32V0H24" id="aC"/>
            <path d="M177-190C167-65 218 103 67 71c-23-6-38-20-44-43l32-5c15 47 100 32 89-28v-30C133-14 115 1 83 1 29 1 15-40 15-95c0-56 16-97 71-98 29-1 48 16 59 35 1-10 0-23 2-32h30zM94-22c36 0 50-32 50-73 0-42-14-75-50-75-39 0-46 34-46 75s6 73 46 73"
                  id="aD"/>
            <path d="M68-38c1 34 0 65-14 84H32c9-13 17-26 17-46H33v-38h35" id="aE"/>
            <g id="m">
                <use transform="matrix(0.06172839506172839,0,0,0.06172839506172839,0,0)" xlink:href="#aB"/>
                <use transform="matrix(0.06172839506172839,0,0,0.06172839506172839,11.11111111111111,0)"
                     xlink:href="#az"/>
                <use transform="matrix(0.06172839506172839,0,0,0.06172839506172839,17.28395061728395,0)"
                     xlink:href="#al"/>
                <use transform="matrix(0.06172839506172839,0,0,0.06172839506172839,24.629629629629626,0)"
                     xlink:href="#aC"/>
                <use transform="matrix(0.06172839506172839,0,0,0.06172839506172839,29.50617283950617,0)"
                     xlink:href="#ay"/>
                <use transform="matrix(0.06172839506172839,0,0,0.06172839506172839,41.85185185185185,0)"
                     xlink:href="#aD"/>
                <use transform="matrix(0.06172839506172839,0,0,0.06172839506172839,54.197530864197525,0)"
                     xlink:href="#aE"/>
            </g>
            <g id="n">
                <use transform="matrix(0.06172839506172839,0,0,0.06172839506172839,0,0)" xlink:href="#ay"/>
                <use transform="matrix(0.06172839506172839,0,0,0.06172839506172839,12.345679012345679,0)"
                     xlink:href="#aj"/>
                <use transform="matrix(0.06172839506172839,0,0,0.06172839506172839,24.691358024691358,0)"
                     xlink:href="#ar"/>
                <use transform="matrix(0.06172839506172839,0,0,0.06172839506172839,43.148148148148145,0)"
                     xlink:href="#at"/>
                <use transform="matrix(0.06172839506172839,0,0,0.06172839506172839,55.49382716049382,0)"
                     xlink:href="#av"/>
            </g>
            <g id="o">
                <use transform="matrix(0.06172839506172839,0,0,0.06172839506172839,0,0)" xlink:href="#aB"/>
                <use transform="matrix(0.06172839506172839,0,0,0.06172839506172839,11.11111111111111,0)"
                     xlink:href="#az"/>
                <use transform="matrix(0.06172839506172839,0,0,0.06172839506172839,17.28395061728395,0)"
                     xlink:href="#al"/>
                <use transform="matrix(0.06172839506172839,0,0,0.06172839506172839,24.629629629629626,0)"
                     xlink:href="#aC"/>
                <use transform="matrix(0.06172839506172839,0,0,0.06172839506172839,29.50617283950617,0)"
                     xlink:href="#ay"/>
                <use transform="matrix(0.06172839506172839,0,0,0.06172839506172839,41.85185185185185,0)"
                     xlink:href="#aD"/>
                <use transform="matrix(0.06172839506172839,0,0,0.06172839506172839,54.197530864197525,0)"
                     xlink:href="#aE"/>
            </g>
            <g id="p">
                <use transform="matrix(0.06172839506172839,0,0,0.06172839506172839,0,0)" xlink:href="#aj"/>
                <use transform="matrix(0.06172839506172839,0,0,0.06172839506172839,12.345679012345679,0)"
                     xlink:href="#ap"/>
                <use transform="matrix(0.06172839506172839,0,0,0.06172839506172839,24.691358024691358,0)"
                     xlink:href="#ap"/>
                <use transform="matrix(0.06172839506172839,0,0,0.06172839506172839,37.03703703703704,0)"
                     xlink:href="#al"/>
                <use transform="matrix(0.06172839506172839,0,0,0.06172839506172839,44.382716049382715,0)"
                     xlink:href="#at"/>
                <use transform="matrix(0.06172839506172839,0,0,0.06172839506172839,56.72839506172839,0)"
                     xlink:href="#aB"/>
                <use transform="matrix(0.06172839506172839,0,0,0.06172839506172839,67.8395061728395,0)"
                     xlink:href="#aB"/>
                <use transform="matrix(0.06172839506172839,0,0,0.06172839506172839,78.95061728395062,0)"
                     xlink:href="#av"/>
            </g>
            <path d="M127-220V0H93v-220H8v-28h204v28h-85" id="aF"/>
            <g id="q">
                <use transform="matrix(0.06172839506172839,0,0,0.06172839506172839,0,0)" xlink:href="#aB"/>
                <use transform="matrix(0.06172839506172839,0,0,0.06172839506172839,11.11111111111111,0)"
                     xlink:href="#aj"/>
                <use transform="matrix(0.06172839506172839,0,0,0.06172839506172839,23.45679012345679,0)"
                     xlink:href="#an"/>
                <use transform="matrix(0.06172839506172839,0,0,0.06172839506172839,28.333333333333336,0)"
                     xlink:href="#aj"/>
                <use transform="matrix(0.06172839506172839,0,0,0.06172839506172839,40.67901234567901,0)"
                     xlink:href="#al"/>
                <use transform="matrix(0.06172839506172839,0,0,0.06172839506172839,48.02469135802469,0)"
                     xlink:href="#ak"/>
                <use transform="matrix(0.06172839506172839,0,0,0.06172839506172839,59.1358024691358,0)"
                     xlink:href="#aF"/>
                <use transform="matrix(0.06172839506172839,0,0,0.06172839506172839,71.41975308641975,0)"
                     xlink:href="#ak"/>
                <use transform="matrix(0.06172839506172839,0,0,0.06172839506172839,82.53086419753086,0)"
                     xlink:href="#as"/>
                <use transform="matrix(0.06172839506172839,0,0,0.06172839506172839,94.87654320987654,0)"
                     xlink:href="#at"/>
                <use transform="matrix(0.06172839506172839,0,0,0.06172839506172839,107.22222222222223,0)"
                     xlink:href="#av"/>
            </g>
            <g id="r">
                <use transform="matrix(0.06172839506172839,0,0,0.06172839506172839,0,0)" xlink:href="#aB"/>
                <use transform="matrix(0.06172839506172839,0,0,0.06172839506172839,11.11111111111111,0)"
                     xlink:href="#az"/>
                <use transform="matrix(0.06172839506172839,0,0,0.06172839506172839,17.28395061728395,0)"
                     xlink:href="#al"/>
                <use transform="matrix(0.06172839506172839,0,0,0.06172839506172839,24.629629629629626,0)"
                     xlink:href="#aC"/>
                <use transform="matrix(0.06172839506172839,0,0,0.06172839506172839,29.50617283950617,0)"
                     xlink:href="#ay"/>
                <use transform="matrix(0.06172839506172839,0,0,0.06172839506172839,41.85185185185185,0)"
                     xlink:href="#aD"/>
                <use transform="matrix(0.06172839506172839,0,0,0.06172839506172839,54.197530864197525,0)"
                     xlink:href="#aE"/>
            </g>
            <g id="s">
                <use transform="matrix(0.06172839506172839,0,0,0.06172839506172839,0,0)" xlink:href="#al"/>
                <use transform="matrix(0.06172839506172839,0,0,0.06172839506172839,7.345679012345679,0)"
                     xlink:href="#aj"/>
                <use transform="matrix(0.06172839506172839,0,0,0.06172839506172839,19.691358024691358,0)"
                     xlink:href="#az"/>
                <use transform="matrix(0.06172839506172839,0,0,0.06172839506172839,25.864197530864196,0)"
                     xlink:href="#at"/>
                <use transform="matrix(0.06172839506172839,0,0,0.06172839506172839,38.20987654320987,0)"
                     xlink:href="#av"/>
            </g>
            <path d="M101-234c-31-9-42 10-38 44h38v23H63V0H32v-167H5v-23h27c-7-52 17-82 69-68v24" id="aG"/>
            <g id="t">
                <use transform="matrix(0.06172839506172839,0,0,0.06172839506172839,0,0)" xlink:href="#aG"/>
                <use transform="matrix(0.06172839506172839,0,0,0.06172839506172839,6.172839506172839,0)"
                     xlink:href="#an"/>
                <use transform="matrix(0.06172839506172839,0,0,0.06172839506172839,11.049382716049383,0)"
                     xlink:href="#am"/>
                <use transform="matrix(0.06172839506172839,0,0,0.06172839506172839,23.395061728395063,0)"
                     xlink:href="#aj"/>
                <use transform="matrix(0.06172839506172839,0,0,0.06172839506172839,35.74074074074074,0)"
                     xlink:href="#az"/>
                <use transform="matrix(0.06172839506172839,0,0,0.06172839506172839,41.91358024691358,0)"
                     xlink:href="#aE"/>
            </g>
            <path d="M96-169c-40 0-48 33-48 73s9 75 48 75c24 0 41-14 43-38l32 2c-6 37-31 61-74 61-59 0-76-41-82-99-10-93 101-131 147-64 4 7 5 14 7 22l-32 3c-4-21-16-35-41-35"
                  id="aH"/>
            <path d="M233-177c-1 41-23 64-60 70L243 0h-38l-65-103H63V0H30v-248c88 3 205-21 203 71zM63-129c60-2 137 13 137-47 0-61-80-42-137-45v92"
                  id="aI"/>
            <g id="u">
                <use transform="matrix(0.06172839506172839,0,0,0.06172839506172839,0,0)" xlink:href="#aH"/>
                <use transform="matrix(0.06172839506172839,0,0,0.06172839506172839,11.11111111111111,0)"
                     xlink:href="#am"/>
                <use transform="matrix(0.06172839506172839,0,0,0.06172839506172839,23.45679012345679,0)"
                     xlink:href="#ar"/>
                <use transform="matrix(0.06172839506172839,0,0,0.06172839506172839,41.91358024691358,0)"
                     xlink:href="#ar"/>
                <use transform="matrix(0.06172839506172839,0,0,0.06172839506172839,60.37037037037037,0)"
                     xlink:href="#aC"/>
                <use transform="matrix(0.06172839506172839,0,0,0.06172839506172839,65.24691358024691,0)"
                     xlink:href="#aB"/>
                <use transform="matrix(0.06172839506172839,0,0,0.06172839506172839,76.35802469135803,0)"
                     xlink:href="#aB"/>
                <use transform="matrix(0.06172839506172839,0,0,0.06172839506172839,87.46913580246914,0)"
                     xlink:href="#aC"/>
                <use transform="matrix(0.06172839506172839,0,0,0.06172839506172839,92.34567901234568,0)"
                     xlink:href="#am"/>
                <use transform="matrix(0.06172839506172839,0,0,0.06172839506172839,104.69135802469137,0)"
                     xlink:href="#ay"/>
                <use transform="matrix(0.06172839506172839,0,0,0.06172839506172839,117.03703703703705,0)"
                     xlink:href="#aI"/>
                <use transform="matrix(0.06172839506172839,0,0,0.06172839506172839,133.0246913580247,0)"
                     xlink:href="#aj"/>
                <use transform="matrix(0.06172839506172839,0,0,0.06172839506172839,145.37037037037038,0)"
                     xlink:href="#az"/>
                <use transform="matrix(0.06172839506172839,0,0,0.06172839506172839,151.54320987654322,0)"
                     xlink:href="#at"/>
                <use transform="matrix(0.06172839506172839,0,0,0.06172839506172839,163.88888888888889,0)"
                     xlink:href="#av"/>
            </g>
            <g id="v">
                <use transform="matrix(0.06172839506172839,0,0,0.06172839506172839,0,0)" xlink:href="#aG"/>
                <use transform="matrix(0.06172839506172839,0,0,0.06172839506172839,6.172839506172839,0)"
                     xlink:href="#an"/>
                <use transform="matrix(0.06172839506172839,0,0,0.06172839506172839,11.049382716049383,0)"
                     xlink:href="#am"/>
                <use transform="matrix(0.06172839506172839,0,0,0.06172839506172839,23.395061728395063,0)"
                     xlink:href="#aj"/>
                <use transform="matrix(0.06172839506172839,0,0,0.06172839506172839,35.74074074074074,0)"
                     xlink:href="#az"/>
                <use transform="matrix(0.06172839506172839,0,0,0.06172839506172839,41.91358024691358,0)"
                     xlink:href="#aw"/>
            </g>
            <g id="w">
                <use transform="matrix(0.06172839506172839,0,0,0.06172839506172839,0,0)" xlink:href="#aq"/>
                <use transform="matrix(0.06172839506172839,0,0,0.06172839506172839,14.814814814814813,0)"
                     xlink:href="#ar"/>
                <use transform="matrix(0.06172839506172839,0,0,0.06172839506172839,33.2716049382716,0)"
                     xlink:href="#as"/>
                <use transform="matrix(0.06172839506172839,0,0,0.06172839506172839,45.61728395061728,0)"
                     xlink:href="#an"/>
                <use transform="matrix(0.06172839506172839,0,0,0.06172839506172839,50.49382716049382,0)"
                     xlink:href="#am"/>
                <use transform="matrix(0.06172839506172839,0,0,0.06172839506172839,62.8395061728395,0)"
                     xlink:href="#ak"/>
                <use transform="matrix(0.06172839506172839,0,0,0.06172839506172839,73.9506172839506,0)"
                     xlink:href="#at"/>
                <use transform="matrix(0.06172839506172839,0,0,0.06172839506172839,86.29629629629629,0)"
                     xlink:href="#at"/>
            </g>
            <g id="x">
                <use transform="matrix(0.06172839506172839,0,0,0.06172839506172839,0,0)" xlink:href="#aq"/>
                <use transform="matrix(0.06172839506172839,0,0,0.06172839506172839,14.814814814814813,0)"
                     xlink:href="#ar"/>
                <use transform="matrix(0.06172839506172839,0,0,0.06172839506172839,33.2716049382716,0)"
                     xlink:href="#as"/>
                <use transform="matrix(0.06172839506172839,0,0,0.06172839506172839,45.61728395061728,0)"
                     xlink:href="#an"/>
                <use transform="matrix(0.06172839506172839,0,0,0.06172839506172839,50.49382716049382,0)"
                     xlink:href="#am"/>
                <use transform="matrix(0.06172839506172839,0,0,0.06172839506172839,62.8395061728395,0)"
                     xlink:href="#ak"/>
                <use transform="matrix(0.06172839506172839,0,0,0.06172839506172839,73.9506172839506,0)"
                     xlink:href="#at"/>
                <use transform="matrix(0.06172839506172839,0,0,0.06172839506172839,86.29629629629629,0)"
                     xlink:href="#at"/>
                <use transform="matrix(0.06172839506172839,0,0,0.06172839506172839,98.64197530864197,0)"
                     xlink:href="#aI"/>
                <use transform="matrix(0.06172839506172839,0,0,0.06172839506172839,114.62962962962963,0)"
                     xlink:href="#at"/>
                <use transform="matrix(0.06172839506172839,0,0,0.06172839506172839,126.97530864197533,0)"
                     xlink:href="#as"/>
                <use transform="matrix(0.06172839506172839,0,0,0.06172839506172839,139.320987654321,0)"
                     xlink:href="#am"/>
                <use transform="matrix(0.06172839506172839,0,0,0.06172839506172839,151.66666666666666,0)"
                     xlink:href="#aB"/>
                <use transform="matrix(0.06172839506172839,0,0,0.06172839506172839,162.77777777777777,0)"
                     xlink:href="#aC"/>
                <use transform="matrix(0.06172839506172839,0,0,0.06172839506172839,167.6543209876543,0)"
                     xlink:href="#az"/>
                <use transform="matrix(0.06172839506172839,0,0,0.06172839506172839,173.82716049382714,0)"
                     xlink:href="#am"/>
                <use transform="matrix(0.06172839506172839,0,0,0.06172839506172839,186.1728395061728,0)"
                     xlink:href="#al"/>
                <use transform="matrix(0.06172839506172839,0,0,0.06172839506172839,193.51851851851848,0)"
                     xlink:href="#ak"/>
            </g>
            <path d="M143 4C61 4 22-44 18-125c-5-107 100-154 193-111 17 8 29 25 37 43l-32 9c-13-25-37-40-76-40-61 0-88 39-88 99 0 61 29 100 91 101 35 0 62-11 79-27v-45h-74v-28h105v86C228-13 192 4 143 4"
                  id="aJ"/>
            <path d="M206 0h-36l-40-164L89 0H53L-1-190h32L70-26l43-164h34l41 164 42-164h31" id="aK"/>
            <g id="y">
                <use transform="matrix(0.06172839506172839,0,0,0.06172839506172839,0,0)" xlink:href="#aq"/>
                <use transform="matrix(0.06172839506172839,0,0,0.06172839506172839,14.814814814814813,0)"
                     xlink:href="#ar"/>
                <use transform="matrix(0.06172839506172839,0,0,0.06172839506172839,33.2716049382716,0)"
                     xlink:href="#as"/>
                <use transform="matrix(0.06172839506172839,0,0,0.06172839506172839,45.61728395061728,0)"
                     xlink:href="#an"/>
                <use transform="matrix(0.06172839506172839,0,0,0.06172839506172839,50.49382716049382,0)"
                     xlink:href="#am"/>
                <use transform="matrix(0.06172839506172839,0,0,0.06172839506172839,62.8395061728395,0)"
                     xlink:href="#ak"/>
                <use transform="matrix(0.06172839506172839,0,0,0.06172839506172839,73.9506172839506,0)"
                     xlink:href="#at"/>
                <use transform="matrix(0.06172839506172839,0,0,0.06172839506172839,86.29629629629629,0)"
                     xlink:href="#at"/>
                <use transform="matrix(0.06172839506172839,0,0,0.06172839506172839,98.64197530864197,0)"
                     xlink:href="#aJ"/>
                <use transform="matrix(0.06172839506172839,0,0,0.06172839506172839,115.92592592592592,0)"
                     xlink:href="#aj"/>
                <use transform="matrix(0.06172839506172839,0,0,0.06172839506172839,128.2716049382716,0)"
                     xlink:href="#az"/>
                <use transform="matrix(0.06172839506172839,0,0,0.06172839506172839,134.44444444444443,0)"
                     xlink:href="#at"/>
                <use transform="matrix(0.06172839506172839,0,0,0.06172839506172839,146.7901234567901,0)"
                     xlink:href="#aK"/>
                <use transform="matrix(0.06172839506172839,0,0,0.06172839506172839,162.77777777777774,0)"
                     xlink:href="#aj"/>
                <use transform="matrix(0.06172839506172839,0,0,0.06172839506172839,175.1234567901234,0)"
                     xlink:href="#ak"/>
            </g>
            <g id="z">
                <use transform="matrix(0.06172839506172839,0,0,0.06172839506172839,0,0)" xlink:href="#aC"/>
                <use transform="matrix(0.06172839506172839,0,0,0.06172839506172839,4.876543209876543,0)"
                     xlink:href="#ay"/>
                <use transform="matrix(0.06172839506172839,0,0,0.06172839506172839,17.22222222222222,0)"
                     xlink:href="#aB"/>
                <use transform="matrix(0.06172839506172839,0,0,0.06172839506172839,28.333333333333332,0)"
                     xlink:href="#at"/>
                <use transform="matrix(0.06172839506172839,0,0,0.06172839506172839,40.67901234567901,0)"
                     xlink:href="#al"/>
                <use transform="matrix(0.06172839506172839,0,0,0.06172839506172839,48.02469135802469,0)"
                     xlink:href="#az"/>
                <use transform="matrix(0.06172839506172839,0,0,0.06172839506172839,54.19753086419753,0)"
                     xlink:href="#au"/>
                <use transform="matrix(0.06172839506172839,0,0,0.06172839506172839,61.54320987654321,0)"
                     xlink:href="#at"/>
                <use transform="matrix(0.06172839506172839,0,0,0.06172839506172839,73.88888888888889,0)"
                     xlink:href="#ar"/>
                <use transform="matrix(0.06172839506172839,0,0,0.06172839506172839,92.34567901234567,0)"
                     xlink:href="#as"/>
                <use transform="matrix(0.06172839506172839,0,0,0.06172839506172839,104.69135802469135,0)"
                     xlink:href="#aA"/>
                <use transform="matrix(0.06172839506172839,0,0,0.06172839506172839,110.86419753086419,0)"
                     xlink:href="#ap"/>
                <use transform="matrix(0.06172839506172839,0,0,0.06172839506172839,123.20987654320987,0)"
                     xlink:href="#av"/>
            </g>
            <g id="A">
                <use transform="matrix(0.06172839506172839,0,0,0.06172839506172839,0,0)" xlink:href="#aj"/>
                <use transform="matrix(0.06172839506172839,0,0,0.06172839506172839,12.345679012345679,0)"
                     xlink:href="#ap"/>
                <use transform="matrix(0.06172839506172839,0,0,0.06172839506172839,24.691358024691358,0)"
                     xlink:href="#ap"/>
                <use transform="matrix(0.06172839506172839,0,0,0.06172839506172839,37.03703703703704,0)"
                     xlink:href="#al"/>
                <use transform="matrix(0.06172839506172839,0,0,0.06172839506172839,44.382716049382715,0)"
                     xlink:href="#at"/>
                <use transform="matrix(0.06172839506172839,0,0,0.06172839506172839,56.72839506172839,0)"
                     xlink:href="#aB"/>
                <use transform="matrix(0.06172839506172839,0,0,0.06172839506172839,67.8395061728395,0)"
                     xlink:href="#aB"/>
                <use transform="matrix(0.06172839506172839,0,0,0.06172839506172839,78.95061728395062,0)"
                     xlink:href="#av"/>
            </g>
            <g id="B">
                <use transform="matrix(0.06172839506172839,0,0,0.06172839506172839,0,0)" xlink:href="#al"/>
                <use transform="matrix(0.06172839506172839,0,0,0.06172839506172839,7.345679012345679,0)"
                     xlink:href="#aj"/>
                <use transform="matrix(0.06172839506172839,0,0,0.06172839506172839,19.691358024691358,0)"
                     xlink:href="#az"/>
                <use transform="matrix(0.06172839506172839,0,0,0.06172839506172839,25.864197530864196,0)"
                     xlink:href="#at"/>
                <use transform="matrix(0.06172839506172839,0,0,0.06172839506172839,38.20987654320987,0)"
                     xlink:href="#av"/>
            </g>
            <g id="C">
                <use transform="matrix(0.06172839506172839,0,0,0.06172839506172839,0,0)" xlink:href="#aG"/>
                <use transform="matrix(0.06172839506172839,0,0,0.06172839506172839,6.172839506172839,0)"
                     xlink:href="#an"/>
                <use transform="matrix(0.06172839506172839,0,0,0.06172839506172839,11.049382716049383,0)"
                     xlink:href="#am"/>
                <use transform="matrix(0.06172839506172839,0,0,0.06172839506172839,23.395061728395063,0)"
                     xlink:href="#aj"/>
                <use transform="matrix(0.06172839506172839,0,0,0.06172839506172839,35.74074074074074,0)"
                     xlink:href="#az"/>
                <use transform="matrix(0.06172839506172839,0,0,0.06172839506172839,41.91358024691358,0)"
                     xlink:href="#aE"/>
            </g>
            <g id="D">
                <use transform="matrix(0.06172839506172839,0,0,0.06172839506172839,0,0)" xlink:href="#aG"/>
                <use transform="matrix(0.06172839506172839,0,0,0.06172839506172839,6.172839506172839,0)"
                     xlink:href="#an"/>
                <use transform="matrix(0.06172839506172839,0,0,0.06172839506172839,11.049382716049383,0)"
                     xlink:href="#am"/>
                <use transform="matrix(0.06172839506172839,0,0,0.06172839506172839,23.395061728395063,0)"
                     xlink:href="#aj"/>
                <use transform="matrix(0.06172839506172839,0,0,0.06172839506172839,35.74074074074074,0)"
                     xlink:href="#az"/>
                <use transform="matrix(0.06172839506172839,0,0,0.06172839506172839,41.91358024691358,0)"
                     xlink:href="#aw"/>
            </g>
            <path d="M15-91v-56l181-69v40L49-119l147 57v40" id="aL"/>
            <path d="M15-22v-40l146-57-146-57v-40l181 69v56" id="aM"/>
            <g id="E">
                <use transform="matrix(0.05,0,0,0.05,0,0)" xlink:href="#aL"/>
                <use transform="matrix(0.05,0,0,0.05,10.5,0)" xlink:href="#aL"/>
                <use transform="matrix(0.05,0,0,0.05,21,0)" xlink:href="#Q"/>
                <use transform="matrix(0.05,0,0,0.05,26,0)" xlink:href="#S"/>
                <use transform="matrix(0.05,0,0,0.05,36.95,0)" xlink:href="#T"/>
                <use transform="matrix(0.05,0,0,0.05,42.900000000000006,0)" xlink:href="#R"/>
                <use transform="matrix(0.05,0,0,0.05,52.900000000000006,0)" xlink:href="#X"/>
                <use transform="matrix(0.05,0,0,0.05,59.900000000000006,0)" xlink:href="#af"/>
                <use transform="matrix(0.05,0,0,0.05,65.85000000000001,0)" xlink:href="#V"/>
                <use transform="matrix(0.05,0,0,0.05,75.85000000000001,0)" xlink:href="#aa"/>
                <use transform="matrix(0.05,0,0,0.05,85.85000000000001,0)" xlink:href="#R"/>
                <use transform="matrix(0.05,0,0,0.05,95.85000000000001,0)" xlink:href="#aM"/>
                <use transform="matrix(0.05,0,0,0.05,106.35000000000001,0)" xlink:href="#aM"/>
            </g>
            <path d="M24 0v-248h195v40H76v63h132v40H76v65h150V0H24" id="aN"/>
            <path d="M169-182c-1-43-94-46-97-3 18 66 151 10 154 114 3 95-165 93-204 36-6-8-10-19-12-30l50-8c3 46 112 56 116 5-17-69-150-10-154-114-4-87 153-88 188-35 5 8 8 18 10 28"
                  id="aO"/>
            <path d="M195-6C206 82 75 100 31 46c-4-6-6-13-8-21l49-6c3 16 16 24 34 25 40 0 42-37 40-79-11 22-30 35-61 35-53 0-70-43-70-97 0-56 18-96 73-97 30 0 46 14 59 34l2-30h47zm-90-29c32 0 41-27 41-63 0-35-9-62-40-62-32 0-39 29-40 63 0 36 9 62 39 62"
                  id="aP"/>
            <g id="F">
                <use transform="matrix(0.05,0,0,0.05,0,0)" xlink:href="#aN"/>
                <use transform="matrix(0.05,0,0,0.05,12,0)" xlink:href="#ad"/>
                <use transform="matrix(0.05,0,0,0.05,28,0)" xlink:href="#Z"/>
                <use transform="matrix(0.05,0,0,0.05,38.95,0)" xlink:href="#P"/>
                <use transform="matrix(0.05,0,0,0.05,43.95,0)" xlink:href="#ab"/>
                <use transform="matrix(0.05,0,0,0.05,54.900000000000006,0)" xlink:href="#W"/>
                <use transform="matrix(0.05,0,0,0.05,64.9,0)" xlink:href="#R"/>
                <use transform="matrix(0.05,0,0,0.05,74.9,0)" xlink:href="#R"/>
                <use transform="matrix(0.05,0,0,0.05,84.9,0)" xlink:href="#aO"/>
                <use transform="matrix(0.05,0,0,0.05,96.9,0)" xlink:href="#T"/>
                <use transform="matrix(0.05,0,0,0.05,102.85000000000001,0)" xlink:href="#ab"/>
                <use transform="matrix(0.05,0,0,0.05,113.80000000000001,0)" xlink:href="#X"/>
                <use transform="matrix(0.05,0,0,0.05,120.80000000000001,0)" xlink:href="#V"/>
                <use transform="matrix(0.05,0,0,0.05,130.8,0)" xlink:href="#aP"/>
                <use transform="matrix(0.05,0,0,0.05,141.75,0)" xlink:href="#R"/>
            </g>
            <g id="G">
                <use transform="matrix(0.06172839506172839,0,0,0.06172839506172839,0,0)" xlink:href="#aC"/>
                <use transform="matrix(0.06172839506172839,0,0,0.06172839506172839,4.876543209876543,0)"
                     xlink:href="#ay"/>
                <use transform="matrix(0.06172839506172839,0,0,0.06172839506172839,17.22222222222222,0)"
                     xlink:href="#aB"/>
                <use transform="matrix(0.06172839506172839,0,0,0.06172839506172839,28.333333333333332,0)"
                     xlink:href="#at"/>
                <use transform="matrix(0.06172839506172839,0,0,0.06172839506172839,40.67901234567901,0)"
                     xlink:href="#al"/>
                <use transform="matrix(0.06172839506172839,0,0,0.06172839506172839,48.02469135802469,0)"
                     xlink:href="#az"/>
                <use transform="matrix(0.06172839506172839,0,0,0.06172839506172839,54.19753086419753,0)"
                     xlink:href="#aq"/>
                <use transform="matrix(0.06172839506172839,0,0,0.06172839506172839,69.01234567901234,0)"
                     xlink:href="#ar"/>
                <use transform="matrix(0.06172839506172839,0,0,0.06172839506172839,87.46913580246913,0)"
                     xlink:href="#as"/>
                <use transform="matrix(0.06172839506172839,0,0,0.06172839506172839,99.81481481481481,0)"
                     xlink:href="#an"/>
                <use transform="matrix(0.06172839506172839,0,0,0.06172839506172839,104.69135802469135,0)"
                     xlink:href="#am"/>
                <use transform="matrix(0.06172839506172839,0,0,0.06172839506172839,117.03703703703704,0)"
                     xlink:href="#ak"/>
                <use transform="matrix(0.06172839506172839,0,0,0.06172839506172839,128.14814814814815,0)"
                     xlink:href="#at"/>
                <use transform="matrix(0.06172839506172839,0,0,0.06172839506172839,140.49382716049382,0)"
                     xlink:href="#at"/>
                <use transform="matrix(0.06172839506172839,0,0,0.06172839506172839,152.8395061728395,0)"
                     xlink:href="#au"/>
                <use transform="matrix(0.06172839506172839,0,0,0.06172839506172839,160.18518518518516,0)"
                     xlink:href="#at"/>
                <use transform="matrix(0.06172839506172839,0,0,0.06172839506172839,172.53086419753083,0)"
                     xlink:href="#ar"/>
                <use transform="matrix(0.06172839506172839,0,0,0.06172839506172839,190.98765432098762,0)"
                     xlink:href="#as"/>
                <use transform="matrix(0.06172839506172839,0,0,0.06172839506172839,203.3333333333333,0)"
                     xlink:href="#an"/>
                <use transform="matrix(0.06172839506172839,0,0,0.06172839506172839,208.20987654320982,0)"
                     xlink:href="#am"/>
                <use transform="matrix(0.06172839506172839,0,0,0.06172839506172839,220.5555555555555,0)"
                     xlink:href="#ak"/>
                <use transform="matrix(0.06172839506172839,0,0,0.06172839506172839,231.6666666666666,0)"
                     xlink:href="#at"/>
                <use transform="matrix(0.06172839506172839,0,0,0.06172839506172839,244.01234567901227,0)"
                     xlink:href="#at"/>
                <use transform="matrix(0.06172839506172839,0,0,0.06172839506172839,256.35802469135797,0)"
                     xlink:href="#av"/>
            </g>
            <path d="M266 0h-40l-56-210L115 0H75L2-248h35L96-30l15-64 43-154h32l59 218 59-218h35" id="aQ"/>
            <g id="H">
                <use transform="matrix(0.06172839506172839,0,0,0.06172839506172839,0,0)" xlink:href="#aQ"/>
                <use transform="matrix(0.06172839506172839,0,0,0.06172839506172839,20.925925925925924,0)"
                     xlink:href="#aC"/>
                <use transform="matrix(0.06172839506172839,0,0,0.06172839506172839,25.80246913580247,0)"
                     xlink:href="#an"/>
                <use transform="matrix(0.06172839506172839,0,0,0.06172839506172839,30.679012345679013,0)"
                     xlink:href="#an"/>
            </g>
            <path d="M115-194c53 0 69 39 70 98 0 66-23 100-70 100C84 3 66-7 56-30L54 0H23l1-261h32v101c10-23 28-34 59-34zm-8 174c40 0 45-34 45-75 0-40-5-75-45-74-42 0-51 32-51 76 0 43 10 73 51 73"
                  id="aR"/>
            <g id="I">
                <use transform="matrix(0.06172839506172839,0,0,0.06172839506172839,0,0)" xlink:href="#aR"/>
                <use transform="matrix(0.06172839506172839,0,0,0.06172839506172839,12.345679012345679,0)"
                     xlink:href="#at"/>
            </g>
            <g id="J">
                <use transform="matrix(0.06172839506172839,0,0,0.06172839506172839,0,0)" xlink:href="#al"/>
                <use transform="matrix(0.06172839506172839,0,0,0.06172839506172839,7.345679012345679,0)"
                     xlink:href="#at"/>
                <use transform="matrix(0.06172839506172839,0,0,0.06172839506172839,19.691358024691358,0)"
                     xlink:href="#aB"/>
                <use transform="matrix(0.06172839506172839,0,0,0.06172839506172839,30.80246913580247,0)"
                     xlink:href="#at"/>
                <use transform="matrix(0.06172839506172839,0,0,0.06172839506172839,43.148148148148145,0)"
                     xlink:href="#ar"/>
                <use transform="matrix(0.06172839506172839,0,0,0.06172839506172839,61.60493827160494,0)"
                     xlink:href="#aR"/>
                <use transform="matrix(0.06172839506172839,0,0,0.06172839506172839,73.95061728395062,0)"
                     xlink:href="#an"/>
                <use transform="matrix(0.06172839506172839,0,0,0.06172839506172839,78.82716049382717,0)"
                     xlink:href="#at"/>
                <use transform="matrix(0.06172839506172839,0,0,0.06172839506172839,91.17283950617285,0)"
                     xlink:href="#ap"/>
            </g>
            <g id="K">
                <use transform="matrix(0.06172839506172839,0,0,0.06172839506172839,0,0)" xlink:href="#aR"/>
                <use transform="matrix(0.06172839506172839,0,0,0.06172839506172839,12.345679012345679,0)"
                     xlink:href="#ak"/>
            </g>
            <path d="M106-169C34-169 62-67 57 0H25v-261h32l-1 103c12-21 28-36 61-36 89 0 53 116 60 194h-32v-121c2-32-8-49-39-48"
                  id="aS"/>
            <g id="L">
                <use transform="matrix(0.06172839506172839,0,0,0.06172839506172839,0,0)" xlink:href="#az"/>
                <use transform="matrix(0.06172839506172839,0,0,0.06172839506172839,6.172839506172839,0)"
                     xlink:href="#aS"/>
                <use transform="matrix(0.06172839506172839,0,0,0.06172839506172839,18.51851851851852,0)"
                     xlink:href="#at"/>
            </g>
            <g id="M">
                <use transform="matrix(0.06172839506172839,0,0,0.06172839506172839,0,0)" xlink:href="#az"/>
                <use transform="matrix(0.06172839506172839,0,0,0.06172839506172839,6.172839506172839,0)"
                     xlink:href="#at"/>
                <use transform="matrix(0.06172839506172839,0,0,0.06172839506172839,18.51851851851852,0)"
                     xlink:href="#aB"/>
                <use transform="matrix(0.06172839506172839,0,0,0.06172839506172839,29.62962962962963,0)"
                     xlink:href="#az"/>
            </g>
            <path d="M33 0v-38h34V0H33" id="aT"/>
            <g id="N">
                <use transform="matrix(0.06172839506172839,0,0,0.06172839506172839,0,0)" xlink:href="#aH"/>
                <use transform="matrix(0.06172839506172839,0,0,0.06172839506172839,11.11111111111111,0)"
                     xlink:href="#aj"/>
                <use transform="matrix(0.06172839506172839,0,0,0.06172839506172839,23.45679012345679,0)"
                     xlink:href="#aB"/>
                <use transform="matrix(0.06172839506172839,0,0,0.06172839506172839,34.5679012345679,0)"
                     xlink:href="#at"/>
                <use transform="matrix(0.06172839506172839,0,0,0.06172839506172839,46.913580246913575,0)"
                     xlink:href="#aT"/>
            </g>
        </defs>
    </g>
</svg>