<svg xmlns="http://www.w3.org/2000/svg" xmlns:xlink="http://www.w3.org/1999/xlink"  width="320"
     height="186.49">
    <g transform="translate(-6 -60)">
        <path d="M26 120h280v60H26z" fill="none"/>
        <use xlink:href="#a" transform="matrix(1,0,0,1,26,120) translate(57.36148148148149 35.16266666666667)"/>
        <a xlink:href="http://(λx.s)t→s[x:=t]" target="_blank" transform="matrix(1,0,0,1,26,120)">
            <path class="lucid-link lucid-hotspot lucid-overlay-hotspot" fill-opacity="0"
                  d="M222.64 14.5h5.93v31h-5.93z"/>
        </a>
        <path d="M60 191.5a6 6 0 0 1 6-6h108a6 6 0 0 1 6 6v29a6 6 0 0 1-6 6H66a6 6 0 0 1-6-6z" stroke="#000"
              stroke-opacity="0" fill="#fff" fill-opacity="0"/>
        <use xlink:href="#b" transform="matrix(1,0,0,1,65,190.512) translate(30.026641975308657 17.574277777777773)"/>
        <path d="M185 127a6 6 0 0 1-6-6v-8a6 6 0 0 1 6-6h70a6 6 0 0 1 6 6v8a6 6 0 0 1-6 6z" stroke="#000"
              stroke-opacity="0" fill="#fff" fill-opacity="0"/>
        <use xlink:href="#c"
             transform="matrix(6.123233995736766e-17,-1,1,6.123233995736766e-17,184,122) translate(-4.719999999999988 43.31999999999999)"/>
        <path d="M171 86a6 6 0 0 1 6-6h66a6 6 0 0 1 6 6v8a6 6 0 0 1-6 6h-66a6 6 0 0 1-6-6z" stroke="#000"
              stroke-opacity="0" fill="#fff" fill-opacity="0"/>
        <use xlink:href="#d" transform="matrix(1,0,0,1,176,85) translate(15.500000000000007 10.666666666666664)"/>
        <path d="M150 166a6 6 0 0 1 6 6v8a6 6 0 0 1-6 6H80a6 6 0 0 1-6-6v-8a6 6 0 0 1 6-6z" stroke="#000"
              stroke-opacity="0" fill="#fff" fill-opacity="0"/>
        <use xlink:href="#c"
             transform="matrix(6.123233995736766e-17,1,-1,6.123233995736766e-17,150.99999999999994,171) translate(-4.719999999999988 43.31999999999999)"/>
        <defs>
            <path d="M87 75C49 33 22-17 22-94c0-76 28-126 65-167h31c-38 41-64 92-64 168S80 34 118 75H87" id="e"/>
            <path d="M98-172c-6-27-2-73-42-62-14-26 16-34 38-24 19 9 24 32 28 57L158 0h-32l-21-135L18 0h-34" id="f"/>
            <path d="M124 0L87-78 21 0h-35l86-98-46-92h33l34 74 61-74h37l-83 92 50 98h-34" id="g"/>
            <path d="M33 0v-38h34V0H33" id="h"/>
            <path d="M55-144c13 50 104 24 104 88C159 21 15 23 1-39l26-10c6 40 102 42 102-4-13-50-104-23-104-87 0-71 143-71 148-8l-29 4c-5-35-85-37-89 0"
                  id="i"/>
            <path d="M33-261c38 41 65 92 65 168S71 34 33 75H2C39 34 66-17 66-93S39-220 2-261h31" id="j"/>
            <path d="M51-54c-9 22 5 41 31 30L79-1C43 14 10-4 19-52l22-115H19l5-23h22l19-43h21l-9 43h35l-4 23H73"
                  id="k"/>
            <path d="M287-57c-19 10-34 24-48 39h-13c7-13 13-24 21-34H73v-15h174c-8-10-14-22-21-35h13c14 15 28 30 48 39v6"
                  id="l"/>
            <path d="M26 75v-336h71v23H56V52h41v23H26" id="m"/>
            <path d="M33-154v-36h34v36H33zM33 0v-36h34V0H33" id="n"/>
            <path d="M18-150v-26h174v26H18zm0 90v-26h174v26H18" id="o"/>
            <path d="M3 75V52h41v-290H3v-23h71V75H3" id="p"/>
            <g id="a">
                <use transform="matrix(0.0717037037037037,0,0,0.0717037037037037,0,0)" xlink:href="#e"/>
                <use transform="matrix(0.0717037037037037,0,0,0.0717037037037037,8.53274074074074,0)" xlink:href="#f"/>
                <use transform="matrix(0.0717037037037037,0,0,0.0717037037037037,21.224296296296295,0)"
                     xlink:href="#g"/>
                <use transform="matrix(0.0717037037037037,0,0,0.0717037037037037,34.13096296296296,0)" xlink:href="#h"/>
                <use transform="matrix(0.0717037037037037,0,0,0.0717037037037037,41.30133333333333,0)" xlink:href="#i"/>
                <use transform="matrix(0.0717037037037037,0,0,0.0717037037037037,54.208,0)" xlink:href="#j"/>
                <use transform="matrix(0.0717037037037037,0,0,0.0717037037037037,62.74074074074074,0)" xlink:href="#k"/>
                <use transform="matrix(0.0717037037037037,0,0,0.0717037037037037,69.91111111111111,0)" xlink:href="#l"/>
                <use transform="matrix(0.0717037037037037,0,0,0.0717037037037037,95.72444444444444,0)" xlink:href="#i"/>
                <use transform="matrix(0.0717037037037037,0,0,0.0717037037037037,108.63111111111111,0)"
                     xlink:href="#m"/>
                <use transform="matrix(0.0717037037037037,0,0,0.0717037037037037,115.80148148148147,0)"
                     xlink:href="#g"/>
                <use transform="matrix(0.0717037037037037,0,0,0.0717037037037037,128.70814814814815,0)"
                     xlink:href="#n"/>
                <use transform="matrix(0.0717037037037037,0,0,0.0717037037037037,135.87851851851852,0)"
                     xlink:href="#o"/>
                <use transform="matrix(0.0717037037037037,0,0,0.0717037037037037,150.9362962962963,0)" xlink:href="#k"/>
                <use transform="matrix(0.0717037037037037,0,0,0.0717037037037037,158.10666666666665,0)"
                     xlink:href="#p"/>
                <path fill="#8080ff" d="M164.2 1.48h2.14v1.56h-2.13z"/>
            </g>
            <path d="M189-81C193-2 95 23 39-13L23 75H-9l49-253c10-50 36-83 92-83 39 0 65 20 65 57 0 38-22 59-53 67 26 8 43 23 45 56zm-37-84c23-21 19-74-23-71-35 3-51 25-57 59L44-36C81-8 164-15 158-79c-3-30-20-44-50-45l5-25c16-1 31-7 39-16"
                  id="q"/>
            <path d="M18-82l6-28h88l-6 28H18" id="r"/>
            <path d="M66-151c12-25 30-51 66-40l-6 26C45-176 58-65 38 0H6l36-190h30" id="s"/>
            <path d="M111-194c62-3 86 47 72 106H45c-7 38 6 69 45 68 27-1 43-14 53-32l24 11C152-15 129 4 87 4 38 3 12-23 12-71c0-70 32-119 99-123zm44 81c14-66-71-72-95-28-4 8-8 17-11 28h106"
                  id="t"/>
            <path d="M133-28C103 26-5 8 13-77c13-62 24-115 90-117 29-1 46 15 56 35l19-102h32L160 0h-30zM45-64c-2 27 10 43 35 43 54-1 69-50 69-103 0-29-15-46-42-46-53-1-58 58-62 106"
                  id="u"/>
            <g id="b">
                <use transform="matrix(0.04083950617283948,0,0,0.04083950617283948,0,0)" xlink:href="#q"/>
                <use transform="matrix(0.04083950617283948,0,0,0.04083950617283948,8.372098765432094,0)"
                     xlink:href="#r"/>
                <use transform="matrix(0.04083950617283948,0,0,0.04083950617283948,13.231999999999992,0)"
                     xlink:href="#s"/>
                <use transform="matrix(0.04083950617283948,0,0,0.04083950617283948,18.091901234567892,0)"
                     xlink:href="#t"/>
                <use transform="matrix(0.04083950617283948,0,0,0.04083950617283948,26.25980246913579,0)"
                     xlink:href="#u"/>
                <use transform="matrix(0.04083950617283948,0,0,0.04083950617283948,34.427703703703685,0)"
                     xlink:href="#t"/>
                <use transform="matrix(0.04083950617283948,0,0,0.04083950617283948,42.595604938271585,0)"
                     xlink:href="#g"/>
            </g>
            <path fill="#000000"
                  d="M216 91c-5 132-51 141-199 139v-20c97 0 131-29 131-111v-232c0-70 22-104 76-115v-3c-53-12-76-42-76-98v-221c-1-85-40-110-131-110v-20c18 2 38 1 57 1 110-3 142 40 142 135v178c0 89 0 92 18 108 14 13 34 19 67 21v15c-38 3-51 7-65 20-18 18-20 27-20 123V91"
                  id="v"/>
            <use transform="matrix(0.05999999999999993,0,0,0.05999999999999993,0,0)" xlink:href="#v" id="c"/>
            <path d="M114-163C36-179 61-72 57 0H25l-1-190h30c1 12-1 29 2 39 6-27 23-49 58-41v29" id="w"/>
            <path d="M100-194c63 0 86 42 84 106H49c0 40 14 67 53 68 26 1 43-12 49-29l28 8c-11 28-37 45-77 45C44 4 14-33 15-96c1-61 26-98 85-98zm52 81c6-60-76-77-97-28-3 7-6 17-6 28h103"
                  id="x"/>
            <path d="M85-194c31 0 48 13 60 33l-1-100h32l1 261h-30c-2-10 0-23-3-31C134-8 116 4 85 4 32 4 16-35 15-94c0-66 23-100 70-100zm9 24c-40 0-46 34-46 75 0 40 6 74 45 74 42 0 51-32 51-76 0-42-9-74-50-73"
                  id="y"/>
            <path d="M84 4C-5 8 30-112 23-190h32v120c0 31 7 50 39 49 72-2 45-101 50-169h31l1 190h-30c-1-10 1-25-2-33-11 22-28 36-60 37"
                  id="z"/>
            <path d="M96-169c-40 0-48 33-48 73s9 75 48 75c24 0 41-14 43-38l32 2c-6 37-31 61-74 61-59 0-76-41-82-99-10-93 101-131 147-64 4 7 5 14 7 22l-32 3c-4-21-16-35-41-35"
                  id="A"/>
            <path d="M59-47c-2 24 18 29 38 22v24C64 9 27 4 27-40v-127H5v-23h24l9-43h21v43h35v23H59v120" id="B"/>
            <g id="d">
                <use transform="matrix(0.03703703703703702,0,0,0.03703703703703702,0,0)" xlink:href="#w"/>
                <use transform="matrix(0.03703703703703702,0,0,0.03703703703703702,4.407407407407406,0)"
                     xlink:href="#x"/>
                <use transform="matrix(0.03703703703703702,0,0,0.03703703703703702,11.81481481481481,0)"
                     xlink:href="#y"/>
                <use transform="matrix(0.03703703703703702,0,0,0.03703703703703702,19.222222222222214,0)"
                     xlink:href="#z"/>
                <use transform="matrix(0.03703703703703702,0,0,0.03703703703703702,26.62962962962962,0)"
                     xlink:href="#A"/>
                <use transform="matrix(0.03703703703703702,0,0,0.03703703703703702,33.29629629629628,0)"
                     xlink:href="#B"/>
            </g>
        </defs>
    </g>
</svg>