<svg xmlns="http://www.w3.org/2000/svg" xmlns:xlink="http://www.w3.org/1999/xlink"  width="320"
     height="201">
    <g transform="translate(-6 -39)" >
        <path d="M26 120h280v60H26z" fill="none"/>
        <use xlink:href="#a" transform="matrix(1,0,0,1,26,120) translate(79.25925925925925 34.266666666666666)"/>
        <use xlink:href="#b" transform="matrix(1,0,0,1,26,120) translate(112.44444444444444 34.266666666666666)"/>
        <use xlink:href="#c" transform="matrix(1,0,0,1,26,120) translate(130.22222222222223 34.266666666666666)"/>
        <use xlink:href="#d" transform="matrix(1,0,0,1,26,120) translate(158.66666666666669 34.266666666666666)"/>
        <use xlink:href="#e" transform="matrix(1,0,0,1,26,120) translate(188.8888888888889 34.266666666666666)"/>
        <path d="M120 176.38V180h40v-19.5" stroke="#000" fill="none"/>
        <path d="M120 161.62l4.64 14.26h-9.28z" stroke="#000"/>
        <path d="M160 160.5v-.5" stroke="#000" fill="none"/>
        <path d="M80 65a6 6 0 0 1 6-6h48a6 6 0 0 1 6 6v30a6 6 0 0 1-6 6H86a6 6 0 0 1-6-6z" stroke="#000"
              stroke-opacity="0" fill="#fff" fill-opacity="0"/>
        <use xlink:href="#f" transform="matrix(1,0,0,1,85,64) translate(6.537037037037045 10.666666666666668)"/>
        <use xlink:href="#g" transform="matrix(1,0,0,1,85,64) translate(-5.3148148148148024 26.666666666666664)"/>
        <path d="M80 186a6 6 0 0 1 6-6h108a6 6 0 0 1 6 6v28a6 6 0 0 1-6 6H86a6 6 0 0 1-6-6z" stroke="#000"
              stroke-opacity="0" fill="#fff" fill-opacity="0"/>
        <use xlink:href="#h" transform="matrix(1,0,0,1,85,185) translate(13.925925925925952 18.166666666666664)"/>
        <use xlink:href="#i" transform="matrix(1,0,0,1,85,185) translate(24.29629629629632 18.166666666666664)"/>
        <use xlink:href="#j" transform="matrix(1,0,0,1,85,185) translate(37.59259259259261 18.166666666666664)"/>
        <use xlink:href="#k" transform="matrix(1,0,0,1,85,185) translate(78.33333333333333 18.166666666666664)"/>
        <use xlink:href="#l" transform="matrix(1,0,0,1,85,185) translate(92.37037037037035 18.166666666666664)"/>
        <path d="M113.33 114.28V101.5" stroke="#000" fill="none"/>
        <path d="M113.33 129.05l-4.63-14.27h9.27z" stroke="#000"/>
        <path d="M113.83 101.5h-1v-.5h1z" stroke="#000" stroke-width=".05"/>
        <g>
            <path d="M162 130a6 6 0 0 1-6-6v-8a6 6 0 0 1 6-6h70a6 6 0 0 1 6 6v8a6 6 0 0 1-6 6z" stroke="#000"
                  stroke-opacity="0" fill="#fff" fill-opacity="0"/>
        </g>
        <g>
            <use xlink:href="#m"
                 transform="matrix(6.123233995736766e-17,-1,1,6.123233995736766e-17,161,125) translate(-4.719999999999988 43.31999999999999)"/>
        </g>
        <path d="M148 89a6 6 0 0 1 6-6h66a6 6 0 0 1 6 6v8a6 6 0 0 1-6 6h-66a6 6 0 0 1-6-6z" stroke="#000"
              stroke-opacity="0" fill="#fff" fill-opacity="0"/>
        <g>
            <use xlink:href="#n" transform="matrix(1,0,0,1,153,88) translate(17.000000000000007 10.666666666666664)"/>
            <use xlink:href="#o" transform="matrix(1,0,0,1,153,88) translate(47.29629629629629 10.666666666666664)"/>
        </g>
        <defs>
            <path d="M23-257c46-16 66 21 79 56L177 0h-34L96-139C78-91 56-46 35 0H2l79-170c-12-25-14-73-52-64" id="p"/>
            <path d="M141 0L90-78 38 0H4l68-98-65-92h35l48 74 47-74h35l-64 92 68 98h-35" id="q"/>
            <g id="a">
                <use transform="matrix(0.05925925925925927,0,0,0.05925925925925927,0,0)" xlink:href="#p"/>
                <use transform="matrix(0.05925925925925927,0,0,0.05925925925925927,10.666666666666668,0)"
                     xlink:href="#q"/>
            </g>
            <path d="M33 0v-38h34V0H33" id="r"/>
            <use transform="matrix(0.05925925925925927,0,0,0.05925925925925927,0,0)" xlink:href="#r" id="b"/>
            <use transform="matrix(0.05925925925925927,0,0,0.05925925925925927,0,0)" xlink:href="#q" id="c"/>
            <path d="M118-107v75H92v-75H18v-26h74v-75h26v75h74v26h-74" id="s"/>
            <use transform="matrix(0.05925925925925927,0,0,0.05925925925925927,0,0)" xlink:href="#s" id="d"/>
            <path d="M27 0v-27h64v-190l-56 39v-29l58-41h29v221h61V0H27" id="t"/>
            <use transform="matrix(0.05925925925925927,0,0,0.05925925925925927,0,0)" xlink:href="#t" id="e"/>
            <path fill="#000000" d="M101-234c-31-9-42 10-38 44h38v23H63V0H32v-167H5v-23h27c-7-52 17-82 69-68v24"
                  id="u"/>
            <path fill="#000000"
                  d="M100-194c62-1 85 37 85 99 1 63-27 99-86 99S16-35 15-95c0-66 28-99 85-99zM99-20c44 1 53-31 53-75 0-43-8-75-51-75s-53 32-53 75 10 74 51 75"
                  id="v"/>
            <path fill="#000000" d="M114-163C36-179 61-72 57 0H25l-1-190h30c1 12-1 29 2 39 6-27 23-49 58-41v29" id="w"/>
            <path fill="#000000"
                  d="M210-169c-67 3-38 105-44 169h-31v-121c0-29-5-50-35-48C34-165 62-65 56 0H25l-1-190h30c1 10-1 24 2 32 10-44 99-50 107 0 11-21 27-35 58-36 85-2 47 119 55 194h-31v-121c0-29-5-49-35-48"
                  id="x"/>
            <path fill="#000000"
                  d="M141-36C126-15 110 5 73 4 37 3 15-17 15-53c-1-64 63-63 125-63 3-35-9-54-41-54-24 1-41 7-42 31l-33-3c5-37 33-52 76-52 45 0 72 20 72 64v82c-1 20 7 32 28 27v20c-31 9-61-2-59-35zM48-53c0 20 12 33 32 33 41-3 63-29 60-74-43 2-92-5-92 41"
                  id="y"/>
            <path fill="#000000" d="M24 0v-261h32V0H24" id="z"/>
            <g id="f">
                <use transform="matrix(0.03703703703703702,0,0,0.03703703703703702,0,0)" xlink:href="#u"/>
                <use transform="matrix(0.03703703703703702,0,0,0.03703703703703702,3.703703703703702,0)"
                     xlink:href="#v"/>
                <use transform="matrix(0.03703703703703702,0,0,0.03703703703703702,11.111111111111107,0)"
                     xlink:href="#w"/>
                <use transform="matrix(0.03703703703703702,0,0,0.03703703703703702,15.518518518518512,0)"
                     xlink:href="#x"/>
                <use transform="matrix(0.03703703703703702,0,0,0.03703703703703702,26.59259259259258,0)"
                     xlink:href="#y"/>
                <use transform="matrix(0.03703703703703702,0,0,0.03703703703703702,33.999999999999986,0)"
                     xlink:href="#z"/>
            </g>
            <path fill="#000000"
                  d="M115-194c55 1 70 41 70 98S169 2 115 4C84 4 66-9 55-30l1 105H24l-1-265h31l2 30c10-21 28-34 59-34zm-8 174c40 0 45-34 45-75s-6-73-45-74c-42 0-51 32-51 76 0 43 10 73 51 73"
                  id="A"/>
            <path fill="#000000"
                  d="M100-194c63 0 86 42 84 106H49c0 40 14 67 53 68 26 1 43-12 49-29l28 8c-11 28-37 45-77 45C44 4 14-33 15-96c1-61 26-98 85-98zm52 81c6-60-76-77-97-28-3 7-6 17-6 28h103"
                  id="B"/>
            <path fill="#000000" d="M59-47c-2 24 18 29 38 22v24C64 9 27 4 27-40v-127H5v-23h24l9-43h21v43h35v23H59v120"
                  id="C"/>
            <g id="g">
                <use transform="matrix(0.03703703703703702,0,0,0.03703703703703702,0,0)" xlink:href="#A"/>
                <use transform="matrix(0.03703703703703702,0,0,0.03703703703703702,7.407407407407404,0)"
                     xlink:href="#y"/>
                <use transform="matrix(0.03703703703703702,0,0,0.03703703703703702,14.814814814814808,0)"
                     xlink:href="#w"/>
                <use transform="matrix(0.03703703703703702,0,0,0.03703703703703702,19.222222222222214,0)"
                     xlink:href="#y"/>
                <use transform="matrix(0.03703703703703702,0,0,0.03703703703703702,26.62962962962962,0)"
                     xlink:href="#x"/>
                <use transform="matrix(0.03703703703703702,0,0,0.03703703703703702,37.70370370370369,0)"
                     xlink:href="#B"/>
                <use transform="matrix(0.03703703703703702,0,0,0.03703703703703702,45.11111111111109,0)"
                     xlink:href="#C"/>
                <use transform="matrix(0.03703703703703702,0,0,0.03703703703703702,48.814814814814795,0)"
                     xlink:href="#B"/>
                <use transform="matrix(0.03703703703703702,0,0,0.03703703703703702,56.2222222222222,0)"
                     xlink:href="#w"/>
            </g>
            <path fill="#000000" d="M124 0L87-78 21 0h-35l86-98-46-92h33l34 74 61-74h37l-83 92 50 98h-34" id="D"/>
            <use transform="matrix(0.03703703703703702,0,0,0.03703703703703702,0,0)" xlink:href="#D" id="h"/>
            <path fill="#000000" d="M24-231v-30h32v30H24zM24 0v-190h32V0H24" id="E"/>
            <path fill="#000000"
                  d="M135-143c-3-34-86-38-87 0 15 53 115 12 119 90S17 21 10-45l28-5c4 36 97 45 98 0-10-56-113-15-118-90-4-57 82-63 122-42 12 7 21 19 24 35"
                  id="F"/>
            <g id="i">
                <use transform="matrix(0.03703703703703702,0,0,0.03703703703703702,0,0)" xlink:href="#E"/>
                <use transform="matrix(0.03703703703703702,0,0,0.03703703703703702,2.9259259259259247,0)"
                     xlink:href="#F"/>
            </g>
            <path fill="#000000"
                  d="M115-194c53 0 69 39 70 98 0 66-23 100-70 100C84 3 66-7 56-30L54 0H23l1-261h32v101c10-23 28-34 59-34zm-8 174c40 0 45-34 45-75 0-40-5-75-45-74-42 0-51 32-51 76 0 43 10 73 51 73"
                  id="G"/>
            <path fill="#000000"
                  d="M84 4C-5 8 30-112 23-190h32v120c0 31 7 50 39 49 72-2 45-101 50-169h31l1 190h-30c-1-10 1-25-2-33-11 22-28 36-60 37"
                  id="H"/>
            <path fill="#000000"
                  d="M117-194c89-4 53 116 60 194h-32v-121c0-31-8-49-39-48C34-167 62-67 57 0H25l-1-190h30c1 10-1 24 2 32 11-22 29-35 61-36"
                  id="I"/>
            <path fill="#000000"
                  d="M85-194c31 0 48 13 60 33l-1-100h32l1 261h-30c-2-10 0-23-3-31C134-8 116 4 85 4 32 4 16-35 15-94c0-66 23-100 70-100zm9 24c-40 0-46 34-46 75 0 40 6 74 45 74 42 0 51-32 51-76 0-42-9-74-50-73"
                  id="J"/>
            <g id="j">
                <use transform="matrix(0.03703703703703702,0,0,0.03703703703703702,0,0)" xlink:href="#G"/>
                <use transform="matrix(0.03703703703703702,0,0,0.03703703703703702,7.407407407407404,0)"
                     xlink:href="#v"/>
                <use transform="matrix(0.03703703703703702,0,0,0.03703703703703702,14.814814814814808,0)"
                     xlink:href="#H"/>
                <use transform="matrix(0.03703703703703702,0,0,0.03703703703703702,22.222222222222214,0)"
                     xlink:href="#I"/>
                <use transform="matrix(0.03703703703703702,0,0,0.03703703703703702,29.629629629629616,0)"
                     xlink:href="#J"/>
            </g>
            <g id="k">
                <use transform="matrix(0.03703703703703702,0,0,0.03703703703703702,0,0)" xlink:href="#E"/>
                <use transform="matrix(0.03703703703703702,0,0,0.03703703703703702,2.9259259259259247,0)"
                     xlink:href="#I"/>
            </g>
            <path fill="#000000"
                  d="M51-54c-9 22 5 41 31 30L79-1C43 14 10-4 19-52l22-115H19l5-23h22l19-43h21l-9 43h35l-4 23H73"
                  id="K"/>
            <use transform="matrix(0.03703703703703702,0,0,0.03703703703703702,0,0)" xlink:href="#K" id="l"/>
            <path fill="#000000"
                  d="M216 91c-5 132-51 141-199 139v-20c97 0 131-29 131-111v-232c0-70 22-104 76-115v-3c-53-12-76-42-76-98v-221c-1-85-40-110-131-110v-20c18 2 38 1 57 1 110-3 142 40 142 135v178c0 89 0 92 18 108 14 13 34 19 67 21v15c-38 3-51 7-65 20-18 18-20 27-20 123V91"
                  id="L"/>
            <use transform="matrix(0.05999999999999993,0,0,0.05999999999999993,0,0)" xlink:href="#L" id="m"/>
            <g id="n">
                <use transform="matrix(0.03703703703703702,0,0,0.03703703703703702,0,0)" xlink:href="#C"/>
                <use transform="matrix(0.03703703703703702,0,0,0.03703703703703702,3.703703703703702,0)"
                     xlink:href="#B"/>
                <use transform="matrix(0.03703703703703702,0,0,0.03703703703703702,11.111111111111107,0)"
                     xlink:href="#w"/>
                <use transform="matrix(0.03703703703703702,0,0,0.03703703703703702,15.518518518518512,0)"
                     xlink:href="#x"/>
            </g>
            <use transform="matrix(0.03703703703703702,0,0,0.03703703703703702,0,0)" xlink:href="#K" id="o"/>
        </defs>
    </g>
</svg>