<svg xmlns="http://www.w3.org/2000/svg" xmlns:xlink="http://www.w3.org/1999/xlink" xmlns:lucid="lucid" width="1202" height="661"><g transform="translate(1780.9999500000013 180)" lucid:page-tab-id="0_0"><path d="M-1760-114a6 6 0 0 1 6-6h208a6 6 0 0 1 6 6v428a6 6 0 0 1-6 6h-208a6 6 0 0 1-6-6z" stroke="#3a414a" stroke-width="2" fill="#f2f3f5"/><path d="M-1740-14a6 6 0 0 1 6-6h168a6 6 0 0 1 6 6v61.9a6 6 0 0 1-6 6h-168a6 6 0 0 1-6-6z" stroke="#3a414a" stroke-width="2" fill="#fff"/><use xlink:href="#a" transform="matrix(1,0,0,1,-1728,-8) translate(9.282552083333343 34.02777777777778)"/><use xlink:href="#b" transform="matrix(1,0,0,1,-1728,-8) translate(104.80121527777779 34.02777777777778)"/><path d="M-1740-94a6 6 0 0 1 6-6h168a6 6 0 0 1 6 6v61.9a6 6 0 0 1-6 6h-168a6 6 0 0 1-6-6z" stroke="#3a414a" stroke-width="2" fill="#fff"/><use xlink:href="#c" transform="matrix(1,0,0,1,-1728,-88) translate(17.089626736111114 34.02777777777778)"/><use xlink:href="#b" transform="matrix(1,0,0,1,-1728,-88) translate(96.994140625 34.02777777777778)"/><path d="M-1740 66a6 6 0 0 1 6-6h168a6 6 0 0 1 6 6v61.9a6 6 0 0 1-6 6h-168a6 6 0 0 1-6-6z" stroke="#3a414a" stroke-width="2" fill="#fff"/><use xlink:href="#d" transform="matrix(1,0,0,1,-1728,72) translate(22.639756944444443 34.02777777777778)"/><use xlink:href="#e" transform="matrix(1,0,0,1,-1728,72) translate(94.88368055555556 34.02777777777778)"/><path d="M-1740 146a6 6 0 0 1 6-6h168a6 6 0 0 1 6 6v61.9a6 6 0 0 1-6 6h-168a6 6 0 0 1-6-6z" stroke="#000" stroke-opacity="0" stroke-width="2" fill-opacity="0"/><use xlink:href="#f" transform="matrix(1,0,0,1,-1728,152) translate(68.41341145833333 34.02777777777778)"/><path d="M-1740 226a6 6 0 0 1 6-6h168a6 6 0 0 1 6 6v61.9a6 6 0 0 1-6 6h-168a6 6 0 0 1-6-6z" stroke="#3a414a" stroke-width="2" fill="#fff"/><use xlink:href="#g" transform="matrix(1,0,0,1,-1728,232) translate(26.00347222222223 34.02777777777778)"/><path d="M-1440-34a6 6 0 0 1 6-6h208a6 6 0 0 1 6 6v428a6 6 0 0 1-6 6h-208a6 6 0 0 1-6-6z" stroke="#3a414a" stroke-width="2" fill="#f2f3f5"/><path d="M-1420 66a6 6 0 0 1 6-6h168a6 6 0 0 1 6 6v61.9a6 6 0 0 1-6 6h-168a6 6 0 0 1-6-6z" stroke="#3a414a" stroke-width="2" fill="#fff"/><use xlink:href="#a" transform="matrix(1,0,0,1,-1408,72.00000000000001) translate(5.679578993055557 34.02777777777778)"/><use xlink:href="#h" transform="matrix(1,0,0,1,-1408,72.00000000000001) translate(101.1982421875 34.02777777777778)"/><path d="M-1420-14a6 6 0 0 1 6-6h168a6 6 0 0 1 6 6v61.9a6 6 0 0 1-6 6h-168a6 6 0 0 1-6-6z" stroke="#3a414a" stroke-width="2" fill="#fff"/><use xlink:href="#c" transform="matrix(1,0,0,1,-1408,-7.999999999999993) translate(17.089626736111114 34.02777777777778)"/><use xlink:href="#b" transform="matrix(1,0,0,1,-1408,-7.999999999999993) translate(96.994140625 34.02777777777778)"/><path d="M-1420 146a6 6 0 0 1 6-6h168a6 6 0 0 1 6 6v61.9a6 6 0 0 1-6 6h-168a6 6 0 0 1-6-6z" stroke="#3a414a" stroke-width="2" fill="#fff"/><use xlink:href="#d" transform="matrix(1,0,0,1,-1408,152) translate(22.639756944444443 34.02777777777778)"/><use xlink:href="#e" transform="matrix(1,0,0,1,-1408,152) translate(94.88368055555556 34.02777777777778)"/><path d="M-1420 226a6 6 0 0 1 6-6h168a6 6 0 0 1 6 6v61.9a6 6 0 0 1-6 6h-168a6 6 0 0 1-6-6z" stroke="#000" stroke-opacity="0" stroke-width="2" fill-opacity="0"/><use xlink:href="#f" transform="matrix(1,0,0,1,-1408,232) translate(68.41341145833333 34.02777777777778)"/><path d="M-1420 306a6 6 0 0 1 6-6h168a6 6 0 0 1 6 6v61.9a6 6 0 0 1-6 6h-168a6 6 0 0 1-6-6z" stroke="#3a414a" stroke-width="2" fill="#fff"/><use xlink:href="#g" transform="matrix(1,0,0,1,-1408,312) translate(26.00347222222223 34.02777777777778)"/><path d="M-1120 46a6 6 0 0 1 6-6h208a6 6 0 0 1 6 6v428a6 6 0 0 1-6 6h-208a6 6 0 0 1-6-6z" stroke="#3a414a" stroke-width="2" fill="#f2f3f5"/><path d="M-1100 146a6 6 0 0 1 6-6h168a6 6 0 0 1 6 6v61.9a6 6 0 0 1-6 6h-168a6 6 0 0 1-6-6z" stroke="#3a414a" stroke-width="2" fill="#fff"/><use xlink:href="#a" transform="matrix(1,0,0,1,-1088,152) translate(0.7756076388888857 34.02777777777778)"/><use xlink:href="#i" transform="matrix(1,0,0,1,-1088,152) translate(96.29427083333333 34.02777777777778)"/><path d="M-1100 66a6 6 0 0 1 6-6h168a6 6 0 0 1 6 6v61.9a6 6 0 0 1-6 6h-168a6 6 0 0 1-6-6z" stroke="#3a414a" stroke-width="2" fill="#fff"/><use xlink:href="#c" transform="matrix(1,0,0,1,-1088,72.00000000000001) translate(13.486653645833343 34.02777777777778)"/><use xlink:href="#h" transform="matrix(1,0,0,1,-1088,72.00000000000001) translate(93.39116753472223 34.02777777777778)"/><path d="M-1100 226a6 6 0 0 1 6-6h168a6 6 0 0 1 6 6v61.9a6 6 0 0 1-6 6h-168a6 6 0 0 1-6-6z" stroke="#3a414a" stroke-width="2" fill="#fff"/><use xlink:href="#d" transform="matrix(1,0,0,1,-1088,232) translate(22.639756944444443 34.02777777777778)"/><use xlink:href="#e" transform="matrix(1,0,0,1,-1088,232) translate(94.88368055555556 34.02777777777778)"/><path d="M-1100 306a6 6 0 0 1 6-6h168a6 6 0 0 1 6 6v61.9a6 6 0 0 1-6 6h-168a6 6 0 0 1-6-6z" stroke="#000" stroke-opacity="0" stroke-width="2" fill-opacity="0"/><use xlink:href="#f" transform="matrix(1,0,0,1,-1088,312) translate(68.41341145833333 34.02777777777778)"/><path d="M-1100 386a6 6 0 0 1 6-6h168a6 6 0 0 1 6 6v61.9a6 6 0 0 1-6 6h-168a6 6 0 0 1-6-6z" stroke="#3a414a" stroke-width="2" fill="#fff"/><use xlink:href="#g" transform="matrix(1,0,0,1,-1088,392) translate(26.00347222222223 34.02777777777778)"/><path d="M-1760-174a6 6 0 0 1 6-6h208a6 6 0 0 1 6 6v48a6 6 0 0 1-6 6h-208a6 6 0 0 1-6-6z" fill="none"/><use xlink:href="#j" transform="matrix(1,0,0,1,-1760,-180) translate(65.13237847222223 38.083767361111114)"/><use xlink:href="#k" transform="matrix(1,0,0,1,-1760,-180) translate(113.35286458333334 38.083767361111114)"/><path d="M-1440-94a6 6 0 0 1 6-6h208a6 6 0 0 1 6 6v48a6 6 0 0 1-6 6h-208a6 6 0 0 1-6-6z" fill="none"/><use xlink:href="#l" transform="matrix(1,0,0,1,-1440,-100) translate(69.912109375 38.083767361111114)"/><use xlink:href="#k" transform="matrix(1,0,0,1,-1440,-100) translate(108.57313368055556 38.083767361111114)"/><path d="M-1120-14a6 6 0 0 1 6-6h208a6 6 0 0 1 6 6v48a6 6 0 0 1-6 6h-208a6 6 0 0 1-6-6z" fill="none"/><use xlink:href="#m" transform="matrix(1,0,0,1,-1120,-20) translate(56.7013888888889 38.083767361111114)"/><use xlink:href="#k" transform="matrix(1,0,0,1,-1120,-20) translate(121.78385416666667 38.083767361111114)"/><path d="M-800 126a6 6 0 0 1 6-6h208a6 6 0 0 1 6 6v268a6 6 0 0 1-6 6h-208a6 6 0 0 1-6-6z" stroke="#3a414a" stroke-width="2" fill="#f2f3f5"/><path d="M-780 146a6 6 0 0 1 6-6h168a6 6 0 0 1 6 6v61.9a6 6 0 0 1-6 6h-168a6 6 0 0 1-6-6z" stroke="#3a414a" stroke-width="2" fill="#fff"/><use xlink:href="#n" transform="matrix(1,0,0,1,-768,152) translate(6.841145833333329 34.02777777777778)"/><use xlink:href="#i" transform="matrix(1,0,0,1,-768,152) translate(90.22873263888889 34.02777777777778)"/><path d="M-780 226a6 6 0 0 1 6-6h168a6 6 0 0 1 6 6v61.9a6 6 0 0 1-6 6h-168a6 6 0 0 1-6-6z" stroke="#000" stroke-opacity="0" stroke-width="2" fill-opacity="0"/><use xlink:href="#f" transform="matrix(1,0,0,1,-768,232) translate(68.41341145833333 34.02777777777778)"/><path d="M-780 306a6 6 0 0 1 6-6h168a6 6 0 0 1 6 6v61.9a6 6 0 0 1-6 6h-168a6 6 0 0 1-6-6z" stroke="#3a414a" stroke-width="2" fill="#fff"/><use xlink:href="#g" transform="matrix(1,0,0,1,-768,312) translate(26.00347222222223 34.02777777777778)"/><path d="M-800 66a6 6 0 0 1 6-6h208a6 6 0 0 1 6 6v48a6 6 0 0 1-6 6h-208a6 6 0 0 1-6-6z" fill="none"/><use xlink:href="#o" transform="matrix(1,0,0,1,-800,60) translate(18.978949652777786 38.083767361111114)"/><use xlink:href="#p" transform="matrix(1,0,0,1,-800,60) translate(95.51974826388889 38.083767361111114)"/><path d="M-1422 16.94h-118.5" stroke="#3a414a" stroke-width="2" fill="none"/><path d="M-1421 17.92h-1.03v-1.95h1.03z" stroke="#3a414a" stroke-width=".05" fill="#3a414a"/><path d="M-1555.76 16.94l14.26-4.63v9.28z" stroke="#3a414a" stroke-width="2" fill="#3a414a"/><path d="M-1558 96.94h62a6 6 0 0 1 6 6v228a6 6 0 0 0 6 6h44.5" stroke="#3a414a" stroke-width="2" fill="none"/><path d="M-1557.97 97.92h-1.03v-1.95h1.03z" stroke="#3a414a" stroke-width=".05" fill="#3a414a"/><path d="M-1424.24 336.94l-14.26 4.64v-9.27z" stroke="#3a414a" stroke-width="2" fill="#3a414a"/><path d="M-1759.5 96.94h-15.5a6 6 0 0 0-6 6v148a6 6 0 0 0 6 6h15.5" stroke="#3a414a" stroke-width="2" fill="none"/><path d="M-1744.24 96.94l-14.26 4.64V92.3zM-1744.24 256.94l-14.26 4.64v-9.27z" stroke="#3a414a" stroke-width="2" fill="#3a414a"/><path d="M-1238 176.94h62a6 6 0 0 1 6 6v228a6 6 0 0 0 6 6h44.5" stroke="#3a414a" stroke-width="2" fill="none"/><path d="M-1237.97 177.92h-1.03v-1.95h1.03z" stroke="#3a414a" stroke-width=".05" fill="#3a414a"/><path d="M-1104.24 416.94l-14.26 4.64v-9.27z" stroke="#3a414a" stroke-width="2" fill="#3a414a"/><path d="M-1102 96.94h-118.5" stroke="#3a414a" stroke-width="2" fill="none"/><path d="M-1101 97.92h-1.03v-1.95h1.03z" stroke="#3a414a" stroke-width=".05" fill="#3a414a"/><path d="M-1235.76 96.94l14.26-4.63v9.28z" stroke="#3a414a" stroke-width="2" fill="#3a414a"/><path d="M-782 176.94h-118.5" stroke="#3a414a" stroke-width="2" fill="none"/><path d="M-781 177.92h-1.03v-1.95h1.03z" stroke="#3a414a" stroke-width=".05" fill="#3a414a"/><path d="M-915.76 176.94l14.26-4.63v9.28z" stroke="#3a414a" stroke-width="2" fill="#3a414a"/><path d="M-918 256.94h62a6 6 0 0 1 6 6v68a6 6 0 0 0 6 6h44.5" stroke="#3a414a" stroke-width="2" fill="none"/><path d="M-917.97 257.92H-919v-1.95h1.03z" stroke="#3a414a" stroke-width=".05" fill="#3a414a"/><path d="M-784.24 336.94l-14.26 4.64v-9.27z" stroke="#3a414a" stroke-width="2" fill="#3a414a"/><defs><path d="M681 22C323 22 94-145 85-462h297c10 151 131 226 296 226 163 0 271-77 271-190 0-102-95-149-257-189l-164-41c-252-61-403-188-403-405 0-269 236-449 560-449 330 0 546 183 551 445H941c-11-119-106-188-259-188-156 0-244 72-244 172-3 156 226 185 373 221 250 61 445 186 445 436 0 271-213 446-575 446" id="q"/><path d="M513 14c-232 0-385-159-385-421v-711h300v659c0 139 76 222 202 222 127 0 217-86 217-234v-647h301V0H864l-4-232C797-74 683 14 513 14" id="r"/><path d="M754 19C571 19 479-89 437-179h-14V0H128v-1490h300v560h9c41-89 129-202 319-202 248 0 453 193 453 575 0 372-197 576-455 576zm-92-241c156 0 240-139 240-336 0-196-83-334-240-334-154 0-241 131-241 334 0 202 88 336 241 336" id="s"/><path d="M127-1118h301V57c1 278-186 374-478 361V182c116 8 177-28 177-129v-1171zm151-146c-90 0-165-68-165-154 0-85 75-154 165-154s165 69 165 154c0 86-75 154-165 154" id="t"/><path d="M633 22C291 22 81-200 81-553c0-345 210-579 537-579 292 0 525 185 525 567v84H378c7 183 109 277 260 277 105 0 184-46 216-132l272 51C1071-99 893 22 633 22zM380-669h474c-15-146-94-237-233-237-143 0-229 99-241 237" id="u"/><path d="M628 22C291 22 81-210 81-554c0-346 210-578 547-578 265 0 455 142 497 372l-279 52c-25-116-99-188-215-188-160 0-244 139-244 341 0 200 84 341 244 341 116 0 193-74 217-195l279 51C1085-123 896 22 628 22" id="v"/><path d="M683-1118v229H474v562c0 71 29 104 102 104 23 0 73-7 95-13l43 225C647 9 580 16 520 16 296 16 174-96 174-301v-588H20v-229h154v-266h300v266h209" id="w"/><path d="M295 13c-75 0-135-60-135-135s60-135 135-135 135 60 135 135S370 13 295 13zm0-809c-75 0-135-60-135-135s60-135 135-135 135 60 135 135-60 135-135 135" id="x"/><g id="a"><use transform="matrix(0.010850694444444444,0,0,0.010850694444444444,0,0)" xlink:href="#q"/><use transform="matrix(0.010850694444444444,0,0,0.010850694444444444,14.55078125,0)" xlink:href="#r"/><use transform="matrix(0.010850694444444444,0,0,0.010850694444444444,28.385416666666664,0)" xlink:href="#s"/><use transform="matrix(0.010850694444444444,0,0,0.010850694444444444,42.39366319444444,0)" xlink:href="#t"/><use transform="matrix(0.010850694444444444,0,0,0.010850694444444444,48.41579861111111,0)" xlink:href="#u"/><use transform="matrix(0.010850694444444444,0,0,0.010850694444444444,61.65364583333333,0)" xlink:href="#v"/><use transform="matrix(0.010850694444444444,0,0,0.010850694444444444,74.72873263888889,0)" xlink:href="#w"/><use transform="matrix(0.010850694444444444,0,0,0.010850694444444444,82.86675347222221,0)" xlink:href="#x"/></g><path d="M158 0v-1118h174v172h12c41-113 157-188 290-188 26 0 70 2 91 3v181c-11-2-60-10-108-10-161 0-279 109-279 260V0H158" id="y"/><path d="M613 24c-304 0-509-231-509-576 0-350 205-580 509-580 305 0 511 230 511 580 0 345-206 576-511 576zm0-161c226 0 329-195 329-415 0-222-103-419-329-419-223 0-326 196-326 419 0 220 103 415 326 415" id="z"/><path d="M598-1118v154H368v674c0 100 37 144 132 144 23 0 62-6 92-12L629-6c-37 13-88 20-134 20-193 0-307-107-307-290v-688H20v-154h168v-266h180v266h230" id="A"/><g id="b"><use transform="matrix(0.010850694444444444,0,0,0.010850694444444444,0,0)" xlink:href="#y"/><use transform="matrix(0.010850694444444444,0,0,0.010850694444444444,7.996961805555555,0)" xlink:href="#z"/><use transform="matrix(0.010850694444444444,0,0,0.010850694444444444,21.321614583333332,0)" xlink:href="#z"/><use transform="matrix(0.010850694444444444,0,0,0.010850694444444444,34.64626736111111,0)" xlink:href="#A"/></g><path d="M440-1490V0H135v-1490h305" id="B"/><path d="M572 22C302 22 117-98 78-306l279-48c29 105 101 156 224 156 114 0 185-48 185-115 0-118-228-130-337-155-215-49-322-150-322-317 0-215 187-347 470-347 265 0 424 116 466 298l-266 47c-24-76-87-130-196-130-98 0-174 46-174 113 0 56 38 95 144 117l201 40c216 44 320 143 320 302 0 220-207 367-500 367" id="C"/><path d="M128 0v-1118h290v195h12c54-169 184-238 367-200v268c-27-8-86-15-130-15-138 0-239 95-239 234V0H128" id="D"/><g id="c"><use transform="matrix(0.010850694444444444,0,0,0.010850694444444444,0,0)" xlink:href="#B"/><use transform="matrix(0.010850694444444444,0,0,0.010850694444444444,6.239149305555555,0)" xlink:href="#C"/><use transform="matrix(0.010850694444444444,0,0,0.010850694444444444,18.684895833333332,0)" xlink:href="#C"/><use transform="matrix(0.010850694444444444,0,0,0.010850694444444444,31.130642361111104,0)" xlink:href="#r"/><use transform="matrix(0.010850694444444444,0,0,0.010850694444444444,44.96527777777778,0)" xlink:href="#u"/><use transform="matrix(0.010850694444444444,0,0,0.010850694444444444,58.203124999999986,0)" xlink:href="#D"/><use transform="matrix(0.010850694444444444,0,0,0.010850694444444444,67.25260416666666,0)" xlink:href="#x"/></g><path d="M-34 418l255-1536h295l-34 188h9c56-93 162-202 343-202 221 0 385 151 385 442 0 320-177 709-544 709-191 0-269-117-296-207h-14l-99 606H-34zm624-640c223 0 323-269 323-451 0-133-57-219-180-219-214 0-324 244-324 448 0 137 61 222 181 222" id="E"/><path d="M419 14C188 14 60-144 103-407l118-711h300L412-459c-23 138 39 222 166 222 125 0 231-84 255-234l107-647h301L1056 0H772l35-232C717-74 589 14 419 14" id="F"/><path d="M675 19C485 19 405-93 377-185h-16L330 0H35l247-1490h300l-95 560h12c57-95 153-202 335-202 221 0 385 151 385 442 0 320-177 709-544 709zm-85-241c223 0 323-269 323-451 0-133-57-219-180-219-214 0-324 244-324 448 0 137 61 222 181 222" id="G"/><path d="M582-1490L335 0H35l247-1490h300" id="H"/><path d="M36 0l185-1118h300L336 0H36zm359-1264c-91 0-153-69-139-154 14-84 99-154 190-154 89 0 153 67 139 154-14 86-100 154-190 154" id="I"/><path d="M548 22C250 22 73-164 73-448c0-345 220-684 633-684 269 0 447 145 451 374l-285 48c-6-116-55-186-169-186-226 0-328 261-328 457 0 135 55 225 182 225 119 0 222-77 266-198l271 56C1013-122 815 22 548 22" id="J"/><g id="d"><use transform="matrix(0.010850694444444444,0,0,0.010850694444444444,0,0)" xlink:href="#E"/><use transform="matrix(0.010850694444444444,0,0,0.010850694444444444,14.008246527777777,0)" xlink:href="#F"/><use transform="matrix(0.010850694444444444,0,0,0.010850694444444444,27.85373263888889,0)" xlink:href="#G"/><use transform="matrix(0.010850694444444444,0,0,0.010850694444444444,41.861979166666664,0)" xlink:href="#H"/><use transform="matrix(0.010850694444444444,0,0,0.010850694444444444,47.88411458333333,0)" xlink:href="#I"/><use transform="matrix(0.010850694444444444,0,0,0.010850694444444444,53.91710069444444,0)" xlink:href="#J"/></g><path d="M35 0l247-1490h300L449-688h18l436-430h347L752-633 1086 0H733L496-456l-102 98L335 0H35" id="K"/><path d="M552 24C254 24 71-146 71-432c0-377 264-705 643-705 236 0 413 123 413 326 0 251-270 329-766 342-10 155 35 265 213 267 113 0 207-50 245-134l269 36C1015-105 814 24 552 24zM392-650c368-7 456-43 456-146 0-71-63-115-165-115-165 0-251 126-291 261" id="L"/><path d="M-37 396L69 170c124 42 243 19 271-107l19-60-235-1121h310c39 287 107 555 115 872 123-306 281-582 422-872h323L612 132c-98 180-235 294-460 294-77 0-149-13-189-30" id="M"/><g id="e"><use transform="matrix(0.010850694444444444,0,0,0.010850694444444444,0,0)" xlink:href="#K"/><use transform="matrix(0.010850694444444444,0,0,0.010850694444444444,12.391493055555555,0)" xlink:href="#L"/><use transform="matrix(0.010850694444444444,0,0,0.010850694444444444,25.09765625,0)" xlink:href="#M"/></g><path d="M210 13C133 13 75-52 89-134c12-70 77-122 143-122 81 0 133 67 122 143-10 69-73 126-144 126" id="N"/><g id="f"><use transform="matrix(0.010850694444444444,0,0,0.010850694444444444,0,0)" xlink:href="#N"/><use transform="matrix(0.010850694444444444,0,0,0.010850694444444444,6.391059027777778,0)" xlink:href="#N"/><use transform="matrix(0.010850694444444444,0,0,0.010850694444444444,12.782118055555555,0)" xlink:href="#N"/></g><path d="M490 22C212 20 43-104 37-315l281-29c11 104 65 146 186 146 109 0 214-47 222-128 5-51-29-84-119-104l-186-40c-195-42-289-149-277-303 14-232 242-359 510-359 274 2 415 119 430 308l-267 27c-11-76-56-120-162-120-98 0-203 45-211 128-6 50 24 83 118 104l194 40c196 41 291 138 279 289-15 238-265 378-545 378" id="O"/><path d="M475 442C186 442 28 316 6 158l262-52c16 60 71 118 210 118 161 0 274-79 300-226l34-196-27 2C728-104 635-16 463-16 238-16 73-154 73-436c0-339 199-696 543-696 197 0 275 122 301 211l14-2 33-195h296L1074 0c-51 303-290 442-599 442zm87-686c217 0 320-234 320-431 0-135-60-217-181-217-209 0-322 240-322 439 0 131 60 209 183 209" id="P"/><path d="M441-638L335 0H35l186-1118h282l-30 213c87-148 206-227 368-227 241 0 374 169 330 431L1055 0H754l112-669c23-140-43-212-161-212-135 0-240 96-264 243" id="Q"/><path d="M441 19C184 19 19-186 81-558c63-382 303-574 550-574 189 0 259 113 285 202h10l31-188h299L1071 0H776l29-179h-14C733-87 623 19 441 19zm133-241c154 0 263-135 296-336 34-204-31-334-185-334-159 0-264 139-296 334-33 197 29 336 185 336" id="R"/><path d="M776-1118l-37 229H530l-93 562c-12 72 14 104 85 104 23 0 74-7 97-13l5 225C555 8 488 16 426 16 201 16 99-97 132-301l98-588H76l37-229h155l44-266h300l-44 266h208" id="S"/><path d="M36 0l185-1118h290l-31 195h12c83-166 210-238 399-200l-45 268c-197-55-375 37-405 219L336 0H36" id="T"/><g id="g"><use transform="matrix(0.010850694444444444,0,0,0.010850694444444444,0,0)" xlink:href="#O"/><use transform="matrix(0.010850694444444444,0,0,0.010850694444444444,12.434895833333332,0)" xlink:href="#I"/><use transform="matrix(0.010850694444444444,0,0,0.010850694444444444,18.467881944444443,0)" xlink:href="#P"/><use transform="matrix(0.010850694444444444,0,0,0.010850694444444444,32.50868055555556,0)" xlink:href="#Q"/><use transform="matrix(0.010850694444444444,0,0,0.010850694444444444,46.34331597222222,0)" xlink:href="#R"/><use transform="matrix(0.010850694444444444,0,0,0.010850694444444444,60.36241319444444,0)" xlink:href="#S"/><use transform="matrix(0.010850694444444444,0,0,0.010850694444444444,68.52213541666666,0)" xlink:href="#F"/><use transform="matrix(0.010850694444444444,0,0,0.010850694444444444,82.36762152777777,0)" xlink:href="#T"/><use transform="matrix(0.010850694444444444,0,0,0.010850694444444444,90.88541666666666,0)" xlink:href="#L"/></g><path d="M98-1322v-168h1126v168H757V0H567v-1322H98" id="U"/><path d="M657 26c-323 0-524-166-541-416h195c15 169 171 246 346 246 202 0 356-106 356-265 5-203-294-238-475-293-239-73-380-191-380-389 0-252 224-419 512-419 294 0 499 171 508 396H992c-17-145-151-228-328-228-193 0-321 102-321 242 0 156 175 211 284 241l149 41c160 44 422 134 422 412 0 244-197 432-541 432" id="V"/><path d="M180 0v-1490h510c348 0 508 209 508 474 0 266-160 477-507 477H370V0H180zm190-706h312c236 0 327-133 327-310 0-176-91-307-329-307H370v617" id="W"/><path d="M653-1490V0H466v-1314h-10L96-1047v-204l324-239h233" id="X"/><g id="h"><use transform="matrix(0.010850694444444444,0,0,0.010850694444444444,0,0)" xlink:href="#U"/><use transform="matrix(0.010850694444444444,0,0,0.010850694444444444,14.344618055555555,0)" xlink:href="#V"/><use transform="matrix(0.010850694444444444,0,0,0.010850694444444444,28.60243055555556,0)" xlink:href="#W"/><use transform="matrix(0.00759548611111111,0,0,0.00759548611111111,42.795138888888886,3.7673611111111107)" xlink:href="#X"/></g><path d="M628 24c-324 0-524-230-524-574 0-343 198-582 503-582 237 0 487 146 487 559v75H286c9 234 145 362 343 362 132 0 231-58 273-172l174 48C1024-91 857 24 628 24zM287-650h624c-17-190-120-322-304-322-192 0-309 151-320 322" id="Y"/><path d="M338-670V0H158v-1118h173l1 207c72-158 192-221 342-221 226 0 378 139 378 422V0H872v-695c0-172-96-275-252-275-161 0-282 109-282 300" id="Z"/><path d="M158 0v-1118h180V0H158zm91-1301c-68 0-125-53-125-119s57-119 125-119c69 0 126 53 126 119s-57 119-126 119" id="aa"/><path d="M140 405l46-156c120 36 205 19 263-150l32-93L54-1118h197c107 313 237 620 324 950 87-331 219-637 326-950h196L606 167c-68 178-176 259-334 259-64 0-113-12-132-21" id="ab"/><g id="i"><use transform="matrix(0.010850694444444444,0,0,0.010850694444444444,0,0)" xlink:href="#Y"/><use transform="matrix(0.010850694444444444,0,0,0.010850694444444444,12.955729166666666,0)" xlink:href="#Z"/><use transform="matrix(0.010850694444444444,0,0,0.010850694444444444,26.085069444444443,0)" xlink:href="#A"/><use transform="matrix(0.010850694444444444,0,0,0.010850694444444444,33.35503472222222,0)" xlink:href="#aa"/><use transform="matrix(0.010850694444444444,0,0,0.010850694444444444,38.736979166666664,0)" xlink:href="#A"/><use transform="matrix(0.010850694444444444,0,0,0.010850694444444444,46.44097222222222,0)" xlink:href="#ab"/></g><path d="M66 0l185-1118h174l-28 172h12c78-136 219-209 411-185l-30 181c-211-47-398 67-428 250L246 0H66" id="ac"/><path d="M528 24C258 24 94-156 94-433c0-355 229-699 603-699 270 0 436 178 436 458 0 359-234 698-605 698zm4-161c275 0 420-287 420-533 0-170-77-301-260-301-271 0-418 288-418 536 0 168 77 298 258 298" id="ad"/><path d="M691-1118l-25 154H437L325-290c-17 103 16 144 108 144 23 0 63-6 94-12L538-6c-36 12-87 20-136 20-196 0-290-109-260-290l114-688H88l25-154h169l44-266h180l-44 266h229" id="ae"/><g id="j"><use transform="matrix(0.010850694444444444,0,0,0.010850694444444444,0,0)" xlink:href="#ac"/><use transform="matrix(0.010850694444444444,0,0,0.010850694444444444,8.0078125,0)" xlink:href="#ad"/><use transform="matrix(0.010850694444444444,0,0,0.010850694444444444,21.34331597222222,0)" xlink:href="#ad"/><use transform="matrix(0.010850694444444444,0,0,0.010850694444444444,34.67881944444444,0)" xlink:href="#ae"/></g><path d="M528 24C258 24 94-156 94-433c0-354 228-699 603-699 222 0 381 120 410 314l-176 39c-14-114-95-192-238-192-272 0-419 288-419 536 0 167 76 298 258 298 155 0 277-90 329-211l166 58C935-93 745 24 528 24" id="af"/><path d="M535 24C259 24 94-144 94-427c0-392 272-715 610-715 216 0 356 119 356 305 0 244-237 344-790 350-18 199 49 349 276 352 142 0 260-66 317-173l167 47C947-85 756 24 535 24zM294-623c447-4 586-57 586-218 0-85-78-141-194-141-220 0-342 177-392 359" id="ag"/><g id="k"><use transform="matrix(0.010850694444444444,0,0,0.010850694444444444,0,0)" xlink:href="#af"/><use transform="matrix(0.010850694444444444,0,0,0.010850694444444444,12.706163194444445,0)" xlink:href="#ag"/><use transform="matrix(0.010850694444444444,0,0,0.010850694444444444,25.499131944444443,0)" xlink:href="#ac"/><use transform="matrix(0.010850694444444444,0,0,0.010850694444444444,34.22309027777777,0)" xlink:href="#ae"/></g><path d="M451 24C217 22 71-78 61-277l174-29c11 123 90 172 219 172 161 0 280-83 297-181 11-71-30-117-135-143l-179-44c-195-48-280-153-253-316 31-186 223-314 455-314 233 4 337 107 366 275l-165 30c-18-80-65-152-204-152-138 0-256 75-272 174-13 77 32 118 158 149l162 40c195 48 278 154 252 313C904-113 708 24 451 24" id="ah"/><path d="M-4 418l255-1536h174l-30 179h9c47-68 143-193 355-193 246 0 401 170 401 447 0 348-211 709-568 709-219 0-274-140-300-202h-17l-99 596H-4zm572-555c267 0 411-296 411-543 0-170-78-291-250-291-269 0-405 284-405 542 0 177 81 292 244 292" id="ai"/><g id="l"><use transform="matrix(0.010850694444444444,0,0,0.010850694444444444,0,0)" xlink:href="#ae"/><use transform="matrix(0.010850694444444444,0,0,0.010850694444444444,7.074652777777776,0)" xlink:href="#ah"/><use transform="matrix(0.010850694444444444,0,0,0.010850694444444444,18.79340277777778,0)" xlink:href="#ai"/></g><path d="M356-664L245 0H65l186-1118h173l-32 197c96-152 219-211 366-211 232 0 366 145 319 428L960 0H779l117-701c29-174-48-269-198-269-165 0-310 115-342 306" id="aj"/><path d="M66 0l185-1118h180L246 0H66zm307-1301c-71 0-117-55-106-119s74-119 145-119c65 0 117 50 106 118s-78 120-145 120" id="ak"/><path d="M-19 405l72-156c121 32 203 15 288-150l47-93-241-1124h188c55 313 135 616 167 950 142-329 324-636 483-950h205L486 167c-97 177-219 259-378 259-59 0-109-11-127-21" id="al"/><g id="m"><use transform="matrix(0.010850694444444444,0,0,0.010850694444444444,0,0)" xlink:href="#ag"/><use transform="matrix(0.010850694444444444,0,0,0.010850694444444444,12.79296875,0)" xlink:href="#aj"/><use transform="matrix(0.010850694444444444,0,0,0.010850694444444444,25.93315972222222,0)" xlink:href="#ae"/><use transform="matrix(0.010850694444444444,0,0,0.010850694444444444,33.224826388888886,0)" xlink:href="#ak"/><use transform="matrix(0.010850694444444444,0,0,0.010850694444444444,38.61762152777777,0)" xlink:href="#ae"/><use transform="matrix(0.010850694444444444,0,0,0.010850694444444444,46.34331597222221,0)" xlink:href="#al"/></g><path d="M128 0v-1118h300V0H128zm150-1264c-91 0-165-68-165-154 0-85 74-154 165-154 90 0 165 69 165 154 0 86-75 154-165 154" id="am"/><path d="M625 442c-280 0-454-114-503-274l258-72c28 63 97 128 243 128 153 0 246-69 246-216v-206h-23C805-108 717-16 536-16 284-16 81-191 81-561c0-378 208-571 456-571 188 0 280 113 321 202h13v-188h295V-9c0 303-226 451-541 451zm5-686c153 0 240-119 240-319 0-198-86-329-240-329-158 0-241 137-241 329 0 195 85 319 241 319" id="an"/><path d="M428-647V0H128v-1118h283l4 231c63-156 176-245 348-245 232 0 384 159 384 421V0H847v-659c0-139-76-222-202-222-128 0-217 86-217 234" id="ao"/><g id="n"><use transform="matrix(0.010850694444444444,0,0,0.010850694444444444,0,0)" xlink:href="#q"/><use transform="matrix(0.010850694444444444,0,0,0.010850694444444444,14.55078125,0)" xlink:href="#am"/><use transform="matrix(0.010850694444444444,0,0,0.010850694444444444,20.572916666666664,0)" xlink:href="#an"/><use transform="matrix(0.010850694444444444,0,0,0.010850694444444444,34.61371527777777,0)" xlink:href="#ao"/><use transform="matrix(0.010850694444444444,0,0,0.010850694444444444,48.448350694444436,0)" xlink:href="#u"/><use transform="matrix(0.010850694444444444,0,0,0.010850694444444444,61.68619791666666,0)" xlink:href="#D"/><use transform="matrix(0.010850694444444444,0,0,0.010850694444444444,70.73567708333333,0)" xlink:href="#x"/></g><path d="M456 442C197 442 73 327 25 209l155-84c33 60 86 160 280 160 184 0 332-89 363-272l37-218-16 4C793-134 707-18 498-18 260-18 96-170 96-443c0-341 216-689 568-689 222 0 274 139 301 198l21-5 30-179h175L999 35c-48 288-275 407-543 407zm75-620c274 0 401-267 401-512 0-170-80-281-247-281-260 0-408 269-408 518 0 167 83 275 254 275" id="ap"/><path d="M492 24C248 24 94-147 94-425c0-352 212-707 569-707 222 0 274 136 303 198h12l92-556h181L1004 0H829l30-173h-19C792-103 700 24 492 24zm32-161c268 0 407-295 407-549 0-175-80-285-247-285-266 0-408 283-408 536 0 174 79 298 248 298" id="aq"/><g id="o"><use transform="matrix(0.010850694444444444,0,0,0.010850694444444444,0,0)" xlink:href="#ah"/><use transform="matrix(0.010850694444444444,0,0,0.010850694444444444,11.71875,0)" xlink:href="#ak"/><use transform="matrix(0.010850694444444444,0,0,0.010850694444444444,17.11154513888889,0)" xlink:href="#ap"/><use transform="matrix(0.010850694444444444,0,0,0.010850694444444444,30.74001736111111,0)" xlink:href="#aj"/><use transform="matrix(0.010850694444444444,0,0,0.010850694444444444,43.88020833333333,0)" xlink:href="#ag"/><use transform="matrix(0.010850694444444444,0,0,0.010850694444444444,56.67317708333333,0)" xlink:href="#aq"/></g><path d="M443 14C219 14 87-123 134-408l117-710h180L317-423c-28 171 49 275 206 275s300-105 332-300l110-670h181L961 0H787l35-209C722-47 590 14 443 14" id="ar"/><path d="M65 0l186-1118h175l-31 195c80-148 212-215 337-215 153 0 236 96 255 228 75-143 223-228 382-228 199 0 341 131 298 390L1543 0h-181l126-756c27-162-65-218-177-218-160 0-274 111-297 250L894 0H714l128-773c21-127-57-201-174-201-136 0-277 97-307 277L245 0H65" id="as"/><g id="p"><use transform="matrix(0.010850694444444444,0,0,0.010850694444444444,0,0)" xlink:href="#aq"/><use transform="matrix(0.010850694444444444,0,0,0.010850694444444444,13.617621527777777,0)" xlink:href="#ad"/><use transform="matrix(0.010850694444444444,0,0,0.010850694444444444,26.953125,0)" xlink:href="#af"/><use transform="matrix(0.010850694444444444,0,0,0.010850694444444444,39.65928819444444,0)" xlink:href="#ar"/><use transform="matrix(0.010850694444444444,0,0,0.010850694444444444,52.81032986111111,0)" xlink:href="#as"/><use transform="matrix(0.010850694444444444,0,0,0.010850694444444444,72.27647569444444,0)" xlink:href="#ag"/><use transform="matrix(0.010850694444444444,0,0,0.010850694444444444,85.06944444444444,0)" xlink:href="#aj"/><use transform="matrix(0.010850694444444444,0,0,0.010850694444444444,98.20963541666666,0)" xlink:href="#ae"/></g></defs></g></svg>